<svg xmlns="http://www.w3.org/2000/svg" width="160" height="160" viewBox="0 0 160 160">
  <g id="row1-2" transform="translate(-365 -15793)">
    <circle id="Ellipse_69" data-name="Ellipse 69" cx="60" cy="60" r="60" transform="translate(385 15813)" fill="#fff"/>
    <g id="Ellipse_74" data-name="Ellipse 74" transform="translate(365 15793)" fill="none" stroke="#fff" stroke-width="2" stroke-dasharray="7">
      <circle cx="80" cy="80" r="80" stroke="none"/>
      <circle cx="80" cy="80" r="79" fill="none"/>
    </g>
    <path id="_01-02" data-name="01-02" d="M23,91.963a49.788,49.788,0,0,0,10.822,4.493,31.716,31.716,0,0,0,10.359,1.2A23.388,23.388,0,0,0,53.5,95.181c.476-.242.44-.387.067-.7A155.123,155.123,0,0,1,40.811,82.54a98.646,98.646,0,0,1-11.925-14.9c-.1-.156-.191-.318-.371-.618,6.81,5.543,13.25,11.3,20.785,15.618A141.131,141.131,0,0,1,35.053,64.095c1.063.912,2.126,1.828,3.191,2.737,6.566,5.593,13.172,11.138,20.139,16.233,1.034.757,2.109,1.458,3.153,2.2.3.21.449.169.614-.164a19.027,19.027,0,0,0,1.942-7.137c.474-6.481-1.639-12.253-4.867-17.718l-.66-1.1c-.007-.011,0-.031.013-.1a31.82,31.82,0,0,1,3.245,2.563A41.306,41.306,0,0,1,72.1,74.876a29.341,29.341,0,0,1,3.1,12.9,20.027,20.027,0,0,1-1.058,6.576.913.913,0,0,0,.248,1.065,14.224,14.224,0,0,1,3.63,12.707,1.137,1.137,0,0,1-.083.2c-.612-.508-1.184-1.027-1.8-1.486a14.455,14.455,0,0,0-5.227-2.847A5.077,5.077,0,0,0,66,105.147a15.2,15.2,0,0,1-7.039,3.3A28.152,28.152,0,0,1,42.791,107a43.649,43.649,0,0,1-10.943-6.346,41.421,41.421,0,0,1-7.44-6.856C23.922,93.2,23.469,92.576,23,91.963Z" transform="translate(394 15788.95)" fill="#ff3422"/>
  </g>
</svg>
