<svg xmlns="http://www.w3.org/2000/svg" xmlns:xlink="http://www.w3.org/1999/xlink" width="160" height="160" viewBox="0 0 160 160">
  <defs>
    <linearGradient id="linear-gradient" x1="0.549" y1="1.071" x2="0.469" y2="0.139" gradientUnits="objectBoundingBox">
      <stop offset="0" stop-color="#47bcd6"/>
      <stop offset="0.99" stop-color="#16dac6"/>
    </linearGradient>
    <linearGradient id="linear-gradient-2" x1="0.764" y1="3.214" x2="0.334" y2="-1.214" xlink:href="#linear-gradient"/>
  </defs>
  <g id="row2-1" transform="translate(-149 -15793)">
    <circle id="Ellipse_67" data-name="Ellipse 67" cx="60" cy="60" r="60" transform="translate(169 15813)" fill="#fff"/>
    <g id="Ellipse_68" data-name="Ellipse 68" transform="translate(149 15793)" fill="none" stroke="#fff" stroke-width="2" stroke-dasharray="7">
      <circle cx="80" cy="80" r="80" stroke="none"/>
      <circle cx="80" cy="80" r="79" fill="none"/>
    </g>
    <g id="Untitled-3-04" transform="translate(104.706 15718.507)">
      <path id="Path_82385" data-name="Path 82385" d="M107.223,170.761a30.932,30.932,0,0,1,.739-6.265c.092-.429,0-.606-.413-.739a29.639,29.639,0,0,1-5.846-2.508,14.216,14.216,0,0,1-3.912-3.123c-1.438-1.737-1.992-3.632-.982-5.777a8.775,8.775,0,0,1,2.579-3.038,25.19,25.19,0,0,1,8-4.035c.454-.153.636-.293.516-.832a28.817,28.817,0,0,1-.683-7.427A10.236,10.236,0,0,1,108.6,131.9c1.167-1.872,3.044-2.736,5.706-2.234a16.8,16.8,0,0,1,6.439,3A31.077,31.077,0,0,1,124,135.3c.285.261.441.243.711-.009a25.819,25.819,0,0,1,6.831-4.751,9.33,9.33,0,0,1,4.866-1.017,4.73,4.73,0,0,1,3.806,2.592,12.053,12.053,0,0,1,1.276,5.711,28.84,28.84,0,0,1-.739,6.682c-.08.384,0,.56.374.682a34.353,34.353,0,0,1,4.793,1.933,15.48,15.48,0,0,1,4.975,3.688,5.145,5.145,0,0,1,.022,7.31,15.328,15.328,0,0,1-5,3.718,30.452,30.452,0,0,1-4.706,1.895c-.4.125-.475.3-.388.7a33.59,33.59,0,0,1,.717,5.308,15.323,15.323,0,0,1-.657,5.784,5.269,5.269,0,0,1-3.541,3.722,6.789,6.789,0,0,1-3.912-.177,20.7,20.7,0,0,1-7.095-4.041,17.258,17.258,0,0,1-1.6-1.395.408.408,0,0,0-.667,0,27.2,27.2,0,0,1-4.939,3.778,13.642,13.642,0,0,1-5.035,1.993c-3.42.491-5.345-1.181-6.3-4.268A13.986,13.986,0,0,1,107.223,170.761Zm17.361-25.332c-1.7-.045-3.205.015-4.714.113a1.077,1.077,0,0,0-1.008.517c-.229.42-.534.827-.8,1.244a60.093,60.093,0,0,0-3.844,6.941.574.574,0,0,0-.024.526,62.827,62.827,0,0,0,4.839,8.391.536.536,0,0,0,.445.283c1.415.022,2.822.185,4.239.2,1.818.017,3.627-.121,5.44-.193a.7.7,0,0,0,.587-.377,60.811,60.811,0,0,0,4.651-8.125,1.1,1.1,0,0,0-.025-1.045,66.927,66.927,0,0,0-4.608-7.941.886.886,0,0,0-.763-.418C127.469,145.459,125.935,145.374,124.583,145.429Zm-14.775,25.354a9.625,9.625,0,0,0,.109,1.922,7.23,7.23,0,0,0,.86,2.946,2.52,2.52,0,0,0,2.471,1.278,8.965,8.965,0,0,0,2.277-.572,23.967,23.967,0,0,0,6.747-4.529c.277-.245.151-.421-.035-.609a51.258,51.258,0,0,1-4.229-5.058.8.8,0,0,0-.579-.328,62.733,62.733,0,0,1-6.455-1.1c-.343-.078-.474.045-.535.37A29.272,29.272,0,0,0,109.809,170.783Zm29.114-32.447a13.225,13.225,0,0,0-.21-2.773,8.2,8.2,0,0,0-.37-1.381,2.679,2.679,0,0,0-2.85-2.134,9.647,9.647,0,0,0-3.088.911,26.219,26.219,0,0,0-5.879,4.111c-.32.277-.277.451,0,.733a44.007,44.007,0,0,1,4.015,4.813,1.294,1.294,0,0,0,.988.574,52.787,52.787,0,0,1,6.047,1.017c.555.125.611.107.717-.447a29.42,29.42,0,0,0,.628-5.424ZM149.84,154.51a1.87,1.87,0,0,0-.217-.984,6.047,6.047,0,0,0-1.727-2.076,23.084,23.084,0,0,0-7.548-3.782c-.33-.106-.409.067-.479.311a50.272,50.272,0,0,1-2.234,6.106.889.889,0,0,0-.011.757,47.987,47.987,0,0,1,2.286,6.184c.092.311.239.383.542.267.7-.27,1.425-.493,2.126-.776a17.48,17.48,0,0,0,6.067-3.7,3.421,3.421,0,0,0,1.2-2.311Zm-38.633.012c-.034-.111-.056-.216-.1-.314a54.039,54.039,0,0,1-2.317-6.273c-.083-.288-.2-.34-.5-.244a26.153,26.153,0,0,0-6.078,2.753,8.83,8.83,0,0,0-2.865,2.634,2.36,2.36,0,0,0-.132,2.609,6.4,6.4,0,0,0,1.571,1.8,22.952,22.952,0,0,0,7.57,3.835c.272.092.387.006.462-.259a50.523,50.523,0,0,1,2.273-6.192,2.953,2.953,0,0,0,.109-.347Zm27.714,16.063a23.8,23.8,0,0,0-.626-5.539c-.065-.326-.171-.428-.524-.347a53.307,53.307,0,0,1-6.268,1.084,1.069,1.069,0,0,0-.826.424,46.609,46.609,0,0,1-4.061,4.893c-.382.4-.37.467.06.849a28.68,28.68,0,0,0,4.226,3.193,11.957,11.957,0,0,0,4.222,1.67,2.56,2.56,0,0,0,3.1-1.621,6.333,6.333,0,0,0,.34-.954A12.168,12.168,0,0,0,138.921,170.585Zm-29.114-32.036a22.9,22.9,0,0,0,.612,5.3c.082.413.266.482.647.392a51.762,51.762,0,0,1,6.18-1.057.937.937,0,0,0,.733-.324,50.592,50.592,0,0,1,4.177-5.04c.264-.277.277-.482-.038-.755a33.729,33.729,0,0,0-3.923-3,13.021,13.021,0,0,0-4.425-1.892,3.787,3.787,0,0,0-1.422-.015,2.613,2.613,0,0,0-1.976,1.929,11.652,11.652,0,0,0-.569,4.459Zm17.621,4.263a41.048,41.048,0,0,0-2.932-3.371c-.2-.2-.3-.036-.411.079a36.718,36.718,0,0,0-2.566,2.965c-.064.08-.168.169-.114.283s.191.073.293.071c.969-.012,1.941-.025,2.906-.048.9-.021,1.8.108,2.819.02ZM122,166.121c-.2.054-.49-.108-.585.1-.07.156.185.324.3.48.71.932,1.537,1.762,2.287,2.657.221.264.4.378.694.055.815-.9,1.624-1.807,2.375-2.763.109-.139.337-.266.246-.452-.075-.154-.312-.079-.472-.068A30.964,30.964,0,0,1,122,166.121Zm-6.285-19.945c.01-.222-.129-.173-.248-.152-1.3.23-2.6.434-3.882.756-.322.08-.395.211-.3.512q.6,1.889,1.306,3.74c.031.082.043.2.158.2s.131-.115.171-.194c.8-1.611,1.731-3.142,2.68-4.672Zm20.283,11.542c-.057.045-.1.066-.122.1-.841,1.664-1.789,3.262-2.778,4.839-.049.078-.127.164-.067.251.077.113.2.041.3.025,1.277-.2,2.544-.446,3.805-.733.363-.082.407-.23.3-.543-.294-.842-.555-1.7-.861-2.533A6.446,6.446,0,0,0,135.994,157.718Zm-20.553,5.237c.092.024.2.054.255-.032.071-.11-.027-.2-.083-.289q-1.44-2.252-2.7-4.612c-.042-.078-.061-.195-.175-.185s-.124.118-.157.2c-.489,1.229-.9,2.484-1.287,3.748-.066.216-.04.336.213.4C112.81,162.489,114.123,162.732,115.441,162.955Zm17.888-16.9c-.192-.043-.288-.066-.324.013-.06.134.057.228.12.328.93,1.467,1.829,2.951,2.617,4.5.052.1.067.269.223.257.124-.01.129-.158.168-.252.5-1.209.869-2.463,1.286-3.7.077-.227.006-.342-.226-.4C135.883,146.472,134.551,146.247,133.329,146.056Z" transform="translate(0 0)" fill="url(#linear-gradient)"/>
      <path id="Path_82386" data-name="Path 82386" d="M353.675,348.265a5.25,5.25,0,0,1-5.22,5.245,5.26,5.26,0,0,1-.026-10.521,5.25,5.25,0,0,1,5.246,5.276Z" transform="translate(-224.091 -193.764)" fill="url(#linear-gradient-2)"/>
    </g>
  </g>
</svg>
