<svg xmlns="http://www.w3.org/2000/svg" xmlns:xlink="http://www.w3.org/1999/xlink" width="160" height="160" viewBox="0 0 160 160">
  <defs>
    <linearGradient id="linear-gradient" x1="0.577" y1="0.02" x2="0.577" y2="0.945" gradientUnits="objectBoundingBox">
      <stop offset="0" stop-color="#97d9f6"/>
      <stop offset="0.92" stop-color="#0f80cc"/>
      <stop offset="1" stop-color="#0f80cc"/>
    </linearGradient>
  </defs>
  <g id="row3-5" transform="translate(-2479 -15584)">
    <circle id="Ellipse_64" data-name="Ellipse 64" cx="60" cy="60" r="60" transform="translate(2499 15604)" fill="#fff"/>
    <g id="Ellipse_63" data-name="Ellipse 63" transform="translate(2479 15584)" fill="none" stroke="#fff" stroke-width="2" stroke-dasharray="7">
      <circle cx="80" cy="80" r="80" stroke="none"/>
      <circle cx="80" cy="80" r="79" fill="none"/>
    </g>
    <g id="sqlite-1" transform="translate(2536.338 15639)">
      <path id="Path_82291" data-name="Path 82291" d="M35.476.316H4.155A3.819,3.819,0,0,0,.347,4.124V38.667a3.819,3.819,0,0,0,3.808,3.808H24.792C24.563,32.209,28.066,12.288,35.484.286Z" transform="translate(0 1.891)" fill="#0f80cc"/>
      <path id="Path_82292" data-name="Path 82292" d="M33.374.437H3.2a2.711,2.711,0,0,0-2.7,2.7V35.162c6.838-2.627,17.1-4.889,24.194-4.782A220.307,220.307,0,0,1,33.382.437Z" transform="translate(0.959 2.89)" fill="url(#linear-gradient)"/>
      <path id="Path_82293" data-name="Path 82293" d="M23.388,1.08c-2.147-1.9-4.744-1.142-7.311,1.127L14.935,3.319C10.549,7.964,6.559,16.585,5.218,23.172a18.124,18.124,0,0,1,1.127,3.244l.168.762.168.777s-.038-.152-.2-.609l-.107-.3q-.032-.085-.069-.168-.655-1.37-1.424-2.681-.416,1.215-.784,2.444a21.61,21.61,0,0,1,1.614,5s-.053-.206-.3-.914c-.228-.632-1.34-2.589-1.6-3.046-.457,1.675-.632,2.8-.472,3.077a13.056,13.056,0,0,1,.876,2.467q.617,2.512,1.005,5.072l.038.472a46.529,46.529,0,0,0,.114,5.711A20.326,20.326,0,0,0,6.414,50l.32-.175a25.014,25.014,0,0,1-.853-8.255A62.855,62.855,0,0,1,9.338,24.3c3.6-9.542,8.567-17.142,13.121-20.767C18.309,7.279,12.7,19.4,11.021,23.888A81.828,81.828,0,0,0,7,38.151c1.386-4.234,5.864-6.062,5.864-6.062s2.208-2.711,4.767-6.587l-4.912,1.31-1.584.7a42.621,42.621,0,0,1,7.516-3.579c4.775-7.516,9.976-18.2,4.737-22.861" transform="translate(19.398 0)" fill="#003b57"/>
    </g>
  </g>
</svg>
