<svg xmlns="http://www.w3.org/2000/svg" xmlns:xlink="http://www.w3.org/1999/xlink" width="160" height="160" viewBox="0 0 160 160">
  <defs>
    <filter id="Path_82304">
      <feOffset input="SourceAlpha"/>
      <feGaussianBlur stdDeviation="17.5" result="blur"/>
      <feFlood flood-opacity="0.059" result="color"/>
      <feComposite operator="out" in="SourceGraphic" in2="blur"/>
      <feComposite operator="in" in="color"/>
      <feComposite operator="in" in2="SourceGraphic"/>
    </filter>
    <filter id="Path_82307">
      <feOffset dx="1" dy="-9" input="SourceAlpha"/>
      <feGaussianBlur stdDeviation="3.5" result="blur-2"/>
      <feFlood flood-opacity="0.09" result="color-2"/>
      <feComposite operator="out" in="SourceGraphic" in2="blur-2"/>
      <feComposite operator="in" in="color-2"/>
      <feComposite operator="in" in2="SourceGraphic"/>
    </filter>
  </defs>
  <g id="row3-3" transform="translate(-1213 -15793)">
    <circle id="Ellipse_72" data-name="Ellipse 72" cx="60" cy="60" r="60" transform="translate(1233 15813)" fill="#fff"/>
    <g id="Ellipse_77" data-name="Ellipse 77" transform="translate(1213 15793)" fill="none" stroke="#fff" stroke-width="2" stroke-dasharray="7">
      <circle cx="80" cy="80" r="80" stroke="none"/>
      <circle cx="80" cy="80" r="79" fill="none"/>
    </g>
    <g id="firebase-1" transform="translate(1275 15848)">
      <path id="Path_82302" data-name="Path 82302" d="M0,40.358l.3-.424L14.621,12.765l.03-.288L8.34.622a1.171,1.171,0,0,0-2.191.37Z" fill="#ffc24a"/>
      <path id="Path_82303" data-name="Path 82303" d="M1.253,41.151l.229-.447L15.651,13.82l-6.3-11.9a1.064,1.064,0,0,0-2.024.368Z" transform="translate(-1.074 -1.116)" fill="#ffa712"/>
      <g transform="matrix(1, 0, 0, 1, -62, -55)" filter="url(#Path_82304)">
        <path id="Path_82304-2" data-name="Path 82304" d="M1.253,41.151l.229-.447L15.651,13.82l-6.3-11.9a1.064,1.064,0,0,0-2.024.368Z" transform="translate(60.93 53.88)" fill="#fff"/>
      </g>
      <path id="Path_82305" data-name="Path 82305" d="M107.067,63.651l4.7-4.813-4.7-8.974a1.211,1.211,0,0,0-2.134,0l-2.512,4.79v.408l4.647,8.59Z" transform="translate(-87.814 -42.205)" fill="#f4bd62"/>
      <path id="Path_82306" data-name="Path 82306" d="M107.257,64.542l4.569-4.679-4.569-8.7a1.052,1.052,0,0,0-1.917-.084l-2.525,4.864-.076.249Z" transform="translate(-88.087 -43.297)" fill="#ffa50e"/>
      <g transform="matrix(1, 0, 0, 1, -62, -55)" filter="url(#Path_82307)">
        <path id="Path_82307-2" data-name="Path 82307" d="M107.257,64.542l4.569-4.679-4.569-8.7a1.052,1.052,0,0,0-1.917-.084l-2.525,4.864-.076.249Z" transform="translate(-26.09 11.7)" fill="#fff"/>
      </g>
      <path id="Path_82308" data-name="Path 82308" d="M0,115.041l.137-.138.5-.2L18.958,96.447l.232-.632-4.571-8.71Z" transform="translate(0 -74.683)" fill="#f6820c"/>
      <path id="Path_82309" data-name="Path 82309" d="M19.84,110.892l16.582-9.248L31.687,72.481a1.133,1.133,0,0,0-1.921-.619L0,101.686l16.487,9.205a3.441,3.441,0,0,0,3.353,0" transform="translate(0 -61.328)" fill="#fde068"/>
      <path id="Path_82310" data-name="Path 82310" d="M37.379,102.4l-4.7-28.942a1,1,0,0,0-1.726-.631L1.29,102.465,17.6,111.579a3.415,3.415,0,0,0,3.328,0L37.38,102.4Z" transform="translate(-1.106 -62.164)" fill="#fcca3f"/>
      <path id="Path_82311" data-name="Path 82311" d="M19.841,290.177a3.44,3.44,0,0,1-3.353,0L.134,281.1l-.133.14,16.487,9.205a3.44,3.44,0,0,0,3.353,0L36.423,281.2l-.041-.25-16.541,9.225Z" transform="translate(-0.001 -240.885)" fill="#eeab37"/>
    </g>
  </g>
</svg>
