<svg xmlns="http://www.w3.org/2000/svg" width="160" height="160" viewBox="0 0 160 160">
  <g id="row4-4" transform="translate(-2479 -15793)">
    <circle id="Ellipse_81" data-name="Ellipse 81" cx="60" cy="60" r="60" transform="translate(2499 15813)" fill="#fff"/>
    <g id="Ellipse_85" data-name="Ellipse 85" transform="translate(2479 15793)" fill="none" stroke="#fff" stroke-width="2" stroke-dasharray="7">
      <circle cx="80" cy="80" r="80" stroke="none"/>
      <circle cx="80" cy="80" r="79" fill="none"/>
    </g>
    <g id="_01-04" data-name="01-04" transform="translate(2388.55 15742.27)">
      <path id="Path_82316" data-name="Path 82316" d="M401.38,105.733a10.828,10.828,0,0,1-2.963,8.717,9.454,9.454,0,0,1-6.627,3.3c-.4.024-.528-.092-.561-.491a9.928,9.928,0,0,1,2.091-6.786,11.756,11.756,0,0,1,6.967-4.588c.234-.057.494.01.7-.154Z" transform="translate(-221.21 0)"/>
      <path id="Path_82317" data-name="Path 82317" d="M149.45,258.62a17.132,17.132,0,0,1,1.491-7.306,13.924,13.924,0,0,1,5.727-6.151A10.486,10.486,0,0,1,163.4,243.7a20.1,20.1,0,0,1,4.175,1.136,15.7,15.7,0,0,0,3.143.843,8.96,8.96,0,0,0,4.469-.737,18.444,18.444,0,0,1,4.493-1.249,11.3,11.3,0,0,1,8.043,2.178,14.654,14.654,0,0,1,2.655,2.432c.244.282.293.4-.077.621a10.533,10.533,0,0,0-5.108,7.48,11.1,11.1,0,0,0,6.41,11.937c.459.2.5.354.3.8a39.322,39.322,0,0,1-5.527,8.986,14.257,14.257,0,0,1-2.454,2.367,6.207,6.207,0,0,1-6.834.668,13.3,13.3,0,0,0-3.437-1.21,10.962,10.962,0,0,0-6.074.653,16.823,16.823,0,0,1-3.242,1.189,6.353,6.353,0,0,1-5.158-1.37,20.234,20.234,0,0,1-4.538-5.254,31.577,31.577,0,0,1-4.882-12.476A26.521,26.521,0,0,1,149.45,258.62Z" transform="translate(0 -126.17)"/>
    </g>
  </g>
</svg>
