<svg xmlns="http://www.w3.org/2000/svg" width="160" height="160" viewBox="0 0 160 160">
  <g id="row4-2" transform="translate(-365 -15584)">
    <circle id="Ellipse_48" data-name="Ellipse 48" cx="60" cy="60" r="60" transform="translate(385 15604)" fill="#fff"/>
    <g id="Ellipse_47" data-name="Ellipse 47" transform="translate(365 15584)" fill="none" stroke="#fff" stroke-width="2" stroke-dasharray="7">
      <circle cx="80" cy="80" r="80" stroke="none"/>
      <circle cx="80" cy="80" r="79" fill="none"/>
    </g>
    <g id="mongodb-icon-1" transform="translate(424.958 15639)">
      <path id="Path_82288" data-name="Path 82288" d="M15.914.087l1.334,2.506a7.488,7.488,0,0,0,1.008,1.253,35.006,35.006,0,0,1,3.131,3.54,30.767,30.767,0,0,1,4.875,9.831A24.173,24.173,0,0,1,27.3,23.888a23.543,23.543,0,0,1-6.874,17.374,19.842,19.842,0,0,1-2.453,2.1c-.462,0-.681-.355-.872-.681a5.607,5.607,0,0,1-.681-1.961,9.474,9.474,0,0,1-.219-2.478v-.381c-.037-.081-.445-37.578-.283-37.771Z" transform="translate(3.972 0.049)" fill="#599636"/>
      <path id="Path_82289" data-name="Path 82289" d="M19.886.053c-.055-.109-.109-.027-.164.027a2.518,2.518,0,0,1-.462,1.5,7.186,7.186,0,0,1-1.2,1.2,26.1,26.1,0,0,0-5.854,7.462,29.975,29.975,0,0,0-3.375,12.2,40.59,40.59,0,0,0,.98,8.606A26.088,26.088,0,0,0,16.647,41.8a29.87,29.87,0,0,0,2.422,2.07c.245,0,.272-.219.328-.381a7.468,7.468,0,0,0,.245-1.062l.547-4.084Z" transform="translate(0 0)" fill="#6cac48"/>
      <path id="Path_82290" data-name="Path 82290" d="M17.528,31.54a3.728,3.728,0,0,1,.681-1.661,1.719,1.719,0,0,1-.762-.708,5.054,5.054,0,0,1-.406-.9,15.549,15.549,0,0,1-.572-3.512v-.708a3.4,3.4,0,0,0-.164,1.172,27.138,27.138,0,0,1-.491,3.676,3.271,3.271,0,0,1-.437,1.416.542.542,0,0,0,.027.191,16.261,16.261,0,0,1,.708,4.412v.547c0,.653-.027.516.516.734a2.388,2.388,0,0,1,.681.272c.164,0,.191-.136.191-.245l-.081-.9V32.823a6.626,6.626,0,0,1,.109-1.281Z" transform="translate(3.692 13.527)" fill="#c2bfbf"/>
    </g>
  </g>
</svg>
