<?xml version="1.0" encoding="UTF-8"?>
<svg id="Layer_2" data-name="Layer 2" xmlns="http://www.w3.org/2000/svg" xmlns:xlink="http://www.w3.org/1999/xlink" viewBox="0 0 94.06 25.69">
  <defs>
    <style>
      .cls-1 {
        fill: #fff;
      }

      .cls-2 {
        fill: url(#linear-gradient);
      }
    </style>
    <linearGradient id="linear-gradient" x1="0" y1="12.84" x2="24.67" y2="12.84" gradientUnits="userSpaceOnUse">
      <stop offset="0" stop-color="#5472b6"/>
      <stop offset=".5" stop-color="#d04d9b"/>
      <stop offset="1" stop-color="#ed3255"/>
    </linearGradient>
  </defs>
  <g id="Layer_1-2" data-name="Layer 1">
    <g>
      <path id="Path_19-2" data-name="Path 19-2" class="cls-1" d="M29.89,18.28h7.09c1.82,0,3.47-1.42,3.47-3.16-.04-1.1-.65-2.1-1.61-2.63,.61-.55,.97-1.32,.98-2.14,0-1.74-1.67-3.16-3.49-3.16h-6.44v11.09Zm7.56-7.79c0,.65-.54,1.18-1.19,1.18h-3.16v2.14h3.79c.66,0,1.2,.52,1.21,1.18,0,.66-.55,1.19-1.21,1.18,0,0,0,0,0,0h-4.63v-6.84h4c.65,0,1.18,.52,1.19,1.18Zm3.93,7.79h2.37V9.67h-2.37v8.61Zm0-9.39h2.37v-1.7h-2.37v1.7Zm3.53,5.81c0,2.39,1.81,3.58,4.18,3.58h2.6v-2.12h-2.6c-1.19,0-1.81-.25-1.81-1.46v-2.91h4.4v-2.12h-4.4v-2.47h-2.37v7.51Zm11.46-1.77c-.51-.28-1.54-.77-1.54-1.02,0-.12,.14-.12,.32-.12h3.79v-2.12h-3.79c-1.86,0-2.7,1.25-2.7,2.42,0,1.46,1.52,2.19,2.82,2.93,.51,.28,1.56,.75,1.56,1,0,.12-.14,.14-.32,.14h-4.07v2.12h4.07c1.84,0,2.7-1.26,2.7-2.42,0-1.47-1.53-2.21-2.84-2.93Zm3.74-5.74v7.14c.04,2.34,1.97,4.2,4.31,4.16,0,0,0,0,0,0,1.18,0,2.31-.47,3.14-1.3,.83,.83,1.96,1.3,3.14,1.3,2.34,.04,4.27-1.82,4.31-4.16,0,0,0,0,0,0V7.2h-2.37v7.14c.06,1.06-.74,1.97-1.8,2.03-.05,0-.1,0-.14,0-1.06,.02-1.93-.83-1.95-1.89,0-.05,0-.1,0-.14V7.2h-2.37v7.14c.05,1.07-.77,1.98-1.83,2.03-.04,0-.09,0-.13,0-1.07,0-1.94-.85-1.95-1.91,0-.04,0-.08,0-.12V7.2h-2.37Zm16.14,11.09h2.37V9.67h-2.37v8.61Zm0-9.39h2.37v-1.7h-2.37v1.7Zm3.53,5.81c0,2.39,1.81,3.58,4.18,3.58h2.6v-2.12h-2.6c-1.19,0-1.81-.25-1.81-1.46v-2.91h4.4v-2.12h-4.4v-2.47h-2.37v7.51Zm11.45-1.77c-.51-.28-1.54-.77-1.54-1.02,0-.12,.14-.12,.32-.12h3.79v-2.12h-3.79c-1.86,0-2.7,1.25-2.7,2.42,0,1.46,1.52,2.19,2.82,2.93,.51,.28,1.56,.75,1.56,1,0,.12-.14,.14-.32,.14h-4.07v2.12h4.07c1.84,0,2.7-1.26,2.7-2.42,0-1.47-1.53-2.21-2.84-2.93h0Z"/>
      <g>
        <path id="Path_1" data-name="Path 1" class="cls-1" d="M24.67,2.28V23.43c0,1.25-1.01,2.26-2.26,2.26H2.26C1.01,25.69,0,24.68,0,23.43V2.28C0,1.03,1.01,.02,2.26,.02H22.41c1.25,0,2.26,1.01,2.26,2.26Z"/>
        <path id="Path_2" data-name="Path 2" class="cls-2" d="M24.67,11.28v9.97l-5.57,4.44H7.78L0,15.92v-3.38l3.78-3.01L.32,5.19,6.8,.02l.02-.02,.02,.02,3.44,4.32L15.71,.02l8.97,11.26Z"/>
        <g id="text3005">
          <path id="path3788" class="cls-1" d="M20.95,15.05c-.11-.53-.35-1.03-.7-1.45-.44-.56-1.06-.95-1.76-1.09-.54-.1-1.11-.05-1.62,.16l-.49,.2c.27-.5,.4-1.06,.37-1.63-.04-.55-.25-1.08-.6-1.5-.29-.37-.67-.66-1.1-.84-.44-.17-.93-.21-1.39-.1-.47,.1-.91,.27-1.32,.5-.6,.38-1.18,.8-1.73,1.26l-3.67,2.93,7.54,9.46,4.13-3.29c.58-.44,1.1-.96,1.56-1.53,.35-.47,.61-1.01,.76-1.58,.13-.49,.14-1,.04-1.5Zm-8.62,.24l-1.6-2,.23-.18c.48-.38,.85-.67,1.12-.87,.23-.18,.48-.33,.75-.42,.22-.08,.47-.08,.69,.02,.19,.08,.36,.21,.49,.37,.15,.18,.26,.39,.33,.62,.05,.25,0,.5-.13,.72-.14,.24-.32,.46-.54,.64-.26,.23-.58,.5-.97,.8l-.38,.3Zm5.52,1.85c-.17,.32-.41,.59-.69,.82-.29,.24-.78,.63-1.47,1.18l-.18,.14-1.88-2.36,.53-.43c.36-.29,.71-.56,1.05-.83,.26-.22,.55-.4,.86-.54,.27-.14,.59-.17,.88-.1,.3,.1,.55,.29,.73,.55,.17,.21,.29,.46,.34,.73,.04,.29-.03,.59-.19,.83h0Z"/>
        </g>
      </g>
    </g>
  </g>
</svg>