<svg xmlns="http://www.w3.org/2000/svg" width="181.228" height="49.248" viewBox="0 0 181.228 49.248">
  <g id="_1" data-name="1" transform="translate(0 0.003)">
    <g id="Layer_1" data-name="Layer 1" transform="translate(0 -0.003)">
      <g id="Group_52997" data-name="Group 52997" transform="translate(0 40.248)">
        <text id="AMERICA_S_FASTEST_GROWING_PRIVATE_COMPANIES_" data-name="AMERICA’S FASTEST GROWING PRIVATE COMPANIES " transform="translate(0 7)" font-size="7" font-family="Poppins-Medium, Poppins" font-weight="500"><tspan x="0" y="0">AMERICA’S FASTEST GROWING PRIVATE COMPANIES </tspan></text>
      </g>
      <path id="Path_82573" data-name="Path 82573" d="M130.067.724h10.521c.446,0,.613.1.525.565-.1.621-.151,1.241-.215,1.87,0,.127-.135.294.056.374s.207-.1.294-.183c4.178-4.258,12.081-4.146,16-1.425a11.381,11.381,0,0,1,2.984,2.968c.167.239.263.366.493.056,2.73-3.653,6.5-4.966,10.911-4.775a11.882,11.882,0,0,1,7.091,2.387,10.711,10.711,0,0,1,2.316,2.515c.207.31.318.35.565,0a11.867,11.867,0,0,1,9.916-4.95,13.028,13.028,0,0,1,6.637,1.417,11.269,11.269,0,0,1,5.3,6.3,21.416,21.416,0,0,1,0,15.073,12.089,12.089,0,0,1-6.637,7.417c-4.441,1.918-10.664,1.536-14.492-2.618a14.325,14.325,0,0,1-1.106-1.385c-.215-.3-.326-.287-.525,0-3.979,5.754-11.874,6.16-16.545,3.565a11.142,11.142,0,0,1-3.82-3.462c-.223-.318-.334-.326-.573,0-2.865,3.828-6.8,5.149-11.412,4.815a11.341,11.341,0,0,1-8.3-4.258c-.175-.215-.286-.271-.493,0a11.563,11.563,0,0,1-7.767,4.043,20.3,20.3,0,0,1-8.667-.477,9.777,9.777,0,0,1-7.162-7.489c-.088-.382-.167-.8-.286-1.146s0-.47.342-.509c2.69-.263,5.38-.549,8.062-.844.318,0,.414.056.406.366a5.316,5.316,0,0,0,.326,2.053,3.39,3.39,0,0,0,2.515,2.133c3.287.8,5.9-1.592,5.571-5-.342-3.9-3.526-4.648-6.128-4.019a2.865,2.865,0,0,0-1.8,1.273.8.8,0,0,1-.939.382q-3.183-.414-6.367-.8c-.43-.048-.517-.2-.47-.613.517-4.958,1.011-9.924,1.52-14.882.1-.931,0-.8.844-.8ZM145.689,16.21v2.571a13.855,13.855,0,0,0,.326,2.555,5.651,5.651,0,0,0,1.353,2.754,3.366,3.366,0,0,0,5.2-.279,7.162,7.162,0,0,0,1.2-2.9,32.765,32.765,0,0,0,.159-9.821,8.244,8.244,0,0,0-.8-3.1,3.327,3.327,0,0,0-2.984-2.061,3.573,3.573,0,0,0-3.183,1.934,6.367,6.367,0,0,0-.8,2.109,28.186,28.186,0,0,0-.477,6.231Zm50.273-.852a38.712,38.712,0,0,0-.342-4.7,8.181,8.181,0,0,0-.8-2.658,3.342,3.342,0,0,0-5.5-.836A5.085,5.085,0,0,0,188,9.812a33.807,33.807,0,0,0-.358,10.879,6.024,6.024,0,0,0,1.417,3.414,3.366,3.366,0,0,0,5.237-.175,5.762,5.762,0,0,0,.987-2.005,22.085,22.085,0,0,0,.676-6.566Zm-20.954,0c-.072-1.194-.1-2.387-.215-3.581a9.829,9.829,0,0,0-.947-3.82,3.327,3.327,0,0,0-5.523-.8,5.348,5.348,0,0,0-1.329,2.762,34.22,34.22,0,0,0-.279,11.038,5.754,5.754,0,0,0,1.345,3.1,3.358,3.358,0,0,0,5.3-.167,6.033,6.033,0,0,0,.963-1.966,23.533,23.533,0,0,0,.684-6.574Zm-43.023-8.42H125.77c-.263,0-.517,0-.549.342-.111,1.17-.231,2.34-.35,3.518,0,.255.064.334.3.2a4.162,4.162,0,0,1,.621-.318,14.182,14.182,0,0,1,10.895.573c.406.2.509.127.6-.286a14.81,14.81,0,0,1,1.194-3.6c.207-.43,0-.43-.326-.43Z" transform="translate(-23.609 0.003)"/>
      <path id="Path_82574" data-name="Path 82574" d="M35.2,32.906H27.946c-.581,0-.8-.159-.748-.756.04-1.647.04-3.3,0-4.95,0-.6.191-.8.8-.74a14.4,14.4,0,0,0,1.552,0c.517,0,.6-.175.6-.613V17.339c0-.422-.159-.573-.565-.565h-1.7c-.565,0-.661-.119-.653-.621V10.973c0-.541.2-.653.7-.653H39.247c.533,0,.684.175.661.684v3.1c0,.143-.064.318.119.382s.255-.1.35-.2c3.533-4.13,8.046-4.393,12.845-3.072,2.913.8,4.536,3.287,4.56,6.534v7.911c0,.573.151.836.748.8a8.555,8.555,0,0,1,1.106,0c.485,0,.661-.072.493-.629-2.093-6.709.987-12.51,7.735-14.492a18.487,18.487,0,0,1,11.293,0,9.407,9.407,0,0,1,6.709,7.887c.1.565-.1.684-.589.732l-7.425.8c-.414.048-.589-.056-.6-.485a7.2,7.2,0,0,0-.5-2.244,2.96,2.96,0,0,0-2.841-2.1,3.462,3.462,0,0,0-3.541,1.791,5.34,5.34,0,0,0-.581,1.9,21.488,21.488,0,0,0,0,4.775c.35,2.945,2.69,4.409,5.428,3.39a2.976,2.976,0,0,0,2.077-2.555c.056-.525.247-.645.732-.645h6.956c1.114,0,1.114,0,.844,1.13a8.913,8.913,0,0,1-6.653,6.948,19.1,19.1,0,0,1-13.927-1.106,9.916,9.916,0,0,1-4.5-4.234c-.08-.135-.127-.374-.35-.294s-.1.294-.1.454v4.735c0,.533-.175.676-.676.668H45.28c-.541,0-.668-.191-.661-.692,0-1.671.04-3.35,0-5.022,0-.629.215-.8.8-.732a13.261,13.261,0,0,0,1.592,0c.509,0,.6-.175.6-.621V19.528a2.706,2.706,0,0,0-2.459-2.7,4.091,4.091,0,0,0-4.982,3.939c-.088,1.7,0,3.406,0,5.1,0,.43.183.565.581.557h1.926c.438,0,.613.135.6.6v5.245c0,.533-.223.6-.669.6Z" transform="translate(-5.552 -2.105)"/>
      <path id="Path_82575" data-name="Path 82575" d="M10.364,1.791h9.462c.557,0,.8.111.8.74-.048,1.8-.04,3.6,0,5.4,0,.557-.175.732-.724.7-.8-.04-1.592,0-2.387,0-.613,0-.8.167-.8.8V23.247c0,1.52,0,1.52,1.536,1.52h1.775c.414,0,.557.159.557.573v5.324c0,.661-.414.533-.8.533H1.976C.1,31.165.1,31.157.1,29.279V25.364c0-.454.135-.613.589-.6H3.273c.485,0,.645-.167.645-.645V9.264c0-.517-.167-.7-.684-.676H.647c-.422,0-.557-.151-.557-.565V2.261c0-.565.334-.5.676-.5Z" transform="translate(-0.018 -0.356)"/>
      <path id="Path_82576" data-name="Path 82576" d="M100.23,33.333a3.613,3.613,0,1,1,1.061,2.582A3.613,3.613,0,0,1,100.23,33.333Z" transform="translate(-20.464 -6.057)"/>
    </g>
  </g>
</svg>
