<svg xmlns="http://www.w3.org/2000/svg" width="192" height="59.214" viewBox="0 0 192 59.214">
  <g id="appfutura-01" transform="translate(-16.735 -32.28)">
    <g id="Group_52992" data-name="Group 52992" transform="translate(16.952 32.28)">
      <path id="Path_82527" data-name="Path 82527" d="M240.466,60.568c-.572.875-1.237,1.548-2.423,1.3-.412-.084-.825-.2-.984-.606-.32-.782-.782-.555-1.321-.278a8.457,8.457,0,0,1-7.379.286,7.991,7.991,0,0,1-5.233-7.631c-.025-1.144.034-2.289-.017-3.433A8.561,8.561,0,0,1,234,41.8a8.947,8.947,0,0,1,2.061.825.575.575,0,0,0,.858-.177c1-1.3,2.314-1.22,3.256.135.084.126.194.244.286.362Q240.466,51.751,240.466,60.568ZM236.672,51.6h-.034c0-.648.025-1.3,0-1.944a4.91,4.91,0,0,0-9.693-.7,23.209,23.209,0,0,0-.1,4.712,4.788,4.788,0,0,0,4.973,4.695,4.86,4.86,0,0,0,4.863-4.636C236.7,53.021,236.672,52.306,236.672,51.6Z" transform="translate(-49.687 -33.745)"/>
      <path id="Path_82528" data-name="Path 82528" d="M32.766,35.517c3.727,0,7.446.059,11.173-.017a4.265,4.265,0,0,1,4.577,4.535c-.093,7.2-.025,14.4-.034,21.606,0,2.76-1.624,4.375-4.409,4.375q-11.131.013-22.254,0c-2.667-.008-4.131-1.018-4.695-3.2A4.009,4.009,0,0,1,17,61.725q-.013-10.993,0-21.977a4.089,4.089,0,0,1,4.224-4.224C25.068,35.5,28.913,35.517,32.766,35.517Zm9.474,22.2a2.4,2.4,0,0,0-.076-.37,15.628,15.628,0,0,0-1.4-2.617Q37.5,48.894,34.2,43.1c-.7-1.237-1.767-1.245-2.5-.042s-1.464,2.44-2.2,3.66q-2.966,4.985-5.915,9.97a1.731,1.731,0,0,0,.118,2.23c.648.715,1.346.379,2.028,0,2.053-1.153,4.123-2.272,6.159-3.466a1.556,1.556,0,0,1,1.792-.034c2.112,1.245,4.241,2.448,6.378,3.643A1.4,1.4,0,0,0,42.24,57.712Z" transform="translate(-16.993 -32.79)"/>
      <path id="Path_82529" data-name="Path 82529" d="M88.787,55.7V43.822c0-1.548.833-2.415,2.146-2.272a1.41,1.41,0,0,1,1.245.7c.286.6.581.589,1.136.294a8.825,8.825,0,0,1,11.14,2.381,7.645,7.645,0,0,1,1.649,4.737c.034,1.573.05,3.155-.05,4.729a8.383,8.383,0,0,1-7.732,7.6,9.033,9.033,0,0,1-4.964-.951c-.639-.345-.8-.194-.8.48.017,2.137.025,4.266-.008,6.4a1.872,1.872,0,0,1-2.465,1.868c-.867-.244-1.3-.9-1.3-2.1q-.013-5.982-.008-11.973Zm13.555-3.879h0c-.008-.682.017-1.363-.008-2.045a4.8,4.8,0,0,0-4.964-4.611,4.741,4.741,0,0,0-4.787,4.678c-.025,1.27-.017,2.533,0,3.8a4.753,4.753,0,0,0,4.863,4.7,4.81,4.81,0,0,0,4.9-4.686C102.35,53.061,102.341,52.446,102.341,51.824Z" transform="translate(-28.378 -33.742)"/>
      <path id="Path_82530" data-name="Path 82530" d="M112.2,55.644V43.773c0-1.2.37-1.817,1.27-2.129a1.793,1.793,0,0,1,2.28.883c.362.522.631.168.926.017a8.973,8.973,0,0,1,7.572-.379A8.13,8.13,0,0,1,129.49,49.8a30.766,30.766,0,0,1-.1,5.284,8.683,8.683,0,0,1-12.419,6.066c-.993-.48-1-.48-1.01.606-.008,1.977,0,3.954-.008,5.94-.008,1.405-.673,2.162-1.859,2.162s-1.868-.774-1.893-2.146V55.644ZM125.746,51.8h0c-.008-.74.034-1.481-.008-2.221a4.788,4.788,0,0,0-4.787-4.392,4.733,4.733,0,0,0-4.922,4.114,34.022,34.022,0,0,0-.042,4.442,4.746,4.746,0,0,0,4.821,4.636,4.812,4.812,0,0,0,4.947-4.628C125.763,53.1,125.746,52.447,125.746,51.8Z" transform="translate(-32.095 -33.743)"/>
      <path id="Path_82531" data-name="Path 82531" d="M82.242,51.763v8.069a1.905,1.905,0,0,1-1.3,2.028,1.8,1.8,0,0,1-2.28-.883c-.362-.547-.631-.16-.917-.017a8.631,8.631,0,0,1-7.64.32,7.967,7.967,0,0,1-5.174-7.673c-.008-1.456-.067-2.911.017-4.358.294-4.8,4.552-8.2,9.558-7.707a8.726,8.726,0,0,1,3.357,1.035c.32.177.547.3.825-.135a1.791,1.791,0,0,1,2.221-.841,1.882,1.882,0,0,1,1.321,2Q82.246,47.678,82.242,51.763Zm-3.795-.042h0c-.008-.648,0-1.3-.008-1.952a4.88,4.88,0,0,0-9.743-.084c-.042,1.329-.034,2.659-.008,3.988a4.886,4.886,0,0,0,9.76-.017C78.456,53.017,78.447,52.369,78.447,51.721Z" transform="translate(-24.593 -33.741)"/>
      <path id="Path_82532" data-name="Path 82532" d="M203.661,51.761c0,2.692-.017,5.376.008,8.069a1.856,1.856,0,0,1-1.212,1.977,1.821,1.821,0,0,1-2.255-.766c-.4-.6-.724-.244-1.085-.076a8.744,8.744,0,0,1-8.473-.168,7.829,7.829,0,0,1-4.232-6.958c-.067-3.433-.034-6.857-.017-10.29a1.853,1.853,0,1,1,3.685.076c.008,3.307-.025,6.613.025,9.92a4.669,4.669,0,0,0,4.207,4.754,4.894,4.894,0,0,0,5.385-3.172,5.041,5.041,0,0,0,.261-1.733c-.008-3.307,0-6.613,0-9.92a1.765,1.765,0,0,1,1.27-1.843,1.824,1.824,0,0,1,2.07.665,2.021,2.021,0,0,1,.362,1.405C203.652,46.385,203.661,49.069,203.661,51.761Z" transform="translate(-43.861 -33.747)"/>
      <path id="Path_82533" data-name="Path 82533" d="M165.986,51.789c0,2.692.008,5.385-.008,8.069a1.912,1.912,0,0,1-2.465,1.994,1.071,1.071,0,0,1-.841-.513c-.362-.833-.825-.614-1.464-.311-6.066,2.92-12.755-1.5-12.528-7.673.118-3.214.025-6.437.034-9.651,0-1.363.724-2.179,1.868-2.154,1.169.034,1.817.808,1.817,2.2q.013,4.733.008,9.465a4.824,4.824,0,0,0,4.9,5.149,4.9,4.9,0,0,0,4.964-5.04c.042-3.189.008-6.369.008-9.558,0-1.472.581-2.179,1.784-2.188s1.918.808,1.918,2.23C165.994,46.472,165.986,49.131,165.986,51.789Z" transform="translate(-37.881 -33.75)"/>
      <path id="Path_82534" data-name="Path 82534" d="M135.659,49.192c0-2.81-.017-5.629,0-8.439a8.347,8.347,0,0,1,8.069-8.414c1.456-.076,2.356.648,2.314,1.885-.034,1.043-.707,1.6-2.036,1.7a4.794,4.794,0,0,0-4.35,3.113c-.5,1.186-.353,1.4.926,1.4.682,0,1.363-.017,2.045.008a1.723,1.723,0,0,1,1.75,1.775,1.746,1.746,0,0,1-1.725,1.809,21.534,21.534,0,0,1-2.331,0c-.774-.05-1.01.244-1,1.01.034,4.485.017,8.961.008,13.445a1.823,1.823,0,0,1-1.607,2.028,1.791,1.791,0,0,1-2.061-1.935C135.65,55.435,135.659,52.313,135.659,49.192Z" transform="translate(-35.815 -32.288)"/>
      <path id="Path_82535" data-name="Path 82535" d="M172.138,43.538c0-3.029-.008-6.058,0-9.087,0-1.313.707-2.154,1.784-2.171a1.968,1.968,0,0,1,1.918,2.171c.017,1.641.059,3.281-.017,4.914-.042.892.286,1.136,1.119,1.06a16.576,16.576,0,0,1,2.045-.008,1.8,1.8,0,1,1-.017,3.593q-1.212.025-2.423,0c-.5-.008-.715.185-.707.707.017,2.659-.059,5.317.025,7.976.067,2.305,2.129,4.081,4.729,4.215A1.835,1.835,0,0,1,182.4,58.1a1.709,1.709,0,0,1-.5,1.944,1.869,1.869,0,0,1-1.371.446,8.349,8.349,0,0,1-8.4-8.153c-.008-2.928.008-5.864.008-8.8Z" transform="translate(-41.601 -32.28)"/>
      <path id="Path_82536" data-name="Path 82536" d="M210.338,51.759c0-2.684.017-5.376-.008-8.06a1.791,1.791,0,0,1,1.228-1.952,1.729,1.729,0,0,1,2.179.757c.294.48.564.4.984.168a8.047,8.047,0,0,1,4.022-.984,1.772,1.772,0,0,1,1.977,1.658c.076,1.026-.547,1.708-1.742,1.859a5.817,5.817,0,0,0-3.037,1.01,4.72,4.72,0,0,0-1.918,3.921c0,3.273.008,6.554-.008,9.827a1.794,1.794,0,0,1-2,2A1.762,1.762,0,0,1,210.347,60C210.33,57.262,210.338,54.511,210.338,51.759Z" transform="translate(-47.661 -33.762)"/>
    </g>
    <text id="TOP_APP_DEVELOPMENT_COMPANY" data-name="TOP APP DEVELOPMENT COMPANY" transform="translate(16.735 87.493)" font-size="11.5" font-family="Poppins-Medium, Poppins" font-weight="500"><tspan x="0" y="0">TOP APP DEVELOPMENT COMPANY</tspan></text>
  </g>
</svg>
