<svg xmlns="http://www.w3.org/2000/svg" width="232" height="60.2" viewBox="0 0 232 60.2">
  <g id="GoodFirms_1-06" data-name="GoodFirms 1-06" transform="translate(-18.225 -38)">
    <text id="Top_App_Development_Company" data-name="Top App Development Company" transform="translate(18.225 93.2)" font-size="14" font-family="Poppins-Medium, Poppins" font-weight="500"><tspan x="0" y="0">Top App Development Company</tspan></text>
    <path id="Shape" d="M31.867,49.645s-1.852-.19-1.852,1.442V58.4H42.18v2.193a1.031,1.031,0,0,1-1.111,1.071H30.015v9.492H43.292s8.05-1.222,8.12-9.492V49.645ZM51.041,38H27.091c-8.681,2.043-8.861,9.162-8.861,9.162v24.03h9.2V49.314a2.271,2.271,0,0,1,1.852-2.193H51.011L51.041,38Zm31.64,26.293c-.631.411-1.111.741-1.442.931a24.525,24.525,0,0,1-3.334,1.742,10.668,10.668,0,0,1-4.075.931,14.539,14.539,0,0,1-10.343-3.825,12.554,12.554,0,0,1-4.155-9.642,13.979,13.979,0,0,1,3.745-9.752,11.817,11.817,0,0,1,9.081-4.115,15.581,15.581,0,0,1,4.706.781,13.541,13.541,0,0,1,5.267,3l-2.373,2.633A8.974,8.974,0,0,0,75.9,44.829a13.746,13.746,0,0,0-3.825-.521,8,8,0,0,0-6.308,3,11,11,0,0,0-2.523,7.229,9.064,9.064,0,0,0,2.894,6.9,10.274,10.274,0,0,0,7.339,2.743,7.716,7.716,0,0,0,3.785-1.151c1.071-.811,1.632-1.222,1.632-1.222V56.023h-8.05L72,52.428H82.682Zm24.211-7.049a10.08,10.08,0,0,1-2.964,7.229,10.218,10.218,0,0,1-17.462-7.2,10.359,10.359,0,0,1,2.894-7.309,9.245,9.245,0,0,1,7.049-3.074,10.184,10.184,0,0,1,7.53,2.964A10.037,10.037,0,0,1,106.892,57.244Zm-3.745.08a6.61,6.61,0,0,0-1.892-4.786,6.163,6.163,0,0,0-4.706-1.962,5.863,5.863,0,0,0-4.486,2.043,6.7,6.7,0,0,0-1.852,4.636,6.618,6.618,0,0,0,1.852,4.676A6.118,6.118,0,0,0,96.7,63.893a6,6,0,0,0,4.486-1.932,6.367,6.367,0,0,0,1.962-4.636Zm27.675-.08a10.08,10.08,0,0,1-2.964,7.229,10.218,10.218,0,0,1-17.462-7.2,10.359,10.359,0,0,1,2.894-7.309,9.245,9.245,0,0,1,7.049-3.074,10.184,10.184,0,0,1,7.53,2.964A10.076,10.076,0,0,1,130.822,57.244Zm-3.785.08a6.61,6.61,0,0,0-1.892-4.786,6.163,6.163,0,0,0-4.706-1.962,5.863,5.863,0,0,0-4.486,2.043,6.7,6.7,0,0,0-1.852,4.636,6.618,6.618,0,0,0,1.852,4.676,6.118,6.118,0,0,0,4.636,1.962,6,6,0,0,0,4.486-1.932,6.367,6.367,0,0,0,1.962-4.636Zm25.883,9.682-3.444.521V64.193l-.751.841a9.787,9.787,0,0,1-2.193,1.522,8.673,8.673,0,0,1-3.745.811,9.1,9.1,0,0,1-6.859-2.964,10.1,10.1,0,0,1-2.814-7.119,10.405,10.405,0,0,1,2.784-7.309,8.741,8.741,0,0,1,6.789-3.044,10.034,10.034,0,0,1,4.005.741,6.986,6.986,0,0,1,2.073,1.442c.19.26.37.521.591.781V41.1l3.675-.521ZM149.7,57.5a6.773,6.773,0,0,0-2-4.966,6.2,6.2,0,0,0-4.6-2.043,5.931,5.931,0,0,0-4.636,1.932,6.5,6.5,0,0,0-1.672,4.526,7.222,7.222,0,0,0,1.742,4.966,5.572,5.572,0,0,0,4.416,1.932,6.823,6.823,0,0,0,4.676-1.812A5.924,5.924,0,0,0,149.7,57.5Zm22.659-12.756H162.042v7.009h8.01v3.595h-8.01v11.6l-4.005.591V41.114h13.537Zm8.27-2.043-2.483,3.114-2.373-3.114,2.483-3.074Zm-.741,24.3-3.675.521V47.943l3.675-.561V67.007ZM196.5,47.162l-1.742,4.005a3.888,3.888,0,0,0-.7-.04c-.37,0-.7.04-1.071.07a3.025,3.025,0,0,0-1.151.411,4.367,4.367,0,0,0-2,2.153,9.008,9.008,0,0,0-.961,4.045v9.162l-3.675.591V47.943l3.414-.631v4.075c.441-.7.891-1.412,1.332-2.153a5.593,5.593,0,0,1,2.193-1.592,9.344,9.344,0,0,1,2.443-.411A14.4,14.4,0,0,1,196.5,47.162ZM223.94,67.007l-3.675.521V54.1a3.765,3.765,0,0,0-.811-2.7,3.307,3.307,0,0,0-2.443-.851,3.222,3.222,0,0,0-2.934,1.592,4.537,4.537,0,0,0-.7,2.3v12.5l-3.675.671V54.13a3.949,3.949,0,0,0-.811-2.7A2.742,2.742,0,0,0,206.7,50.5h-.37a2.922,2.922,0,0,0-2.814,1.632,6.492,6.492,0,0,0-.671,3.114V66.887l-3.825.671V47.862l3.444-.591v2.523a8.671,8.671,0,0,1,1.111-1.412,4.892,4.892,0,0,1,3.444-1.372,6.037,6.037,0,0,1,3.264.7,6.586,6.586,0,0,1,1.852,2.3,6.013,6.013,0,0,1,5.417-3,5.927,5.927,0,0,1,5.046,2.153,8.6,8.6,0,0,1,1.332,5.2V67.007Zm16.8-5.938a5.731,5.731,0,0,1-1.892,4.446,6.656,6.656,0,0,1-4.786,1.742,7.852,7.852,0,0,1-3.935-1,7.151,7.151,0,0,1-2.633-2.333l2.593-2.3a3.925,3.925,0,0,0,.521.671,4.6,4.6,0,0,0,3.444,1.482,3.137,3.137,0,0,0,2.193-.741,2.512,2.512,0,0,0,.811-2.043c0-1-.631-1.672-1.892-2.043-2.483-.741-3.855-1.192-4.045-1.262a6.866,6.866,0,0,1-2.483-1.932,5.416,5.416,0,0,1-.891-3.264,5.546,5.546,0,0,1,1.852-4.225,6.352,6.352,0,0,1,4.416-1.672,7.5,7.5,0,0,1,3.595.891,6.381,6.381,0,0,1,2.373,1.932l-2.193,2.373a8.156,8.156,0,0,0-1.071-.891,4.425,4.425,0,0,0-2.523-.931,3.281,3.281,0,0,0-1.892.521,2.125,2.125,0,0,0-.891,1.852,1.893,1.893,0,0,0,.851,1.742,12.093,12.093,0,0,0,3.194,1,7.555,7.555,0,0,1,3.825,2.043A5.186,5.186,0,0,1,240.741,61.069Z" transform="translate(0)"/>
  </g>
</svg>
