<svg xmlns="http://www.w3.org/2000/svg" width="127.74" height="60.211" viewBox="0 0 127.74 60.211">
  <g id="Layer_2" data-name="Layer 2" transform="translate(0.088 0.01)">
    <g id="Layer_1" data-name="Layer 1" transform="translate(-0.088 -0.01)">
      <path id="Path_82537" data-name="Path 82537" d="M17.738,30.906a11.165,11.165,0,0,0,7.532-3.781c.435-.474.683-.613,1.2,0,.908,1.04,1.926,2,2.912,2.966.241.233.311.38,0,.668a16.872,16.872,0,0,1-14.256,5.59A16.36,16.36,0,0,1,.275,22.482,18.487,18.487,0,0,1,2.783,8.94,15.6,15.6,0,0,1,15.207,1.448,16.779,16.779,0,0,1,29.338,6.976c.3.326.272.474,0,.776-1.033.994-2.065,2-3.044,3.044-.38.412-.575.318-.908,0a12.1,12.1,0,0,0-6.212-3.618A10.925,10.925,0,0,0,6.192,14.492a13.4,13.4,0,0,0,.854,10.754C9.026,28.942,12.481,30.906,17.738,30.906Z" transform="translate(0.088 -0.298)"/>
      <path id="Path_82538" data-name="Path 82538" d="M142.864,13.123a10.319,10.319,0,0,1,4.053-1.716c4.993-.9,10.094,1.39,11.189,7.555a15.685,15.685,0,0,1,.256,2.826c0,4.395,0,8.782,0,13.2,0,.551-.155.707-.691.7q-2.05-.062-4.1,0c-.59,0-.776-.116-.776-.776V21.874a9.03,9.03,0,0,0-.217-2,3.807,3.807,0,0,0-4.767-3.106c-3.145.5-4.845,2.368-4.923,5.544-.062,2.329,0,4.659,0,6.988v5.754c0,.5-.186.621-.652.606H138c-.52,0-.676-.155-.676-.668V.622c0-.466.171-.582.6-.582,1.413,0,2.826.039,4.232,0,.575,0,.776.14.776.73-.039,3.649-.039,7.3-.054,10.948Z" transform="translate(-30.629 -0.001)"/>
      <path id="Path_82539" data-name="Path 82539" d="M71.529,37.578a10.459,10.459,0,0,1-5.847,1.879c-5.094,0-8.58-2.951-9.426-7.982A16.483,16.483,0,0,1,56,28.781V15.666c0-.536.155-.652.652-.637,1.343,0,2.694.047,4.03,0,.683,0,.908.14.9.87-.039,4.278,0,8.541,0,12.835a6.988,6.988,0,0,0,.629,3.284,3.378,3.378,0,0,0,3.106,1.933,6.639,6.639,0,0,0,3.37-.676,5.244,5.244,0,0,0,2.834-5.031c.047-4.139,0-8.277,0-12.423,0-.644.155-.823.776-.776,1.39.054,2.78.039,4.17,0,.466,0,.59.148.59.6V38.4c0,.481-.155.637-.637.621h-4.1c-.59,0-.932-.1-.776-.776A3.308,3.308,0,0,0,71.529,37.578Z" transform="translate(-12.45 -3.352)"/>
      <path id="Path_82540" data-name="Path 82540" d="M105.49,25.644A11.472,11.472,0,0,1,112.6,15.5a13.3,13.3,0,0,1,14.59,2.71c.225.233.256.373,0,.613-1.1,1.079-2.205,2.174-3.284,3.284-.38.4-.575.062-.776-.14a7.4,7.4,0,0,0-5.645-2.034,6.685,6.685,0,0,0-6.46,7.765,6.437,6.437,0,0,0,4.6,5.761,6.988,6.988,0,0,0,7.384-1.669c.474-.458.722-.4,1.141.039.971,1.017,2,1.988,3.013,2.966.233.225.4.357.062.7a13.091,13.091,0,0,1-16.95,1.336C107.26,34.565,105.49,30.892,105.49,25.644Z" transform="translate(-23.514 -3.212)"/>
      <path id="Path_82541" data-name="Path 82541" d="M95.8,27.274v8.673c0,.606-.179.738-.776.722-1.367-.039-2.733-.047-4.1,0-.606,0-.714-.186-.707-.776V18.687c0-.73-.2-.908-.893-.862-.854.062-1.708,0-2.57,0-.349,0-.489-.085-.481-.458V13.127c0-.427.171-.489.536-.481h2.78c.5,0,.621-.171.613-.644V5.2c0-.52.132-.676.652-.66h4.232c.512,0,.668.116.66.652v6.732c0,.606.186.738.776.722,1.11-.039,2.228,0,3.339,0,.373,0,.536.085.528.5v4.092c0,.512-.186.613-.644.606H96.473c-.613,0-.714.2-.707.776C95.813,21.49,95.8,24.386,95.8,27.274Z" transform="translate(-19.217 -1.007)"/>
      <path id="Path_82542" data-name="Path 82542" d="M48.282,17.856v17.2c0,.419,0,.606-.544.59-1.405-.039-2.819-.039-4.232,0-.544,0-.707-.148-.707-.7V.766c0-.6.132-.776.776-.776C44.9.06,46.247.052,47.614,0c.613,0,.714.186.707.776C48.274,6.45,48.282,12.157,48.282,17.856Z" transform="translate(-9.5 0.01)"/>
      <path id="Path_82543" data-name="Path 82543" d="M116,29.247a4.1,4.1,0,0,1,4.139-4.107A4.129,4.129,0,1,1,116,29.247Z" transform="translate(-25.863 -5.612)"/>
      <text id="_4.9_5.0" data-name="4.9/5.0" transform="translate(4.447 56.211)" font-size="11" font-family="Poppins-Medium, Poppins" font-weight="500"><tspan x="0" y="0">4.9/5.0</tspan></text>
      <path id="Path_82544" data-name="Path 82544" d="M78.6,58.15l2.073,4.2,4.635.676L81.955,66.3l.792,4.612L78.6,68.725l-4.139,2.182.792-4.612L71.9,63.026l4.635-.676Z" transform="translate(-16.005 -12.991)"/>
      <path id="Path_82545" data-name="Path 82545" d="M97.421,58.15l2.073,4.2,4.628.676L100.775,66.3l.792,4.612-4.146-2.182-4.146,2.182.792-4.612L90.72,63.026l4.628-.676Z" transform="translate(-20.212 -12.991)"/>
      <path id="Path_82546" data-name="Path 82546" d="M116.239,58.15l2.065,4.2,4.635.676L119.585,66.3l.792,4.612-4.139-2.182-4.146,2.182.792-4.612-3.354-3.269,4.635-.676Z" transform="translate(-24.417 -12.991)"/>
      <path id="Path_82547" data-name="Path 82547" d="M135.049,58.15l2.073,4.2,4.635.676L138.4,66.3l.792,4.612-4.146-2.182L130.9,70.907l.792-4.612-3.354-3.269,4.635-.676Z" transform="translate(-28.622 -12.991)"/>
      <path id="Path_82548" data-name="Path 82548" d="M153.861,58.15l2.073,4.2,4.635.676L157.215,66.3l.792,4.612-4.146-2.182-4.138,2.182.792-4.612-3.354-3.269,4.635-.676Z" transform="translate(-32.829 -12.991)"/>
    </g>
  </g>
</svg>
