<svg xmlns="http://www.w3.org/2000/svg" width="267.373" height="60.225" viewBox="0 0 267.373 60.225">
  <g id="Layer_2" data-name="Layer 2" transform="translate(0 0.009)">
    <g id="Layer_1" data-name="Layer 1" transform="translate(0 -0.009)">
      <text id="TOP_BLOCKCHAIN_APP_DEVELOPMENT_COMPANIES" data-name="TOP BLOCKCHAIN APP DEVELOPMENT COMPANIES" transform="translate(0 56.225)" font-size="11" font-family="Poppins-Medium, Poppins" font-weight="500"><tspan x="0" y="0">TOP BLOCKCHAIN APP DEVELOPMENT COMPANIES</tspan></text>
      <path id="Path_82515" data-name="Path 82515" d="M87.772,0h86.184c1.753,0,1.553-.235,1.553,1.529V32.654c0,1.353.153,1.353-1.317,1.353H1.27a1.27,1.27,0,0,1-.212,0c-1.047,0-1.059,0-1.059-1.059V.543C0,.19.141,0,.506,0ZM14.421,18.939h-.2c-.306-1.388-.6-2.788-.894-4.187-.4-1.917-.788-3.846-1.176-5.764-.2-.894-.588-1.07-1.706-.965-.847.071-.482.706-.565,1.176a1.27,1.27,0,0,0,0,.212V26.867c0,.247,0,.329.129.388a2.211,2.211,0,0,0,1.553.129c.494-.059.388-.529.388-.87V20.08A2.353,2.353,0,0,1,12.1,18.9c.118.435.223.765.294,1.094.235.941.435,1.882.682,2.811a1.541,1.541,0,0,0,1.306,1.259c.659.082.823,0,.976-.659.271-1.106.518-2.223.765-3.341A1.482,1.482,0,0,1,16.6,19.1v7.8c0,.282.212.482.553.529,1.306.176,1.529,0,1.529-1.27V8.471a.4.4,0,0,0-.294-.4,1.423,1.423,0,0,0-2.011,1.106c-.271,1.259-.494,2.529-.753,3.788Zm35.405-1.294a2.435,2.435,0,0,0,.847-2.129c0-1.611,0-3.223,0-4.823a2.552,2.552,0,0,0-2.705-2.788H45.5c-.823,0-.965,0-1,.941V26.514c0,.529.176.788.753.765h2.564c1.941,0,2.847-.929,2.858-2.905V19.868a2.482,2.482,0,0,0-.847-2.223Zm-22.019,0v7.3A2.282,2.282,0,0,0,29.195,27.3a4.917,4.917,0,0,0,3.764,0,2.352,2.352,0,0,0,1.376-2.458V10.294a2.47,2.47,0,0,0-2.352-2.352,10.692,10.692,0,0,0-1.506,0,2.47,2.47,0,0,0-2.67,2.647C27.795,12.94,27.807,15.293,27.807,17.645Zm97.629-2.352h.153c.459,3.529.906,7.057,1.376,10.586.223,1.576.282,1.588,1.87,1.47.471,0,.623-.188.541-.659-.259-1.588-.471-3.188-.718-4.776l-2-12.739a2.07,2.07,0,0,0-.223-.706,1.764,1.764,0,0,0-1.647-.518c-.471.094-.471.471-.529.823l-2.576,17.1c-.235,1.564-.212,1.553,1.4,1.482.541,0,.741-.2.812-.741.176-1.67.412-3.329.635-5Zm13.35,2.352v9.2c0,.329,0,.376.223.447a2.27,2.27,0,0,0,1.576,0c.423-.141.247-.612.259-.941V19.6c0-.812,0-.812.823-.847,2.105-.071,3.07-1.023,3.094-3.105V10.717a2.552,2.552,0,0,0-2.6-2.658h-2.353c-1.07,0-1.094,0-1.094,1.059Zm16.526,0V26.22c0,.341-.106.788.223,1a2.011,2.011,0,0,0,1.564.082c.471-.118.294-.588.294-.917V19.633c0-.847,0-.917.894-.87a2.788,2.788,0,0,0,3.035-2.976V10.541A2.352,2.352,0,0,0,159.1,8.106c-1.059-.094-2.129,0-3.2,0a.518.518,0,0,0-.588.6c0,.282,0,.565,0,.859ZM96.7,25.409c-1.082-.141-2.117,0-3.141-.071-.765,0-.788,0-.788-.8V19.292c0-.87,0-.906.906-.941.553,0,1.176,0,1.4-.588a2.635,2.635,0,0,0,.459-1.364A.8.8,0,0,0,95.3,16.3H93.794c-1.012,0-1.023,0-1.035-1V11.446c0-1.364,0-1.388,1.329-1.364,1.541,0,1.611-.259,2.188-1.541.2-.447,0-.6-.4-.6h-4.4c-.623,0-.8.247-.859.859V26.714c0,.4.153.6.565.6h4.07a1.035,1.035,0,0,0,1.023-.647,2.858,2.858,0,0,0,.365-1.329Zm-14.9-.071H78.62c-1.094,0-1.094,0-1.106-1.176V8.694a.753.753,0,0,0-.588-.682c-1.059-.353-1.517,0-1.529,1.07V26.667c0,.435.153.659.623.647h4.2a1.106,1.106,0,0,0,1.106-.694,2.87,2.87,0,0,0,.412-1.353Zm-20.22-7.846v9.245a.676.676,0,0,0,.623.612c1.282.2,1.506,0,1.506-1.27V9.647a5.2,5.2,0,0,0,0-.741,1.376,1.376,0,0,0-1.917-.882.447.447,0,0,0-.2.365v.847Z" transform="translate(0 0.009)"/>
      <path id="Path_82516" data-name="Path 82516" d="M228.128,17.042V33.333c0,.435-.153.682-.623.67h-4.282c-.423,0-.565-.212-.553-.6V.822c0-.788,0-.812.87-.812h3.752c.8,0,.823,0,.835.847Z" transform="translate(39.245 0.012)"/>
      <path id="Path_82517" data-name="Path 82517" d="M159.49,16.446V7.859c0-1.035,0-1.035,1.07-1.047h2.576a2.352,2.352,0,0,1,2.611,2.576V23.5a2.352,2.352,0,0,1-2.541,2.529h-2.894c-.8,0-.812,0-.823-.859Zm1.976,0v7.281a.341.341,0,0,0,.318.365c1.306.082,2.047.071,2.023-1.506V10.365c0-1.341-.259-1.576-1.553-1.553-.765,0-.788,0-.788.776C161.454,11.882,161.466,14.176,161.466,16.446Z" transform="translate(28.11 1.208)"/>
      <path id="Path_82518" data-name="Path 82518" d="M180.236,25.934c-.129,0-.188.106-.259.106-1.823.141-1.835.141-2.082-1.647-.459-3.4-.894-6.81-1.353-10.21,0-.165-.059-.341-.118-.741-.412,1.788-.518,3.388-.741,4.976-.329,2.294-.612,4.6-.894,6.9,0,.518-.212.8-.788.741a6.093,6.093,0,0,1-1.482-.106c.212-1.459.412-2.929.635-4.4.682-4.517,1.388-9.045,2.07-13.562.176-1.176.165-1.176.835-1.176,1.059,0,1.353.223,1.506,1.247q.553,3.529,1.07,6.987c.494,3.223,1,6.434,1.482,9.645C180.142,25.111,180.2,25.534,180.236,25.934Z" transform="translate(30.407 1.212)"/>
      <path id="Path_82519" data-name="Path 82519" d="M213.825,14.1c.365-2.07.718-4.14,1.094-6.222a1.353,1.353,0,0,1,1.917-.976c.329.165.153.423.106.659l-.988,4.7c-.318,1.541-.647,3.07-.988,4.611a10.833,10.833,0,0,0-.259,2.541v5.8c0,.859,0,.859-.788.87-1.023,0-1.176-.071-1.176-.917V23.132a33.629,33.629,0,0,0-1.176-10.28c-.412-1.741-.753-3.529-1.106-5.246-.153-.706-.106-.741.565-.776,1.117,0,1.294.118,1.482,1.176.294,1.764.6,3.529.906,5.281a3.446,3.446,0,0,0,.212.812Z" transform="translate(37.081 1.203)"/>
      <path id="Path_82520" data-name="Path 82520" d="M205.173,24.252a3.329,3.329,0,0,1-.482,1.282,1.035,1.035,0,0,1-.976.541h-4.293c-.423,0-.565-.2-.541-.588V7.914c0-1.07.412-1.353,1.447-1.035a.623.623,0,0,1,.518.6V23.452c0,.506.165.694.67.682h3.117a.765.765,0,0,1,.541.118Z" transform="translate(35.052 1.201)"/>
      <path id="Path_82521" data-name="Path 82521" d="M187.261,16.269V7.682c0-.423-.094-.87.6-.882.894,0,1.294.176,1.388.812a5.364,5.364,0,0,1,0,.753V24.891c0,1.176-.47,1.482-1.576,1.176a.494.494,0,0,1-.4-.447,6.784,6.784,0,0,1,0-.847Q187.261,20.5,187.261,16.269Z" transform="translate(33.004 1.209)"/>
      <path id="Path_82522" data-name="Path 82522" d="M39.615,11.9V9.219c0-.541.223-.67.706-.659.906,0,1.176.235,1.176,1.094v4.4c0,.788-.247,1.035-.87,1.117-.906.129-1.047,0-1.047-.917V11.9Z" transform="translate(6.976 1.519)"/>
      <path id="Path_82523" data-name="Path 82523" d="M39.6,19.143V16.685c0-.318-.153-.741.412-.812.753-.094,1.282.094,1.447.6A2.034,2.034,0,0,1,41.52,17V21.39c0,.776-.282,1.012-1.023,1.07s-.882,0-.894-.859S39.6,19.955,39.6,19.143Z" transform="translate(6.977 2.804)"/>
      <path id="Path_82524" data-name="Path 82524" d="M27.688,16.328v6.634c0,.906-.435,1.329-1.176,1.27a1.059,1.059,0,0,1-1.059-1,3.823,3.823,0,0,1,0-.635V9.858a4.034,4.034,0,0,1,0-.753,1.047,1.047,0,0,1,1.176-.894,1.012,1.012,0,0,1,1.094.941,6.975,6.975,0,0,1,0,.859Z" transform="translate(4.483 1.456)"/>
      <path id="Path_82525" data-name="Path 82525" d="M119.72,11.709V9.039c0-.482.223-.612.659-.588.847,0,1.247.365,1.259,1.176V14a1.176,1.176,0,0,1-1.623,1.176c-.341-.106-.282-.365-.282-.6C119.72,13.626,119.72,12.626,119.72,11.709Z" transform="translate(21.101 1.499)"/>
      <path id="Path_82526" data-name="Path 82526" d="M133.787,11.794V9.336c0-.341-.176-.823.459-.882a1.282,1.282,0,0,1,1.4.718,2.624,2.624,0,0,1,0,.423q0,2.294,0,4.587a.965.965,0,0,1-.894,1.012c-.823.141-1,0-1.012-.835S133.787,12.629,133.787,11.794Z" transform="translate(23.571 1.496)"/>
    </g>
  </g>
</svg>
