<svg xmlns="http://www.w3.org/2000/svg" width="24.57" height="27.921" viewBox="0 0 24.57 27.921">
  <g id="Group_45986" data-name="Group 45986" transform="translate(0)">
    <path id="Path_3092" data-name="Path 3092" d="M105.49,27c.191-4.515,2.61-8.9,7.968-11.37A14.9,14.9,0,0,1,129.8,18.663c.252.261.287.418,0,.687-1.235,1.209-2.471,2.436-3.68,3.68-.426.444-.644.07-.87-.157a8.29,8.29,0,0,0-6.324-2.279,7.49,7.49,0,0,0-7.238,8.7,7.212,7.212,0,0,0,5.159,6.455,7.829,7.829,0,0,0,8.273-1.87c.531-.513.809-.452,1.279.043,1.087,1.14,2.244,2.227,3.375,3.323.261.252.444.4.07.783a14.667,14.667,0,0,1-18.99,1.5C107.473,36.992,105.49,32.877,105.49,27Z" transform="translate(-105.49 -14.402)" fill="#1e1e1e"/>
    <path id="Path_3093" data-name="Path 3093" d="M116,29.742a4.593,4.593,0,0,1,4.637-4.6,4.626,4.626,0,1,1-4.637,4.6Z" transform="translate(-106.857 -15.799)" fill="#ff3d00"/>
  </g>
</svg>
