<?xml version="1.0" encoding="utf-8"?>
<!-- Generator: Adobe Illustrator 23.0.1, SVG Export Plug-In . SVG Version: 6.00 Build 0)  -->
<svg version="1.1" id="Layer_1" xmlns="http://www.w3.org/2000/svg" xmlns:xlink="http://www.w3.org/1999/xlink" x="0px" y="0px"
	 viewBox="0 0 512 512" style="enable-background:new 0 0 512 512;" xml:space="preserve">
<style type="text/css">
	.st0{fill:#08B89D;}
</style>
<g>
	<path class="st0" d="M402.3,58.9c-37.8,0-73.1,11.4-102.2,32.9c-25.7,19-44.8,45.4-52.3,72.2c-8.6,30.8-1.6,58.5,18.7,76.9
		c-7,12.2-13.5,24.9-18.6,37.1c-4.7-11.7-11-22.2-18.1-31.6c10.1-16,11.5-35.5,3.6-55.6c-7.4-18.9-22.5-36.2-42.5-49
		c-21.5-13.7-46.8-21-73.3-21c-33.9,0-68.7,12.2-100.5,35.3L0,168.7l20.4,5.5c33.7,9.1,60.5,35.1,84.2,58
		c24.2,23.4,47.1,45.5,73.5,45.5c0,0,0,0,0,0c13,0,25.5-5.2,37.9-15.9c12,16.9,20.5,37.5,20.5,62.7v128.5h20.2c0,0,0-124.3,0-130.9
		c0-16.2,9.5-40,26.4-69.7c12.5,6.8,24.2,10.1,35.7,10.1c37.2,0,61.4-35.6,87-73.3c22.9-33.6,48.8-71.8,87.3-91.5l18.8-9.6
		l-19.3-8.6C462.2,65.8,431.8,58.9,402.3,58.9L402.3,58.9z M178.2,257.5C178.2,257.5,178.2,257.5,178.2,257.5
		c-18.3,0-37.4-18.4-59.5-39.8c-20.9-20.2-44.1-42.6-73.2-55.8c23.6-13.7,47.8-20.7,72.1-20.7c48.8,0,85.7,28.7,96.9,57.1
		c2.9,7.4,5.9,19.5,1,31.7c-18.2-18.4-38.1-31-50.6-38.9c-3.6-2.3-6.8-4.3-8.9-5.8l-11.7,16.5c2.6,1.8,5.9,3.9,9.8,6.4
		c12.8,8.1,32.3,20.3,49,38C194.5,253.8,186.3,257.5,178.2,257.5L178.2,257.5z M389.1,177.8c-23.5,34.6-43.8,64.4-70.3,64.4
		c-7.8,0-16.1-2.4-25.3-7.3c0.9-1.5,1.8-2.9,2.8-4.4c20.1-31.7,40.4-57.4,40.6-57.6l-15.8-12.6c-1.7,2.2-23.1,29.2-43.9,62.6
		c-12.2-13.2-15.9-32-9.8-53.5c6.3-22.6,22.7-45,44.8-61.4c17.8-13.2,47.9-28.9,90.1-28.9c20.7,0,42,3.8,63.6,11.4
		C432.8,113.6,409.8,147.4,389.1,177.8L389.1,177.8z"/>
</g>
</svg>
