<svg xmlns="http://www.w3.org/2000/svg" width="616.705" height="50" viewBox="0 0 616.705 50">
  <g id="amazon_googlePartner_googleCloud" transform="translate(-253 -431)">
    <g id="google_cloud" transform="translate(764 431)">
      <path id="Path_81835" data-name="Path 81835" d="M63.908,11.156l1.084.019L67.937,8.23l.142-1.248a13.231,13.231,0,0,0-21.571,6.429,1.594,1.594,0,0,1,1.009-.057l5.887-.968s.3-.5.455-.471a7.353,7.353,0,0,1,10.049-.758Z" transform="translate(-6.441 -3.633)" fill="#fff"/>
      <path id="Path_81836" data-name="Path 81836" d="M72.753,13.606a13.257,13.257,0,0,0-4-6.44l-4.171,4.171A7.344,7.344,0,0,1,67.33,17.06V17.8a3.677,3.677,0,0,1,0,7.353H59.974l-.736.739V30.3l.736.733H67.33a9.556,9.556,0,0,0,5.414-17.43Z" transform="translate(-7.108 -3.818)" fill="#fff"/>
      <path id="Path_81837" data-name="Path 81837" d="M51.915,32.018h7.353V26.132H51.915A3.639,3.639,0,0,1,50.4,25.8l-1.061.325-2.945,2.945-.258.995a9.438,9.438,0,0,0,5.779,1.952Z" transform="translate(-6.421 -4.794)" fill="#fff"/>
      <path id="Path_81838" data-name="Path 81838" d="M51.705,12.175a9.561,9.561,0,0,0-5.775,17.184l4.264-4.264a3.677,3.677,0,1,1,4.861-4.861l4.264-4.264a9.549,9.549,0,0,0-7.619-3.79Z" transform="translate(-6.212 -4.08)" fill="#fff"/>
      <path id="Path_81839" data-name="Path 81839" d="M11.593,51.135A7.157,7.157,0,0,1,6.406,49a7.115,7.115,0,0,1,0-10.249,7.165,7.165,0,0,1,5.187-2.133,6.937,6.937,0,0,1,4.974,2l-1.4,1.4A5.041,5.041,0,0,0,11.592,38.6,4.974,4.974,0,0,0,7.9,40.144a5.363,5.363,0,0,0,0,7.468,4.975,4.975,0,0,0,3.692,1.542A4.933,4.933,0,0,0,15.259,47.7a4.19,4.19,0,0,0,1.08-2.5H11.6V43.221h6.675a6.331,6.331,0,0,1,.095,1.232,6.262,6.262,0,0,1-1.718,4.639,6.685,6.685,0,0,1-5.065,2.037Zm15.512-1.327a4.838,4.838,0,0,1-6.656,0,4.764,4.764,0,0,1,0-6.671,4.838,4.838,0,0,1,6.656,0,4.764,4.764,0,0,1,0,6.671ZM21.918,48.5a2.552,2.552,0,0,0,3.72,0,3.054,3.054,0,0,0,.009-4.065,2.591,2.591,0,0,0-3.737,0,3.054,3.054,0,0,0,.009,4.065Zm15.421,1.308a4.838,4.838,0,0,1-6.656,0,4.764,4.764,0,0,1,0-6.671,4.838,4.838,0,0,1,6.656,0,4.764,4.764,0,0,1,0,6.671ZM32.151,48.5a2.552,2.552,0,0,0,3.72,0,3.054,3.054,0,0,0,.009-4.065,2.591,2.591,0,0,0-3.737,0,3.054,3.054,0,0,0,.009,4.065Zm11.914,6.842a4.115,4.115,0,0,1-2.619-.834,4.815,4.815,0,0,1-1.522-1.931l1.789-.742A2.922,2.922,0,0,0,42.6,53a2.251,2.251,0,0,0,1.471.495,2.389,2.389,0,0,0,1.832-.708,2.878,2.878,0,0,0,.663-2.037V50.09h-.071a2.986,2.986,0,0,1-2.46,1.063A4.274,4.274,0,0,1,40.9,49.791,4.511,4.511,0,0,1,39.553,46.5,4.568,4.568,0,0,1,40.9,43.177a4.263,4.263,0,0,1,3.134-1.371,3.356,3.356,0,0,1,1.442.3,2.942,2.942,0,0,1,1.018.742h.071V42.1h1.948V50.49a4.882,4.882,0,0,1-1.249,3.658,4.411,4.411,0,0,1-3.2,1.213Zm.142-6.038a2.284,2.284,0,0,0,1.781-.8,2.913,2.913,0,0,0,.716-2.011,2.978,2.978,0,0,0-.716-2.037,2.274,2.274,0,0,0-1.781-.813,2.432,2.432,0,0,0-1.84.813,2.868,2.868,0,0,0-.762,2.037,2.812,2.812,0,0,0,.762,2.011,2.441,2.441,0,0,0,1.84.805ZM51.98,37.113v13.74H49.927V37.113Zm5.629,14.021A4.464,4.464,0,0,1,54.3,49.788a4.55,4.55,0,0,1-1.329-3.328A4.6,4.6,0,0,1,54.253,43.1a4.217,4.217,0,0,1,3.125-1.311,3.956,3.956,0,0,1,1.576.31,3.715,3.715,0,0,1,1.2.8,5.534,5.534,0,0,1,.762.947,5.8,5.8,0,0,1,.461.921l.213.531-6.249,2.589a2.375,2.375,0,0,0,2.267,1.417A2.678,2.678,0,0,0,59.912,48L61.5,49.066A5.192,5.192,0,0,1,60,50.5a4.28,4.28,0,0,1-2.392.635Zm-2.6-4.814,4.17-1.734a1.421,1.421,0,0,0-.663-.716,2.142,2.142,0,0,0-1.08-.273,2.424,2.424,0,0,0-1.69.742,2.5,2.5,0,0,0-.753,1.982Zm17.37,4.814a6.685,6.685,0,0,1-4.693-11.349,6.378,6.378,0,0,1,4.693-1.9,5.864,5.864,0,0,1,4.656,2.071L75.9,41.06a4.264,4.264,0,0,0-3.525-1.611,4.834,4.834,0,0,0-4.931,5.063,4.91,4.91,0,0,0,1.425,3.667,4.8,4.8,0,0,0,3.506,1.4,4.967,4.967,0,0,0,3.885-1.84l1.132,1.132a6.169,6.169,0,0,1-2.18,1.655,6.652,6.652,0,0,1-2.847.608Zm8.108-.28h-1.63V38.177h1.63Zm2.656-7.638a4.55,4.55,0,0,1,6.41,0,4.965,4.965,0,0,1,0,6.6,4.55,4.55,0,0,1-6.41,0,4.965,4.965,0,0,1,0-6.6Zm1.213,5.575a2.736,2.736,0,0,0,3.98,0,3.079,3.079,0,0,0,.841-2.274,3.111,3.111,0,0,0-.841-2.274,2.736,2.736,0,0,0-3.98,0,3.078,3.078,0,0,0-.841,2.274A3.111,3.111,0,0,0,84.354,48.79Zm15.465,2.063H98.26v-1.2h-.071a2.911,2.911,0,0,1-1.132,1.042,3.321,3.321,0,0,1-1.611.436,3.049,3.049,0,0,1-2.469-.992,3.978,3.978,0,0,1-.841-2.656V42.167h1.63v5.045q0,2.428,2.142,2.426a1.99,1.99,0,0,0,1.647-.813,2.966,2.966,0,0,0,.637-1.877V42.167h1.63v8.677Zm5.523.281a3.816,3.816,0,0,1-2.9-1.329,5.055,5.055,0,0,1,0-6.588,3.818,3.818,0,0,1,2.9-1.329,3.725,3.725,0,0,1,1.782.424,2.968,2.968,0,0,1,1.178,1.063h.071l-.071-1.2v-4h1.63V50.853h-1.559v-1.2H108.3a3.011,3.011,0,0,1-1.178,1.063,3.752,3.752,0,0,1-1.782.421Zm.265-1.488a2.6,2.6,0,0,0,1.957-.85,3.613,3.613,0,0,0,0-4.549,2.659,2.659,0,0,0-3.905.009,3.587,3.587,0,0,0,0,4.549,2.587,2.587,0,0,0,1.948.859Z" transform="translate(-4.226 -5.361)" fill="#fff"/>
    </g>
    <g id="googlePartner" transform="translate(533 431)">
      <g id="endorsments_wlw_ep_google_horizontal_RGB" transform="translate(-1 0)">
        <g id="Group_46124" data-name="Group 46124" transform="translate(26.501 5)">
          <path id="Path_81886" data-name="Path 81886" d="M-37.811,221.1H-40.5V199.9h7.3a6.435,6.435,0,0,1,4.61,1.767,6.485,6.485,0,0,1,2,4.533,6.057,6.057,0,0,1-2,4.533A6.434,6.434,0,0,1-33.2,212.5h-4.61Zm0-11.14h4.533a3.4,3.4,0,0,0,2.766-1.152,4.009,4.009,0,0,0,1.076-2.612,3.615,3.615,0,0,0-1.076-2.535,3.719,3.719,0,0,0-2.766-1.229h-4.533Z" transform="translate(40.884 -182.068)" fill="#fff"/>
          <path id="Path_81887" data-name="Path 81887" d="M-15.447,223.44a5.562,5.562,0,0,1-3.842-1.306A4.411,4.411,0,0,1-20.9,218.6a4.621,4.621,0,0,1,1.844-3.765,7.3,7.3,0,0,1,4.533-1.306,7.458,7.458,0,0,1,4,.922v-.461a3.481,3.481,0,0,0-1.076-2.612,3.833,3.833,0,0,0-2.689-.922,4.074,4.074,0,0,0-2.151.538,2.759,2.759,0,0,0-1.306,1.613l-2.535-1.076a6.641,6.641,0,0,1,2-2.382,6.117,6.117,0,0,1,4-1.152,6.3,6.3,0,0,1,4.61,1.613,5.575,5.575,0,0,1,1.844,4.61v8.836h-2.612v-2.074h-.154a5.934,5.934,0,0,1-4.84,2.459Zm.461-2.535a4.568,4.568,0,0,0,3.073-1.229,3.959,3.959,0,0,0,1.383-3,5.473,5.473,0,0,0-3.457-.922,4.179,4.179,0,0,0-3,.845,2.385,2.385,0,0,0-1,2.074,1.928,1.928,0,0,0,.922,1.69A4.616,4.616,0,0,0-14.986,220.9Z" transform="translate(36.345 -183.943)" fill="#fff"/>
          <path id="Path_81888" data-name="Path 81888" d="M2.259,207.056v2.382h.154a3.729,3.729,0,0,1,1.767-2,5.982,5.982,0,0,1,2.843-.691,1.866,1.866,0,0,1,.922,0v2.612a2.539,2.539,0,0,0-1.076,0,4.339,4.339,0,0,0-3.15,1.152,4.108,4.108,0,0,0-1.229,3.15V221.5H-.2V207.056Zm14.905,14.6a4.061,4.061,0,0,1-3.457-1.229,4.229,4.229,0,0,1-1.229-3.457v-7.529H9.865v-2.459H12.4V202.6h2.689v4.456h3.534v2.459H15.089v7.3c0,1.613.691,2.382,2,2.382a3.185,3.185,0,0,0,1.229-.231l.922,2.382a6.17,6.17,0,0,1-2.074.307Z" transform="translate(31.547 -182.695)" fill="#fff"/>
          <path id="Path" d="M30.535,208.359v2h.154a5.358,5.358,0,0,1,1.921-1.767A5.606,5.606,0,0,1,35.3,207.9a5.506,5.506,0,0,1,4.226,1.69,6.633,6.633,0,0,1,1.46,4.456v8.912H38.218v-8.451c0-2.689-1.229-4-3.611-4a3.688,3.688,0,0,0-2.843,1.306,5.2,5.2,0,0,0-1.076,3.15v8.067H28V208.513Z" transform="translate(25.013 -183.921)" fill="#fff"/>
          <path id="Path_81889" data-name="Path 81889" d="M55.72,223.465a6.556,6.556,0,0,1-5.224-2.228,8.239,8.239,0,0,1,0-10.756A6.146,6.146,0,0,1,55.49,208.1a6.344,6.344,0,0,1,4.994,2.074,7.907,7.907,0,0,1,1.844,5.762v.461H51.187a4.888,4.888,0,0,0,1.46,3.457,4.231,4.231,0,0,0,3.073,1.229,3.74,3.74,0,0,0,3.842-2.459l2.382.922a6.339,6.339,0,0,1-2.3,2.843,7.188,7.188,0,0,1-3.918,1.076Zm3.765-9.45a4,4,0,0,0-1.076-2.382,3.879,3.879,0,0,0-3.073-1.152,3.819,3.819,0,0,0-2.535.922,4.848,4.848,0,0,0-1.537,2.535h8.221Z" transform="translate(20.265 -183.968)" fill="#fff"/>
          <path id="Path_81890" data-name="Path 81890" d="M72.489,222.959H69.8V208.284h2.612v2.382h.154a3.916,3.916,0,0,1,1.69-2,4.643,4.643,0,0,1,2.459-.768,6.587,6.587,0,0,1,2.074.384L77.714,210.9a3.069,3.069,0,0,0-1.46-.154,3.518,3.518,0,0,0-2.612,1.229,4.043,4.043,0,0,0-1.152,3.15v7.837Z" transform="translate(15.328 -183.923)" fill="#fff"/>
          <path id="Path_81891" data-name="Path 81891" d="M-34.162,189.683a6.362,6.362,0,0,1-5.916-3.15,6.519,6.519,0,0,1,0-6.684,6.593,6.593,0,0,1,5.916-3.15,6.257,6.257,0,0,1,4.533,1.767l-1.229,1.229a4.408,4.408,0,0,0-3.15-1.229,4.738,4.738,0,0,0-4.763,4.763,4.738,4.738,0,0,0,4.763,4.764,4.4,4.4,0,0,0,3.3-1.306,3.422,3.422,0,0,0,.922-2.228h-4.379v-1.844h5.993a6.21,6.21,0,0,1,.077,1.229,5.671,5.671,0,0,1-1.613,4.149,6.084,6.084,0,0,1-4.456,1.69Z" transform="translate(41 -176.692)" fill="#fff"/>
          <path id="Path_81892" data-name="Path 81892" d="M-14.482,186.726a4.28,4.28,0,0,1-2.612,4,4.25,4.25,0,0,1-4.687-.922,4.25,4.25,0,0,1-.922-4.687,4.2,4.2,0,0,1,4-2.612,4.241,4.241,0,0,1,3,1.229,4.241,4.241,0,0,1,1.229,3Zm-1.844,0a2.4,2.4,0,0,0-2.535-2.228,2.393,2.393,0,0,0-2.3,2.459,2.445,2.445,0,0,0,2.382,2.382,2.5,2.5,0,0,0,1.767-.768,3.065,3.065,0,0,0,.691-1.844Z" transform="translate(36.84 -178.038)" fill="#fff"/>
          <path id="Path_81893" data-name="Path 81893" d="M-1.782,186.726a4.28,4.28,0,0,1-2.612,4,4.25,4.25,0,0,1-4.687-.922A4.25,4.25,0,0,1-10,185.112a4.28,4.28,0,0,1,4-2.612,4.241,4.241,0,0,1,3,1.229A4.241,4.241,0,0,1-1.782,186.726Zm-1.844,0A2.4,2.4,0,0,0-6.161,184.5a2.393,2.393,0,0,0-2.3,2.459,2.445,2.445,0,0,0,2.382,2.382,2.5,2.5,0,0,0,1.767-.768A2.753,2.753,0,0,0-3.626,186.726Z" transform="translate(33.897 -178.038)" fill="#fff"/>
          <path id="Path_81894" data-name="Path 81894" d="M9.99,182.63v7.3A3.792,3.792,0,0,1,9.068,193,4.111,4.111,0,0,1,6,194.232,4,4,0,0,1,2.23,191.85l1.613-.691A2.353,2.353,0,0,0,6,192.618a1.952,1.952,0,0,0,1.767-.691,1.777,1.777,0,0,0,.538-1.69V189.7h0a3.547,3.547,0,0,1-2.3.845A4.073,4.073,0,0,1,6,182.4a2.955,2.955,0,0,1,2.228.922h0v-.691Zm-1.613,3.842a2.037,2.037,0,0,0-.615-1.69,2.858,2.858,0,0,0-1.69-.768,2.868,2.868,0,0,0-1.767.768,2.074,2.074,0,0,0-.768,1.69,1.888,1.888,0,0,0,.691,1.69A2.434,2.434,0,0,0,6,188.854a2.664,2.664,0,0,0,1.69-.768,1.981,1.981,0,0,0,.538-1.69C8.223,186.472,8.377,186.472,8.377,186.472Z" transform="translate(31.037 -178.015)" fill="#fff"/>
          <path id="Path_81895" data-name="Path 81895" d="M16.1,177.1v12.677h-2V177.1Z" transform="translate(28.234 -176.787)" fill="#fff"/>
          <path id="Path_81896" data-name="Path 81896" d="M24.69,188.162l1.306.922a3.837,3.837,0,0,1-4.456,1.69A4.252,4.252,0,0,1,18.7,186.7a4.18,4.18,0,0,1,1-3,3.65,3.65,0,0,1,2.766-1.306,3.772,3.772,0,0,1,3.381,2.689l.154.461-5.3,2.382a1.984,1.984,0,0,0,1.921,1.306,2.129,2.129,0,0,0,2.074-1.076Zm-4.149-1.69,3.534-1.613a1.613,1.613,0,0,0-1.537-.922,2.572,2.572,0,0,0-1.537.845,2.825,2.825,0,0,0-.461,1.69Z" transform="translate(27.171 -178.015)" fill="#fff"/>
        </g>
        <path id="Subtraction_1" data-name="Subtraction 1" d="M0,50V0H14.9V50H0Zm6.4-8.851a1.733,1.733,0,0,0-1.166.583,1.883,1.883,0,0,0-.5,1.333v2.082h5.331V44.4h-2V43.064a1.883,1.883,0,0,0-.5-1.333A1.358,1.358,0,0,0,6.4,41.149Zm0-5.914a1.648,1.648,0,0,0-1.166.5,1.705,1.705,0,0,0-.5,1.25V38.9h5.331v-.5H7.9v-.833l2.166-1.583v-.916L7.9,36.651a1.426,1.426,0,0,0-.5-1A1.53,1.53,0,0,0,6.4,35.235ZM4.815,29.654v3.082h5.248V29.654H9.4v2.415H7.73V29.9H7.064v2.082H5.4V29.654Zm-.5-7.912v.666L7.98,24.324,4.315,26.239v.75h6.164v-.75H5.815l3.415-1.666v-.417L5.815,22.408h4.664v-.666Zm0-4v.833h6.164v-.833Zm.5-5.831v3.165h5.248V11.913H9.4v2.415H7.73V12.246H7.064v2.082H5.4V11.913ZM6.231,5.167a1.883,1.883,0,0,0-1.333.5,1.7,1.7,0,0,0-.5,1.249v2h6.081l.249-.667H8.147V7.5l2.415-1.583V5L7.98,6.583a1.548,1.548,0,0,0-.583-1A1.822,1.822,0,0,0,6.231,5.167Zm1,39.23H5.481V43.064a.844.844,0,0,1,.25-.75.856.856,0,0,1,.667-.334,1.06,1.06,0,0,1,.583.334,1.023,1.023,0,0,1,.249.75V44.4Zm0-6.247H5.4V36.9a.84.84,0,0,1,.25-.75,1.1,1.1,0,0,1,.666-.249,1.048,1.048,0,0,1,.667.333,1.162,1.162,0,0,1,.249.75V38.15ZM7.147,8.082H4.981V6.833a1.241,1.241,0,0,1,.333-.75,1.346,1.346,0,0,1,.75-.25,1.246,1.246,0,0,1,.75.333.907.907,0,0,1,.333.75V8.081Z" fill="#fff"/>
      </g>
    </g>
    <g id="amazongAds" transform="translate(253 436)">
      <g id="编组-53" transform="translate(0 0)">
        <g id="spn" transform="translate(0 0)">
          <g id="编组-102">
            <g id="编组">
              <g id="Group_46125" data-name="Group 46125" transform="translate(15.959 28.267)">
                <path id="Fill-1" d="M117.036,277.508c-6.447,4.613-15.788,7.077-23.84,7.077a43.964,43.964,0,0,1-29.14-10.774c-.6-.516-.057-1.261.659-.831a60.246,60.246,0,0,0,29.14,7.507,59.454,59.454,0,0,0,22.235-4.413c1.117-.487,2.034.659.946,1.433" transform="translate(-63.798 -272.852)" fill="#fff" fill-rule="evenodd"/>
              </g>
              <path id="Fill-3" d="M249.6,296.39c-.745-.974-5.014-.458-6.905-.229-.573.057-.659-.43-.143-.8,3.381-2.407,8.94-1.719,9.57-.917.659.831-.172,6.476-3.352,9.169-.487.4-.946.2-.745-.344.745-1.834,2.35-5.9,1.576-6.877" transform="translate(-179.141 -266.619)" fill="#fff" fill-rule="evenodd"/>
              <path id="Fill-5" d="M242.759,222.266v-2.608a.625.625,0,0,1,.63-.659h11.232a.648.648,0,0,1,.659.659v2.235a3.677,3.677,0,0,1-.86,1.633L248.6,232.18a12.121,12.121,0,0,1,6.418,1.433,1.212,1.212,0,0,1,.6,1.032v2.779c0,.372-.4.831-.831.6a12.5,12.5,0,0,0-11.891.029c-.4.229-.8-.229-.8-.6v-2.665a3.161,3.161,0,0,1,.43-1.805l6.762-10.086h-5.874a.623.623,0,0,1-.659-.63" transform="translate(-179.063 -213.327)" fill="#fff" fill-rule="evenodd"/>
              <path id="Fill-7" d="M92.926,239.329H89.6a.672.672,0,0,1-.6-.6v-18.6a.648.648,0,0,1,.659-.659h3.123a.675.675,0,0,1,.6.63v2.436h.057c.8-2.35,2.35-3.438,4.413-3.438,2.092,0,3.41,1.089,4.327,3.438a4.764,4.764,0,0,1,4.613-3.438,4.639,4.639,0,0,1,3.868,2.034c1.06,1.576.831,3.84.831,5.817V238.67a.643.643,0,0,1-.63.659H107.51a.657.657,0,0,1-.6-.659v-9.857a28.341,28.341,0,0,0-.086-3.5,1.774,1.774,0,0,0-1.977-1.6,2.234,2.234,0,0,0-2.006,1.519,12.09,12.09,0,0,0-.315,3.553v9.857a.643.643,0,0,1-.63.659H98.542a.657.657,0,0,1-.6-.659v-9.857c0-2.063.315-5.129-2.063-5.129-2.407,0-2.321,2.98-2.321,5.129v9.857a.618.618,0,0,1-.63.688" transform="translate(-69.831 -213.398)" fill="#fff" fill-rule="evenodd"/>
              <path id="Fill-9" d="M305.051,222.725c-2.55,0-2.722,3.582-2.722,5.788,0,2.235-.029,6.991,2.693,6.991,2.693,0,2.808-3.84,2.808-6.189a17.09,17.09,0,0,0-.516-4.842,2.164,2.164,0,0,0-2.264-1.748M305.022,219c5.158,0,7.937,4.527,7.937,10.287,0,5.559-3.095,9.971-7.937,9.971-5.072,0-7.822-4.527-7.822-10.172,0-5.673,2.779-10.086,7.822-10.086" transform="translate(-218.375 -213.327)" fill="#fff" fill-rule="evenodd"/>
              <path id="Fill-11" d="M367.868,239.258H364.6a.657.657,0,0,1-.6-.659V220a.63.63,0,0,1,.63-.6h3.037a.639.639,0,0,1,.573.516v2.837h.057c.917-2.55,2.206-3.754,4.47-3.754a4.26,4.26,0,0,1,3.84,2.178c.859,1.49.859,3.983.859,5.788v11.691a.625.625,0,0,1-.63.573h-3.3a.616.616,0,0,1-.573-.573V228.57c0-2.034.229-5.014-2.063-5.014a2.106,2.106,0,0,0-1.891,1.49,9.081,9.081,0,0,0-.516,3.524v10a.65.65,0,0,1-.63.688" transform="translate(-266.034 -213.327)" fill="#fff" fill-rule="evenodd"/>
              <path id="Fill-13" d="M193.283,239.043a.739.739,0,0,1-.831.086,9.125,9.125,0,0,1-2.034-2.35c-1.948,1.977-3.324,2.579-5.817,2.579-2.98,0-5.3-1.834-5.3-5.53a6.012,6.012,0,0,1,3.754-5.788c1.92-.831,4.585-1,6.648-1.232v-.458a4.7,4.7,0,0,0-.43-2.579,2.338,2.338,0,0,0-1.977-.917,2.68,2.68,0,0,0-2.837,2.12.763.763,0,0,1-.6.659l-3.41-.372a.609.609,0,0,1-.516-.745c.774-4.183,4.527-5.415,7.908-5.415a7.993,7.993,0,0,1,5.329,1.777c1.719,1.6,1.547,3.754,1.547,6.1v5.53a4.865,4.865,0,0,0,1.347,3.3.673.673,0,0,1,0,.946c-.774.544-2.063,1.662-2.779,2.292Zm-3.553-8.653a7.027,7.027,0,0,1-.659,3.754,2.871,2.871,0,0,1-2.436,1.6c-1.347,0-2.149-1.032-2.149-2.579,0-3.009,2.693-3.582,5.244-3.582Z" transform="translate(-134.257 -213.398)" fill="#fff" fill-rule="evenodd"/>
              <path id="Fill-15" d="M36.083,238.971a.739.739,0,0,1-.831.086,9.127,9.127,0,0,1-2.034-2.35c-1.948,1.977-3.324,2.579-5.817,2.579-2.98,0-5.3-1.834-5.3-5.53a6.012,6.012,0,0,1,3.754-5.788c1.92-.831,4.585-1,6.648-1.232v-.458a4.7,4.7,0,0,0-.43-2.579,2.338,2.338,0,0,0-1.977-.917,2.68,2.68,0,0,0-2.837,2.12.763.763,0,0,1-.6.659l-3.41-.372a.609.609,0,0,1-.516-.745C23.5,220.261,27.258,219,30.61,219a7.994,7.994,0,0,1,5.33,1.776c1.719,1.6,1.547,3.754,1.547,6.1v5.53a4.865,4.865,0,0,0,1.347,3.3.673.673,0,0,1,0,.946c-.745.573-2.034,1.691-2.751,2.321Zm-3.553-8.653a7.027,7.027,0,0,1-.659,3.754,2.871,2.871,0,0,1-2.436,1.6c-1.347,0-2.149-1.032-2.149-2.579,0-3.009,2.693-3.582,5.244-3.582Z" transform="translate(-22.1 -213.327)" fill="#fff" fill-rule="evenodd"/>
              <path id="Fill-17" d="M498.1,210.031a7.34,7.34,0,0,0-1.433,4.842,7.9,7.9,0,0,0,1.375,4.9,5.6,5.6,0,0,0,4.7,2.034,5.465,5.465,0,0,0,4.527-2.006,7.408,7.408,0,0,0,1.433-4.7v-.344a7.38,7.38,0,0,0-1.6-4.871,5.285,5.285,0,0,0-4.212-1.862,5.721,5.721,0,0,0-4.785,2.006m13.524-10.086v22.98a.646.646,0,0,1-.688.6h-1.4a.677.677,0,0,1-.716-.63V220.69a6.992,6.992,0,0,1-6.418,3.3,8.348,8.348,0,0,1-6.619-2.751,9.371,9.371,0,0,1-2.178-6.418,9.1,9.1,0,0,1,2.178-6.275,7.971,7.971,0,0,1,6.476-2.779,7.059,7.059,0,0,1,6.39,3.639v-9.57a.677.677,0,0,1,.716-.63h1.49a.784.784,0,0,1,.774.745" transform="translate(-358.5 -199.2)" fill="#fff" fill-rule="evenodd"/>
              <path id="Fill-33" d="M443.709,230.49a4.852,4.852,0,0,1-1.948,3.754,6.761,6.761,0,0,1-4.5,1.691,4.363,4.363,0,0,1-2.693-.8,2.534,2.534,0,0,1-1-2.063c0-2.636,2.006-3.954,6.017-4.04l4.126-.057Zm1.175-9.456c-1.261-1.375-3.123-2.034-5.673-2.034a12.219,12.219,0,0,0-2.12.172h0a12.374,12.374,0,0,0-4.785,1.834.513.513,0,0,0-.2.659l.516,1.06a.523.523,0,0,0,.716.229,17.194,17.194,0,0,1,4.269-1.547,7.448,7.448,0,0,1,1.433-.115c3.123,0,4.67,1.519,4.67,4.556v.946l-4.3.057c-2.693.029-4.785.4-6.246,1.4a5.4,5.4,0,0,0-2.464,4.814,4.565,4.565,0,0,0,1.662,3.639,6.346,6.346,0,0,0,4.3,1.375,8.924,8.924,0,0,0,4.47-1.117,7.987,7.987,0,0,0,2.722-2.436v2.378a.7.7,0,0,0,.688.688h1.232a.7.7,0,0,0,.688-.688V225.934a7.006,7.006,0,0,0-1.576-4.9Z" transform="translate(-313.623 -213.327)" fill="#fff" fill-rule="evenodd"/>
              <path id="Fill-35" d="M564.4,234.831a.519.519,0,0,1,.8-.43,8.646,8.646,0,0,0,4.5,1.232c2.521,0,4.241-.831,4.241-2.464a2.131,2.131,0,0,0-.831-1.719,17.545,17.545,0,0,0-3.811-1.6,9.363,9.363,0,0,1-3.954-2.407,4.63,4.63,0,0,1-.917-2.865,4.771,4.771,0,0,1,2.063-4.011,8.55,8.55,0,0,1,5.072-1.461,11.513,11.513,0,0,1,4.011.831.527.527,0,0,1,.344.487v1.862a.523.523,0,0,1-.774.458,8.85,8.85,0,0,0-3.9-1.031,5.69,5.69,0,0,0-2.837.659,2.437,2.437,0,0,0-1.117,1.92,2.07,2.07,0,0,0,.716,1.691,19.294,19.294,0,0,0,3.553,1.547,10.674,10.674,0,0,1,4.155,2.35,4.36,4.36,0,0,1,1.089,3.009,4.518,4.518,0,0,1-2.063,3.926,9.251,9.251,0,0,1-5.358,1.433,11.317,11.317,0,0,1-4.67-.917.5.5,0,0,1-.315-.487Z" transform="translate(-409.013 -213.398)" fill="#fff" fill-rule="evenodd"/>
            </g>
          </g>
        </g>
      </g>
    </g>
  </g>
</svg>
