<svg id="amplifiedROI" xmlns="http://www.w3.org/2000/svg" xmlns:xlink="http://www.w3.org/1999/xlink" width="70.004" height="70" viewBox="0 0 70.004 70">
  <defs>
    <linearGradient id="linear-gradient" x1="0.5" x2="0.5" y2="1" gradientUnits="objectBoundingBox">
      <stop offset="0" stop-color="#6575e4"/>
      <stop offset="1" stop-color="#9257b9"/>
    </linearGradient>
  </defs>
  <path id="Path_7281" data-name="Path 7281" d="M67.449,37.922a4.6,4.6,0,0,0-4.839.437L57.493,42.2a25.986,25.986,0,0,0-14.822-4.964A6.27,6.27,0,0,1,45.936,31.9a5.817,5.817,0,0,0,3.806,1.47,5.875,5.875,0,0,0,2.208-.441c2.068-.836,3.542-2.671,3.5-4.362-.027-1.184,1.274-1.39,1.527-1.418a1.094,1.094,0,0,0,.224-2.132c-4.078-1.289-7.257-1.151-9.445.41a6.77,6.77,0,0,0-2.642,4.447,8.4,8.4,0,0,0-2.461,1.873V21.876H55.784a1.094,1.094,0,0,0,1.094-1.094V1.094A1.094,1.094,0,0,0,55.784,0H27.345a1.094,1.094,0,0,0-1.094,1.094V20.782a1.094,1.094,0,0,0,1.094,1.094H40.471v9.875a8.4,8.4,0,0,0-2.461-1.874,6.77,6.77,0,0,0-2.642-4.447c-2.188-1.56-5.365-1.7-9.445-.41a1.094,1.094,0,0,0,.224,2.132c.159.015,1.555.185,1.527,1.418-.037,1.691,1.437,3.527,3.5,4.362A5.693,5.693,0,0,0,37.193,31.9a6.27,6.27,0,0,1,3.264,5.312c-6.82.242-12.963,2.7-16.831,6.739l-.789-.789a5.434,5.434,0,0,0-3.868-1.6h-4.75V39.377a1.094,1.094,0,0,0-1.094-1.094H6.563a1.094,1.094,0,0,0-1.094,1.094v1.094H1.094A1.094,1.094,0,0,0,0,41.565V65.626A1.094,1.094,0,0,0,1.094,66.72H5.469v1.094a1.094,1.094,0,0,0,1.094,1.094h6.563a1.094,1.094,0,0,0,1.094-1.094V65.627h7.454L31.5,69.408a8.964,8.964,0,0,0,8.791-1.363L68.27,45.664a4.622,4.622,0,0,0-.821-7.742ZM49.05,27.2a6.651,6.651,0,0,1,4.872-.721,3.31,3.31,0,0,0-.655,2.143c.015.666-.859,1.768-2.137,2.285a3.523,3.523,0,0,1-2.738,0l2.212-.833a1.094,1.094,0,1,0-.771-2.048l-2.117.8A4.1,4.1,0,0,1,49.05,27.2ZM28.439,2.188H54.69v17.5H28.439ZM32,30.9c-1.279-.517-2.152-1.619-2.137-2.285a3.31,3.31,0,0,0-.655-2.143,6.641,6.641,0,0,1,4.872.721,4.1,4.1,0,0,1,1.335,1.628l-2.117-.8a1.094,1.094,0,0,0-.771,2.048l2.212.833A3.521,3.521,0,0,1,32,30.9Zm9.565,8.472a24.405,24.405,0,0,1,14.11,4.183l-7.9,5.923c-.015-.04-.038-.077-.054-.117-.036-.089-.08-.172-.121-.258a5.446,5.446,0,0,0-.329-.605c-.057-.09-.114-.178-.176-.265a5.486,5.486,0,0,0-.455-.551c-.056-.06-.106-.125-.165-.182a5.5,5.5,0,0,0-.725-.6c-.065-.045-.137-.08-.2-.122a5.441,5.441,0,0,0-.634-.345c-.1-.046-.205-.087-.31-.127a5.413,5.413,0,0,0-.639-.2c-.105-.026-.208-.056-.316-.075a5.449,5.449,0,0,0-.945-.1c-.016,0-.031,0-.047,0H25.611l-.436-.436C28.809,41.7,34.977,39.377,41.565,39.377ZM2.188,64.533V42.658H5.469V64.533Zm9.844,2.188H7.657V40.471h4.375ZM66.9,43.956,38.926,66.337a6.77,6.77,0,0,1-6.639,1.029L22.269,63.513a1.089,1.089,0,0,0-.393-.073H14.219V43.751h4.75a3.261,3.261,0,0,1,2.321.961l1.6,1.6,0,.006,1.488,1.487a1.093,1.093,0,0,0,.773.32h17.5a3.281,3.281,0,1,1,0,6.562h-17.5a1.094,1.094,0,0,0,0,2.188h17.5A5.458,5.458,0,0,0,48.068,52l10.078-7.559,0,0,5.773-4.33A2.434,2.434,0,0,1,66.9,43.956Z" transform="translate(0 0)" fill="url(#linear-gradient)"/>
  <path id="Path_7282" data-name="Path 7282" d="M39.469,16.032v-.079c2.156-.335,3.281-1.781,3.281-3.2s-1.127-2.868-3.281-3.2V7.356c.818.141,1.073.447,1.094.58a1.08,1.08,0,0,0,1.021,1.076,1.126,1.126,0,0,0,1.165-1.017,1.733,1.733,0,0,0-.011-.289c-.063-.56-.473-2.249-3.27-2.559V5.094a1.094,1.094,0,1,0-2.188,0v.079C35.125,5.508,34,6.954,34,8.376s1.127,2.868,3.281,3.2v2.188c-.807-.141-1.078-.436-1.095-.521A1.094,1.094,0,1,0,34,13.128c0,.058,0,.223.011.28.058.562.48,2.245,3.27,2.566v.058a1.094,1.094,0,1,0,2.188,0Zm0-4.259c.719.19,1.094.586,1.094.977s-.374.787-1.094.976Zm-2.188-2.42c-.719-.19-1.094-.586-1.094-.977s.374-.787,1.094-.976Z" transform="translate(3.189 0.375)" fill="url(#linear-gradient)"/>
</svg>
