<svg xmlns="http://www.w3.org/2000/svg" width="35.39" height="34.999" viewBox="0 0 35.39 34.999">
  <g id="analysis" transform="translate(-4 -4.31)">
    <path id="Path_82334" data-name="Path 82334" d="M38.758,43.317H37.283V20.176a1.541,1.541,0,0,0-1.54-1.539H32.618a1.541,1.541,0,0,0-1.539,1.539V43.317H28.959V31.165a1.541,1.541,0,0,0-1.539-1.54H24.294a1.541,1.541,0,0,0-1.539,1.54V43.317H20.635V26.723a1.541,1.541,0,0,0-1.539-1.54H15.97a1.541,1.541,0,0,0-1.539,1.54V43.317H12.311V36.04a1.541,1.541,0,0,0-1.539-1.54H7.647a1.541,1.541,0,0,0-1.54,1.54v7.277H4.632a.632.632,0,1,0,0,1.264c4.721,0,32.771,0,34.126,0a.632.632,0,1,0,0-1.264Zm-31.387,0V36.04a.277.277,0,0,1,.276-.276h3.125a.276.276,0,0,1,.275.276v7.277Zm8.324,0V26.723a.276.276,0,0,1,.275-.276H19.1a.276.276,0,0,1,.275.276V43.317Zm8.324,0V31.165a.276.276,0,0,1,.275-.276H27.42a.276.276,0,0,1,.275.276V43.317Zm8.324,0V20.176a.275.275,0,0,1,.275-.275h3.125a.276.276,0,0,1,.276.275V43.317Z" transform="translate(0 -5.273)"/>
    <path id="Path_82335" data-name="Path 82335" d="M10.731,20.176a2.389,2.389,0,0,0,2.117-3.465l4.935-4.494a2.379,2.379,0,0,0,3.054-.439l4.2,2.06a2.381,2.381,0,1,0,4.47-.616L34.569,8.7a2.388,2.388,0,1,0-.84-.944l-5.061,4.522a2.382,2.382,0,0,0-3.068.429l-4.2-2.06a2.381,2.381,0,1,0-4.461.634L12,15.775a2.384,2.384,0,1,0-1.268,4.4Zm25.125-14.6A1.123,1.123,0,1,1,34.734,6.7a1.123,1.123,0,0,1,1.123-1.123Zm-8.477,7.584a1.123,1.123,0,1,1-1.123,1.123,1.123,1.123,0,0,1,1.123-1.123ZM19.055,9.083a1.123,1.123,0,1,1-1.123,1.123,1.123,1.123,0,0,1,1.123-1.123Zm-8.324,7.584a1.123,1.123,0,1,1-1.123,1.123,1.123,1.123,0,0,1,1.123-1.123Z" transform="translate(-1.599)"/>
  </g>
</svg>
