<svg xmlns="http://www.w3.org/2000/svg" xmlns:xlink="http://www.w3.org/1999/xlink" width="1600" height="862" viewBox="0 0 1600 862">
  <defs>
    <clipPath id="clip-path">
      <rect id="Rectangle_2627" data-name="Rectangle 2627" width="1600" height="862" transform="translate(0 8447)"/>
    </clipPath>
  </defs>
  <g id="bgImgWhyChoose" transform="translate(0 -8447)" clip-path="url(#clip-path)">
    <g id="Group_46921" data-name="Group 46921" transform="translate(-118.392 8008.51)" opacity="0.1">
      <path id="Path_82339" data-name="Path 82339" d="M300.935,255.094c-.12.072-.252.136-.384.216l.056.068c.124-.08.256-.152.388-.22Z" transform="translate(949.602 999.773)" fill="#fff"/>
      <path id="Path_82340" data-name="Path 82340" d="M295.724,257.992c-.132.084-.272.148-.4.224l.052.072c.14-.072.272-.144.408-.212Z" transform="translate(933.898 1008.473)" fill="#fff"/>
      <path id="Path_82341" data-name="Path 82341" d="M306.053,252.041c-.136.076-.26.156-.388.236l.052.06c.128-.076.26-.156.384-.232Z" transform="translate(964.956 990.607)" fill="#fff"/>
      <path id="Path_82342" data-name="Path 82342" d="M290.334,260.754c-.136.072-.272.128-.408.2l.056.076c.128-.06.264-.128.4-.188Z" transform="translate(917.703 1016.765)" fill="#fff"/>
      <path id="Path_82343" data-name="Path 82343" d="M311.117,248.83c-.136.088-.272.18-.412.264l.064.06c.14-.1.28-.18.416-.268Z" transform="translate(980.087 980.966)" fill="#fff"/>
      <path id="Path_82344" data-name="Path 82344" d="M284.749,263.372c-.152.064-.3.128-.444.2l.064.088c.144-.06.288-.124.428-.2Z" transform="translate(900.828 1024.625)" fill="#fff"/>
      <path id="Path_82345" data-name="Path 82345" d="M316.134,245.445c-.14.092-.276.188-.4.284l.056.056c.14-.1.276-.192.412-.28Z" transform="translate(995.173 970.804)" fill="#fff"/>
      <path id="Path_82346" data-name="Path 82346" d="M299.08,255.418c-.712.388-1.417.772-2.125,1.145.1.136.2.276.32.424.708-.388,1.409-.768,2.117-1.153C299.288,255.7,299.18,255.562,299.08,255.418Z" transform="translate(938.806 1000.745)" fill="#fff"/>
      <path id="Path_82347" data-name="Path 82347" d="M303.926,252.567c-.588.348-1.181.688-1.773,1.029.088.112.188.22.276.324.6-.344,1.185-.684,1.781-1.033C304.11,252.783,304.022,252.675,303.926,252.567Z" transform="translate(954.412 992.186)" fill="#fff"/>
      <path id="Path_82348" data-name="Path 82348" d="M278.9,265.847c-.172.064-.336.136-.5.2l.056.112c.172-.064.336-.128.5-.2Z" transform="translate(883.091 1032.056)" fill="#fff"/>
      <path id="Path_82349" data-name="Path 82349" d="M293.886,258.143c-.744.368-1.489.728-2.241,1.1.112.156.216.316.324.468.744-.364,1.493-.732,2.241-1.1C294.094,258.451,293.99,258.3,293.886,258.143Z" transform="translate(922.864 1008.926)" fill="#fff"/>
      <path id="Path_82350" data-name="Path 82350" d="M309.213,249.5c-.688.424-1.369.849-2.049,1.269.112.12.216.232.332.34.684-.416,1.361-.849,2.045-1.269C309.429,249.723,309.321,249.6,309.213,249.5Z" transform="translate(969.456 982.975)" fill="#fff"/>
      <path id="Path_82351" data-name="Path 82351" d="M321.178,241.868c-.132.1-.26.2-.4.288l.064.048c.14-.092.272-.2.4-.284Z" transform="translate(1010.328 960.065)" fill="#fff"/>
      <path id="Path_82352" data-name="Path 82352" d="M288.193,260.745c-.668.3-1.333.6-2.005.893.1.152.188.3.276.444.664-.3,1.333-.588,2-.893C288.377,261.041,288.277,260.9,288.193,260.745Z" transform="translate(906.481 1016.738)" fill="#fff"/>
      <path id="Path_82353" data-name="Path 82353" d="M314.038,246.309c-.612.4-1.229.812-1.845,1.213.1.092.208.176.312.272.612-.4,1.233-.812,1.845-1.221C314.246,246.485,314.138,246.4,314.038,246.309Z" transform="translate(984.554 973.398)" fill="#fff"/>
      <path id="Path_82354" data-name="Path 82354" d="M272.615,268.178c-.16.044-.316.108-.472.168l.048.108c.156-.064.324-.108.48-.168Z" transform="translate(864.315 1039.054)" fill="#fff"/>
      <path id="Path_82355" data-name="Path 82355" d="M282.653,263.155c-.748.292-1.5.6-2.245.889.1.176.188.36.288.528.748-.3,1.5-.6,2.249-.892C282.849,263.507,282.753,263.323,282.653,263.155Z" transform="translate(889.128 1023.973)" fill="#fff"/>
      <path id="Path_82356" data-name="Path 82356" d="M301.642,252.9c-1.017.56-2.041,1.113-3.058,1.657l.512.636c1.021-.556,2.041-1.109,3.066-1.665C301.986,253.321,301.814,253.113,301.642,252.9Z" transform="translate(943.697 993.177)" fill="#fff"/>
      <path id="Path_82357" data-name="Path 82357" d="M296.7,255.574c-1.113.56-2.229,1.109-3.358,1.657.172.252.352.5.528.752,1.125-.56,2.253-1.121,3.366-1.673C297.064,256.066,296.88,255.822,296.7,255.574Z" transform="translate(927.959 1001.214)" fill="#fff"/>
      <path id="Path_82358" data-name="Path 82358" d="M318.9,242.93c-.56.388-1.125.78-1.685,1.173.092.076.2.14.3.216.564-.388,1.133-.78,1.689-1.177C319.1,243.07,319,243,318.9,242.93Z" transform="translate(999.616 963.253)" fill="#fff"/>
      <path id="Path_82359" data-name="Path 82359" d="M326.319,238.068c-.14.112-.284.212-.42.32l.072.04c.136-.108.28-.216.416-.316Z" transform="translate(1025.703 948.656)" fill="#fff"/>
      <path id="Path_82360" data-name="Path 82360" d="M306.731,250.032c-1.025.6-2.053,1.2-3.078,1.8.18.192.356.388.536.584q1.537-.906,3.082-1.809C307.091,250.416,306.915,250.232,306.731,250.032Z" transform="translate(958.915 984.575)" fill="#fff"/>
      <path id="Path_82361" data-name="Path 82361" d="M291.726,258.08c-1.277.568-2.545,1.129-3.826,1.7.2.3.392.6.584.9,1.277-.568,2.553-1.129,3.822-1.709C292.11,258.668,291.918,258.376,291.726,258.08Z" transform="translate(911.621 1008.737)" fill="#fff"/>
      <path id="Path_82362" data-name="Path 82362" d="M311.7,247c-1.017.636-2.029,1.269-3.054,1.905.192.176.376.348.556.52,1.017-.628,2.029-1.269,3.046-1.909C312.07,247.347,311.886,247.175,311.7,247Z" transform="translate(973.911 975.482)" fill="#fff"/>
      <path id="Path_82363" data-name="Path 82363" d="M276.812,265.4c-.833.3-1.677.584-2.513.872.1.212.2.42.308.624q1.255-.444,2.513-.868C277.028,265.821,276.917,265.613,276.812,265.4Z" transform="translate(870.788 1030.717)" fill="#fff"/>
      <path id="Path_82364" data-name="Path 82364" d="M265.982,270.334c-.184.048-.368.1-.556.164l.06.132c.18-.056.364-.116.552-.164Z" transform="translate(844.149 1045.526)" fill="#fff"/>
      <path id="Path_82365" data-name="Path 82365" d="M286.334,260.441q-2.029.81-4.074,1.613c.2.344.388.688.588,1.021,1.361-.536,2.717-1.081,4.066-1.621C286.731,261.113,286.53,260.773,286.334,260.441Z" transform="translate(894.688 1015.825)" fill="#fff"/>
      <path id="Path_82366" data-name="Path 82366" d="M324.2,239.3c-.668.484-1.341.969-2,1.457.124.08.244.148.368.224q1-.726,2-1.465C324.441,239.435,324.321,239.371,324.2,239.3Z" transform="translate(1014.597 952.34)" fill="#fff"/>
      <path id="Path_82367" data-name="Path 82367" d="M316.75,243.782c-1.053.7-2.105,1.4-3.162,2.093.2.16.4.324.6.484,1.053-.7,2.1-1.409,3.158-2.113C317.154,244.09,316.95,243.934,316.75,243.782Z" transform="translate(988.742 965.811)" fill="#fff"/>
      <path id="Path_82368" data-name="Path 82368" d="M331.563,234.017c-.14.1-.272.212-.408.324l.068.028.412-.328Z" transform="translate(1041.482 936.494)" fill="#fff"/>
      <path id="Path_82369" data-name="Path 82369" d="M300.232,252.894c-1.821.92-3.638,1.817-5.471,2.706.328.432.64.86.965,1.289,1.833-.9,3.662-1.817,5.475-2.733C300.884,253.738,300.56,253.318,300.232,252.894Z" transform="translate(932.219 993.168)" fill="#fff"/>
      <path id="Path_82370" data-name="Path 82370" d="M304.551,250.305c-1.509.824-3.022,1.649-4.546,2.453.288.332.564.66.844,1q2.281-1.237,4.547-2.481C305.116,250.953,304.832,250.633,304.551,250.305Z" transform="translate(947.963 985.395)" fill="#fff"/>
      <path id="Path_82371" data-name="Path 82371" d="M280.325,262.663q-1.963.684-3.946,1.349c.188.348.356.7.536,1.041,1.321-.456,2.633-.909,3.942-1.369C280.685,263.347,280.5,263.007,280.325,262.663Z" transform="translate(877.032 1022.496)" fill="#fff"/>
      <path id="Path_82372" data-name="Path 82372" d="M270.562,267.476c-.92.268-1.853.544-2.774.816.1.236.2.472.316.708.924-.272,1.853-.548,2.769-.829C270.778,267.948,270.662,267.712,270.562,267.476Z" transform="translate(851.24 1036.946)" fill="#fff"/>
      <path id="Path_82373" data-name="Path 82373" d="M294.472,255.455c-1.625.728-3.25,1.453-4.891,2.181.276.408.552.816.828,1.229,1.633-.737,3.27-1.465,4.895-2.205C295.028,256.259,294.756,255.863,294.472,255.455Z" transform="translate(916.668 1000.856)" fill="#fff"/>
      <path id="Path_82374" data-name="Path 82374" d="M310.016,247.406q-2.539,1.5-5.095,2.978c.34.34.664.68,1,1.009q2.551-1.483,5.095-3.006C310.68,248.062,310.352,247.734,310.016,247.406Z" transform="translate(962.722 976.691)" fill="#fff"/>
      <path id="Path_82375" data-name="Path 82375" d="M321.595,240.388q-1.513,1.063-3.018,2.117c.2.14.384.272.588.4,1.013-.7,2.013-1.421,3.026-2.129C321.995,240.648,321.791,240.516,321.595,240.388Z" transform="translate(1003.72 955.622)" fill="#fff"/>
      <path id="Path_82376" data-name="Path 82376" d="M289.354,257.756q-2.653,1.051-5.307,2.085c.292.468.564.948.849,1.409,1.781-.7,3.546-1.4,5.307-2.113C289.922,258.68,289.63,258.224,289.354,257.756Z" transform="translate(900.053 1007.765)" fill="#fff"/>
      <path id="Path_82377" data-name="Path 82377" d="M329.133,235.484c-.592.452-1.189.9-1.769,1.345.1.06.216.108.332.164.584-.452,1.177-.9,1.769-1.353C329.353,235.592,329.245,235.536,329.133,235.484Z" transform="translate(1030.101 940.899)" fill="#fff"/>
      <path id="Path_82378" data-name="Path 82378" d="M258.82,272.3c-.228.052-.448.112-.668.168l.064.168c.224-.068.444-.116.664-.168Z" transform="translate(822.311 1051.423)" fill="#fff"/>
      <path id="Path_82379" data-name="Path 82379" d="M314.631,244.418c-1.573.993-3.146,1.985-4.719,2.962.316.288.64.576.957.853,1.573-.993,3.154-1.985,4.735-3C315.279,244.97,314.955,244.69,314.631,244.418Z" transform="translate(977.706 967.721)" fill="#fff"/>
      <path id="Path_82380" data-name="Path 82380" d="M274.549,264.644c-1.5.44-3,.884-4.518,1.309.2.412.388.828.584,1.241,1.5-.444,3.018-.884,4.518-1.333C274.93,265.456,274.742,265.048,274.549,264.644Z" transform="translate(857.974 1028.444)" fill="#fff"/>
      <path id="Path_82381" data-name="Path 82381" d="M283.489,259.921q-2.569.883-5.163,1.753c.264.48.532.969.784,1.449,1.733-.592,3.446-1.181,5.163-1.793C284.009,260.862,283.749,260.393,283.489,259.921Z" transform="translate(882.878 1014.264)" fill="#fff"/>
      <path id="Path_82382" data-name="Path 82382" d="M337.058,229.661c-.16.12-.312.24-.464.376l.08.012c.16-.12.308-.244.464-.368Z" transform="translate(1057.812 923.417)" fill="#fff"/>
      <path id="Path_82383" data-name="Path 82383" d="M263.589,269.366c-.924.228-1.853.444-2.781.668.112.244.2.492.3.732.933-.22,1.853-.456,2.778-.681C263.782,269.85,263.694,269.61,263.589,269.366Z" transform="translate(830.285 1042.62)" fill="#fff"/>
      <path id="Path_82384" data-name="Path 82384" d="M302.725,250.281c-2.173,1.081-4.358,2.169-6.536,3.23.432.552.865,1.1,1.293,1.641,2.193-1.085,4.374-2.189,6.548-3.29C303.6,251.342,303.161,250.809,302.725,250.281Z" transform="translate(936.507 985.323)" fill="#fff"/>
      <path id="Path_82385" data-name="Path 82385" d="M326.842,236.737c-1.1.812-2.189,1.609-3.282,2.417.224.12.444.244.664.364q1.639-1.207,3.282-2.421C327.294,236.973,327.066,236.865,326.842,236.737Z" transform="translate(1018.681 944.661)" fill="#fff"/>
      <path id="Path_82386" data-name="Path 82386" d="M297.57,252.751c-2.165.976-4.35,1.949-6.544,2.9.416.592.828,1.173,1.237,1.753,2.189-.973,4.374-1.965,6.548-2.958C298.406,253.888,297.99,253.323,297.57,252.751Z" transform="translate(921.006 992.738)" fill="#fff"/>
      <path id="Path_82387" data-name="Path 82387" d="M319.892,241.166q-2.563,1.723-5.131,3.422c.356.284.724.548,1.085.824,1.713-1.157,3.43-2.3,5.139-3.462C320.616,241.7,320.26,241.426,319.892,241.166Z" transform="translate(992.264 957.957)" fill="#fff"/>
      <path id="Path_82388" data-name="Path 82388" d="M307.323,247.681c-2.005,1.1-4.026,2.193-6.039,3.27.42.476.84.941,1.257,1.4,2.025-1.1,4.05-2.2,6.055-3.33Z" transform="translate(951.803 977.517)" fill="#fff"/>
      <path id="Path_82389" data-name="Path 82389" d="M292.258,255.036c-2.185.872-4.386,1.733-6.588,2.581.392.628.792,1.253,1.181,1.869q3.314-1.3,6.592-2.642C293.05,256.253,292.658,255.648,292.258,255.036Z" transform="translate(904.926 999.598)" fill="#fff"/>
      <path id="Path_82390" data-name="Path 82390" d="M278.466,261.785q-3.176.924-6.392,1.817c.308.632.62,1.257.913,1.881,2.149-.608,4.278-1.245,6.4-1.881C279.082,263.006,278.778,262.393,278.466,261.785Z" transform="translate(864.108 1019.86)" fill="#fff"/>
      <path id="Path_82391" data-name="Path 82391" d="M334.8,231.33c-.74.588-1.489,1.173-2.221,1.757.148.056.284.1.432.16.74-.588,1.477-1.173,2.221-1.769C335.083,231.43,334.947,231.382,334.8,231.33Z" transform="translate(1045.743 928.428)" fill="#fff"/>
      <path id="Path_82392" data-name="Path 82392" d="M312.161,244.869q-2.966,1.759-5.935,3.482c.44.416.868.833,1.3,1.241,1.985-1.173,3.97-2.341,5.943-3.53Q312.812,245.467,312.161,244.869Z" transform="translate(966.64 969.075)" fill="#fff"/>
      <path id="Path_82393" data-name="Path 82393" d="M267.843,266.452c-1.5.368-3.018.72-4.539,1.073.176.432.364.86.548,1.289q2.281-.546,4.547-1.1C268.207,267.3,268.035,266.876,267.843,266.452Z" transform="translate(837.778 1033.872)" fill="#fff"/>
      <path id="Path_82394" data-name="Path 82394" d="M287.077,257.1c-2.333.8-4.7,1.589-7.072,2.369.4.721.813,1.429,1.2,2.133q3.566-1.2,7.084-2.458C287.893,258.465,287.485,257.789,287.077,257.1Z" transform="translate(887.918 1005.783)" fill="#fff"/>
      <path id="Path_82395" data-name="Path 82395" d="M250.929,274.043c-.252.048-.484.108-.736.148l.068.18c.24-.048.488-.092.732-.14Z" transform="translate(798.416 1056.662)" fill="#fff"/>
      <path id="Path_82396" data-name="Path 82396" d="M324.759,237.758c-1.685,1.2-3.374,2.385-5.051,3.562.372.236.74.472,1.109.692q2.534-1.783,5.071-3.594C325.515,238.194,325.139,237.982,324.759,237.758Z" transform="translate(1007.116 947.726)" fill="#fff"/>
      <path id="Path_82397" data-name="Path 82397" d="M316.571,241.914c-1.789,1.145-3.594,2.277-5.387,3.4.416.348.821.68,1.233,1.017q2.7-1.705,5.4-3.45C317.408,242.562,316.987,242.242,316.571,241.914Z" transform="translate(981.525 960.203)" fill="#fff"/>
      <path id="Path_82398" data-name="Path 82398" d="M332.337,232.822c-1.237.956-2.473,1.909-3.71,2.846.264.108.52.224.776.332,1.237-.948,2.485-1.889,3.722-2.858Z" transform="translate(1033.893 932.907)" fill="#fff"/>
      <path id="Path_82399" data-name="Path 82399" d="M255.924,271.022c-.9.168-1.8.332-2.71.5.088.252.2.5.276.744.9-.176,1.809-.344,2.706-.516C256.109,271.506,256.021,271.262,255.924,271.022Z" transform="translate(807.489 1047.592)" fill="#fff"/>
      <path id="Path_82400" data-name="Path 82400" d="M299.627,250.1q-3.554,1.621-7.164,3.17c.512.692,1.025,1.377,1.525,2.053,2.409-1.061,4.8-2.153,7.176-3.254C300.66,251.427,300.143,250.774,299.627,250.1Z" transform="translate(925.32 984.785)" fill="#fff"/>
      <path id="Path_82401" data-name="Path 82401" d="M271.706,263.539q-3.02.726-6.079,1.393c.28.624.552,1.241.824,1.853q3.062-.708,6.075-1.441C272.259,264.744,271.975,264.139,271.706,263.539Z" transform="translate(844.752 1025.126)" fill="#fff"/>
      <path id="Path_82402" data-name="Path 82402" d="M281.2,258.983q-3.518,1.021-7.092,1.981c.384.756.768,1.5,1.145,2.233,2.377-.672,4.743-1.361,7.08-2.061C281.948,260.428,281.572,259.708,281.2,258.983Z" transform="translate(870.202 1011.448)" fill="#fff"/>
      <path id="Path_82403" data-name="Path 82403" d="M304.5,247.7c-2.305,1.173-4.619,2.309-6.948,3.434.524.624,1.045,1.245,1.557,1.853q3.5-1.729,6.964-3.51C305.561,248.888,305.037,248.291,304.5,247.7Z" transform="translate(940.614 977.559)" fill="#fff"/>
      <path id="Path_82404" data-name="Path 82404" d="M342.758,224.955c-.148.12-.3.248-.444.376l.084.012c.148-.132.3-.248.444-.38Z" transform="translate(1074.984 909.288)" fill="#fff"/>
      <path id="Path_82405" data-name="Path 82405" d="M294.78,252.3c-2.521,1-5.059,2-7.616,2.95q.774,1.177,1.537,2.325,3.842-1.483,7.628-3.054C295.821,253.795,295.3,253.05,294.78,252.3Z" transform="translate(909.411 991.39)" fill="#fff"/>
      <path id="Path_82406" data-name="Path 82406" d="M310.556,244.953q-4.112,2.287-8.269,4.494.985,1.027,1.945,2.021,4.16-2.257,8.3-4.587C311.876,246.25,311.224,245.609,310.556,244.953Z" transform="translate(954.814 969.327)" fill="#fff"/>
      <path id="Path_82407" data-name="Path 82407" d="M322.371,238.6c-2.173,1.465-4.33,2.914-6.492,4.358.52.36,1.037.72,1.549,1.065,2.169-1.449,4.335-2.926,6.512-4.41C323.415,239.276,322.9,238.94,322.371,238.6Z" transform="translate(995.62 950.242)" fill="#fff"/>
      <path id="Path_82408" data-name="Path 82408" d="M261.029,267.978q-2.527.474-5.091.917c.2.5.4.989.584,1.485,1.7-.308,3.4-.616,5.083-.937C261.417,268.955,261.213,268.474,261.029,267.978Z" transform="translate(815.664 1038.453)" fill="#fff"/>
      <path id="Path_82409" data-name="Path 82409" d="M290.309,254.243q-4.352,1.495-8.773,2.918c.568.953,1.125,1.9,1.689,2.842,2.95-.989,5.875-1.993,8.781-3.038C291.445,256.068,290.885,255.164,290.309,254.243Z" transform="translate(892.515 997.218)" fill="#fff"/>
      <path id="Path_82410" data-name="Path 82410" d="M329.363,234.167q-2.293,1.711-4.575,3.394c.348.172.7.34,1.037.516,1.533-1.133,3.062-2.281,4.6-3.422C330.071,234.491,329.715,234.339,329.363,234.167Z" transform="translate(1022.367 936.945)" fill="#fff"/>
      <path id="Path_82411" data-name="Path 82411" d="M340.3,226.907c-.744.608-1.493,1.217-2.237,1.833.148.032.3.08.444.1.748-.612,1.493-1.225,2.245-1.833C340.611,226.971,340.459,226.943,340.3,226.907Z" transform="translate(1062.231 915.149)" fill="#fff"/>
      <path id="Path_82412" data-name="Path 82412" d="M314.629,242.244q-3.668,2.2-7.348,4.342c.608.552,1.217,1.093,1.8,1.629,2.477-1.453,4.935-2.934,7.392-4.418C315.874,243.277,315.257,242.768,314.629,242.244Z" transform="translate(969.807 961.194)" fill="#fff"/>
      <path id="Path_82413" data-name="Path 82413" d="M275.883,260.56c-2.718.624-5.455,1.241-8.221,1.821.424.908.849,1.8,1.253,2.69q4.142-.925,8.213-1.917C276.711,262.3,276.3,261.428,275.883,260.56Z" transform="translate(850.862 1016.183)" fill="#fff"/>
      <path id="Path_82414" data-name="Path 82414" d="M242.106,275.517c-.244.024-.488.064-.728.1l.056.188c.248-.04.488-.08.736-.1Z" transform="translate(771.951 1061.087)" fill="#fff"/>
      <path id="Path_82415" data-name="Path 82415" d="M284.395,256.086c-2.83.8-5.687,1.577-8.561,2.341.524.985,1.04,1.949,1.557,2.9,2.878-.792,5.735-1.621,8.565-2.465Q285.187,257.489,284.395,256.086Z" transform="translate(875.396 1002.751)" fill="#fff"/>
      <path id="Path_82416" data-name="Path 82416" d="M337.233,228.72c-1.081.86-2.165,1.717-3.234,2.573.232.068.464.148.7.216,1.085-.857,2.161-1.725,3.246-2.593C337.709,228.848,337.473,228.788,337.233,228.72Z" transform="translate(1050.021 920.592)" fill="#fff"/>
      <path id="Path_82417" data-name="Path 82417" d="M266.154,264.907c-2.569.452-5.155.9-7.772,1.325.332.828.664,1.641.993,2.449,2.605-.468,5.2-.917,7.776-1.4C266.815,266.5,266.491,265.707,266.154,264.907Z" transform="translate(823.001 1029.234)" fill="#fff"/>
      <path id="Path_82418" data-name="Path 82418" d="M327.266,235.178c-2.165,1.553-4.326,3.082-6.488,4.611.54.3,1.077.6,1.6.9,2.169-1.537,4.351-3.09,6.524-4.663C328.366,235.742,327.826,235.458,327.266,235.178Z" transform="translate(1010.328 939.98)" fill="#fff"/>
      <path id="Path_82419" data-name="Path 82419" d="M302.051,247.352q-4.19,1.9-8.425,3.7,1.027,1.327,2.041,2.6c2.834-1.257,5.643-2.525,8.445-3.838C303.435,249.021,302.747,248.192,302.051,247.352Z" transform="translate(928.812 976.529)" fill="#fff"/>
      <path id="Path_82420" data-name="Path 82420" d="M248.095,272.351c-1.121.144-2.225.284-3.346.436.112.3.2.62.316.921,1.113-.14,2.229-.288,3.342-.452C248.3,272.955,248.215,272.651,248.095,272.351Z" transform="translate(782.072 1051.582)" fill="#fff"/>
      <path id="Path_82421" data-name="Path 82421" d="M319.195,239.284q-3.518,2.269-7.06,4.483c.62.468,1.233.932,1.825,1.393q3.56-2.251,7.1-4.559C320.448,240.165,319.827,239.724,319.195,239.284Z" transform="translate(984.38 952.307)" fill="#fff"/>
      <path id="Path_82422" data-name="Path 82422" d="M297.885,249.44q-4.743,1.873-9.549,3.658c.745,1.065,1.481,2.109,2.2,3.138q4.82-1.855,9.557-3.814Q299.01,250.945,297.885,249.44Z" transform="translate(912.93 982.798)" fill="#fff"/>
      <path id="Path_82423" data-name="Path 82423" d="M306.9,244.983q-4.112,2.089-8.293,4.086,1.075,1.195,2.113,2.361,4.19-2.053,8.317-4.2C308.338,246.5,307.622,245.747,306.9,244.983Z" transform="translate(943.76 969.417)" fill="#fff"/>
      <path id="Path_82424" data-name="Path 82424" d="M293.67,251.311q-5.379,1.843-10.85,3.53,1.2,1.927,2.353,3.778,5.487-1.8,10.866-3.722C295.263,253.724,294.474,252.524,293.67,251.311Z" transform="translate(896.37 988.415)" fill="#fff"/>
      <path id="Path_82425" data-name="Path 82425" d="M335.07,230.2q-2.629,2.047-5.259,4.058c.416.152.84.308,1.245.464q2.635-2.041,5.283-4.094C335.918,230.476,335.5,230.332,335.07,230.2Z" transform="translate(1037.448 925.023)" fill="#fff"/>
      <path id="Path_82426" data-name="Path 82426" d="M278.849,257.62c-3.03.68-6.1,1.333-9.189,1.957.532,1.1,1.053,2.185,1.577,3.254,3.1-.672,6.152-1.369,9.185-2.105C279.9,259.7,279.373,258.673,278.849,257.62Z" transform="translate(856.86 1007.356)" fill="#fff"/>
      <path id="Path_82427" data-name="Path 82427" d="M348.894,219.812c-.168.152-.34.292-.508.432l.1,0c.172-.136.34-.28.5-.428Z" transform="translate(1093.214 893.848)" fill="#fff"/>
      <path id="Path_82428" data-name="Path 82428" d="M270.119,261.874c-3.094.528-6.216,1.045-9.369,1.525.452,1.065.892,2.133,1.341,3.178,3.154-.524,6.284-1.073,9.369-1.641C271.016,263.927,270.576,262.9,270.119,261.874Z" transform="translate(830.11 1020.128)" fill="#fff"/>
      <path id="Path_82429" data-name="Path 82429" d="M253.21,269.228c-1.753.224-3.514.436-5.291.652.192.52.38,1.053.564,1.577,1.769-.232,3.538-.44,5.291-.68C253.586,270.269,253.4,269.748,253.21,269.228Z" transform="translate(791.589 1042.206)" fill="#fff"/>
      <path id="Path_82430" data-name="Path 82430" d="M312.446,242.325q-4.55,2.527-9.129,4.955,1.243,1.219,2.445,2.385,4.6-2.5,9.173-5.091Q313.711,243.476,312.446,242.325Z" transform="translate(957.906 961.437)" fill="#fff"/>
      <path id="Path_82431" data-name="Path 82431" d="M288.225,253.059q-5.445,1.531-11.006,2.926c.776,1.369,1.529,2.706,2.273,4.026,3.706-1,7.368-2.045,11-3.122C289.746,255.632,289,254.356,288.225,253.059Z" transform="translate(879.554 993.663)" fill="#fff"/>
      <path id="Path_82432" data-name="Path 82432" d="M346.126,222.1c-.76.636-1.513,1.273-2.273,1.909.152.024.308.04.46.056.765-.636,1.517-1.277,2.281-1.913C346.442,222.129,346.282,222.129,346.126,222.1Z" transform="translate(1079.605 900.732)" fill="#fff"/>
      <path id="Path_82433" data-name="Path 82433" d="M324,236.093c-2.345,1.617-4.7,3.2-7.052,4.771.644.4,1.277.8,1.9,1.2q3.56-2.4,7.108-4.851C325.313,236.845,324.664,236.469,324,236.093Z" transform="translate(998.83 942.727)" fill="#fff"/>
      <path id="Path_82434" data-name="Path 82434" d="M258.2,266.095q-3.662.432-7.4.824c.3.8.6,1.6.88,2.389,2.493-.288,4.955-.588,7.4-.9C258.778,267.64,258.493,266.871,258.2,266.095Z" transform="translate(800.217 1032.8)" fill="#fff"/>
      <path id="Path_82435" data-name="Path 82435" d="M331.71,231.593q-2.93,2.2-5.851,4.366c.508.224,1.021.436,1.513.656,1.957-1.465,3.918-2.926,5.887-4.411C332.747,232.005,332.239,231.8,331.71,231.593Z" transform="translate(1025.583 929.217)" fill="#fff"/>
      <path id="Path_82436" data-name="Path 82436" d="M317.588,239.51q-4.773,2.876-9.573,5.667c.913.764,1.8,1.513,2.693,2.249q4.833-2.858,9.633-5.8C319.437,240.935,318.521,240.218,317.588,239.51Z" transform="translate(972.011 952.986)" fill="#fff"/>
      <path id="Path_82437" data-name="Path 82437" d="M343.113,224.189c-1.217,1-2.425,1.993-3.638,2.986.276.052.548.108.813.156,1.221-1,2.433-1.989,3.654-3C343.665,224.285,343.389,224.245,343.113,224.189Z" transform="translate(1066.461 906.988)" fill="#fff"/>
      <path id="Path_82438" data-name="Path 82438" d="M272.925,258.875q-4.881.792-9.878,1.5.81,1.837,1.6,3.622,4.995-.786,9.874-1.661C273.993,261.192,273.465,260.04,272.925,258.875Z" transform="translate(837.007 1011.124)" fill="#fff"/>
      <path id="Path_82439" data-name="Path 82439" d="M282.079,254.588c-3.526.768-7.1,1.509-10.714,2.181.708,1.389,1.413,2.75,2.085,4.1,3.618-.748,7.18-1.553,10.71-2.393Q283.14,256.557,282.079,254.588Z" transform="translate(861.979 998.253)" fill="#fff"/>
      <path id="Path_82440" data-name="Path 82440" d="M299.977,246.6c-3.482,1.361-6.988,2.694-10.526,3.974.941,1.277,1.857,2.525,2.762,3.742q5.313-2.041,10.542-4.19C301.846,248.98,300.921,247.8,299.977,246.6Z" transform="translate(916.277 974.281)" fill="#fff"/>
      <path id="Path_82441" data-name="Path 82441" d="M232.313,276.634c-.292.02-.572.044-.865.068,0,0,.044.152.072.224.288-.028.572-.048.856-.076C232.353,276.782,232.313,276.634,232.313,276.634Z" transform="translate(742.139 1064.44)" fill="#fff"/>
      <path id="Path_82442" data-name="Path 82442" d="M304.661,244.506q-5.019,2.287-10.154,4.422c.961,1.141,1.893,2.273,2.81,3.374q5.145-2.257,10.2-4.623Z" transform="translate(931.457 967.985)" fill="#fff"/>
      <path id="Path_82443" data-name="Path 82443" d="M296.194,248.373c-4.018,1.361-8.085,2.641-12.191,3.886q1.537,2.341,3.03,4.591,6.165-1.975,12.2-4.13Q297.743,250.582,296.194,248.373Z" transform="translate(899.921 979.594)" fill="#fff"/>
      <path id="Path_82444" data-name="Path 82444" d="M262.887,262.941q-4.695.516-9.477.949c.428,1.117.86,2.217,1.277,3.306q4.779-.5,9.461-1.081C263.732,265.062,263.3,264.018,262.887,262.941Z" transform="translate(808.074 1023.331)" fill="#fff"/>
      <path id="Path_82445" data-name="Path 82445" d="M238.794,273.35c-1.133.084-2.269.176-3.414.252.076.324.2.64.3.961,1.141-.092,2.273-.176,3.41-.272C238.994,273.974,238.878,273.666,238.794,273.35Z" transform="translate(753.944 1054.581)" fill="#fff"/>
      <path id="Path_82446" data-name="Path 82446" d="M340.749,225.954q-2.852,2.305-5.691,4.555c.468.12.932.236,1.389.352,1.905-1.517,3.814-3.054,5.723-4.59C341.7,226.17,341.225,226.062,340.749,225.954Z" transform="translate(1053.2 912.288)" fill="#fff"/>
      <path id="Path_82447" data-name="Path 82447" d="M308.869,242.248q-4.665,2.359-9.385,4.6,1.4,1.471,2.737,2.882c3.162-1.561,6.311-3.142,9.437-4.775Q310.3,243.625,308.869,242.248Z" transform="translate(946.399 961.206)" fill="#fff"/>
      <path id="Path_82448" data-name="Path 82448" d="M321.9,236.6q-4.527,2.936-9.069,5.779c.912.64,1.813,1.261,2.686,1.881,3.05-1.949,6.1-3.906,9.145-5.911Z" transform="translate(986.47 944.24)" fill="#fff"/>
      <path id="Path_82449" data-name="Path 82449" d="M329.351,232.62q-3.83,2.768-7.644,5.467c.732.364,1.449.732,2.165,1.085q3.842-2.738,7.7-5.555C330.844,233.288,330.1,232.944,329.351,232.62Z" transform="translate(1013.117 932.3)" fill="#fff"/>
      <path id="Path_82450" data-name="Path 82450" d="M289.461,250.187q-5.259,1.447-10.646,2.733,1.279,2.155,2.505,4.234,5.373-1.417,10.646-2.974C291.146,252.873,290.309,251.548,289.461,250.187Z" transform="translate(884.346 985.041)" fill="#fff"/>
      <path id="Path_82451" data-name="Path 82451" d="M244.786,270.092c-1.921.128-3.862.248-5.807.368.2.584.384,1.177.564,1.765q2.93-.192,5.815-.412C245.166,271.245,244.974,270.668,244.786,270.092Z" transform="translate(764.749 1044.8)" fill="#fff"/>
      <path id="Path_82452" data-name="Path 82452" d="M277.5,255.665q-6.28.985-12.723,1.777c.792,1.709,1.565,3.41,2.337,5.063q6.448-.924,12.707-2.045C279.055,258.891,278.282,257.286,277.5,255.665Z" transform="translate(842.194 1001.487)" fill="#fff"/>
      <path id="Path_82453" data-name="Path 82453" d="M314.624,239.6q-5.277,2.924-10.59,5.747c1.109,1.009,2.193,1.993,3.254,2.97q5.367-2.912,10.674-5.951Q316.323,241,314.624,239.6Z" transform="translate(960.059 953.244)" fill="#fff"/>
      <path id="Path_82454" data-name="Path 82454" d="M337.729,227.56q-3.464,2.726-6.924,5.379c.624.2,1.261.392,1.869.588q3.47-2.7,6.968-5.443C339.01,227.916,338.373,227.728,337.729,227.56Z" transform="translate(1040.432 917.109)" fill="#fff"/>
      <path id="Path_82455" data-name="Path 82455" d="M355.516,214.145c-.192.164-.384.332-.572.5l.108-.008c.192-.168.388-.336.58-.5Z" transform="translate(1112.902 876.822)" fill="#fff"/>
      <path id="Path_82456" data-name="Path 82456" d="M266.583,259.8q-5.271.534-10.694.933.835,2.065,1.629,4.054c3.614-.332,7.172-.716,10.682-1.133Q267.407,261.746,266.583,259.8Z" transform="translate(815.517 1013.886)" fill="#fff"/>
      <path id="Path_82457" data-name="Path 82457" d="M284.141,251.568q-5.487,1.171-11.126,2.137c.84,1.577,1.661,3.118,2.473,4.631,3.75-.752,7.46-1.545,11.118-2.413C285.8,254.506,284.978,253.045,284.141,251.568Z" transform="translate(866.933 989.187)" fill="#fff"/>
      <path id="Path_82458" data-name="Path 82458" d="M251.319,266.788c-3.038.172-6.107.34-9.209.468.352,1.021.68,2.033,1.025,3.03,3.1-.156,6.159-.356,9.2-.568C252.007,268.741,251.663,267.773,251.319,266.788Z" transform="translate(774.149 1034.881)" fill="#fff"/>
      <path id="Path_82459" data-name="Path 82459" d="M352.3,216.851c-.748.648-1.493,1.285-2.245,1.925.156.008.312.012.472.008q1.117-.961,2.245-1.925C352.607,216.859,352.455,216.859,352.3,216.851Z" transform="translate(1098.21 884.958)" fill="#fff"/>
      <path id="Path_82460" data-name="Path 82460" d="M326.748,233.414c-3.062,2.109-6.123,4.2-9.2,6.247.969.552,1.921,1.1,2.87,1.641q4.635-3.158,9.281-6.4C328.741,234.423,327.749,233.926,326.748,233.414Z" transform="translate(1000.64 934.684)" fill="#fff"/>
      <path id="Path_82461" data-name="Path 82461" d="M317.916,237.044c-2.974,1.793-5.939,3.554-8.929,5.287.985.768,1.957,1.5,2.9,2.241q4.52-2.678,9.017-5.459Q319.437,238.1,317.916,237.044Z" transform="translate(974.929 945.582)" fill="#fff"/>
      <path id="Path_82462" data-name="Path 82462" d="M301.739,243.709c-3.762,1.449-7.548,2.878-11.386,4.218,1.169,1.5,2.313,2.966,3.43,4.4q5.775-2.167,11.434-4.5Q303.518,245.81,301.739,243.709Z" transform="translate(918.985 965.592)" fill="#fff"/>
      <path id="Path_82463" data-name="Path 82463" d="M349.062,219.293c-1.253,1.057-2.505,2.1-3.738,3.154.288.024.572.052.856.068,1.241-1.053,2.5-2.105,3.754-3.166C349.643,219.329,349.354,219.3,349.062,219.293Z" transform="translate(1084.021 892.29)" fill="#fff"/>
      <path id="Path_82464" data-name="Path 82464" d="M296.559,245.564q-5.553,1.831-11.238,3.47,1.639,2.365,3.2,4.623,5.7-1.8,11.266-3.77Q298.216,247.779,296.559,245.564Z" transform="translate(903.878 971.161)" fill="#fff"/>
      <path id="Path_82465" data-name="Path 82465" d="M254.923,263.612q-4.725.216-9.569.356c.4,1.149.8,2.293,1.2,3.414,3.226-.132,6.412-.3,9.557-.5C255.72,265.8,255.332,264.713,254.923,263.612Z" transform="translate(783.888 1025.346)" fill="#fff"/>
      <path id="Path_82466" data-name="Path 82466" d="M334.643,228.922q-4.052,3.062-8.061,6.051c.8.3,1.6.612,2.385.908q4.058-3.044,8.136-6.151C336.3,229.466,335.483,229.19,334.643,228.922Z" transform="translate(1027.753 921.198)" fill="#fff"/>
      <path id="Path_82467" data-name="Path 82467" d="M307.165,241.576c-3.982,1.781-7.992,3.518-12.047,5.179,1.317,1.489,2.6,2.934,3.842,4.358q6.111-2.659,12.131-5.479Q309.176,243.653,307.165,241.576Z" transform="translate(933.291 959.188)" fill="#fff"/>
      <path id="Path_82468" data-name="Path 82468" d="M271.045,256.524c-4.306.388-8.673.7-13.1.961.773,1.817,1.525,3.622,2.265,5.387q6.64-.522,13.083-1.253Q272.18,259.11,271.045,256.524Z" transform="translate(821.68 1004.066)" fill="#fff"/>
      <path id="Path_82469" data-name="Path 82469" d="M280.713,252.467q-7.024,1.015-14.264,1.785c1.025,2.105,2.013,4.166,2.994,6.183q7.222-.967,14.24-2.161Q282.224,255.423,280.713,252.467Z" transform="translate(847.22 991.886)" fill="#fff"/>
      <path id="Path_82470" data-name="Path 82470" d="M291.96,247.094c-3.958,1.061-7.985,2.033-12.051,2.95,1.1,1.781,2.189,3.534,3.242,5.235,4.078-1.013,8.1-2.121,12.071-3.294C294.161,250.392,293.072,248.767,291.96,247.094Z" transform="translate(887.63 975.755)" fill="#fff"/>
      <path id="Path_82471" data-name="Path 82471" d="M346.244,221.42q-2.81,2.329-5.6,4.631c.472.068.945.116,1.417.192,1.857-1.553,3.742-3.1,5.639-4.671C347.217,221.532,346.736,221.472,346.244,221.42Z" transform="translate(1069.974 898.675)" fill="#fff"/>
      <path id="Path_82472" data-name="Path 82472" d="M310.612,239.458q-5.2,2.641-10.5,5.115c1.213,1.185,2.389,2.353,3.55,3.49,3.546-1.729,7.076-3.526,10.582-5.359Q312.469,241.131,310.612,239.458Z" transform="translate(948.29 952.83)" fill="#fff"/>
      <path id="Path_82473" data-name="Path 82473" d="M221.055,277.3c-.316,0-.624.028-.932.036.02.072.044.156.06.236.312-.016.624-.012.937-.032C221.091,277.47,221.087,277.378,221.055,277.3Z" transform="translate(708.136 1066.434)" fill="#fff"/>
      <path id="Path_82474" data-name="Path 82474" d="M228.821,273.855c-1.381.032-2.762.056-4.146.08.1.4.232.772.332,1.173,1.385-.036,2.774-.052,4.142-.1C229.025,274.635,228.945,274.243,228.821,273.855Z" transform="translate(721.805 1056.097)" fill="#fff"/>
      <path id="Path_82475" data-name="Path 82475" d="M259.324,260.338c-3.682.136-7.408.216-11.2.244.536,1.473,1.065,2.93,1.6,4.354q5.661-.162,11.178-.468C260.389,263.108,259.857,261.735,259.324,260.338Z" transform="translate(792.21 1015.516)" fill="#fff"/>
      <path id="Path_82476" data-name="Path 82476" d="M287.527,248.317q-6.6,1.333-13.387,2.4c1.165,2.077,2.293,4.1,3.406,6.087q6.79-1.273,13.387-2.782C289.821,252.163,288.692,250.27,287.527,248.317Z" transform="translate(870.31 979.426)" fill="#fff"/>
      <path id="Path_82477" data-name="Path 82477" d="M323.738,233.968q-5.163,3.368-10.338,6.612c1.2.772,2.389,1.537,3.546,2.269,3.494-2.221,6.972-4.5,10.458-6.8C326.2,235.365,324.978,234.68,323.738,233.968Z" transform="translate(988.178 936.347)" fill="#fff"/>
      <path id="Path_82478" data-name="Path 82478" d="M331.468,230.031q-4.562,3.332-9.113,6.552c1.017.448,2.005.9,2.986,1.333q4.6-3.308,9.217-6.7C333.541,230.827,332.513,230.435,331.468,230.031Z" transform="translate(1015.063 924.528)" fill="#fff"/>
      <path id="Path_82479" data-name="Path 82479" d="M342.578,223.4c-2.129,1.725-4.254,3.442-6.368,5.123.6.12,1.193.232,1.781.356q3.194-2.569,6.408-5.187C343.8,223.591,343.195,223.487,342.578,223.4Z" transform="translate(1056.662 904.605)" fill="#fff"/>
      <path id="Path_82480" data-name="Path 82480" d="M235.574,270.47c-2.213.024-4.446.04-6.7.028.2.688.4,1.377.6,2.053q3.374-.012,6.692-.076C235.986,271.811,235.77,271.142,235.574,270.47Z" transform="translate(734.423 1045.935)" fill="#fff"/>
      <path id="Path_82481" data-name="Path 82481" d="M316.005,236.892c-3.782,2.109-7.584,4.174-11.41,6.163,1.393,1.185,2.746,2.341,4.082,3.462q5.8-3.146,11.538-6.448C318.847,239.037,317.446,237.973,316.005,236.892Z" transform="translate(961.743 945.126)" fill="#fff"/>
      <path id="Path_82482" data-name="Path 82482" d="M274.793,253.2q-7.36.57-14.988.856,1.513,3.44,2.958,6.732c5.067-.324,10.054-.764,14.964-1.281Q276.286,256.429,274.793,253.2Z" transform="translate(827.273 994.089)" fill="#fff"/>
      <path id="Path_82483" data-name="Path 82483" d="M242.989,267.121q-5.175-.006-10.482-.108c.36,1.181.732,2.337,1.085,3.5q5.295.042,10.47-.008C243.693,269.386,243.337,268.266,242.989,267.121Z" transform="translate(745.319 1035.556)" fill="#fff"/>
      <path id="Path_82484" data-name="Path 82484" d="M283.527,249.183q-7.7,1.015-15.633,1.709c1.277,2.529,2.529,4.995,3.754,7.416q7.924-.955,15.6-2.213Q285.44,252.715,283.527,249.183Z" transform="translate(851.559 982.026)" fill="#fff"/>
      <path id="Path_82485" data-name="Path 82485" d="M263.635,256.994q-6.43.144-13.059.072c.712,1.873,1.413,3.722,2.121,5.531q6.622-.1,13.031-.392C265.032,260.5,264.344,258.763,263.635,256.994Z" transform="translate(799.566 1005.477)" fill="#fff"/>
      <path id="Path_82486" data-name="Path 82486" d="M300.457,242.25q-7.3,2.365-14.82,4.41,2.515,3.446,4.895,6.688,7.534-2.293,14.888-4.883Q303.013,245.458,300.457,242.25Z" transform="translate(904.827 961.212)" fill="#fff"/>
      <path id="Path_82487" data-name="Path 82487" d="M338.984,225.095q-3.6,2.834-7.168,5.615c.752.188,1.489.384,2.217.572q3.608-2.81,7.252-5.7C340.529,225.427,339.76,225.259,338.984,225.095Z" transform="translate(1043.467 909.709)" fill="#fff"/>
      <path id="Path_82488" data-name="Path 82488" d="M303.168,240.737q-6.015,2.305-12.171,4.4c1.465,1.769,2.878,3.494,4.258,5.171q6.207-2.269,12.263-4.779Z" transform="translate(920.919 956.67)" fill="#fff"/>
      <path id="Path_82489" data-name="Path 82489" d="M362.786,207.816c-.208.184-.412.376-.632.556l.116-.012c.22-.188.432-.372.64-.556Z" transform="translate(1134.549 857.797)" fill="#fff"/>
      <path id="Path_82490" data-name="Path 82490" d="M248.217,263.935q-6-.108-12.163-.336c.476,1.5.956,2.962,1.425,4.426q6.141.126,12.143.132C249.161,266.765,248.689,265.348,248.217,263.935Z" transform="translate(755.967 1025.306)" fill="#fff"/>
      <path id="Path_82491" data-name="Path 82491" d="M293.465,243.973c-4.138,1.041-8.329,2.029-12.587,2.9q2.011,3.092,3.914,6,6.393-1.537,12.619-3.33Q295.5,246.837,293.465,243.973Z" transform="translate(890.539 966.385)" fill="#fff"/>
      <path id="Path_82492" data-name="Path 82492" d="M359.458,211.019c-.921.8-1.837,1.609-2.758,2.4.2-.008.388-.044.584-.052.92-.8,1.837-1.6,2.762-2.409C359.85,210.975,359.654,211,359.458,211.019Z" transform="translate(1118.174 867.269)" fill="#fff"/>
      <path id="Path_82493" data-name="Path 82493" d="M327.861,230.907q-4.845,3.368-9.7,6.616c1.2.62,2.365,1.221,3.518,1.805q4.911-3.332,9.841-6.812C330.33,231.988,329.109,231.459,327.861,230.907Z" transform="translate(1002.477 927.158)" fill="#fff"/>
      <path id="Path_82494" data-name="Path 82494" d="M320.185,234.269q-5.445,3.326-10.942,6.484c1.417,1.009,2.806,2,4.158,2.954q5.571-3.284,11.09-6.748C323.095,236.094,321.658,235.189,320.185,234.269Z" transform="translate(975.698 937.251)" fill="#fff"/>
      <path id="Path_82495" data-name="Path 82495" d="M308.067,238.729c-4.082,1.8-8.2,3.566-12.359,5.227q2.365,2.515,4.6,4.895,6.3-2.684,12.479-5.6Z" transform="translate(935.063 950.641)" fill="#fff"/>
      <path id="Path_82496" data-name="Path 82496" d="M356.012,213.885c-1.517,1.289-3.014,2.6-4.507,3.878.348,0,.7,0,1.053-.032,1.509-1.293,3.01-2.6,4.53-3.906C356.728,213.841,356.372,213.861,356.012,213.885Z" transform="translate(1102.578 875.873)" fill="#fff"/>
      <path id="Path_82497" data-name="Path 82497" d="M290.5,244.964q-7.618,1.435-15.489,2.505,2.335,3.986,4.539,7.752,7.876-1.369,15.5-3.066Q292.846,248.656,290.5,244.964Z" transform="translate(872.928 969.36)" fill="#fff"/>
      <path id="Path_82498" data-name="Path 82498" d="M277.974,249.8q-8.123.5-16.525.624,1.9,4.166,3.726,8.137,8.387-.414,16.5-1.193Q279.859,253.676,277.974,249.8Z" transform="translate(832.209 983.879)" fill="#fff"/>
      <path id="Path_82499" data-name="Path 82499" d="M252.5,260.758q-6.478-.192-13.147-.592c.6,1.757,1.177,3.5,1.753,5.223,4.438.172,8.817.272,13.111.308C253.658,264.076,253.086,262.419,252.5,260.758Z" transform="translate(765.863 1015)" fill="#fff"/>
      <path id="Path_82500" data-name="Path 82500" d="M336.1,226.431q-4.419,3.368-8.805,6.652c1.017.34,2.033.66,3.026.981q4.455-3.356,8.933-6.8C338.218,226.983,337.17,226.7,336.1,226.431Z" transform="translate(1029.885 913.72)" fill="#fff"/>
      <path id="Path_82501" data-name="Path 82501" d="M266.966,253.759c-4.619.024-9.329-.032-14.112-.2.889,2.225,1.761,4.394,2.614,6.536,4.783.02,9.473-.064,14.076-.228Q268.277,256.877,266.966,253.759Z" transform="translate(806.405 995.164)" fill="#fff"/>
      <path id="Path_82502" data-name="Path 82502" d="M352.779,216.386q-3.188,2.708-6.324,5.351c.54.024,1.1.036,1.637.048q3.164-2.678,6.367-5.4C353.907,216.378,353.339,216.378,352.779,216.386Z" transform="translate(1087.417 883.542)" fill="#fff"/>
      <path id="Path_82503" data-name="Path 82503" d="M313.151,236.468q-6.418,3.224-12.939,6.223c1.757,1.629,3.462,3.19,5.123,4.719q6.592-3.194,13.1-6.612Q315.857,238.7,313.151,236.468Z" transform="translate(948.584 943.853)" fill="#fff"/>
      <path id="Path_82504" data-name="Path 82504" d="M285.25,245.851q-7.882.925-16.037,1.449,2.281,4.3,4.438,8.373,8.141-.853,16.017-2.069Q287.525,249.833,285.25,245.851Z" transform="translate(855.518 972.023)" fill="#fff"/>
      <path id="Path_82505" data-name="Path 82505" d="M348.554,218.76q-3.434,2.87-6.824,5.667c.664.052,1.321.1,1.973.172,2.277-1.9,4.571-3.8,6.88-5.739C349.914,218.828,349.238,218.8,348.554,218.76Z" transform="translate(1073.231 890.69)" fill="#fff"/>
      <path id="Path_82506" data-name="Path 82506" d="M256.2,257.578q-6.8-.312-13.852-.9c.72,2.033,1.4,4.042,2.105,6.015q7.024.384,13.812.524C257.594,261.373,256.909,259.488,256.2,257.578Z" transform="translate(774.878 1004.528)" fill="#fff"/>
      <path id="Path_82507" data-name="Path 82507" d="M325.216,231.338q-5.751,3.776-11.542,7.388,2.4,1.381,4.655,2.693,5.883-3.752,11.742-7.676C328.494,232.963,326.869,232.155,325.216,231.338Z" transform="translate(989 928.451)" fill="#fff"/>
      <path id="Path_82508" data-name="Path 82508" d="M208.127,277.372c-.4-.012-.792-.028-1.193-.032.02.1.048.208.068.3.4.012.8.016,1.2.032C208.187,277.572,208.135,277.472,208.127,277.372Z" transform="translate(668.542 1066.56)" fill="#fff"/>
      <path id="Path_82509" data-name="Path 82509" d="M217.316,273.9c-1.645-.068-3.3-.12-4.967-.2.1.472.244.933.356,1.4,1.669.068,3.322.108,4.963.172C217.54,274.82,217.428,274.359,217.316,273.9Z" transform="translate(684.8 1055.641)" fill="#fff"/>
      <path id="Path_82510" data-name="Path 82510" d="M225.836,270.558c-2.846-.156-5.727-.3-8.621-.476.24.888.472,1.777.712,2.653,2.9.144,5.763.276,8.609.412C226.3,272.3,226.084,271.427,225.836,270.558Z" transform="translate(699.408 1044.77)" fill="#fff"/>
      <path id="Path_82511" data-name="Path 82511" d="M332.9,227.511q-5.067,3.71-10.11,7.312,1.975.774,3.87,1.5,5.139-3.692,10.29-7.528C335.63,228.379,334.285,227.947,332.9,227.511Z" transform="translate(1016.384 916.962)" fill="#fff"/>
      <path id="Path_82512" data-name="Path 82512" d="M317.434,234.094q-6.286,3.512-12.675,6.808,2.755,2.167,5.351,4.2c4.322-2.329,8.617-4.743,12.887-7.2Q320.3,236.047,317.434,234.094Z" transform="translate(962.236 936.726)" fill="#fff"/>
      <path id="Path_82513" data-name="Path 82513" d="M301.564,239.09c-5.075,1.573-10.222,3.05-15.445,4.366q3.086,4,5.971,7.74,7.87-2.329,15.553-4.983Q304.7,242.78,301.564,239.09Z" transform="translate(906.274 951.725)" fill="#fff"/>
      <path id="Path_82514" data-name="Path 82514" d="M344.611,220.815c-2.542,2.069-5.059,4.126-7.564,6.143q1.237.186,2.437.352,3.812-3.074,7.668-6.24C346.316,221,345.476,220.891,344.611,220.815Z" transform="translate(1059.172 896.859)" fill="#fff"/>
      <path id="Path_82515" data-name="Path 82515" d="M233.179,267.331c-3.786-.244-7.62-.536-11.5-.852.36,1.3.728,2.594,1.089,3.874q5.811.4,11.49.712C233.9,269.825,233.552,268.584,233.179,267.331Z" transform="translate(712.804 1033.953)" fill="#fff"/>
      <path id="Path_82516" data-name="Path 82516" d="M297.219,240.444q-7.972,1.933-16.2,3.462,3.044,4.418,5.875,8.561,8.261-1.867,16.269-4.13Q300.291,244.524,297.219,240.444Z" transform="translate(890.972 955.79)" fill="#fff"/>
      <path id="Path_82517" data-name="Path 82517" d="M270.334,250.513q-7.636-.1-15.553-.56c1.133,2.706,2.229,5.335,3.306,7.916q7.894.174,15.5-.02C272.519,255.46,271.442,253.023,270.334,250.513Z" transform="translate(812.19 984.338)" fill="#fff"/>
      <path id="Path_82518" data-name="Path 82518" d="M281.074,246.251q-8.993.4-18.318.284,2.449,5.109,4.767,9.937,9.305-.276,18.274-1.049Q283.509,250.958,281.074,246.251Z" transform="translate(836.133 973.224)" fill="#fff"/>
      <path id="Path_82519" data-name="Path 82519" d="M303.781,237.729q-6.1,2.293-12.355,4.314,2.624,3.014,5.087,5.819,6.328-2.251,12.495-4.787Q306.481,240.494,303.781,237.729Z" transform="translate(922.207 947.639)" fill="#fff"/>
      <path id="Path_82520" data-name="Path 82520" d="M290.906,241.7q-7.318,1.249-14.888,2.109c1.753,2.85,3.438,5.6,5.083,8.261,5.051-.8,10.026-1.729,14.92-2.758Q293.542,245.618,290.906,241.7Z" transform="translate(875.949 959.555)" fill="#fff"/>
      <path id="Path_82521" data-name="Path 82521" d="M238.3,264.1q-6.069-.486-12.335-1.145c.456,1.533.9,3.042,1.337,4.543,4.158.368,8.265.664,12.311.929C239.18,267,238.748,265.555,238.3,264.1Z" transform="translate(725.678 1023.367)" fill="#fff"/>
      <path id="Path_82522" data-name="Path 82522" d="M261.126,254.4q-8.014-.516-16.357-1.429,1.447,3.98,2.846,7.784,8.3.63,16.305.892Q262.557,258.1,261.126,254.4Z" transform="translate(782.132 993.399)" fill="#fff"/>
      <path id="Path_82523" data-name="Path 82523" d="M308.763,235.784q-6.34,2.786-12.827,5.3,2.918,2.9,5.643,5.623c4.386-1.833,8.721-3.774,13.015-5.775Q311.773,238.444,308.763,235.784Z" transform="translate(935.747 941.799)" fill="#fff"/>
      <path id="Path_82524" data-name="Path 82524" d="M341.245,222.509q-4.5,3.566-8.945,7.04c1.1.224,2.169.456,3.234.668,3.01-2.357,6.035-4.771,9.085-7.2C343.51,222.849,342.39,222.681,341.245,222.509Z" transform="translate(1044.92 901.945)" fill="#fff"/>
      <path id="Path_82525" data-name="Path 82525" d="M246.16,261.073q-8.273-.816-16.841-1.925c.7,2.3,1.393,4.563,2.069,6.8q8.555.906,16.809,1.537C247.533,265.371,246.869,263.238,246.16,261.073Z" transform="translate(735.747 1011.944)" fill="#fff"/>
      <path id="Path_82526" data-name="Path 82526" d="M287.947,242.254c-5.879.576-11.871.989-17.97,1.2q2.978,5.373,5.763,10.4,9.149-.775,17.974-2.045Q290.935,247.187,287.947,242.254Z" transform="translate(857.812 961.224)" fill="#fff"/>
      <path id="Path_82527" data-name="Path 82527" d="M321.713,231.517q-6.208,3.8-12.491,7.376c1.937,1.265,3.81,2.481,5.635,3.666q6.405-3.788,12.751-7.768Q324.745,233.206,321.713,231.517Z" transform="translate(975.634 928.989)" fill="#fff"/>
      <path id="Path_82528" data-name="Path 82528" d="M329.262,228.33q-5.463,3.83-10.942,7.508c1.6.724,3.166,1.441,4.7,2.129q5.583-3.806,11.174-7.788C332.588,229.575,330.947,228.962,329.262,228.33Z" transform="translate(1002.949 919.421)" fill="#fff"/>
      <path id="Path_82529" data-name="Path 82529" d="M366.913,204.526c-.924.82-1.845,1.641-2.765,2.445.192-.04.4-.076.584-.116q1.387-1.213,2.773-2.457C367.314,204.45,367.114,204.482,366.913,204.526Z" transform="translate(1140.535 847.572)" fill="#fff"/>
      <path id="Path_82530" data-name="Path 82530" d="M371,200.633l-.765.68.152-.04q.378-.33.757-.672A.47.47,0,0,1,371,200.633Z" transform="translate(1158.804 836.172)" fill="#fff"/>
      <path id="Path_82531" data-name="Path 82531" d="M362.887,207.989q-2.263,1.981-4.495,3.942c.36-.052.708-.1,1.065-.152q2.245-1.963,4.527-3.958C363.62,207.865,363.256,207.929,362.887,207.989Z" transform="translate(1123.257 857.848)" fill="#fff"/>
      <path id="Path_82532" data-name="Path 82532" d="M275.475,247.2q-9.527-.306-19.463-1.193c1.625,3.746,3.222,7.4,4.759,10.934q9.906.444,19.411.312Q277.894,252.369,275.475,247.2Z" transform="translate(815.886 972.479)" fill="#fff"/>
      <path id="Path_82533" data-name="Path 82533" d="M358.766,211.1q-2.948,2.539-5.839,5.039c.52-.036,1.033-.088,1.549-.124,1.941-1.681,3.914-3.374,5.891-5.095C359.835,210.972,359.307,211.036,358.766,211.1Z" transform="translate(1106.847 867.14)" fill="#fff"/>
      <path id="Path_82534" data-name="Path 82534" d="M314.286,233.533q-6.994,3.482-14.144,6.7,3.458,2.954,6.68,5.711,7.276-3.482,14.412-7.244Q317.878,236.194,314.286,233.533Z" transform="translate(948.374 935.042)" fill="#fff"/>
      <path id="Path_82535" data-name="Path 82535" d="M265.324,251.214q-9.017-.774-18.406-2.073,1.885,4.947,3.674,9.637,9.353.9,18.338,1.321Q267.171,255.765,265.324,251.214Z" transform="translate(788.584 981.9)" fill="#fff"/>
      <path id="Path_82536" data-name="Path 82536" d="M250.112,257.875q-8.465-1-17.27-2.373,1.243,3.884,2.441,7.636c5.851.748,11.591,1.361,17.21,1.877C251.7,262.674,250.932,260.289,250.112,257.875Z" transform="translate(746.324 1000.997)" fill="#fff"/>
      <path id="Path_82537" data-name="Path 82537" d="M338.542,223.807q-5.583,4.31-11.138,8.469c1.537.416,3.046.832,4.518,1.221q5.667-4.286,11.382-8.725C341.748,224.459,340.171,224.127,338.542,223.807Z" transform="translate(1030.221 905.842)" fill="#fff"/>
      <path id="Path_82538" data-name="Path 82538" d="M282.356,242.8q-8.987.21-18.33-.188l5.539,11.03c6.207-.068,12.311-.292,18.286-.736Q285.2,248.023,282.356,242.8Z" transform="translate(839.946 962.311)" fill="#fff"/>
      <path id="Path_82539" data-name="Path 82539" d="M355.52,213.726q-4.052,3.452-8.02,6.828c.8-.024,1.6-.044,2.381-.052,2.689-2.289,5.387-4.6,8.129-6.924C357.188,213.618,356.356,213.67,355.52,213.726Z" transform="translate(1090.551 875.132)" fill="#fff"/>
      <path id="Path_82540" data-name="Path 82540" d="M298.184,237.017q-8.309,1.873-16.91,3.254,3.764,5.187,7.244,10.006c5.767-1.221,11.458-2.577,17.038-4.1Q302.015,241.772,298.184,237.017Z" transform="translate(891.731 945.501)" fill="#fff"/>
      <path id="Path_82541" data-name="Path 82541" d="M301.174,235.933q-7.228,2.137-14.7,3.878,3.5,4.3,6.744,8.265,7.546-2.107,14.868-4.595Z" transform="translate(907.34 942.247)" fill="#fff"/>
      <path id="Path_82542" data-name="Path 82542" d="M324.487,228.949q-5.229,3.458-10.5,6.74,2.612,1.363,5.071,2.654,5.4-3.458,10.782-7.084Q327.244,230.142,324.487,228.949Z" transform="translate(989.934 921.279)" fill="#fff"/>
      <path id="Path_82543" data-name="Path 82543" d="M293.271,238.019c-5.579.852-11.274,1.509-17.07,2.005q3.56,5.5,6.848,10.6,8.729-1.213,17.142-2.906Q296.865,243.058,293.271,238.019Z" transform="translate(876.498 948.509)" fill="#fff"/>
      <path id="Path_82544" data-name="Path 82544" d="M255.8,254.852q-9.875-1.393-20.163-3.29c1.117,3.338,2.213,6.6,3.266,9.814q10.248,1.531,20.079,2.561Q257.43,259.476,255.8,254.852Z" transform="translate(754.706 989.169)" fill="#fff"/>
      <path id="Path_82545" data-name="Path 82545" d="M351.558,216.064q-4.641,3.9-9.2,7.672c1.049.04,2.077.084,3.082.112q4.635-3.848,9.337-7.816C353.719,216.04,352.647,216.056,351.558,216.064Z" transform="translate(1075.113 882.499)" fill="#fff"/>
      <path id="Path_82546" data-name="Path 82546" d="M318.044,231.3c-4.446,2.457-8.913,4.863-13.431,7.156q3.524,2.539,6.812,4.915,6.934-3.728,13.756-7.68C322.879,234.291,320.514,232.814,318.044,231.3Z" transform="translate(961.797 928.34)" fill="#fff"/>
      <path id="Path_82547" data-name="Path 82547" d="M306.722,234.248c-5.215,1.889-10.5,3.67-15.881,5.287q4.058,4.376,7.816,8.4c5.459-1.877,10.83-3.906,16.141-6.043Q310.914,238.212,306.722,234.248Z" transform="translate(920.451 937.188)" fill="#fff"/>
      <path id="Path_82548" data-name="Path 82548" d="M212.77,269.941q-4.376-.5-8.845-1.033c.212.913.456,1.809.664,2.714q4.461.516,8.833.949C213.19,271.7,212.986,270.825,212.77,269.941Z" transform="translate(659.509 1041.245)" fill="#fff"/>
      <path id="Path_82549" data-name="Path 82549" d="M204.338,273.27c-2.169-.228-4.346-.424-6.544-.628.116.612.3,1.213.428,1.825,2.193.2,4.374.38,6.536.6C204.614,274.479,204.466,273.875,204.338,273.27Z" transform="translate(641.102 1052.456)" fill="#fff"/>
      <path id="Path_82550" data-name="Path 82550" d="M333.03,225.155q-4.989,3.686-9.95,7.232c1.561.516,3.074,1.029,4.551,1.525q5.1-3.7,10.21-7.52C336.279,225.979,334.671,225.579,333.03,225.155Z" transform="translate(1017.239 909.889)" fill="#fff"/>
      <path id="Path_82551" data-name="Path 82551" d="M270.105,248.066c-7.028-.776-14.208-1.809-21.548-3.042,1.693,4.29,3.35,8.437,4.955,12.471q10.956,1.309,21.452,1.993Q272.592,253.947,270.105,248.066Z" transform="translate(793.504 969.54)" fill="#fff"/>
      <path id="Path_82552" data-name="Path 82552" d="M222.991,266.93c-4.587-.572-9.241-1.229-13.972-1.921.416,1.577.829,3.154,1.209,4.715q7.066.948,13.96,1.733C223.807,269.96,223.379,268.459,222.991,266.93Z" transform="translate(674.802 1029.54)" fill="#fff"/>
      <path id="Path_82553" data-name="Path 82553" d="M289.681,238.52q-9.4.7-19.187.76c2.494,4.31,4.9,8.437,7.22,12.415,6.52-.4,12.923-1.02,19.207-1.833Q293.445,244.411,289.681,238.52Z" transform="translate(859.364 950.014)" fill="#fff"/>
      <path id="Path_82554" data-name="Path 82554" d="M276.877,243.87q-9.479-.522-19.347-1.741,2.84,6.226,5.487,12.051,9.84.666,19.267.708C280.543,251.338,278.742,247.676,276.877,243.87Z" transform="translate(820.443 960.849)" fill="#fff"/>
      <path id="Path_82555" data-name="Path 82555" d="M192.806,276.649c-.508-.04-1.017-.076-1.525-.128.036.132.056.26.084.392.5.06,1.017.072,1.521.116A3.2,3.2,0,0,1,192.806,276.649Z" transform="translate(621.549 1064.101)" fill="#fff"/>
      <path id="Path_82556" data-name="Path 82556" d="M230.055,263.815q-7.924-1.171-16.121-2.581c.556,2.009,1.081,4,1.6,5.975q8.171,1.267,16.089,2.277C231.1,267.621,230.6,265.721,230.055,263.815Z" transform="translate(689.558 1018.206)" fill="#fff"/>
      <path id="Path_82557" data-name="Path 82557" d="M346.887,218.237q-4.749,3.92-9.429,7.692c1.2.124,2.4.228,3.57.348q4.779-3.878,9.617-7.884C349.421,218.349,348.168,218.305,346.887,218.237Z" transform="translate(1060.406 889.119)" fill="#fff"/>
      <path id="Path_82558" data-name="Path 82558" d="M258.122,251.486q-9.557-1.585-19.567-3.746,1.879,5.385,3.65,10.5,9.96,1.735,19.475,2.89C260.543,257.986,259.347,254.776,258.122,251.486Z" transform="translate(763.476 977.694)" fill="#fff"/>
      <path id="Path_82559" data-name="Path 82559" d="M310.185,232.584q-7.252,3.11-14.716,5.879,4.07,3.77,7.8,7.26c5.067-2.077,10.082-4.282,15.024-6.58Q314.408,235.992,310.185,232.584Z" transform="translate(934.345 932.192)" fill="#fff"/>
      <path id="Path_82560" data-name="Path 82560" d="M235.782,260.656q-8.495-1.441-17.33-3.2c.676,2.389,1.317,4.75,1.965,7.072q8.819,1.537,17.286,2.765Q236.76,264.026,235.782,260.656Z" transform="translate(703.122 1006.858)" fill="#fff"/>
      <path id="Path_82561" data-name="Path 82561" d="M283.955,239.4c-6.247-.032-12.635-.276-19.143-.776q3.5,6.682,6.756,12.871,9.755.138,19.119-.36Q287.451,245.487,283.955,239.4Z" transform="translate(842.306 950.311)" fill="#fff"/>
      <path id="Path_82562" data-name="Path 82562" d="M322.372,228.8c-4.47,2.73-8.985,5.4-13.531,7.96,2.565,1.5,5.027,2.966,7.416,4.382q7.006-4.16,13.956-8.525Q326.425,230.782,322.372,228.8Z" transform="translate(974.491 920.817)" fill="#fff"/>
      <path id="Path_82563" data-name="Path 82563" d="M343.643,219.931q-5.7,4.563-11.346,8.989c1.661.268,3.286.512,4.871.748q5.781-4.557,11.634-9.277C347.125,220.255,345.4,220.087,343.643,219.931Z" transform="translate(1044.911 894.205)" fill="#fff"/>
      <path id="Path_82564" data-name="Path 82564" d="M243.64,257.91c-7.044-1.365-14.236-2.87-21.58-4.558.956,3.282,1.885,6.508,2.822,9.681q10.986,2.161,21.5,3.878C245.5,263.962,244.565,260.96,243.64,257.91Z" transform="translate(713.954 994.543)" fill="#fff"/>
      <path id="Path_82565" data-name="Path 82565" d="M329.79,225.843c-3.878,2.718-7.748,5.407-11.642,8.008,2.081.824,4.09,1.641,6.051,2.413,4.018-2.733,8.008-5.559,12.019-8.425C334.14,227.184,331.995,226.535,329.79,225.843Z" transform="translate(1002.429 911.954)" fill="#fff"/>
      <path id="Path_82566" data-name="Path 82566" d="M273.091,244.8q-11.25-1.555-23-3.994,3.194,7.642,6.135,14.784,11.707,1.729,22.877,2.653Q276.193,251.738,273.091,244.8Z" transform="translate(798.095 956.865)" fill="#fff"/>
      <path id="Path_82567" data-name="Path 82567" d="M312.935,230.8q-6.321,3.122-12.839,5.955,3.836,3.032,7.372,5.839,6.67-3.146,13.2-6.58C318.194,234.346,315.621,232.617,312.935,230.8Z" transform="translate(948.236 926.836)" fill="#fff"/>
      <path id="Path_82568" data-name="Path 82568" d="M261.718,248.246q-10.2-1.969-20.9-4.675,2.317,6.406,4.506,12.427,10.632,2.137,20.776,3.566Q263.973,254.071,261.718,248.246Z" transform="translate(770.282 965.178)" fill="#fff"/>
      <path id="Path_82569" data-name="Path 82569" d="M278.651,240.44c-6.552-.588-13.267-1.4-20.111-2.505q3.458,7.288,6.672,14.008c6.824.66,13.512,1.041,20.047,1.221Q282.089,247.058,278.651,240.44Z" transform="translate(823.476 948.257)" fill="#fff"/>
      <path id="Path_82570" data-name="Path 82570" d="M370.863,201.306c-1.629,1.433-3.246,2.854-4.843,4.278.388-.1.769-.184,1.153-.276q2.414-2.143,4.871-4.306C371.651,201.094,371.263,201.194,370.863,201.306Z" transform="translate(1146.155 837.376)" fill="#fff"/>
      <path id="Path_82571" data-name="Path 82571" d="M366.772,205.037q-3.53,3.1-7,6.119c.632-.128,1.265-.244,1.889-.348q3.488-3.062,7.056-6.183C368.073,204.749,367.428,204.9,366.772,205.037Z" transform="translate(1127.409 848.253)" fill="#fff"/>
      <path id="Path_82572" data-name="Path 82572" d="M376.189,197.028c-1.261,1.117-2.513,2.233-3.758,3.338.268-.08.528-.156.792-.228,1.245-1.117,2.5-2.229,3.766-3.35C376.721,196.868,376.453,196.936,376.189,197.028Z" transform="translate(1165.403 824.724)" fill="#fff"/>
      <path id="Path_82573" data-name="Path 82573" d="M245.633,254.319c-6.36-1.385-12.871-2.938-19.531-4.7q1.495,4.941,2.938,9.669c6.64,1.493,13.115,2.794,19.447,3.942C247.57,260.306,246.6,257.344,245.633,254.319Z" transform="translate(726.089 983.326)" fill="#fff"/>
      <path id="Path_82574" data-name="Path 82574" d="M337.671,221.644q-4.989,3.86-9.929,7.6c1.657.364,3.278.72,4.859,1.057q5.1-3.9,10.254-7.92C341.177,222.132,339.448,221.9,337.671,221.644Z" transform="translate(1031.233 899.348)" fill="#fff"/>
      <path id="Path_82575" data-name="Path 82575" d="M362.661,208.33q-4.467,3.872-8.825,7.64c.9-.12,1.8-.248,2.7-.344q4.412-3.83,8.937-7.756C364.542,208.022,363.6,208.166,362.661,208.33Z" transform="translate(1109.576 857.995)" fill="#fff"/>
      <path id="Path_82576" data-name="Path 82576" d="M358.521,211.212q-5.253,4.508-10.4,8.881c1.221-.084,2.421-.172,3.614-.26q5.241-4.467,10.594-9.069C361.086,210.916,359.818,211.068,358.521,211.212Z" transform="translate(1092.424 866.684)" fill="#fff"/>
      <path id="Path_82577" data-name="Path 82577" d="M325.464,226.277q-6.033,4.01-12.159,7.8c2.493,1.169,4.907,2.277,7.228,3.358q6.328-4.07,12.635-8.337C330.695,228.19,328.121,227.258,325.464,226.277Z" transform="translate(987.893 913.257)" fill="#fff"/>
      <path id="Path_82578" data-name="Path 82578" d="M318.029,228.477q-6.946,3.818-14.052,7.364c3.046,2.005,5.963,3.946,8.773,5.8q7.36-3.89,14.56-8.093C324.34,231.919,321.247,230.238,318.029,228.477Z" transform="translate(959.888 919.862)" fill="#fff"/>
      <path id="Path_82579" data-name="Path 82579" d="M251.545,251.434c-7.34-1.769-14.856-3.838-22.561-6.151,1.329,4.23,2.653,8.345,3.91,12.363q11.508,2.912,22.457,5.091C254.126,259.059,252.841,255.3,251.545,251.434Z" transform="translate(734.742 970.318)" fill="#fff"/>
      <path id="Path_82580" data-name="Path 82580" d="M352.531,213.842c-3.214,2.725-6.416,5.387-9.565,8.024,1.293-.016,2.557-.032,3.794-.056q4.845-4.058,9.793-8.241C355.241,213.654,353.9,213.746,352.531,213.842Z" transform="translate(1076.942 875.108)" fill="#fff"/>
      <path id="Path_82581" data-name="Path 82581" d="M274.08,241.268q-11.01-1.9-22.549-4.783,3.644,8.441,7.02,16.217,11.472,2.059,22.42,3.206Q277.663,248.872,274.08,241.268Z" transform="translate(802.433 943.904)" fill="#fff"/>
      <path id="Path_82582" data-name="Path 82582" d="M266,245.131c-7.644-1.705-15.485-3.722-23.5-6.111q3.026,8.038,5.875,15.549,11.953,2.773,23.353,4.627Q268.968,252.4,266,245.131Z" transform="translate(775.323 951.512)" fill="#fff"/>
      <path id="Path_82583" data-name="Path 82583" d="M334.359,222.643q-5.937,4.406-11.863,8.665,3.428.967,6.664,1.853,6.147-4.467,12.323-9.137Q338.031,223.345,334.359,222.643Z" transform="translate(1015.486 902.347)" fill="#fff"/>
      <path id="Path_82584" data-name="Path 82584" d="M209.961,265.58q-7.7-1.483-15.641-3.166c.4,1.761.812,3.514,1.213,5.247q7.93,1.543,15.617,2.93C210.769,268.934,210.345,267.265,209.961,265.58Z" transform="translate(630.672 1021.749)" fill="#fff"/>
      <path id="Path_82585" data-name="Path 82585" d="M217.525,262.449q-8.387-1.849-17.118-3.918c.54,2.133,1,4.258,1.533,6.339q8.7,1.9,17.078,3.566C218.533,266.463,218.017,264.466,217.525,262.449Z" transform="translate(648.947 1010.091)" fill="#fff"/>
      <path id="Path_82586" data-name="Path 82586" d="M198.649,268.379q-5.289-.906-10.714-1.905c.26,1.085.488,2.169.72,3.246q5.4.955,10.7,1.8C199.105,270.48,198.889,269.432,198.649,268.379Z" transform="translate(611.503 1033.938)" fill="#fff"/>
      <path id="Path_82587" data-name="Path 82587" d="M226.574,259.789q-10.314-2.491-21.1-5.407c.744,2.922,1.461,5.8,2.185,8.637,7.164,1.773,14.18,3.362,21.04,4.843C228.019,265.212,227.278,262.527,226.574,259.789Z" transform="translate(664.159 997.635)" fill="#fff"/>
      <path id="Path_82588" data-name="Path 82588" d="M187.183,271.48c-2.185-.336-4.394-.7-6.624-1.025.14.6.244,1.221.38,1.821,2.229.316,4.434.664,6.628.989C187.435,272.672,187.335,272.072,187.183,271.48Z" transform="translate(589.359 1045.89)" fill="#fff"/>
      <path id="Path_82589" data-name="Path 82589" d="M349.151,215.809q-5.949,4.929-11.807,9.677c1.833.08,3.622.168,5.375.236q6.021-4.911,12.155-10.022C353.009,215.725,351.1,215.777,349.151,215.809Z" transform="translate(1060.063 881.506)" fill="#fff"/>
      <path id="Path_82590" data-name="Path 82590" d="M257.506,248.724q-12.757-3.53-26.167-8.089,2.726,8.2,5.259,15.917,13.339,3.782,26.006,6.588Q260.125,256.146,257.506,248.724Z" transform="translate(741.812 956.363)" fill="#fff"/>
      <path id="Path_82591" data-name="Path 82591" d="M232.856,256.791q-11.028-2.936-22.581-6.484c.941,3.466,1.829,6.876,2.7,10.222,7.684,2.089,15.18,4.01,22.5,5.715Q234.21,261.6,232.856,256.791Z" transform="translate(678.573 985.401)" fill="#fff"/>
      <path id="Path_82592" data-name="Path 82592" d="M174.049,274.738c-.592-.064-1.193-.144-1.793-.244.032.152.06.3.092.448.6.1,1.2.168,1.8.236C174.121,275.03,174.085,274.89,174.049,274.738Z" transform="translate(564.431 1058.016)" fill="#fff"/>
      <path id="Path_82593" data-name="Path 82593" d="M319.971,226.428q-5.649,3.446-11.422,6.668,4.07,2.161,7.82,4.158,6.033-3.536,11.955-7.3C325.655,228.833,322.865,227.665,319.971,226.428Z" transform="translate(973.614 913.711)" fill="#fff"/>
      <path id="Path_82594" data-name="Path 82594" d="M328.555,223.586q-5.385,3.812-10.818,7.46c2.421.82,4.763,1.629,7.02,2.405q5.685-3.908,11.342-8C333.678,224.839,331.16,224.23,328.555,223.586Z" transform="translate(1001.199 905.178)" fill="#fff"/>
      <path id="Path_82595" data-name="Path 82595" d="M240.771,254.356q-12.973-3.836-26.615-8.521c1.237,4.551,2.485,9,3.694,13.355q13.592,4.1,26.495,7.4C243.164,262.6,241.991,258.526,240.771,254.356Z" transform="translate(690.225 971.975)" fill="#fff"/>
      <path id="Path_82596" data-name="Path 82596" d="M343.632,217.728q-5.733,4.623-11.4,9.1c2.049.2,4.038.416,5.983.616q5.877-4.665,11.831-9.521C347.971,217.864,345.83,217.8,343.632,217.728Z" transform="translate(1044.722 887.591)" fill="#fff"/>
      <path id="Path_82597" data-name="Path 82597" d="M270.093,242.061q-12.871-3.362-26.391-7.98,4,10.152,7.708,19.539,13.435,3.554,26.195,6Q274,251.174,270.093,242.061Z" transform="translate(778.928 936.684)" fill="#fff"/>
      <path id="Path_82598" data-name="Path 82598" d="M261.516,245.672q-13.628-4.274-28.008-9.809,3.392,9.833,6.556,19.007,14.27,4.539,27.8,7.888Q264.805,254.5,261.516,245.672Z" transform="translate(748.324 942.037)" fill="#fff"/>
      <path id="Path_82599" data-name="Path 82599" d="M245.4,251.254q-13.363-4.371-27.439-9.794c1.517,5.223,2.958,10.322,4.406,15.285q14.03,4.659,27.283,8.381Q247.581,258.366,245.4,251.254Z" transform="translate(701.654 958.843)" fill="#fff"/>
      <path id="Path_82600" data-name="Path 82600" d="M375.414,198.21q-4,3.518-7.872,6.956c.713-.22,1.429-.42,2.133-.62,2.617-2.3,5.267-4.651,7.952-7.02C376.891,197.746,376.155,197.978,375.414,198.21Z" transform="translate(1150.725 826.94)" fill="#fff"/>
      <path id="Path_82601" data-name="Path 82601" d="M339.764,219.131q-6.556,5.127-13.087,10.07c2.746.46,5.4.884,7.977,1.313q6.838-5.235,13.724-10.686C345.6,219.6,342.73,219.363,339.764,219.131Z" transform="translate(1028.038 891.803)" fill="#fff"/>
      <path id="Path_82602" data-name="Path 82602" d="M369.631,202.347q-4.364,3.83-8.6,7.54c.9-.2,1.789-.424,2.674-.62q4.31-3.776,8.737-7.664C371.516,201.855,370.583,202.1,369.631,202.347Z" transform="translate(1131.162 839.18)" fill="#fff"/>
      <path id="Path_82603" data-name="Path 82603" d="M364.3,205.976q-4.833,4.2-9.529,8.257c1.157-.2,2.3-.384,3.418-.6q4.8-4.142,9.729-8.449C366.732,205.455,365.523,205.707,364.3,205.976Z" transform="translate(1112.389 849.928)" fill="#fff"/>
      <path id="Path_82604" data-name="Path 82604" d="M323.744,223.94q-5.559,3.668-11.23,7.176,4.431,1.8,8.5,3.462,5.973-3.83,11.895-7.872C329.98,225.825,326.93,224.9,323.744,223.94Z" transform="translate(985.518 906.241)" fill="#fff"/>
      <path id="Path_82605" data-name="Path 82605" d="M247.344,247.379q-12.493-4.568-25.7-10.226,2.479,8.213,4.811,15.949,13.129,4.827,25.518,8.621C250.47,257.084,248.941,252.3,247.344,247.379Z" transform="translate(712.699 945.909)" fill="#fff"/>
      <path id="Path_82606" data-name="Path 82606" d="M358.857,209.148c-3.4,2.922-6.752,5.779-10.05,8.6,1.413-.18,2.8-.34,4.162-.5q5.091-4.352,10.334-8.869C361.854,208.636,360.37,208.888,358.857,209.148Z" transform="translate(1094.478 859.526)" fill="#fff"/>
      <path id="Path_82607" data-name="Path 82607" d="M263.07,241.948q-13.369-4.737-27.483-10.906,3.92,10.872,7.524,20.9,13.982,5,27.239,8.653Q266.844,251.642,263.07,241.948Z" transform="translate(754.565 927.563)" fill="#fff"/>
      <path id="Path_82608" data-name="Path 82608" d="M354.386,211.813q-5.871,4.971-11.594,9.757c1.905-.112,3.766-.248,5.591-.348q5.925-4.989,12.011-10.162Q357.47,211.427,354.386,211.813Z" transform="translate(1076.419 867.575)" fill="#fff"/>
      <path id="Path_82609" data-name="Path 82609" d="M333.742,220.421q-6.063,4.569-12.175,8.941,4.509,1.015,8.7,1.965,6.454-4.719,12.9-9.649C340.149,221.257,337,220.849,333.742,220.421Z" transform="translate(1012.697 895.676)" fill="#fff"/>
      <path id="Path_82610" data-name="Path 82610" d="M205.038,260.289q-10.32-2.924-21.072-6.259c.564,2.609,1.141,5.183,1.685,7.74q10.746,3.086,21.036,5.8C206.146,265.172,205.61,262.743,205.038,260.289Z" transform="translate(599.587 996.578)" fill="#fff"/>
      <path id="Path_82611" data-name="Path 82611" d="M214.589,257.762q-11.791-3.7-24.181-7.968c.764,3.342,1.537,6.628,2.265,9.869,8.233,2.613,16.281,5.011,24.105,7.268C216.061,263.918,215.321,260.864,214.589,257.762Z" transform="translate(618.925 983.861)" fill="#fff"/>
      <path id="Path_82612" data-name="Path 82612" d="M195.389,263.134c-6.179-1.621-12.479-3.278-18.891-5.047.424,2.1.884,4.17,1.3,6.235q9.6,2.485,18.871,4.743C196.265,267.1,195.8,265.127,195.389,263.134Z" transform="translate(577.167 1008.758)" fill="#fff"/>
      <path id="Path_82613" data-name="Path 82613" d="M223.816,255.5c-9.029-3.1-18.294-6.512-27.832-10.146q1.537,6.436,3.034,12.639,14.252,4.911,27.723,9.117C225.8,263.3,224.78,259.439,223.816,255.5Z" transform="translate(635.668 970.522)" fill="#fff"/>
      <path id="Path_82614" data-name="Path 82614" d="M254.829,245.442q-15.092-6.075-31.057-13.768,3.482,11.16,6.776,21.544,15.849,6.466,30.8,11.458Q258.187,255.389,254.829,245.442Z" transform="translate(719.094 929.46)" fill="#fff"/>
      <path id="Path_82615" data-name="Path 82615" d="M349.585,214.014q-6.382,5.3-12.659,10.442c2.449-.008,4.823-.032,7.136-.048q6.562-5.391,13.247-10.986C354.808,213.618,352.235,213.806,349.585,214.014Z" transform="translate(1058.808 874.664)" fill="#fff"/>
      <path id="Path_82616" data-name="Path 82616" d="M182.8,265.7q-7.174-1.669-14.52-3.458c.3,1.437.544,2.878.86,4.3,4.891,1.153,9.725,2.241,14.5,3.31C183.35,268.474,183.062,267.09,182.8,265.7Z" transform="translate(552.5 1021.224)" fill="#fff"/>
      <path id="Path_82617" data-name="Path 82617" d="M228.775,252.136q-13.279-5.019-27.355-11,1.759,7.072,3.474,13.832,14.012,5.337,27.227,9.749Q230.476,258.568,228.775,252.136Z" transform="translate(651.988 957.861)" fill="#fff"/>
      <path id="Path_82618" data-name="Path 82618" d="M167.779,268.285c-2.894-.62-5.815-1.229-8.757-1.853.136.78.272,1.553.432,2.329q4.418.906,8.753,1.8C168.067,269.8,167.943,269.045,167.779,268.285Z" transform="translate(524.7 1033.812)" fill="#fff"/>
      <path id="Path_82619" data-name="Path 82619" d="M236.622,250q-15.014-6.243-30.993-13.756,2.371,8.963,4.591,17.47,15.879,6.616,30.809,12.023Q238.886,258.062,236.622,250Z" transform="translate(664.625 943.174)" fill="#fff"/>
      <path id="Path_82620" data-name="Path 82620" d="M327.18,221.348q-5.3,3.782-10.722,7.412c3.158.917,6.18,1.781,9.085,2.613q5.805-3.992,11.542-8.18C333.924,222.6,330.63,221.992,327.18,221.348Z" transform="translate(997.359 898.459)" fill="#fff"/>
      <path id="Path_82621" data-name="Path 82621" d="M344.4,215.728q-6.652,5.421-13.251,10.65c3.03.152,5.971.3,8.817.46q6.976-5.571,14.056-11.37C350.911,215.548,347.713,215.64,344.4,215.728Z" transform="translate(1041.449 880.806)" fill="#fff"/>
      <path id="Path_82622" data-name="Path 82622" d="M255.572,241.166q-14.12-6.352-29.076-14.4,3.86,11.791,7.44,22.661,14.816,6.688,28.78,11.811Q259.282,251.608,255.572,241.166Z" transform="translate(727.272 914.725)" fill="#fff"/>
      <path id="Path_82623" data-name="Path 82623" d="M150.629,271.075c-.748-.132-1.5-.26-2.237-.408a3.232,3.232,0,0,1,.092.528c.744.12,1.493.272,2.233.412C150.673,271.436,150.669,271.251,150.629,271.075Z" transform="translate(492.786 1046.526)" fill="#fff"/>
      <path id="Path_82624" data-name="Path 82624" d="M241.409,246.936q-15.4-7-31.778-15.553,2.84,10.32,5.491,20.035,16.269,7.456,31.546,13.408C244.983,259.034,243.206,253.087,241.409,246.936Z" transform="translate(676.639 928.587)" fill="#fff"/>
      <path id="Path_82625" data-name="Path 82625" d="M337.713,217.273q-5.979,4.743-12.007,9.321c3.3.356,6.472.716,9.529,1.061q6.466-4.977,12.935-10.142Q343.146,217.4,337.713,217.273Z" transform="translate(1025.123 886.225)" fill="#fff"/>
      <path id="Path_82626" data-name="Path 82626" d="M372.389,200.006q-5.373,4.707-10.57,9.233c1.313-.376,2.6-.732,3.886-1.073q5.307-4.653,10.826-9.485C375.174,199.113,373.79,199.557,372.389,200.006Z" transform="translate(1133.543 830.408)" fill="#fff"/>
      <path id="Path_82627" data-name="Path 82627" d="M366.338,203.978q-5.745,4.983-11.294,9.8l4.867-1.093q5.733-4.971,11.678-10.142C369.872,203.013,368.127,203.5,366.338,203.978Z" transform="translate(1113.203 842.008)" fill="#fff"/>
      <path id="Path_82628" data-name="Path 82628" d="M244.693,243.36c-10.162-5.091-20.667-10.722-31.486-17.017q3.32,11.526,6.371,22.256c10.73,5.4,21.14,10.182,31.205,14.468Q247.842,253.563,244.693,243.36Z" transform="translate(687.375 913.452)" fill="#fff"/>
      <path id="Path_82629" data-name="Path 82629" d="M361.3,207.441q-6.592,5.673-12.991,11.138c2.269-.392,4.475-.736,6.628-1.117q6.676-5.709,13.556-11.659C366.155,206.328,363.754,206.893,361.3,207.441Z" transform="translate(1092.983 851.793)" fill="#fff"/>
      <path id="Path_82630" data-name="Path 82630" d="M331.23,218.532q-5.511,4.2-11.166,8.269,5.607.973,10.746,1.849,6.159-4.533,12.263-9.249C339.3,219.136,335.353,218.832,331.23,218.532Z" transform="translate(1008.185 890.005)" fill="#fff"/>
      <path id="Path_82631" data-name="Path 82631" d="M354.751,210.387q-6.394,5.439-12.647,10.69c2.637-.3,5.2-.58,7.684-.864q6.6-5.559,13.375-11.346C360.434,209.35,357.637,209.863,354.751,210.387Z" transform="translate(1074.354 860.985)" fill="#fff"/>
      <path id="Path_82632" data-name="Path 82632" d="M209.4,251.815q-14.462-6.076-29.8-13.2,1.489,6.85,2.914,13.471,15.309,6.484,29.693,12.019Q210.814,258.068,209.4,251.815Z" transform="translate(586.465 950.287)" fill="#fff"/>
      <path id="Path_82633" data-name="Path 82633" d="M202.586,255.09q-14.882-5.811-30.653-12.375c.868,4.19,1.709,8.321,2.553,12.383q15.717,6.1,30.569,11.4C204.227,262.758,203.43,258.944,202.586,255.09Z" transform="translate(563.461 962.608)" fill="#fff"/>
      <path id="Path_82634" data-name="Path 82634" d="M249.134,240.459q-16.1-8.879-33.243-19.887,4.106,13.8,7.92,26.475,16.971,9.323,32.866,16.657Q253.04,252.55,249.134,240.459Z" transform="translate(695.433 896.13)" fill="#fff"/>
      <path id="Path_82635" data-name="Path 82635" d="M218.294,249.691q-15.7-7.234-32.446-15.769c1.281,5.6,2.509,11.074,3.73,16.425q16.671,7.714,32.29,14.164Q220.121,257.277,218.294,249.691Z" transform="translate(605.237 936.209)" fill="#fff"/>
      <path id="Path_82636" data-name="Path 82636" d="M188.6,256.274q-11.923-4.238-24.442-8.953c.576,2.966,1.165,5.907,1.729,8.8q12.493,4.443,24.394,8.373C189.719,261.789,189.167,259.048,188.6,256.274Z" transform="translate(540.116 976.436)" fill="#fff"/>
      <path id="Path_82637" data-name="Path 82637" d="M223.76,246.419q-15.5-7.768-32.07-17.094c1.465,6.231,2.942,12.283,4.33,18.2q16.485,8.291,31.866,15.144C226.545,257.4,225.185,251.979,223.76,246.419Z" transform="translate(622.776 922.411)" fill="#fff"/>
      <path id="Path_82638" data-name="Path 82638" d="M348.4,212.818q-6.267,5.259-12.479,10.366,4.725-.252,9.141-.5,6.646-5.5,13.419-11.2Q353.618,212.119,348.4,212.818Z" transform="translate(1055.806 868.824)" fill="#fff"/>
      <path id="Path_82639" data-name="Path 82639" d="M178.174,259.162q-11.652-3.758-23.785-7.884c.46,2.569,1,5.107,1.421,7.632q12.127,3.9,23.749,7.488C179.083,264.005,178.631,261.592,178.174,259.162Z" transform="translate(510.79 988.316)" fill="#fff"/>
      <path id="Path_82640" data-name="Path 82640" d="M232.627,245.107Q215,235.418,196.079,223.739q2.99,12.013,5.807,23.3,18.772,10.284,36.256,18.674C236.374,259.051,234.512,252.191,232.627,245.107Z" transform="translate(635.953 905.638)" fill="#fff"/>
      <path id="Path_82641" data-name="Path 82641" d="M162.444,261.079c-6.143-1.805-12.395-3.63-18.722-5.591.308,1.8.616,3.578.941,5.351q9.5,2.809,18.71,5.387C163.085,264.517,162.765,262.8,162.444,261.079Z" transform="translate(478.766 1000.956)" fill="#fff"/>
      <path id="Path_82642" data-name="Path 82642" d="M341.133,214.739q-5.529,4.581-11.118,9.017c3.446,0,6.76.02,9.949.024q6.088-4.9,12.211-9.974C348.637,214.107,344.959,214.427,341.133,214.739Z" transform="translate(1038.06 875.819)" fill="#fff"/>
      <path id="Path_82643" data-name="Path 82643" d="M237.854,242.332q-18.154-10.854-37.621-24.145,3.668,14,7.044,27.015,19.271,11.55,37.245,20.808Q241.31,254.579,237.854,242.332Z" transform="translate(648.425 888.969)" fill="#fff"/>
      <path id="Path_82644" data-name="Path 82644" d="M143.984,263.049c-4.158-1.1-8.357-2.209-12.595-3.366.2,1.061.384,2.125.528,3.19,4.234,1.137,8.437,2.209,12.6,3.29C144.344,265.126,144.124,264.1,143.984,263.049Z" transform="translate(441.739 1013.55)" fill="#fff"/>
      <path id="Path_82645" data-name="Path 82645" d="M334.227,216.112q-5.1,4.088-10.366,8.145c4.034.24,7.888.488,11.574.7q5.907-4.581,11.731-9.305Q340.989,215.862,334.227,216.112Z" transform="translate(1019.584 881.359)" fill="#fff"/>
      <path id="Path_82646" data-name="Path 82646" d="M242.545,239.531c-12.491-8.221-25.462-17.33-38.882-27.439q4.466,16.461,8.6,31.558,19.9,12.949,38.413,23.321Q246.751,253.811,242.545,239.531Z" transform="translate(658.722 870.671)" fill="#fff"/>
      <path id="Path_82647" data-name="Path 82647" d="M120.343,264.76c-1.033-.224-2.061-.472-3.086-.732.016.236.088.456.108.684,1.025.256,2.049.508,3.082.728C120.419,265.217,120.291,264.984,120.343,264.76Z" transform="translate(399.312 1026.595)" fill="#fff"/>
      <path id="Path_82648" data-name="Path 82648" d="M367.32,202.682c-4.282,3.722-8.509,7.356-12.639,10.926,2.325-.624,4.6-1.237,6.8-1.833q6.526-5.631,13.311-11.538Q371.142,201.414,367.32,202.682Z" transform="translate(1112.113 835.079)" fill="#fff"/>
      <path id="Path_82649" data-name="Path 82649" d="M359.613,206.463q-6.009,5.163-11.831,10.15c2.661-.592,5.255-1.141,7.768-1.677q6.22-5.337,12.663-10.9C365.424,204.8,362.558,205.623,359.613,206.463Z" transform="translate(1091.401 846.491)" fill="#fff"/>
      <path id="Path_82650" data-name="Path 82650" d="M207.041,246.446q-19.325-10.572-40.122-22.937,2.119,10.314,4.122,20.183c13.812,7.5,27.119,14.4,39.914,20.784C209.7,258.592,208.374,252.593,207.041,246.446Z" transform="translate(548.408 904.947)" fill="#fff"/>
      <path id="Path_82651" data-name="Path 82651" d="M197.465,248.372q-18.7-9.335-38.706-20.235c1.149,5.863,2.281,11.607,3.358,17.266,13.323,6.628,26.139,12.875,38.549,18.566C199.606,258.874,198.549,253.671,197.465,248.372Z" transform="translate(523.91 918.841)" fill="#fff"/>
      <path id="Path_82652" data-name="Path 82652" d="M353.666,209.858q-6.622,5.643-13.127,11.158c3.678-.58,7.228-1.165,10.666-1.717q7.1-6.009,14.38-12.251Q359.834,208.393,353.666,209.858Z" transform="translate(1069.655 855.527)" fill="#fff"/>
      <path id="Path_82653" data-name="Path 82653" d="M219.955,246.982q-22.464-13.351-46.714-29.188,2.918,13.616,5.7,26.519,24.109,14.252,46.4,26.106Q222.7,259.019,219.955,246.982Z" transform="translate(567.388 887.789)" fill="#fff"/>
      <path id="Path_82654" data-name="Path 82654" d="M185.17,249.654q-17.224-7.978-35.628-17.009c.864,4.759,1.745,9.445,2.589,14.072q18.358,8.411,35.524,15.809C186.819,258.306,186.018,254.008,185.17,249.654Z" transform="translate(496.239 932.372)" fill="#fff"/>
      <path id="Path_82655" data-name="Path 82655" d="M220.833,241.126q-19.439-12.547-40.466-27.627c2.033,8.921,3.958,17.582,5.851,25.962q20.886,13.375,40.134,24.382C224.584,256.511,222.715,248.943,220.833,241.126Z" transform="translate(588.782 874.895)" fill="#fff"/>
      <path id="Path_82656" data-name="Path 82656" d="M174.626,252.31Q157,244.818,138.314,236.517c.736,4.274,1.529,8.5,2.209,12.679q18.646,7.84,36.236,14.884C176.071,260.2,175.343,256.28,174.626,252.31Z" transform="translate(462.529 944)" fill="#fff"/>
      <path id="Path_82657" data-name="Path 82657" d="M346.011,212.531q-6.075,5.151-12.2,10.234c4.346-.464,8.517-.876,12.527-1.3q6.862-5.709,13.784-11.587C355.6,210.718,350.909,211.606,346.011,212.531Z" transform="translate(1049.447 864.009)" fill="#fff"/>
      <path id="Path_82658" data-name="Path 82658" d="M231.79,241.863c-15.024-10.618-30.729-22.228-47.01-35.12,2.822,11.8,5.467,23.181,8.061,34.131,16.137,11.262,31.658,21.388,46.522,30.573C236.917,261.942,234.42,252.08,231.79,241.863Z" transform="translate(602.031 854.612)" fill="#fff"/>
      <path id="Path_82659" data-name="Path 82659" d="M156.108,252.649c-9.717-3.794-19.7-7.7-29.913-11.827.5,3.11.941,6.183,1.509,9.225,10.2,3.938,20.191,7.624,29.877,11.278C157.14,258.452,156.62,255.566,156.108,252.649Z" transform="translate(426.145 956.925)" fill="#fff"/>
      <path id="Path_82660" data-name="Path 82660" d="M338.183,214.617q-5.463,4.6-11.174,9.221,7.8-.378,14.916-.716c4.423-3.586,8.809-7.228,13.183-10.886Q347.034,213.389,338.183,214.617Z" transform="translate(1029.035 871.103)" fill="#fff"/>
      <path id="Path_82661" data-name="Path 82661" d="M235.38,238.226c-14.72-11.254-29.989-23.809-45.95-37.6q4.893,19.769,9.373,37.889,23.629,17.842,45.341,32.266Q239.96,255.187,235.38,238.226Z" transform="translate(615.991 836.256)" fill="#fff"/>
      <path id="Path_82662" data-name="Path 82662" d="M135.687,253.385q-11.725-4.142-23.917-8.537.5,3.26,1,6.468,12.175,4.274,23.905,8.257C136.332,257.531,136.048,255.458,135.687,253.385Z" transform="translate(382.838 969.012)" fill="#fff"/>
      <path id="Path_82663" data-name="Path 82663" d="M109.657,253.611c-4.863-1.509-9.765-3.122-14.732-4.731.148,1.169.332,2.333.5,3.482,4.975,1.569,9.865,3.146,14.728,4.639C109.985,255.876,109.8,254.747,109.657,253.611Z" transform="translate(332.266 981.117)" fill="#fff"/>
      <path id="Path_82664" data-name="Path 82664" d="M359.593,207.21q-7.288,6.255-14.436,12.375c4.547-1.185,8.945-2.317,13.179-3.45q7.966-6.832,16.2-13.928Q367.331,204.608,359.593,207.21Z" transform="translate(1083.52 840.994)" fill="#fff"/>
      <path id="Path_82665" data-name="Path 82665" d="M206.758,242.4c-17.374-11.975-35.56-25-54.574-39.238,2,10.55,3.994,20.792,5.919,30.761,18.871,12.879,36.961,24.566,54.214,35.324C210.508,260.54,208.691,251.587,206.758,242.4Z" transform="translate(504.17 843.867)" fill="#fff"/>
      <path id="Path_82666" data-name="Path 82666" d="M199.886,245.428q-27.477-17.38-57.384-37.809,2.642,14.54,5.171,28.416,29.807,18.706,57.108,34.487C203.224,262.341,201.531,253.993,199.886,245.428Z" transform="translate(475.103 857.242)" fill="#fff"/>
      <path id="Path_82667" data-name="Path 82667" d="M212.475,239q-24.842-18.46-51.965-40.763c2.309,11.47,4.591,22.569,6.748,33.323q26.961,19.883,51.529,36.232Q215.743,253.845,212.475,239Z" transform="translate(529.167 829.072)" fill="#fff"/>
      <path id="Path_82668" data-name="Path 82668" d="M350.271,210.841q-6.243,5.367-12.559,10.758,7.894-1.663,15.168-3.158,7.348-6.226,14.768-12.623C362.094,207.411,356.31,209.1,350.271,210.841Z" transform="translate(1061.168 851.835)" fill="#fff"/>
      <path id="Path_82669" data-name="Path 82669" d="M181.4,242.436q-23.323-13.544-48.575-29.312,1.855,10.758,3.638,21.124,25.22,14.546,48.4,27.063Q183.145,252.048,181.4,242.436Z" transform="translate(446.05 873.769)" fill="#fff"/>
      <path id="Path_82670" data-name="Path 82670" d="M219.745,237.192q-25.076-20.315-52.533-44.977c2.858,13.275,5.543,26.067,8.177,38.389,18.13,14.5,35.452,27.579,51.973,39.442Q223.681,254.216,219.745,237.192Z" transform="translate(549.288 810.995)" fill="#fff"/>
      <path id="Path_82671" data-name="Path 82671" d="M78.655,253.948c-1.349-.372-2.682-.792-4.046-1.157a4.083,4.083,0,0,1,.108.824c1.361.36,2.718.736,4.05,1.157C78.735,254.5,78.7,254.22,78.655,253.948Z" transform="translate(271.272 992.858)" fill="#fff"/>
      <path id="Path_82672" data-name="Path 82672" d="M167.6,243.263q-22.783-12.175-47.338-26.115,1.5,9.161,2.93,18.038c16.325,8.729,32.078,16.805,47.206,24.4C169.494,254.229,168.534,248.786,167.6,243.263Z" transform="translate(408.324 885.85)" fill="#fff"/>
      <path id="Path_82673" data-name="Path 82673" d="M224.359,233.817q-24.428-21.624-51.261-47.983c3.35,14.892,6.476,29.148,9.565,42.772,17.654,15.3,34.5,29.056,50.56,41.471Q228.967,252.721,224.359,233.817Z" transform="translate(566.959 791.838)" fill="#fff"/>
      <path id="Path_82674" data-name="Path 82674" d="M339.957,213.441c-2.954,2.565-6.007,5.207-9.181,7.86,5.379-.82,10.494-1.6,15.381-2.357,3.886-3.258,7.74-6.544,11.558-9.817C352.08,210.5,346.172,211.921,339.957,213.441Z" transform="translate(1040.345 861.769)" fill="#fff"/>
      <path id="Path_82675" data-name="Path 82675" d="M149.768,243.14q-21.288-10.488-44.081-22.172c.688,4.955,1.493,9.838,2.237,14.668q22.753,11.118,44,20.98C151.2,252.185,150.5,247.687,149.768,243.14Z" transform="translate(364.576 897.318)" fill="#fff"/>
      <path id="Path_82676" data-name="Path 82676" d="M127.445,242.314q-18.9-8.483-38.942-17.8.84,5.673,1.609,11.27,20.021,8.909,38.89,17.041C128.477,249.358,128.005,245.84,127.445,242.314Z" transform="translate(312.985 907.958)" fill="#fff"/>
      <path id="Path_82677" data-name="Path 82677" d="M100.21,241.09Q84.379,234.636,67.84,227.7c.272,2.726.744,5.407,1.065,8.089q16.545,6.706,32.354,12.983Q100.724,244.946,100.21,241.09Z" transform="translate(250.95 917.523)" fill="#fff"/>
      <path id="Path_82678" data-name="Path 82678" d="M198.422,232.652Q169.114,207.8,136.608,177.7q3.662,20.327,7.1,39.322c21.524,18.014,41.943,34.311,61.306,49.079C202.909,255.308,200.684,244.174,198.422,232.652Z" transform="translate(457.408 767.409)" fill="#fff"/>
      <path id="Path_82679" data-name="Path 82679" d="M190.755,235.347q-30.881-24.115-65.056-53.014,3.092,18.514,6.143,36,34.057,26.235,64.64,47.975Q193.691,251.262,190.755,235.347Z" transform="translate(424.656 781.327)" fill="#fff"/>
      <path id="Path_82680" data-name="Path 82680" d="M206.972,231.432c-19.4-17.926-39.9-37.717-61.486-59.637q4.473,23.347,8.569,44.921c21.368,19.371,41.639,36.809,60.826,52.561Q211.069,251.075,206.972,231.432Z" transform="translate(484.061 749.69)" fill="#fff"/>
      <path id="Path_82681" data-name="Path 82681" d="M181.521,237.556q-32.622-23.521-68.7-51.3c1.745,11.3,3.71,22.288,5.311,33.07q36,25.5,68.366,47C184.907,256.946,183.218,247.365,181.521,237.556Z" transform="translate(385.988 793.09)" fill="#fff"/>
      <path id="Path_82682" data-name="Path 82682" d="M224.227,239.733c-23.081-23.137-47.378-48.839-73.017-77.367q6.381,32.088,12.335,61.358,37.953,37.245,72,67.2Q230.088,266.468,224.227,239.733Z" transform="translate(501.246 721.382)" fill="#fff"/>
      <path id="Path_82683" data-name="Path 82683" d="M342.332,213.88c-2.766,2.425-5.731,5.011-8.853,7.716q10.62-2.72,20.235-5.155c4.214-3.614,8.381-7.2,12.483-10.714Q354.875,209.605,342.332,213.88Z" transform="translate(1048.46 851.561)" fill="#fff"/>
      <path id="Path_82684" data-name="Path 82684" d="M170.467,239.312q-34.759-22.9-72.921-49.844c1.5,10.358,2.97,20.519,4.587,30.453q38.085,25.064,72.669,46.222C173.392,257.37,171.911,248.437,170.467,239.312Z" transform="translate(340.135 802.748)" fill="#fff"/>
      <path id="Path_82685" data-name="Path 82685" d="M64.513,238.707c-7.12-2.65-14.356-5.3-21.68-8.061.064,1.561.432,3.09.56,4.635q10.992,4.04,21.668,7.912A43.572,43.572,0,0,0,64.513,238.707Z" transform="translate(175.874 926.374)" fill="#fff"/>
      <path id="Path_82686" data-name="Path 82686" d="M147.923,235.226q-32.058-19.565-67.229-41.991c1.1,8.221,2.181,16.321,3.4,24.262,23.4,14.092,45.757,27.143,67.065,39.386C150.121,249.767,149.024,242.559,147.923,235.226Z" transform="translate(289.541 814.058)" fill="#fff"/>
      <path id="Path_82687" data-name="Path 82687" d="M122.756,231.677c-20.039-11.226-40.975-23.065-62.775-35.712.748,6.572,1.693,13.043,2.529,19.455q32.658,18.022,62.679,33.9C124.269,243.532,123.548,237.636,122.756,231.677Z" transform="translate(227.356 822.254)" fill="#fff"/>
      <path id="Path_82688" data-name="Path 82688" d="M198.469,229.949c-25.478-26.459-52.553-55.883-81.441-88.609,3.458,20.459,6.82,40.09,9.97,58.985,28.576,29,55.379,55.019,80.569,78.376C204.617,263.084,201.643,246.835,198.469,229.949Z" transform="translate(398.624 658.257)" fill="#fff"/>
      <path id="Path_82689" data-name="Path 82689" d="M92.853,227.9c-18.794-9.561-38.317-19.551-58.5-30.213.616,5.2,1.269,10.346,1.853,15.457,20.167,10.222,39.662,19.823,58.437,29C94.033,237.436,93.561,232.677,92.853,227.9Z" transform="translate(150.412 827.421)" fill="#fff"/>
      <path id="Path_82690" data-name="Path 82690" d="M204.215,226.573c-23.973-27.159-49.576-57.352-76.687-91.191,3.954,22.517,7.864,43.984,11.542,64.492,26.783,29.524,51.973,55.871,75.61,79.476C211.371,262.541,207.837,244.979,204.215,226.573Z" transform="translate(430.147 640.37)" fill="#fff"/>
      <path id="Path_82691" data-name="Path 82691" d="M192.585,233.819c-27.663-26.371-57.06-55.611-88.377-88.049,3,19.015,5.883,37.393,8.753,55.139,31.149,29.052,60.266,55.307,87.669,78.928Q196.794,257.582,192.585,233.819Z" transform="translate(360.135 671.557)" fill="#fff"/>
      <path id="Path_82692" data-name="Path 82692" d="M177.477,230.3c-27.359-24.021-56.479-50.46-87.421-79.716q3.686,24.109,6.984,46.894c30.785,26.6,59.769,50.56,86.9,72.4C181.891,257.058,179.682,243.875,177.477,230.3Z" transform="translate(317.648 686.019)" fill="#fff"/>
      <path id="Path_82693" data-name="Path 82693" d="M172.166,236.292q-47.546-38.4-101.184-84.431c2.109,15.9,4.29,31.406,6.452,46.53,35.72,28.3,69.2,54.13,100.752,77.627C176.165,263.107,174.26,249.852,172.166,236.292Z" transform="translate(260.383 689.843)" fill="#fff"/>
      <path id="Path_82694" data-name="Path 82694" d="M151.516,231.535Q103.753,196.043,49.939,154.1c1.813,13.544,3.262,26.871,5.115,39.862C90.87,220.1,124.585,244.01,156.326,266,154.693,254.744,153.116,243.258,151.516,231.535Z" transform="translate(197.207 696.553)" fill="#fff"/>
      <path id="Path_82695" data-name="Path 82695" d="M119.387,221.416C89.666,201.256,58.2,179.476,24.946,155.775c1.345,10.63,2.505,21.108,3.69,31.405,33.219,22.3,64.62,42.772,94.252,61.746Q121.154,235.389,119.387,221.416Z" transform="translate(122.173 701.594)" fill="#fff"/>
      <path id="Path_82696" data-name="Path 82696" d="M203.8,236.5q-25.046-31.6-51.9-67.053C133.029,144.572,113.546,118.078,93.187,90q7.534,48.375,14.512,92.255,30.149,36.812,57.932,69.443,26.517,31.013,51.18,58.561Q210.568,275.087,203.8,236.5Z" transform="translate(327.048 504.128)" fill="#fff"/>
      <path id="Path_82697" data-name="Path 82697" d="M196.125,237.291q-26.595-30.749-55.1-65.188-29.885-36.284-62.359-76.871,6.484,43.4,12.267,83.342c21.488,24.029,41.987,46.79,61.746,68.214,18.883,20.343,37,39.63,54.546,57.784C203.546,283.061,199.976,260.636,196.125,237.291Z" transform="translate(283.458 519.83)" fill="#fff"/>
      <path id="Path_82698" data-name="Path 82698" d="M183.946,234.607q-27.669-29.536-57.536-62.363-31.247-34.573-65.124-73.2c3.446,25.522,6.908,50.128,10.118,73.917q33.655,34.819,64.66,65.833,29.65,29.56,57.108,56.023C190.274,275.417,187.088,255.378,183.946,234.607Z" transform="translate(231.274 531.26)" fill="#fff"/>
      <path id="Path_82699" data-name="Path 82699" d="M169.056,231.1q-29.224-28.48-60.622-60.154-32.958-33.162-68.55-70.2c2.834,22.6,5.759,44.5,8.309,65.809q35.39,33.883,68.214,63.98c20.812,19.3,40.951,37.481,60.318,54.775Q173.14,258.975,169.056,231.1Z" transform="translate(167.02 536.375)" fill="#fff"/>
      <path id="Path_82700" data-name="Path 82700" d="M160.56,235.227q-33.733-30.041-69.887-63.415Q52.744,137,11.765,98.267c2.409,21.8,5.059,43.028,7.4,63.763Q60.028,197.8,97.793,229.844q36.086,30.773,69.627,58.437Q163.95,262.418,160.56,235.227Z" transform="translate(82.6 528.942)" fill="#fff"/>
      <path id="Path_82701" data-name="Path 82701" d="M209.178,259.915c-24.129-33.615-49.107-69.559-75.3-107.788Q92.234,91.307,46.691,21.814,56.212,91.447,64.641,154.5q45.073,60.988,86.136,114.108c25.886,33.459,50.548,64.92,74.337,94.313C220.092,330.206,214.709,295.919,209.178,259.915Z" transform="translate(187.456 299.412)" fill="#fff"/>
      <path id="Path_82702" data-name="Path 82702" d="M178.832,230.447Q145.5,187.889,109.3,139.58,70.828,88.4,28.584,30.019c4.462,35.668,8.561,69.863,12.779,102.617q41.987,52.019,80.049,97.426,35.876,43.044,68.906,80.725C186.552,285.117,182.782,258.346,178.832,230.447Z" transform="translate(133.095 324.046)" fill="#fff"/>
      <path id="Path_82703" data-name="Path 82703" d="M159.416,220.306q-34.6-40.5-72.4-86.352C60.265,101.584,32.35,66.9,2.733,30.036Q8,76.238,12.875,119.178C42.327,152.42,70.03,183.77,96.7,212.858q37.635,41.357,71.948,77.771C165.772,268,162.51,244.6,159.416,220.306Z" transform="translate(55.484 324.097)" fill="#fff"/>
      <path id="Path_82704" data-name="Path 82704" d="M208.454,274.472Q165.26,201.682,117.96,117.5q-25.094-44.3-51.369-92.179C48.205-7.661,29.751-42.2,10.34-77.916,18.372-11.1,26.281,51.768,33.585,111.089,71,171.627,106.129,227.726,139.656,279.5c31.069,48.487,60.782,93.412,89.082,135.191Q219.042,348.562,208.454,274.472Z" transform="translate(78.322 0)" fill="#fff"/>
      <path id="Path_82705" data-name="Path 82705" d="M198.808,268.48q-46.3-71.488-97.686-153.9C83.035,85.611,64.8,55.314,45.43,24.192Q16-24.609-15.748-77.072C-8.9-18.167-2.849,37.84,3.094,91.082,44.013,151.539,82.427,207.5,118.839,259.191q50.854,72.472,96.63,134.879C210.066,354.272,204.727,312.429,198.808,268.48Z" transform="translate(0 2.534)" fill="#fff"/>
    </g>
  </g>
</svg>
