<svg xmlns="http://www.w3.org/2000/svg" xmlns:xlink="http://www.w3.org/1999/xlink" width="202.632" height="55" viewBox="0 0 202.632 55">
  <defs>
    <clipPath id="clip-path">
      <rect id="Rectangle_2578" data-name="Rectangle 2578" width="202.632" height="55" fill="#fff"/>
    </clipPath>
  </defs>
  <g id="clutchReview" clip-path="url(#clip-path)">
    <g id="Group_52843" data-name="Group 52843">
      <path id="Path_82243" data-name="Path 82243" d="M74.721,23.245a1,1,0,0,1,1.91,0l1.4,4.31a1,1,0,0,0,.955.694h4.532a1,1,0,0,1,.59,1.816l-3.666,2.664a1,1,0,0,0-.365,1.122l1.4,4.31a1,1,0,0,1-1.545,1.122l-3.666-2.664a1,1,0,0,0-1.18,0l-3.666,2.664a1,1,0,0,1-1.545-1.122l1.4-4.31a1,1,0,0,0-.365-1.122l-3.666-2.664a1,1,0,0,1,.59-1.816h4.532a1,1,0,0,0,.955-.694Z" transform="translate(29.897 10.088)" fill="#ef4335"/>
      <path id="Path_82244" data-name="Path 82244" d="M89.75,23.245a1,1,0,0,1,1.91,0l1.4,4.31a1,1,0,0,0,.955.694h4.532a1,1,0,0,1,.59,1.816l-3.666,2.664a1,1,0,0,0-.365,1.122l1.4,4.31a1,1,0,0,1-1.545,1.122L91.3,36.619a1,1,0,0,0-1.18,0l-3.666,2.664A1,1,0,0,1,84.9,38.161l1.4-4.31a1,1,0,0,0-.365-1.122l-3.666-2.664a1,1,0,0,1,.59-1.816H87.4a1,1,0,0,0,.955-.694Z" transform="translate(36.62 10.088)" fill="#ef4335"/>
      <path id="Path_82245" data-name="Path 82245" d="M104.78,23.245a1,1,0,0,1,1.911,0l1.4,4.31a1,1,0,0,0,.955.694h4.532a1,1,0,0,1,.591,1.816L110.5,32.728a1,1,0,0,0-.365,1.122l1.4,4.31a1,1,0,0,1-1.544,1.122l-3.666-2.664a1,1,0,0,0-1.181,0l-3.666,2.664a1,1,0,0,1-1.545-1.122l1.4-4.31a1,1,0,0,0-.365-1.122L97.3,30.065a1,1,0,0,1,.59-1.816h4.532a1,1,0,0,0,.955-.694Z" transform="translate(43.344 10.088)" fill="#ef4335"/>
      <path id="Path_82246" data-name="Path 82246" d="M119.81,23.245a1,1,0,0,1,1.909,0l1.4,4.31a1,1,0,0,0,.954.694h4.532a1,1,0,0,1,.591,1.816l-3.666,2.664a1,1,0,0,0-.365,1.122l1.4,4.31a1,1,0,0,1-1.544,1.122l-3.666-2.664a1,1,0,0,0-1.18,0l-3.666,2.664a1,1,0,0,1-1.546-1.122l1.4-4.31A1,1,0,0,0,116,32.728l-3.666-2.664a1,1,0,0,1,.589-1.816h4.532a1,1,0,0,0,.955-.694Z" transform="translate(50.068 10.088)" fill="#ef4335"/>
      <path id="Path_82247" data-name="Path 82247" d="M134.839,23.245a1,1,0,0,1,1.909,0l1.4,4.31a1,1,0,0,0,.955.694h4.532a1,1,0,0,1,.589,1.816l-3.666,2.664a1,1,0,0,0-.365,1.122l1.4,4.31a1,1,0,0,1-1.546,1.122l-3.666-2.664a1,1,0,0,0-1.18,0l-3.666,2.664a1,1,0,0,1-1.544-1.122l1.4-4.31a1,1,0,0,0-.365-1.122l-3.666-2.664a1,1,0,0,1,.591-1.816h4.532a1,1,0,0,0,.954-.694Z" transform="translate(56.791 10.088)" fill="#ddd"/>
      <path id="Path_82248" data-name="Path 82248" d="M134.839,23.245a1,1,0,0,1,1.909,0l1.4,4.31a1,1,0,0,0,.955.694h3.841l.724,2.189-3.11,2.291a1,1,0,0,0-.365,1.122l1.4,4.31a1,1,0,0,1-1.546,1.122l-3.666-2.664a1,1,0,0,0-1.18,0l-3.666,2.664a1,1,0,0,1-1.544-1.122l1.4-4.31a1,1,0,0,0-.365-1.122l-3.666-2.664a1,1,0,0,1,.591-1.816h4.532a1,1,0,0,0,.954-.694Z" transform="translate(56.791 10.088)" fill="#ef4335"/>
      <path id="Path_82249" data-name="Path 82249" d="M50.207,37.276V35.02h-5.86V33.269l6.343-9.826h2.215v9.222h1.852V35.02H52.906v2.255Zm-2.88-4.47h3.081V27.852Z" transform="translate(19.84 10.487)" fill="#ef4335"/>
      <path id="Path_82250" data-name="Path 82250" d="M54.262,34.1a1.6,1.6,0,0,1-1.631-1.591A1.632,1.632,0,1,1,54.262,34.1Z" transform="translate(23.545 13.823)" fill="#ef4335"/>
      <path id="Path_82251" data-name="Path 82251" d="M60.814,23.331c2.88,0,4.994,2.235,4.994,5.558a8.906,8.906,0,0,1-7.39,8.941l-.805-2.215c2.517-.685,4.229-1.873,5.054-3.866l-.02-.02a5.376,5.376,0,0,1-2.577.644,4.12,4.12,0,0,1-4.209-4.43A4.635,4.635,0,0,1,60.814,23.331Zm-2.275,4.651a2.044,2.044,0,0,0,2.255,2.094,3.231,3.231,0,0,0,2.4-1.228v-.181c0-1.732-1.007-2.859-2.336-2.859A2.189,2.189,0,0,0,58.538,27.982Z" transform="translate(24.99 10.438)" fill="#ef4335"/>
      <path id="Path_82252" data-name="Path 82252" d="M51.926,18.55a6.766,6.766,0,0,1-7.108-7.168c0-4.056,2.53-7.329,7.108-7.329a7.018,7.018,0,0,1,5.562,2.731L56.183,7.869A5.422,5.422,0,0,0,51.926,5.72c-3.253,0-5.281,2.349-5.281,5.662a5.13,5.13,0,0,0,5.281,5.5,5.34,5.34,0,0,0,4.257-2.128l1.305,1.1A6.9,6.9,0,0,1,51.926,18.55Z" transform="translate(20.05 1.813)" fill="#555770"/>
      <path id="Path_82253" data-name="Path 82253" d="M55.258,18.568V3.79h1.626V18.568Z" transform="translate(24.721 1.695)" fill="#555770"/>
      <path id="Path_82254" data-name="Path 82254" d="M65.4,7.244h1.626v9.778H65.4V15.4h-.02a3.886,3.886,0,0,1-3.212,1.747c-2.249,0-3.674-1.285-3.674-4.076V7.244h1.626V12.6c0,2.229.823,3.052,2.389,3.052,1.546,0,2.891-1.345,2.891-3.674Z" transform="translate(26.167 3.241)" fill="#555770"/>
      <path id="Path_82255" data-name="Path 82255" d="M69.547,18.229C67.8,18.229,67,17.165,67,15.2V9.736H65.752V8.33H67V5l1.626-.181V8.33h3.253V9.736H68.623v5.22c0,1.165.281,1.747,1.2,1.747a3.52,3.52,0,0,0,1.647-.5l.442,1.426A4.5,4.5,0,0,1,69.547,18.229Z" transform="translate(29.415 2.155)" fill="#555770"/>
      <path id="Path_82256" data-name="Path 82256" d="M75.623,17.18a4.714,4.714,0,0,1-4.839-5,4.755,4.755,0,0,1,4.9-5.02,5.179,5.179,0,0,1,3.935,1.747l-1.124.984a3.45,3.45,0,0,0-2.731-1.225,3.276,3.276,0,0,0-3.333,3.514,3.265,3.265,0,0,0,3.333,3.514,3.81,3.81,0,0,0,2.771-1.165l1.124,1A5.449,5.449,0,0,1,75.623,17.18Z" transform="translate(31.667 3.204)" fill="#555770"/>
      <path id="Path_82257" data-name="Path 82257" d="M83.709,8.669c2.128,0,3.554,1.245,3.554,4.036v5.863H85.636v-5.4c0-2.209-.964-2.992-2.389-2.992-1.948,0-3.172,1.285-3.172,3.474v4.919H78.448V3.79h1.626V10.4h.04A4.266,4.266,0,0,1,83.709,8.669Z" transform="translate(35.095 1.695)" fill="#555770"/>
      <path id="Path_82258" data-name="Path 82258" d="M100.709,18.406H98.6l-3.614-5.441H92.3v5.441H90.55V4.151h5.06c3.293,0,4.718,1.887,4.718,4.417A3.97,3.97,0,0,1,96.935,12.8v.02ZM92.3,5.757v5.6h2.851c2.369,0,3.373-1.2,3.373-2.831,0-1.807-1.185-2.771-3.132-2.771Z" transform="translate(40.509 1.857)" fill="#555770"/>
      <path id="Path_82259" data-name="Path 82259" d="M108.03,12.02c0,.261-.041.6-.041.663H100.46a3.2,3.2,0,0,0,3.273,3.012,3.414,3.414,0,0,0,2.75-1.325l1.145.984a4.825,4.825,0,0,1-3.956,1.827,4.752,4.752,0,0,1-4.858-5,4.708,4.708,0,0,1,4.677-5.02C106.222,7.161,108.03,9.209,108.03,12.02Zm-4.458-3.353a3.044,3.044,0,0,0-3.052,2.67h5.9A2.85,2.85,0,0,0,103.572,8.667Z" transform="translate(44.206 3.204)" fill="#555770"/>
      <path id="Path_82260" data-name="Path 82260" d="M113.621,7.244h1.766l-3.974,9.778h-1.566l-4-9.778H107.6l3.012,7.71h.059Z" transform="translate(47.354 3.241)" fill="#555770"/>
      <path id="Path_82261" data-name="Path 82261" d="M114.872,6.7a1.136,1.136,0,0,1-1.164-1.144,1.148,1.148,0,0,1,1.164-1.144,1.162,1.162,0,0,1,1.165,1.144A1.149,1.149,0,0,1,114.872,6.7Zm-.822,11.585V8.51h1.625v9.778Z" transform="translate(50.869 1.975)" fill="#555770"/>
      <path id="Path_82262" data-name="Path 82262" d="M126.114,12.02c0,.261-.041.6-.041.663h-7.529a3.205,3.205,0,0,0,3.272,3.012,3.417,3.417,0,0,0,2.751-1.325l1.143.984a4.822,4.822,0,0,1-3.954,1.827,4.751,4.751,0,0,1-4.859-5,4.709,4.709,0,0,1,4.678-5.02C124.307,7.161,126.114,9.209,126.114,12.02Zm-4.458-3.353a3.044,3.044,0,0,0-3.051,2.67h5.9A2.849,2.849,0,0,0,121.657,8.667Z" transform="translate(52.297 3.204)" fill="#555770"/>
      <path id="Path_82263" data-name="Path 82263" d="M136.588,7.244h1.646l-3.393,9.778h-1.527L131.1,9.894h-.019l-2.229,7.128h-1.486l-3.393-9.778h1.646l2.489,7.308h.041l2.229-7.308h1.405l2.269,7.308h.039Z" transform="translate(55.464 3.241)" fill="#555770"/>
      <path id="Path_82264" data-name="Path 82264" d="M138.45,17.18a5.569,5.569,0,0,1-3.836-1.405l.844-1.225a4.046,4.046,0,0,0,2.992,1.165c1.164,0,1.847-.6,1.847-1.305,0-.843-.9-1.124-2.329-1.606-1.586-.562-2.932-1.225-2.932-3.012,0-1.506,1.366-2.63,3.233-2.63a5.082,5.082,0,0,1,3.354,1.2l-.844,1.285a3.9,3.9,0,0,0-2.591-1c-.742,0-1.505.442-1.505,1.144,0,.763.8,1.124,1.847,1.526,2.068.8,3.433,1.144,3.414,3.072C141.943,15.915,140.8,17.18,138.45,17.18Z" transform="translate(60.222 3.204)" fill="#555770"/>
    </g>
    <path id="Path_82265" data-name="Path 82265" d="M38.463,38.724a17.942,17.942,0,0,1-10.747,3.929c-9.05,0-15.272-6.735-15.272-15.714s6.222-15.153,15.272-15.153a15,15,0,0,1,10.747,3.929l1.7,1.684,9.05-8.418L46.948,7.3A29.132,29.132,0,0,0,27.716,0C11.878,0,0,11.786,0,27.5S11.878,55,27.716,55a29.132,29.132,0,0,0,19.232-7.3l2.263-1.684-9.05-8.98Z" fill="#17313b"/>
    <path id="Path_82266" data-name="Path 82266" d="M21.557,30.754a8.98,8.98,0,1,0-9.05-8.979A9.015,9.015,0,0,0,21.557,30.754Z" transform="translate(5.595 5.724)" fill="#ef4335"/>
  </g>
</svg>
