<svg xmlns="http://www.w3.org/2000/svg" width="17.646" height="13" viewBox="0 0 17.646 13">
  <g id="email" transform="translate(0 -57.088)">
    <g id="Group_52892" data-name="Group 52892" transform="translate(0 60.755)">
      <g id="Group_52891" data-name="Group 52891" transform="translate(0 0)">
        <path id="Path_90467" data-name="Path 90467" d="M9.333,152.262a1,1,0,0,1-1.042,0L0,147.2v6.729a2.605,2.605,0,0,0,2.6,2.6H15.042a2.605,2.605,0,0,0,2.6-2.6V147.2Z" transform="translate(0 -147.2)" fill="#fff"/>
      </g>
    </g>
    <g id="Group_52894" data-name="Group 52894" transform="translate(0.083 57.088)">
      <g id="Group_52893" data-name="Group 52893" transform="translate(0 0)">
        <path id="Path_90468" data-name="Path 90468" d="M17.006,57.088H4.569A2.589,2.589,0,0,0,2.048,59.13l8.75,5.333,8.729-5.333A2.589,2.589,0,0,0,17.006,57.088Z" transform="translate(-2.048 -57.088)" fill="#fff"/>
      </g>
    </g>
  </g>
</svg>
