<svg xmlns="http://www.w3.org/2000/svg" xmlns:xlink="http://www.w3.org/1999/xlink" width="215.658" height="55" viewBox="0 0 215.658 55">
  <defs>
    <clipPath id="clip-path">
      <rect id="Rectangle_2579" data-name="Rectangle 2579" width="215.658" height="55" fill="#fff"/>
    </clipPath>
  </defs>
  <g id="googleReview" clip-path="url(#clip-path)">
    <path id="Path_82267" data-name="Path 82267" d="M78.721,23.245a1,1,0,0,1,1.91,0l1.4,4.31a1,1,0,0,0,.955.694h4.532a1,1,0,0,1,.59,1.816l-3.666,2.664a1,1,0,0,0-.365,1.122l1.4,4.31a1,1,0,0,1-1.545,1.122l-3.666-2.664a1,1,0,0,0-1.18,0l-3.666,2.664a1,1,0,0,1-1.545-1.122l1.4-4.31a1,1,0,0,0-.365-1.122l-3.666-2.664a1,1,0,0,1,.59-1.816h4.532a1,1,0,0,0,.955-.694Z" transform="translate(31.686 10.089)" fill="#ef4335"/>
    <path id="Path_82268" data-name="Path 82268" d="M93.75,23.245a1,1,0,0,1,1.91,0l1.4,4.31a1,1,0,0,0,.955.694h4.532a1,1,0,0,1,.59,1.816l-3.666,2.664a1,1,0,0,0-.365,1.122l1.4,4.31a1,1,0,0,1-1.545,1.122L95.3,36.619a1,1,0,0,0-1.18,0l-3.666,2.664A1,1,0,0,1,88.9,38.161l1.4-4.31a1,1,0,0,0-.365-1.122l-3.666-2.664a1,1,0,0,1,.59-1.816H91.4a1,1,0,0,0,.955-.694Z" transform="translate(38.41 10.089)" fill="#ef4335"/>
    <path id="Path_82269" data-name="Path 82269" d="M108.779,23.245a1,1,0,0,1,1.911,0l1.4,4.31a1,1,0,0,0,.955.694h4.532a1,1,0,0,1,.591,1.816L114.5,32.728a1.006,1.006,0,0,0-.365,1.122l1.4,4.31a1,1,0,0,1-1.544,1.122l-3.666-2.664a1,1,0,0,0-1.181,0l-3.666,2.664a1,1,0,0,1-1.544-1.122l1.4-4.31a1,1,0,0,0-.365-1.122L101.3,30.065a1,1,0,0,1,.591-1.816h4.532a1,1,0,0,0,.955-.694Z" transform="translate(45.134 10.089)" fill="#ef4335"/>
    <path id="Path_82270" data-name="Path 82270" d="M123.81,23.245a1,1,0,0,1,1.909,0l1.4,4.31a1,1,0,0,0,.955.694h4.532a1,1,0,0,1,.591,1.816l-3.666,2.664a1,1,0,0,0-.365,1.122l1.4,4.31a1,1,0,0,1-1.544,1.122l-3.666-2.664a1,1,0,0,0-1.18,0l-3.668,2.664a1,1,0,0,1-1.544-1.122l1.4-4.31A1.006,1.006,0,0,0,120,32.728l-3.666-2.664a1,1,0,0,1,.589-1.816h4.532a1,1,0,0,0,.955-.694Z" transform="translate(51.857 10.089)" fill="#ef4335"/>
    <path id="Path_82271" data-name="Path 82271" d="M138.839,23.245a1,1,0,0,1,1.909,0l1.4,4.31a1,1,0,0,0,.954.694h4.532a1,1,0,0,1,.591,1.816l-3.666,2.664a1,1,0,0,0-.365,1.122l1.4,4.31a1,1,0,0,1-1.546,1.122l-3.666-2.664a1,1,0,0,0-1.18,0l-3.666,2.664a1,1,0,0,1-1.546-1.122l1.4-4.31a1,1,0,0,0-.365-1.122l-3.666-2.664a1,1,0,0,1,.591-1.816h4.532a1,1,0,0,0,.954-.694Z" transform="translate(58.581 10.089)" fill="#ddd"/>
    <path id="Path_82272" data-name="Path 82272" d="M138.839,23.245a1,1,0,0,1,1.909,0l1.4,4.31a1,1,0,0,0,.954.694l.948.018.718,4.306-.21.155a1,1,0,0,0-.365,1.122l1.4,4.31a1,1,0,0,1-1.546,1.122l-3.666-2.664a1,1,0,0,0-1.18,0l-3.666,2.664a1,1,0,0,1-1.546-1.122l1.4-4.31a1,1,0,0,0-.365-1.122l-3.666-2.664a1,1,0,0,1,.591-1.816h4.532a1,1,0,0,0,.954-.694Z" transform="translate(58.581 10.089)" fill="#ef4335"/>
    <path id="Path_82273" data-name="Path 82273" d="M55.6,11.1h5.883v5.642a8.694,8.694,0,0,1-5.542,1.807,6.819,6.819,0,0,1-7.128-7.208c0-4.216,2.771-7.288,7.068-7.288A7.433,7.433,0,0,1,61.327,6.3L60.082,7.367A5.916,5.916,0,0,0,55.866,5.72c-2.992,0-5.22,2.209-5.22,5.622,0,3.213,2.108,5.582,5.3,5.582a6.385,6.385,0,0,0,3.795-1.084V12.708H55.6Z" transform="translate(21.84 1.814)" fill="#555770"/>
    <path id="Path_82274" data-name="Path 82274" d="M64.292,17.18a4.845,4.845,0,0,1-5.06-5,5.04,5.04,0,0,1,10.079,0A4.824,4.824,0,0,1,64.292,17.18Zm0-1.486a3.353,3.353,0,0,0,3.373-3.514,3.4,3.4,0,1,0-6.786,0A3.372,3.372,0,0,0,64.292,15.694Z" transform="translate(26.499 3.204)" fill="#555770"/>
    <path id="Path_82275" data-name="Path 82275" d="M72.57,17.18a4.845,4.845,0,0,1-5.06-5,5.04,5.04,0,0,1,10.079,0A4.824,4.824,0,0,1,72.57,17.18Zm0-1.486a3.353,3.353,0,0,0,3.373-3.514,3.4,3.4,0,1,0-6.786,0A3.372,3.372,0,0,0,72.57,15.694Z" transform="translate(30.202 3.204)" fill="#555770"/>
    <path id="Path_82276" data-name="Path 82276" d="M83.83,7.281h1.606v9.035c0,2.831-1.385,4.839-4.8,4.839a7.6,7.6,0,0,1-3.975-1.064l.381-1.506a6.653,6.653,0,0,0,3.514,1.024c2.209,0,3.293-1.285,3.293-2.871V15.373h-.04A4.13,4.13,0,0,1,80.5,16.879a4.648,4.648,0,0,1-4.738-4.839,4.677,4.677,0,0,1,4.658-4.879A4.44,4.44,0,0,1,83.79,8.647h.04Zm-3.212,8.072A3.2,3.2,0,0,0,83.89,11.96a3.233,3.233,0,1,0-6.465.02A3.161,3.161,0,0,0,80.618,15.353Z" transform="translate(33.892 3.204)" fill="#555770"/>
    <path id="Path_82277" data-name="Path 82277" d="M84.6,18.568V3.79h1.626V18.568Z" transform="translate(37.849 1.696)" fill="#555770"/>
    <path id="Path_82278" data-name="Path 82278" d="M96.775,12.02c0,.261-.04.6-.04.663H89.206a3.205,3.205,0,0,0,3.273,3.012,3.415,3.415,0,0,0,2.751-1.325l1.144.984a4.824,4.824,0,0,1-3.955,1.827,4.752,4.752,0,0,1-4.859-5,4.709,4.709,0,0,1,4.678-5.02C94.968,7.161,96.775,9.209,96.775,12.02ZM92.318,8.667a3.044,3.044,0,0,0-3.052,2.67h5.9A2.849,2.849,0,0,0,92.318,8.667Z" transform="translate(39.171 3.204)" fill="#555770"/>
    <path id="Path_82279" data-name="Path 82279" d="M109.789,18.406h-2.107l-3.614-5.441h-2.691v5.441H99.63V4.151h5.06c3.293,0,4.718,1.887,4.718,4.417a3.971,3.971,0,0,1-3.394,4.237v.02ZM101.377,5.757v5.6h2.851c2.369,0,3.372-1.2,3.372-2.831,0-1.807-1.184-2.771-3.132-2.771Z" transform="translate(44.571 1.857)" fill="#555770"/>
    <path id="Path_82280" data-name="Path 82280" d="M117.11,12.02c0,.261-.041.6-.041.663H109.54a3.2,3.2,0,0,0,3.273,3.012,3.414,3.414,0,0,0,2.75-1.325l1.145.984a4.825,4.825,0,0,1-3.956,1.827,4.752,4.752,0,0,1-4.859-5,4.709,4.709,0,0,1,4.678-5.02C115.3,7.161,117.11,9.209,117.11,12.02Zm-4.458-3.353a3.045,3.045,0,0,0-3.053,2.67h5.9A2.85,2.85,0,0,0,112.652,8.667Z" transform="translate(48.268 3.204)" fill="#555770"/>
    <path id="Path_82281" data-name="Path 82281" d="M122.7,7.244h1.766l-3.974,9.778h-1.566l-4-9.778h1.747l3.012,7.71h.061Z" transform="translate(51.416 3.241)" fill="#555770"/>
    <path id="Path_82282" data-name="Path 82282" d="M123.953,6.7a1.136,1.136,0,0,1-1.165-1.144,1.149,1.149,0,0,1,1.165-1.144,1.161,1.161,0,0,1,1.164,1.144A1.148,1.148,0,0,1,123.953,6.7Zm-.824,11.585V8.51h1.625v9.778Z" transform="translate(54.931 1.975)" fill="#555770"/>
    <path id="Path_82283" data-name="Path 82283" d="M135.194,12.02c0,.261-.041.6-.041.663h-7.529a3.205,3.205,0,0,0,3.273,3.012,3.417,3.417,0,0,0,2.751-1.325l1.143.984a4.822,4.822,0,0,1-3.954,1.827,4.751,4.751,0,0,1-4.859-5,4.709,4.709,0,0,1,4.678-5.02C133.387,7.161,135.194,9.209,135.194,12.02Zm-4.458-3.353a3.044,3.044,0,0,0-3.051,2.67h5.9A2.849,2.849,0,0,0,130.737,8.667Z" transform="translate(56.359 3.204)" fill="#555770"/>
    <path id="Path_82284" data-name="Path 82284" d="M145.667,7.244h1.646l-3.393,9.778h-1.527l-2.209-7.128h-.019l-2.229,7.128h-1.486l-3.393-9.778H134.7l2.489,7.308h.041l2.229-7.308h1.405l2.27,7.308h.039Z" transform="translate(59.526 3.241)" fill="#555770"/>
    <path id="Path_82285" data-name="Path 82285" d="M147.53,17.18a5.569,5.569,0,0,1-3.836-1.405l.844-1.225a4.046,4.046,0,0,0,2.992,1.165c1.164,0,1.847-.6,1.847-1.305,0-.843-.9-1.124-2.329-1.606-1.586-.562-2.931-1.225-2.931-3.012,0-1.506,1.365-2.63,3.232-2.63a5.079,5.079,0,0,1,3.354,1.2l-.844,1.285a3.9,3.9,0,0,0-2.591-1c-.743,0-1.505.442-1.505,1.144,0,.763.8,1.124,1.847,1.526,2.068.8,3.433,1.144,3.414,3.072C151.023,15.915,149.879,17.18,147.53,17.18Z" transform="translate(64.284 3.204)" fill="#555770"/>
    <path id="Path_82286" data-name="Path 82286" d="M12.189,28.646l-1.914,7.147-7,.148a27.547,27.547,0,0,1-.2-25.678h0L9.306,11.4,12.035,17.6a16.411,16.411,0,0,0,.154,11.049Z" transform="translate(0 4.591)" fill="#fbbb00"/>
    <path id="Path_82287" data-name="Path 82287" d="M45.832,15.451a27.488,27.488,0,0,1-9.8,26.582v0l-7.846-.4L27.071,34.7a16.389,16.389,0,0,0,7.052-8.369h-14.7V15.451Z" transform="translate(8.687 6.912)" fill="#518ef8"/>
    <path id="Path_82288" data-name="Path 82288" d="M43.7,38.672h0A27.508,27.508,0,0,1,2.266,30.259l8.912-7.295a16.355,16.355,0,0,0,23.568,8.374Z" transform="translate(1.014 10.274)" fill="#28b446"/>
    <path id="Path_82289" data-name="Path 82289" d="M44.1,6.331l-8.909,7.293a16.354,16.354,0,0,0-24.11,8.563L2.125,14.853A27.5,27.5,0,0,1,44.1,6.331Z" transform="translate(0.951 0)" fill="#f14336"/>
    <path id="Path_82290" data-name="Path 82290" d="M54.252,37.3V35.024h-5.9V33.273l6.382-9.884h2.216v9.281h1.88v2.355h-1.88V37.3Zm-2.909-4.492h3.1v-5Z" transform="translate(21.633 10.463)" fill="#ef4335"/>
    <path id="Path_82291" data-name="Path 82291" d="M58.32,34.116a1.6,1.6,0,0,1-1.177-.465,1.553,1.553,0,0,1-.475-1.148,1.568,1.568,0,0,1,.475-1.148,1.6,1.6,0,0,1,1.177-.475A1.656,1.656,0,0,1,59.953,32.5a1.639,1.639,0,0,1-1.632,1.613Z" transform="translate(25.351 13.815)" fill="#ef4335"/>
    <path id="Path_82292" data-name="Path 82292" d="M67.865,29.832a3.784,3.784,0,0,1,1.781,1.355,3.861,3.861,0,0,1,.683,2.315,3.489,3.489,0,0,1-.683,2.137,4.251,4.251,0,0,1-1.82,1.4,6.68,6.68,0,0,1-2.563.475,6.33,6.33,0,0,1-2.582-.495,4.139,4.139,0,0,1-1.791-1.415,3.55,3.55,0,0,1-.653-2.108,3.856,3.856,0,0,1,.673-2.315,3.758,3.758,0,0,1,1.771-1.355V29.8a2.771,2.771,0,0,1-1.217-1.1,3.243,3.243,0,0,1-.515-1.8,3.379,3.379,0,0,1,.574-1.979,3.549,3.549,0,0,1,1.543-1.247,6.094,6.094,0,0,1,4.423.02,3.527,3.527,0,0,1,1.543,1.257A3.4,3.4,0,0,1,69.6,26.9a3.292,3.292,0,0,1-.514,1.791A2.8,2.8,0,0,1,67.865,29.8Zm-2.6-4.284a2.035,2.035,0,0,0-.92.218,1.649,1.649,0,0,0-.633.584,1.526,1.526,0,0,0-.218.8,1.446,1.446,0,0,0,.228.821,1.476,1.476,0,0,0,.623.554,1.968,1.968,0,0,0,.92.2,1.861,1.861,0,0,0,1.286-.435,1.469,1.469,0,0,0,.495-1.138A1.5,1.5,0,0,0,66.529,26,1.857,1.857,0,0,0,65.263,25.548Zm0,9.617a2.27,2.27,0,0,0,1.613-.594,1.907,1.907,0,0,0,.633-1.425,1.939,1.939,0,0,0-1.078-1.771,2.476,2.476,0,0,0-1.167-.267,2.337,2.337,0,0,0-1.623.574,1.907,1.907,0,0,0-.623,1.464,1.847,1.847,0,0,0,.643,1.445A2.326,2.326,0,0,0,65.263,35.165Z" transform="translate(26.948 10.411)" fill="#ef4335"/>
  </g>
</svg>
