<svg xmlns="http://www.w3.org/2000/svg" xmlns:xlink="http://www.w3.org/1999/xlink" width="1600" height="436" viewBox="0 0 1600 436">
  <defs>
    <linearGradient id="linear-gradient" x1="0.029" y1="0.952" x2="0.861" y2="0.307" gradientUnits="objectBoundingBox">
      <stop offset="0" stop-color="#6575e4"/>
      <stop offset="1" stop-color="#9257b9"/>
    </linearGradient>
    <clipPath id="clip-path">
      <rect id="Rectangle_2645" data-name="Rectangle 2645" width="1600" height="436" transform="translate(-4535 6418.031)" fill="url(#linear-gradient)"/>
    </clipPath>
    <clipPath id="clip-path-2">
      <rect id="Rectangle_2644" data-name="Rectangle 2644" width="2036" height="982" transform="translate(-0.751)"/>
    </clipPath>
  </defs>
  <g id="GroupLayer" transform="translate(4535 -6418.031)" clip-path="url(#clip-path)">
    <g id="Mask_Group_13" data-name="Mask Group 13" transform="translate(-4500.249 5951)" opacity="0.68" clip-path="url(#clip-path-2)">
      <g id="Group_52822" data-name="Group 52822" transform="translate(223.914 -588.589)" opacity="0.1">
        <path id="Path_89803" data-name="Path 89803" d="M300.627,255.094c.153.082.321.155.489.246l-.071.078c-.158-.091-.326-.173-.494-.251Z" transform="translate(70.613 1263.983)" fill="#fff"/>
        <path id="Path_89804" data-name="Path 89804" d="M295.391,257.992c.168.1.346.169.514.255l-.066.082c-.178-.082-.346-.164-.519-.242Z" transform="translate(102.454 1274.305)" fill="#fff"/>
        <path id="Path_89805" data-name="Path 89805" d="M305.726,252.041c.173.087.331.178.494.269l-.066.068c-.163-.087-.331-.178-.489-.265Z" transform="translate(39.475 1253.109)" fill="#fff"/>
        <path id="Path_89806" data-name="Path 89806" d="M289.987,260.754c.173.082.346.146.519.228l-.071.087c-.163-.068-.336-.146-.509-.214Z" transform="translate(135.313 1284.142)" fill="#fff"/>
        <path id="Path_89807" data-name="Path 89807" d="M310.792,248.83c.173.1.346.205.525.3l-.082.069c-.178-.11-.356-.205-.529-.306Z" transform="translate(8.721 1241.673)" fill="#fff"/>
        <path id="Path_89808" data-name="Path 89808" d="M284.366,263.372c.193.073.377.146.565.228l-.082.1c-.183-.069-.366-.142-.545-.224Z" transform="translate(169.504 1293.467)" fill="#fff"/>
        <path id="Path_89809" data-name="Path 89809" d="M315.811,245.445c.178.1.351.214.514.324l-.071.064c-.178-.109-.351-.219-.524-.319Z" transform="translate(-21.87 1229.617)" fill="#fff"/>
        <path id="Path_89810" data-name="Path 89810" d="M297.352,255.418c.906.442,1.8.88,2.7,1.3-.132.155-.26.315-.407.484-.9-.442-1.792-.876-2.693-1.314C297.087,255.737,297.225,255.582,297.352,255.418Z" transform="translate(89.98 1265.137)" fill="#fff"/>
        <path id="Path_89811" data-name="Path 89811" d="M302.514,252.567c.748.4,1.5.785,2.255,1.172-.112.128-.239.251-.351.369-.759-.392-1.507-.78-2.265-1.177C302.28,252.813,302.392,252.69,302.514,252.567Z" transform="translate(58.804 1254.983)" fill="#fff"/>
        <path id="Path_89812" data-name="Path 89812" d="M278.468,265.847c.219.073.428.155.642.224l-.071.128c-.219-.073-.428-.146-.641-.224Z" transform="translate(205.402 1302.282)" fill="#fff"/>
        <path id="Path_89813" data-name="Path 89813" d="M292.058,258.143c.947.42,1.894.83,2.851,1.25-.143.178-.275.36-.413.534-.947-.415-1.9-.835-2.851-1.25C291.793,258.494,291.925,258.326,292.058,258.143Z" transform="translate(122.16 1274.843)" fill="#fff"/>
        <path id="Path_89814" data-name="Path 89814" d="M307.581,249.5c.876.484,1.741.967,2.607,1.446-.142.137-.275.265-.423.388-.87-.474-1.731-.967-2.6-1.446C307.306,249.754,307.444,249.618,307.581,249.5Z" transform="translate(27.875 1244.056)" fill="#fff"/>
        <path id="Path_89815" data-name="Path 89815" d="M320.865,241.868c.168.114.331.228.509.329l-.081.055c-.178-.1-.346-.223-.514-.324Z" transform="translate(-52.617 1216.877)" fill="#fff"/>
        <path id="Path_89816" data-name="Path 89816" d="M286.529,260.745c.85.338,1.7.68,2.551,1.017-.122.173-.239.338-.351.507-.845-.342-1.7-.671-2.541-1.017C286.3,261.083,286.422,260.918,286.529,260.745Z" transform="translate(155.77 1284.11)" fill="#fff"/>
        <path id="Path_89817" data-name="Path 89817" d="M312.59,246.309c.779.461,1.563.926,2.347,1.382-.127.1-.265.2-.4.31-.779-.461-1.568-.926-2.347-1.391C312.326,246.51,312.463,246.414,312.59,246.309Z" transform="translate(-2.476 1232.694)" fill="#fff"/>
        <path id="Path_89818" data-name="Path 89818" d="M272.214,268.178c.2.05.4.123.6.192l-.061.123c-.2-.073-.412-.123-.611-.192Z" transform="translate(243.535 1310.584)" fill="#fff"/>
        <path id="Path_89819" data-name="Path 89819" d="M280.78,263.155c.952.333,1.9.68,2.856,1.013-.122.2-.239.411-.367.6-.952-.338-1.9-.684-2.861-1.017C280.53,263.557,280.652,263.347,280.78,263.155Z" transform="translate(190.639 1292.694)" fill="#fff"/>
        <path id="Path_89820" data-name="Path 89820" d="M299.246,252.9c1.293.639,2.6,1.268,3.889,1.889l-.652.725q-1.947-.951-3.9-1.9C298.808,253.381,299.027,253.143,299.246,252.9Z" transform="translate(78.607 1256.158)" fill="#fff"/>
        <path id="Path_89821" data-name="Path 89821" d="M294.024,255.574c1.415.639,2.836,1.264,4.271,1.889-.219.287-.448.57-.672.858-1.431-.639-2.866-1.277-4.281-1.907C293.561,256.135,293.8,255.857,294.024,255.574Z" transform="translate(110.134 1265.693)" fill="#fff"/>
        <path id="Path_89822" data-name="Path 89822" d="M317.592,242.93c.713.442,1.43.89,2.143,1.337-.117.087-.255.16-.377.246-.718-.442-1.441-.89-2.148-1.341C317.337,243.09,317.465,243.008,317.592,242.93Z" transform="translate(-32.814 1220.659)" fill="#fff"/>
        <path id="Path_89823" data-name="Path 89823" d="M325.986,238.068c.178.128.361.242.535.365l-.092.046c-.173-.123-.356-.246-.529-.36Z" transform="translate(-83.834 1203.342)" fill="#fff"/>
        <path id="Path_89824" data-name="Path 89824" d="M304.34,250.032c1.3.689,2.612,1.368,3.915,2.053-.229.219-.453.443-.682.666q-1.955-1.033-3.92-2.062C303.882,250.47,304.106,250.26,304.34,250.032Z" transform="translate(47.682 1245.954)" fill="#fff"/>
        <path id="Path_89825" data-name="Path 89825" d="M288.638,258.08c1.624.648,3.238,1.286,4.867,1.939-.25.342-.5.689-.743,1.026-1.624-.648-3.248-1.286-4.862-1.948C288.15,258.75,288.394,258.418,288.638,258.08Z" transform="translate(142.628 1274.618)" fill="#fff"/>
        <path id="Path_89826" data-name="Path 89826" d="M309.345,247c1.293.725,2.581,1.446,3.884,2.171-.244.2-.479.4-.707.593-1.293-.716-2.581-1.446-3.874-2.176C308.877,247.4,309.111,247.2,309.345,247Z" transform="translate(17.279 1235.166)" fill="#fff"/>
        <path id="Path_89827" data-name="Path 89827" d="M274.691,265.4c1.059.347,2.133.666,3.2.994-.122.242-.249.479-.392.712q-1.6-.506-3.2-.99C274.416,265.88,274.559,265.643,274.691,265.4Z" transform="translate(227.486 1300.693)" fill="#fff"/>
        <path id="Path_89828" data-name="Path 89828" d="M265.5,270.334c.234.055.468.118.708.187l-.076.15c-.229-.064-.463-.132-.7-.187Z" transform="translate(284.34 1318.263)" fill="#fff"/>
        <path id="Path_89829" data-name="Path 89829" d="M283,260.441q2.581.923,5.182,1.838c-.254.392-.494.785-.748,1.163-1.731-.611-3.457-1.232-5.172-1.848C282.494,261.207,282.749,260.82,283,260.441Z" transform="translate(176.665 1283.027)" fill="#fff"/>
        <path id="Path_89830" data-name="Path 89830" d="M322.663,239.3c.85.552,1.706,1.1,2.545,1.66-.158.091-.31.169-.468.255q-1.268-.828-2.54-1.67C322.358,239.455,322.511,239.382,322.663,239.3Z" transform="translate(-63.691 1207.713)" fill="#fff"/>
        <path id="Path_89831" data-name="Path 89831" d="M314.352,243.782c1.339.794,2.678,1.6,4.022,2.386-.26.182-.514.37-.769.552-1.339-.8-2.673-1.606-4.017-2.409C313.838,244.133,314.1,243.955,314.352,243.782Z" transform="translate(-13.014 1223.694)" fill="#fff"/>
        <path id="Path_89832" data-name="Path 89832" d="M331.247,234.017c.178.119.346.242.519.369l-.087.032-.524-.374Z" transform="translate(-115.837 1188.914)" fill="#fff"/>
        <path id="Path_89833" data-name="Path 89833" d="M295.993,252.894c2.316,1.049,4.628,2.071,6.959,3.084-.417.493-.815.981-1.227,1.469-2.332-1.022-4.658-2.071-6.964-3.116C295.163,253.857,295.576,253.378,295.993,252.894Z" transform="translate(98.253 1256.147)" fill="#fff"/>
        <path id="Path_89834" data-name="Path 89834" d="M301.079,250.305c1.919.94,3.844,1.879,5.783,2.8-.366.379-.718.753-1.074,1.136q-2.9-1.41-5.783-2.828C300.361,251.044,300.723,250.679,301.079,250.305Z" transform="translate(67.646 1246.926)" fill="#fff"/>
        <path id="Path_89835" data-name="Path 89835" d="M277.056,262.663q2.5.78,5.019,1.537c-.239.4-.453.8-.682,1.186-1.68-.52-3.35-1.036-5.014-1.56C276.6,263.443,276.832,263.055,277.056,262.663Z" transform="translate(212.71 1290.941)" fill="#fff"/>
        <path id="Path_89836" data-name="Path 89836" d="M268.185,267.476c1.171.306,2.357.62,3.528.93-.127.269-.26.538-.4.807-1.176-.31-2.357-.625-3.523-.944C267.91,268.014,268.058,267.745,268.185,267.476Z" transform="translate(266.808 1308.083)" fill="#fff"/>
        <path id="Path_89837" data-name="Path 89837" d="M290.64,255.455c2.067.83,4.134,1.656,6.221,2.486-.351.465-.7.931-1.054,1.4-2.077-.84-4.159-1.67-6.226-2.513C289.932,256.372,290.279,255.92,290.64,255.455Z" transform="translate(130.715 1265.269)" fill="#fff"/>
        <path id="Path_89838" data-name="Path 89838" d="M306.189,247.406q3.23,1.711,6.481,3.394c-.433.388-.845.776-1.268,1.15q-3.245-1.69-6.48-3.426C305.344,248.154,305.761,247.78,306.189,247.406Z" transform="translate(36.813 1236.601)" fill="#fff"/>
        <path id="Path_89839" data-name="Path 89839" d="M319.336,240.388q1.924,1.211,3.839,2.413c-.25.16-.489.31-.748.461-1.288-.8-2.561-1.62-3.849-2.427C318.827,240.684,319.086,240.534,319.336,240.388Z" transform="translate(-43.213 1211.606)" fill="#fff"/>
        <path id="Path_89840" data-name="Path 89840" d="M285.126,257.756q3.375,1.2,6.75,2.377c-.372.534-.718,1.081-1.079,1.606-2.265-.8-4.51-1.592-6.75-2.408C284.4,258.81,284.775,258.29,285.126,257.756Z" transform="translate(163.872 1273.464)" fill="#fff"/>
        <path id="Path_89841" data-name="Path 89841" d="M327.787,235.484c.754.516,1.512,1.022,2.25,1.533-.132.068-.275.123-.423.187-.743-.515-1.5-1.026-2.25-1.542C327.507,235.607,327.644,235.543,327.787,235.484Z" transform="translate(-94.809 1194.139)" fill="#fff"/>
        <path id="Path_89842" data-name="Path 89842" d="M258.228,272.3c.29.059.57.128.85.192l-.081.192c-.285-.078-.565-.132-.845-.192Z" transform="translate(328.498 1325.258)" fill="#fff"/>
        <path id="Path_89843" data-name="Path 89843" d="M311.149,244.418c2,1.131,4,2.263,6,3.376-.4.328-.815.657-1.217.972-2-1.131-4.012-2.263-6.023-3.417C310.325,245.048,310.737,244.728,311.149,244.418Z" transform="translate(6.922 1225.959)" fill="#fff"/>
        <path id="Path_89844" data-name="Path 89844" d="M270.774,264.644c1.9.5,3.818,1.008,5.748,1.492-.255.47-.494.944-.743,1.414-1.914-.506-3.839-1.008-5.748-1.519C270.291,265.57,270.53,265.1,270.774,264.644Z" transform="translate(250.58 1297.997)" fill="#fff"/>
        <path id="Path_89845" data-name="Path 89845" d="M279.324,259.921q3.268,1.006,6.567,2c-.336.547-.677,1.1-1,1.651-2.2-.675-4.383-1.346-6.567-2.044C278.662,260.993,278.993,260.459,279.324,259.921Z" transform="translate(198.982 1281.175)" fill="#fff"/>
        <path id="Path_89846" data-name="Path 89846" d="M336.7,229.661c.2.137.4.274.59.429l-.1.014c-.2-.137-.392-.278-.59-.42Z" transform="translate(-149.047 1173.4)" fill="#fff"/>
        <path id="Path_89847" data-name="Path 89847" d="M261.19,269.366c1.176.26,2.357.506,3.538.762-.143.278-.26.561-.387.835-1.186-.251-2.357-.52-3.533-.776C260.946,269.918,261.058,269.644,261.19,269.366Z" transform="translate(309.327 1314.815)" fill="#fff"/>
        <path id="Path_89848" data-name="Path 89848" d="M297.849,250.281c2.764,1.232,5.544,2.472,8.313,3.681-.55.63-1.1,1.25-1.644,1.87-2.79-1.236-5.564-2.5-8.329-3.75C296.739,251.49,297.294,250.883,297.849,250.281Z" transform="translate(87.773 1246.841)" fill="#fff"/>
        <path id="Path_89849" data-name="Path 89849" d="M324.4,236.737c1.4.926,2.785,1.834,4.175,2.755-.285.137-.565.278-.845.415q-2.084-1.375-4.174-2.76C323.83,237.006,324.12,236.883,324.4,236.737Z" transform="translate(-73.986 1198.602)" fill="#fff"/>
        <path id="Path_89850" data-name="Path 89850" d="M292.6,252.751q4.131,1.669,8.324,3.307c-.53.675-1.054,1.337-1.573,2-2.785-1.108-5.564-2.24-8.329-3.371C291.54,254.047,292.07,253.4,292.6,252.751Z" transform="translate(119.292 1255.638)" fill="#fff"/>
        <path id="Path_89851" data-name="Path 89851" d="M316.151,241.166q3.261,1.964,6.527,3.9c-.453.324-.922.625-1.38.94-2.179-1.318-4.363-2.623-6.537-3.946C315.229,241.773,315.682,241.463,316.151,241.166Z" transform="translate(-23.289 1214.376)" fill="#fff"/>
        <path id="Path_89852" data-name="Path 89852" d="M302.9,247.681c2.551,1.259,5.121,2.5,7.682,3.727-.535.543-1.069,1.072-1.6,1.6-2.576-1.254-5.152-2.509-7.7-3.8Z" transform="translate(57.413 1237.58)" fill="#fff"/>
        <path id="Path_89853" data-name="Path 89853" d="M287.177,255.036c2.78.994,5.58,1.975,8.38,2.942-.5.716-1.008,1.428-1.5,2.13q-4.215-1.478-8.385-3.011C286.169,256.423,286.668,255.734,287.177,255.036Z" transform="translate(151.93 1263.777)" fill="#fff"/>
        <path id="Path_89854" data-name="Path 89854" d="M273.25,261.785q4.04,1.054,8.13,2.071c-.392.721-.789,1.432-1.161,2.144-2.734-.693-5.442-1.419-8.145-2.144C272.466,263.176,272.853,262.478,273.25,261.785Z" transform="translate(235.321 1287.814)" fill="#fff"/>
        <path id="Path_89855" data-name="Path 89855" d="M333.124,231.33c.942.671,1.894,1.337,2.825,2-.188.064-.361.11-.55.182-.942-.671-1.878-1.337-2.825-2.016C332.757,231.444,332.93,231.389,333.124,231.33Z" transform="translate(-127.245 1179.344)" fill="#fff"/>
        <path id="Path_89856" data-name="Path 89856" d="M307.886,244.869q3.773,2,7.55,3.969c-.56.474-1.1.949-1.649,1.414-2.525-1.337-5.05-2.669-7.56-4.023C306.781,245.777,307.336,245.325,307.886,244.869Z" transform="translate(27.403 1227.565)" fill="#fff"/>
        <path id="Path_89857" data-name="Path 89857" d="M264.012,266.452c1.909.42,3.839.821,5.773,1.223-.224.493-.463.981-.7,1.469q-2.9-.623-5.783-1.254C263.548,267.415,263.767,266.936,264.012,266.452Z" transform="translate(291.564 1304.436)" fill="#fff"/>
        <path id="Path_89858" data-name="Path 89858" d="M281.553,257.1c2.968.912,5.982,1.811,9,2.7-.514.821-1.034,1.629-1.532,2.432q-4.536-1.369-9.011-2.8C280.514,258.656,281.033,257.885,281.553,257.1Z" transform="translate(185.778 1271.113)" fill="#fff"/>
        <path id="Path_89859" data-name="Path 89859" d="M250.275,274.043c.321.055.616.123.937.169l-.087.205c-.305-.055-.621-.105-.932-.16Z" transform="translate(376.883 1331.473)" fill="#fff"/>
        <path id="Path_89860" data-name="Path 89860" d="M321.144,237.758c2.143,1.373,4.292,2.719,6.425,4.06-.473.269-.942.538-1.41.789q-3.223-2.032-6.45-4.1C320.182,238.255,320.66,238.013,321.144,237.758Z" transform="translate(-53.365 1202.238)" fill="#fff"/>
        <path id="Path_89861" data-name="Path 89861" d="M312.772,241.914c2.276,1.3,4.572,2.6,6.852,3.877-.529.4-1.044.775-1.568,1.159q-3.436-1.943-6.873-3.932C311.708,242.653,312.243,242.288,312.772,241.914Z" transform="translate(-2.027 1217.041)" fill="#fff"/>
        <path id="Path_89862" data-name="Path 89862" d="M329.63,232.822c1.573,1.09,3.146,2.176,4.719,3.243-.336.123-.662.255-.988.379-1.573-1.081-3.161-2.153-4.735-3.257Z" transform="translate(-105.551 1184.658)" fill="#fff"/>
        <path id="Path_89863" data-name="Path 89863" d="M253.561,271.022c1.14.192,2.286.379,3.446.566-.112.287-.25.566-.351.849-1.151-.2-2.3-.392-3.442-.588C253.327,271.574,253.439,271.3,253.561,271.022Z" transform="translate(355.702 1320.713)" fill="#fff"/>
        <path id="Path_89864" data-name="Path 89864" d="M294.418,250.1q4.52,1.847,9.113,3.613c-.652.789-1.3,1.569-1.939,2.34-3.065-1.209-6.1-2.454-9.128-3.709C293.1,251.612,293.761,250.868,294.418,250.1Z" transform="translate(109.373 1246.203)" fill="#fff"/>
        <path id="Path_89865" data-name="Path 89865" d="M266.671,263.539q3.841.828,7.733,1.587c-.356.712-.7,1.414-1.049,2.112q-3.894-.808-7.728-1.642C265.968,264.912,266.33,264.223,266.671,263.539Z" transform="translate(275.118 1294.061)" fill="#fff"/>
        <path id="Path_89866" data-name="Path 89866" d="M275.545,258.983q4.475,1.163,9.021,2.258c-.489.862-.977,1.706-1.456,2.546-3.024-.766-6.033-1.551-9.006-2.349C274.588,260.63,275.066,259.809,275.545,258.983Z" transform="translate(221.801 1277.834)" fill="#fff"/>
        <path id="Path_89867" data-name="Path 89867" d="M299.558,247.7c2.932,1.336,5.875,2.632,8.838,3.914-.667.712-1.329,1.419-1.98,2.112q-4.452-1.971-8.858-4C298.214,249.054,298.881,248.375,299.558,247.7Z" transform="translate(78.576 1237.63)" fill="#fff"/>
        <path id="Path_89868" data-name="Path 89868" d="M342.421,224.955c.188.137.382.283.565.429l-.107.014c-.188-.151-.377-.283-.565-.433Z" transform="translate(-183.866 1156.638)" fill="#fff"/>
        <path id="Path_89869" data-name="Path 89869" d="M289.134,252.3c3.207,1.145,6.435,2.276,9.688,3.362q-.985,1.341-1.955,2.65-4.887-1.69-9.7-3.481C287.811,254,288.467,253.155,289.134,252.3Z" transform="translate(141.058 1254.039)" fill="#fff"/>
        <path id="Path_89870" data-name="Path 89870" d="M304.8,244.953q5.231,2.607,10.518,5.123-1.252,1.17-2.474,2.3-5.292-2.573-10.553-5.228C303.117,246.431,303.947,245.7,304.8,244.953Z" transform="translate(47.577 1227.864)" fill="#fff"/>
        <path id="Path_89871" data-name="Path 89871" d="M317.875,238.6c2.764,1.67,5.508,3.321,8.257,4.968-.662.41-1.319.821-1.97,1.213-2.759-1.651-5.514-3.335-8.283-5.027C316.546,239.372,317.2,238.988,317.875,238.6Z" transform="translate(-32.436 1205.223)" fill="#fff"/>
        <path id="Path_89872" data-name="Path 89872" d="M256.671,267.978q3.215.541,6.476,1.045c-.26.57-.509,1.127-.743,1.692-2.164-.351-4.322-.7-6.465-1.067C256.177,269.091,256.437,268.544,256.671,267.978Z" transform="translate(335.701 1309.871)" fill="#fff"/>
        <path id="Path_89873" data-name="Path 89873" d="M283.695,254.243q5.536,1.7,11.159,3.325c-.723,1.086-1.43,2.167-2.148,3.239-3.752-1.127-7.473-2.272-11.169-3.462C282.249,256.323,282.962,255.292,283.695,254.243Z" transform="translate(173.678 1260.952)" fill="#fff"/>
        <path id="Path_89874" data-name="Path 89874" d="M326.137,234.167q2.917,1.95,5.819,3.868c-.443.2-.891.388-1.319.588-1.95-1.291-3.895-2.6-5.85-3.9C325.236,234.536,325.689,234.363,326.137,234.167Z" transform="translate(-83.614 1189.448)" fill="#fff"/>
        <path id="Path_89875" data-name="Path 89875" d="M338.641,226.907c.947.693,1.9,1.387,2.846,2.089-.188.037-.377.091-.565.119-.952-.7-1.9-1.4-2.856-2.089C338.249,226.98,338.443,226.948,338.641,226.907Z" transform="translate(-160.741 1163.591)" fill="#fff"/>
        <path id="Path_89876" data-name="Path 89876" d="M309.633,242.244q4.666,2.5,9.347,4.949c-.774.63-1.547,1.245-2.3,1.857-3.151-1.656-6.277-3.344-9.4-5.036C308.05,243.421,308.834,242.842,309.633,242.244Z" transform="translate(18.488 1218.216)" fill="#fff"/>
        <path id="Path_89877" data-name="Path 89877" d="M269.245,260.56c3.457.712,6.939,1.414,10.457,2.076-.54,1.035-1.079,2.053-1.594,3.065q-5.269-1.054-10.447-2.185C268.191,262.544,268.716,261.55,269.245,260.56Z" transform="translate(259.46 1283.451)" fill="#fff"/>
        <path id="Path_89878" data-name="Path 89878" d="M241.459,275.517c.311.027.621.073.927.114l-.071.214c-.316-.046-.621-.091-.937-.119Z" transform="translate(430.584 1336.723)" fill="#fff"/>
        <path id="Path_89879" data-name="Path 89879" d="M277.82,256.086c3.6.917,7.234,1.8,10.889,2.669-.667,1.122-1.323,2.222-1.98,3.307q-5.49-1.355-10.895-2.81Q276.812,257.685,277.82,256.086Z" transform="translate(208.851 1267.516)" fill="#fff"/>
        <path id="Path_89880" data-name="Path 89880" d="M334.9,228.72c1.375.981,2.754,1.957,4.114,2.933-.3.078-.591.169-.891.246-1.38-.976-2.749-1.966-4.129-2.956C334.3,228.866,334.6,228.8,334.9,228.72Z" transform="translate(-137.568 1170.048)" fill="#fff"/>
        <path id="Path_89881" data-name="Path 89881" d="M259.65,264.907c3.268.515,6.557,1.022,9.886,1.51-.423.944-.845,1.87-1.263,2.792-3.314-.534-6.618-1.045-9.892-1.6C258.81,266.723,259.222,265.819,259.65,264.907Z" transform="translate(316.869 1298.934)" fill="#fff"/>
        <path id="Path_89882" data-name="Path 89882" d="M322.865,235.178c2.754,1.77,5.5,3.513,8.252,5.255-.687.342-1.369.68-2.041,1.026-2.759-1.752-5.534-3.522-8.3-5.314C321.465,235.821,322.152,235.5,322.865,235.178Z" transform="translate(-62.361 1193.049)" fill="#fff"/>
        <path id="Path_89883" data-name="Path 89883" d="M296.248,247.352q5.33,2.169,10.716,4.22-1.306,1.512-2.6,2.96c-3.6-1.432-7.178-2.878-10.742-4.375C294.486,249.254,295.362,248.31,296.248,247.352Z" transform="translate(100.019 1236.409)" fill="#fff"/>
        <path id="Path_89884" data-name="Path 89884" d="M245.146,272.351c1.426.164,2.83.324,4.256.5-.143.347-.254.707-.4,1.049-1.415-.16-2.836-.328-4.251-.516C244.886,273.04,244.993,272.693,245.146,272.351Z" transform="translate(406.407 1325.447)" fill="#fff"/>
        <path id="Path_89885" data-name="Path 89885" d="M314.512,239.284q4.475,2.587,8.98,5.109c-.789.534-1.568,1.063-2.321,1.587q-4.528-2.566-9.036-5.2C312.919,240.288,313.708,239.786,314.512,239.284Z" transform="translate(-10.736 1207.673)" fill="#fff"/>
        <path id="Path_89886" data-name="Path 89886" d="M291.141,249.44q6.032,2.135,12.147,4.169c-.947,1.213-1.884,2.4-2.8,3.576q-6.132-2.114-12.157-4.347C289.252,251.716,290.184,250.585,291.141,249.44Z" transform="translate(130.626 1243.845)" fill="#fff"/>
        <path id="Path_89887" data-name="Path 89887" d="M301.324,244.983q5.231,2.381,10.548,4.657-1.367,1.362-2.688,2.691-5.33-2.34-10.579-4.79C299.491,246.707,300.4,245.854,301.324,244.983Z" transform="translate(69.764 1227.971)" fill="#fff"/>
        <path id="Path_89888" data-name="Path 89888" d="M285.834,251.311q6.842,2.1,13.8,4.023-1.527,2.2-2.993,4.306c-4.653-1.368-9.25-2.773-13.822-4.242C283.808,254.062,284.81,252.693,285.834,251.311Z" transform="translate(162.36 1250.509)" fill="#fff"/>
        <path id="Path_89889" data-name="Path 89889" d="M331.425,230.2q3.345,2.333,6.689,4.626c-.529.173-1.069.351-1.583.529q-3.352-2.327-6.72-4.667C330.346,230.515,330.88,230.351,331.425,230.2Z" transform="translate(-115.343 1175.305)" fill="#fff"/>
        <path id="Path_89890" data-name="Path 89890" d="M271.661,257.62c3.854.776,7.758,1.519,11.689,2.231-.677,1.254-1.339,2.491-2.006,3.709-3.94-.766-7.825-1.56-11.684-2.4C270.322,259.992,270.994,258.82,271.661,257.62Z" transform="translate(245.641 1272.98)" fill="#fff"/>
        <path id="Path_89891" data-name="Path 89891" d="M348.5,219.812c.214.173.433.333.647.493l-.122,0c-.219-.155-.433-.319-.641-.488Z" transform="translate(-220.942 1138.321)" fill="#fff"/>
        <path id="Path_89892" data-name="Path 89892" d="M262.456,261.874c3.935.6,7.906,1.191,11.918,1.738-.575,1.213-1.135,2.431-1.705,3.622-4.012-.6-7.993-1.223-11.918-1.87C261.315,264.214,261.875,263.047,262.456,261.874Z" transform="translate(299.977 1288.131)" fill="#fff"/>
        <path id="Path_89893" data-name="Path 89893" d="M248.637,269.228c2.23.255,4.47.5,6.73.743-.244.593-.484,1.2-.718,1.8-2.25-.265-4.5-.5-6.73-.776C248.158,270.414,248.393,269.821,248.637,269.228Z" transform="translate(384.304 1314.323)" fill="#fff"/>
        <path id="Path_89894" data-name="Path 89894" d="M306.484,242.325q5.788,2.881,11.612,5.647-1.581,1.389-3.111,2.719-5.857-2.853-11.668-5.8C304.356,244.054,305.414,243.2,306.484,242.325Z" transform="translate(39.552 1218.505)" fill="#fff"/>
        <path id="Path_89895" data-name="Path 89895" d="M280.106,253.059q6.926,1.745,14,3.334c-.988,1.56-1.945,3.084-2.892,4.589q-7.071-1.7-13.995-3.558C278.171,255.992,279.123,254.537,280.106,253.059Z" transform="translate(196.404 1256.735)" fill="#fff"/>
        <path id="Path_89896" data-name="Path 89896" d="M344.449,222.1c.967.725,1.924,1.451,2.891,2.176-.193.027-.392.046-.585.064-.972-.725-1.929-1.455-2.9-2.18C344.047,222.132,344.25,222.132,344.449,222.1Z" transform="translate(-196.055 1146.488)" fill="#fff"/>
        <path id="Path_89897" data-name="Path 89897" d="M319.438,236.093c2.983,1.843,5.982,3.649,8.97,5.438-.82.456-1.624.917-2.418,1.373q-4.528-2.73-9.041-5.529C317.768,236.951,318.592,236.522,319.438,236.093Z" transform="translate(-40.153 1196.308)" fill="#fff"/>
        <path id="Path_89898" data-name="Path 89898" d="M251.908,266.095q4.658.493,9.418.94c-.382.912-.759,1.82-1.12,2.723-3.172-.329-6.3-.671-9.413-1.026C251.17,267.856,251.531,266.98,251.908,266.095Z" transform="translate(363.714 1303.165)" fill="#fff"/>
        <path id="Path_89899" data-name="Path 89899" d="M327.829,231.593q3.727,2.511,7.443,4.977c-.647.255-1.3.5-1.924.748-2.49-1.67-4.984-3.335-7.489-5.027C326.511,232.063,327.157,231.826,327.829,231.593Z" transform="translate(-92.382 1180.281)" fill="#fff"/>
        <path id="Path_89900" data-name="Path 89900" d="M311.517,239.51q6.071,3.278,12.177,6.459c-1.161.871-2.3,1.724-3.426,2.564q-6.147-3.257-12.254-6.614C309.166,241.134,310.331,240.317,311.517,239.51Z" transform="translate(10.036 1208.478)" fill="#fff"/>
        <path id="Path_89901" data-name="Path 89901" d="M340.529,224.189c1.548,1.136,3.085,2.272,4.628,3.4-.351.059-.7.123-1.034.178-1.553-1.136-3.1-2.267-4.648-3.421C339.826,224.3,340.178,224.253,340.529,224.189Z" transform="translate(-171.584 1153.91)" fill="#fff"/>
        <path id="Path_89902" data-name="Path 89902" d="M265.078,258.875q6.208.9,12.564,1.706c-.687,1.4-1.369,2.769-2.036,4.128q-6.353-.9-12.559-1.893C263.719,261.516,264.391,260.2,265.078,258.875Z" transform="translate(285.014 1277.45)" fill="#fff"/>
        <path id="Path_89903" data-name="Path 89903" d="M274.012,254.588c4.485.876,9.031,1.72,13.628,2.486-.9,1.583-1.8,3.134-2.652,4.676-4.6-.853-9.133-1.77-13.623-2.728Q272.663,256.832,274.012,254.588Z" transform="translate(232.67 1262.181)" fill="#fff"/>
        <path id="Path_89904" data-name="Path 89904" d="M292.984,246.6q6.643,2.326,13.389,4.53c-1.2,1.455-2.362,2.878-3.513,4.265q-6.758-2.327-13.409-4.776C290.607,249.313,291.783,247.967,292.984,246.6Z" transform="translate(121.865 1233.741)" fill="#fff"/>
        <path id="Path_89905" data-name="Path 89905" d="M231.529,276.634c.372.023.728.05,1.1.078,0,0-.056.173-.092.255-.366-.032-.728-.055-1.089-.087C231.479,276.8,231.529,276.634,231.529,276.634Z" transform="translate(490.893 1340.701)" fill="#fff"/>
        <path id="Path_89906" data-name="Path 89906" d="M298.142,244.506q6.384,2.607,12.916,5.041c-1.222,1.3-2.408,2.591-3.574,3.845q-6.544-2.573-12.977-5.269Z" transform="translate(91.441 1226.272)" fill="#fff"/>
        <path id="Path_89907" data-name="Path 89907" d="M287.867,248.373c5.111,1.551,10.284,3.011,15.507,4.429q-1.955,2.669-3.854,5.232-7.842-2.251-15.517-4.708Q285.9,250.891,287.867,248.373Z" transform="translate(152.599 1240.045)" fill="#fff"/>
        <path id="Path_89908" data-name="Path 89908" d="M255.014,262.941q5.972.588,12.055,1.081c-.545,1.273-1.095,2.527-1.624,3.768q-6.078-.568-12.035-1.232C253.939,265.359,254.484,264.168,255.014,262.941Z" transform="translate(344.648 1291.931)" fill="#fff"/>
        <path id="Path_89909" data-name="Path 89909" d="M235.757,273.35c1.441.1,2.887.2,4.342.287-.1.37-.249.73-.382,1.095-1.451-.1-2.891-.2-4.337-.31C235.5,274.062,235.65,273.71,235.757,273.35Z" transform="translate(463.406 1329.005)" fill="#fff"/>
        <path id="Path_89910" data-name="Path 89910" d="M336.865,225.954q3.627,2.627,7.239,5.191c-.6.137-1.186.269-1.766.4-2.423-1.729-4.852-3.48-7.28-5.232C335.654,226.2,336.259,226.077,336.865,225.954Z" transform="translate(-148.045 1160.197)" fill="#fff"/>
        <path id="Path_89911" data-name="Path 89911" d="M303.032,242.248q5.933,2.689,11.938,5.246-1.779,1.676-3.482,3.284c-4.022-1.779-8.028-3.581-12-5.442Q301.217,243.817,303.032,242.248Z" transform="translate(62.191 1218.23)" fill="#fff"/>
        <path id="Path_89912" data-name="Path 89912" d="M316.344,236.6q5.758,3.346,11.536,6.587c-1.161.73-2.306,1.437-3.416,2.144-3.879-2.221-7.764-4.452-11.632-6.738Z" transform="translate(-18.666 1198.103)" fill="#fff"/>
        <path id="Path_89913" data-name="Path 89913" d="M324.532,232.62q4.872,3.154,9.724,6.231c-.932.415-1.843.835-2.754,1.236q-4.887-3.12-9.795-6.332C322.634,233.382,323.575,232.99,324.532,232.62Z" transform="translate(-70.229 1183.938)" fill="#fff"/>
        <path id="Path_89914" data-name="Path 89914" d="M282,250.187q6.689,1.649,13.542,3.116-1.627,2.456-3.187,4.826-6.834-1.615-13.542-3.389C279.859,253.248,280.923,251.738,282,250.187Z" transform="translate(186.84 1246.506)" fill="#fff"/>
        <path id="Path_89915" data-name="Path 89915" d="M239.707,270.092c2.444.146,4.913.283,7.387.42-.249.666-.489,1.341-.718,2.012q-3.727-.219-7.4-.47C239.223,271.406,239.468,270.749,239.707,270.092Z" transform="translate(438.089 1317.401)" fill="#fff"/>
        <path id="Path_89916" data-name="Path 89916" d="M267.728,255.665q7.988,1.122,16.184,2.025c-1.008,1.948-1.99,3.887-2.973,5.77q-8.2-1.054-16.163-2.331C265.747,259.342,266.73,257.512,267.728,255.665Z" transform="translate(269.948 1266.017)" fill="#fff"/>
        <path id="Path_89917" data-name="Path 89917" d="M308.28,239.6q6.712,3.332,13.47,6.551c-1.41,1.15-2.79,2.272-4.139,3.385q-6.827-3.319-13.577-6.783Q306.119,241.2,308.28,239.6Z" transform="translate(32.248 1208.784)" fill="#fff"/>
        <path id="Path_89918" data-name="Path 89918" d="M333.239,227.56q4.406,3.107,8.807,6.131c-.794.233-1.6.447-2.378.671q-4.414-3.072-8.863-6.2C331.609,227.966,332.419,227.752,333.239,227.56Z" transform="translate(-124.335 1165.916)" fill="#fff"/>
        <path id="Path_89919" data-name="Path 89919" d="M355.092,214.146c.244.187.489.379.728.575l-.137-.009c-.244-.192-.494-.383-.738-.57Z" transform="translate(-260.997 1118.123)" fill="#fff"/>
        <path id="Path_89920" data-name="Path 89920" d="M257.946,259.8q6.7.609,13.6,1.063-1.061,2.354-2.072,4.621-6.9-.568-13.588-1.291Q256.9,262.019,257.946,259.8Z" transform="translate(327.548 1280.727)" fill="#fff"/>
        <path id="Path_89921" data-name="Path 89921" d="M276.151,251.568Q283.131,252.9,290.3,254c-1.069,1.8-2.113,3.553-3.146,5.278-4.77-.858-9.489-1.761-14.142-2.751C274.043,254.916,275.087,253.251,276.151,251.568Z" transform="translate(221.607 1251.425)" fill="#fff"/>
        <path id="Path_89922" data-name="Path 89922" d="M243.4,266.788c3.864.2,7.769.388,11.714.534-.448,1.163-.865,2.317-1.3,3.453-3.94-.178-7.835-.406-11.7-.648C242.527,269.014,242.965,267.91,243.4,266.788Z" transform="translate(414.127 1305.633)" fill="#fff"/>
        <path id="Path_89923" data-name="Path 89923" d="M350.651,216.851c.952.739,1.9,1.464,2.856,2.194-.2.009-.4.014-.6.009q-1.42-1.095-2.856-2.194C350.254,216.86,350.447,216.86,350.651,216.851Z" transform="translate(-233.77 1127.775)" fill="#fff"/>
        <path id="Path_89924" data-name="Path 89924" d="M321.308,233.414c3.894,2.4,7.789,4.79,11.7,7.121-1.232.63-2.444,1.254-3.65,1.87q-5.9-3.6-11.806-7.289C318.773,234.564,320.035,234,321.308,233.414Z" transform="translate(-47.822 1186.766)" fill="#fff"/>
        <path id="Path_89925" data-name="Path 89925" d="M312.785,237.044c3.782,2.044,7.555,4.051,11.358,6.026-1.252.876-2.49,1.715-3.686,2.555q-5.75-3.052-11.47-6.222Q310.85,238.253,312.785,237.044Z" transform="translate(4.64 1199.695)" fill="#fff"/>
        <path id="Path_89926" data-name="Path 89926" d="M294.777,243.709c4.785,1.651,9.6,3.28,14.483,4.808-1.486,1.715-2.943,3.38-4.363,5.018q-7.346-2.47-14.545-5.132Q292.514,246.1,294.777,243.709Z" transform="translate(114.385 1223.434)" fill="#fff"/>
        <path id="Path_89927" data-name="Path 89927" d="M346.434,219.293c1.593,1.2,3.187,2.395,4.755,3.595-.366.027-.728.059-1.089.078-1.578-1.2-3.177-2.4-4.775-3.608C345.7,219.334,346.062,219.307,346.434,219.293Z" transform="translate(-207.393 1136.472)" fill="#fff"/>
        <path id="Path_89928" data-name="Path 89928" d="M289.429,245.564q7.063,2.087,14.3,3.955-2.085,2.7-4.073,5.269-7.247-2.046-14.331-4.3C286.655,248.889,288.029,247.247,289.429,245.564Z" transform="translate(145.538 1230.041)" fill="#fff"/>
        <path id="Path_89929" data-name="Path 89929" d="M246.866,263.612q6.01.246,12.172.406c-.514,1.309-1.023,2.614-1.527,3.891-4.1-.15-8.156-.347-12.157-.566C245.853,266.107,246.347,264.866,246.866,263.612Z" transform="translate(393.691 1294.321)" fill="#fff"/>
        <path id="Path_89930" data-name="Path 89930" d="M329.713,228.922q5.155,3.49,10.253,6.9c-1.023.347-2.031.7-3.034,1.035q-5.162-3.469-10.35-7.011C327.61,229.542,328.644,229.228,329.713,228.922Z" transform="translate(-100.757 1170.767)" fill="#fff"/>
        <path id="Path_89931" data-name="Path 89931" d="M300.112,241.576c5.065,2.03,10.166,4.01,15.323,5.9-1.675,1.7-3.3,3.344-4.887,4.968q-7.774-3.031-15.43-6.245Q297.554,243.943,300.112,241.576Z" transform="translate(83.952 1215.837)" fill="#fff"/>
        <path id="Path_89932" data-name="Path 89932" d="M260.8,256.524q8.217.664,16.668,1.095c-.983,2.071-1.94,4.128-2.882,6.14q-8.446-.6-16.642-1.428Q259.355,259.471,260.8,256.524Z" transform="translate(311.18 1269.076)" fill="#fff"/>
        <path id="Path_89933" data-name="Path 89933" d="M270.226,252.467q8.935,1.156,18.144,2.035c-1.3,2.4-2.561,4.749-3.808,7.048q-9.187-1.1-18.113-2.463Q268.3,255.836,270.226,252.467Z" transform="translate(256.967 1254.626)" fill="#fff"/>
        <path id="Path_89934" data-name="Path 89934" d="M284.058,247.094c5.035,1.209,10.156,2.317,15.329,3.362-1.4,2.03-2.785,4.028-4.124,5.967-5.188-1.154-10.3-2.418-15.354-3.754C281.258,250.853,282.643,249,284.058,247.094Z" transform="translate(177.428 1235.49)" fill="#fff"/>
        <path id="Path_89935" data-name="Path 89935" d="M342.5,221.42q3.574,2.655,7.122,5.278c-.6.078-1.2.132-1.8.219-2.362-1.77-4.76-3.535-7.173-5.323C341.261,221.548,341.872,221.479,342.5,221.42Z" transform="translate(-182.004 1144.048)" fill="#fff"/>
        <path id="Path_89936" data-name="Path 89936" d="M304.736,239.458q6.621,3.011,13.353,5.83c-1.542,1.35-3.039,2.682-4.515,3.978-4.51-1.971-9-4.019-13.46-6.108Q302.374,241.365,304.736,239.458Z" transform="translate(55.864 1208.293)" fill="#fff"/>
        <path id="Path_89937" data-name="Path 89937" d="M220.2,277.3c.4,0,.794.032,1.186.041-.025.082-.056.178-.076.269-.4-.018-.794-.014-1.191-.037C220.158,277.494,220.163,277.389,220.2,277.3Z" transform="translate(559.792 1343.066)" fill="#fff"/>
        <path id="Path_89938" data-name="Path 89938" d="M225.092,273.855c1.756.036,3.513.064,5.274.091-.127.452-.3.88-.422,1.337-1.761-.041-3.528-.059-5.269-.109C224.833,274.744,224.935,274.3,225.092,273.855Z" transform="translate(527.636 1330.803)" fill="#fff"/>
        <path id="Path_89939" data-name="Path 89939" d="M250.137,260.338c4.684.155,9.423.246,14.244.278-.682,1.679-1.354,3.339-2.036,4.963q-7.2-.185-14.219-.534C248.783,263.495,249.46,261.93,250.137,260.338Z" transform="translate(374.236 1282.661)" fill="#fff"/>
        <path id="Path_89940" data-name="Path 89940" d="M278.472,248.317q8.392,1.519,17.029,2.732c-1.481,2.367-2.917,4.676-4.332,6.938q-8.637-1.451-17.029-3.17C275.555,252.7,276.991,250.543,278.472,248.317Z" transform="translate(210.682 1239.846)" fill="#fff"/>
        <path id="Path_89941" data-name="Path 89941" d="M318.063,233.968q6.567,3.839,13.15,7.536c-1.532.88-3.039,1.752-4.511,2.586-4.444-2.532-8.868-5.127-13.3-7.75C314.927,235.56,316.485,234.78,318.063,233.968Z" transform="translate(-24.896 1188.74)" fill="#fff"/>
        <path id="Path_89942" data-name="Path 89942" d="M326.285,230.031q5.8,3.8,11.592,7.467c-1.293.511-2.55,1.026-3.8,1.519q-5.849-3.77-11.724-7.636C323.648,230.939,324.956,230.492,326.285,230.031Z" transform="translate(-77.149 1174.717)" fill="#fff"/>
        <path id="Path_89943" data-name="Path 89943" d="M338.527,223.4c2.708,1.966,5.412,3.923,8.1,5.839-.769.137-1.517.265-2.265.406q-4.062-2.929-8.15-5.912C336.969,223.618,337.743,223.5,338.527,223.4Z" transform="translate(-156.438 1151.082)" fill="#fff"/>
        <path id="Path_89944" data-name="Path 89944" d="M229.642,270.47c2.815.027,5.656.046,8.517.032-.254.785-.514,1.569-.769,2.34q-4.292-.014-8.512-.087C229.117,272,229.392,271.236,229.642,270.47Z" transform="translate(498.447 1318.747)" fill="#fff"/>
        <path id="Path_89945" data-name="Path 89945" d="M309.95,236.892c4.811,2.4,9.647,4.758,14.514,7.025-1.772,1.35-3.492,2.669-5.193,3.946q-7.377-3.585-14.677-7.349C306.336,239.337,308.118,238.124,309.95,236.892Z" transform="translate(26.677 1199.154)" fill="#fff"/>
        <path id="Path_89946" data-name="Path 89946" d="M263.537,253.2q9.362.65,19.065.976c-1.283,2.614-2.53,5.173-3.762,7.673-6.445-.369-12.788-.871-19.035-1.46Q261.638,256.88,263.537,253.2Z" transform="translate(296.559 1257.241)" fill="#fff"/>
        <path id="Path_89947" data-name="Path 89947" d="M233.871,267.136q6.583-.007,13.333-.123c-.458,1.346-.932,2.664-1.38,3.987q-6.735.048-13.318-.009C232.975,269.718,233.428,268.441,233.871,267.136Z" transform="translate(470.927 1306.434)" fill="#fff"/>
        <path id="Path_89948" data-name="Path 89948" d="M272.634,249.183q9.79,1.156,19.885,1.948c-1.624,2.883-3.217,5.693-4.775,8.453q-10.08-1.088-19.849-2.523Q270.2,253.209,272.634,249.183Z" transform="translate(245.463 1242.93)" fill="#fff"/>
        <path id="Path_89949" data-name="Path 89949" d="M253.239,256.994q8.178.164,16.611.082c-.906,2.135-1.8,4.242-2.7,6.3q-8.423-.11-16.576-.447C251.462,260.99,252.337,259.01,253.239,256.994Z" transform="translate(356.295 1270.75)" fill="#fff"/>
        <path id="Path_89950" data-name="Path 89950" d="M291.95,242.25q9.286,2.7,18.852,5.027-3.2,3.928-6.226,7.622-9.584-2.614-18.938-5.565Q288.7,245.906,291.95,242.25Z" transform="translate(136.853 1218.237)" fill="#fff"/>
        <path id="Path_89951" data-name="Path 89951" d="M334.743,225.095q4.582,3.23,9.118,6.4c-.957.214-1.894.438-2.82.652q-4.59-3.2-9.225-6.5C332.778,225.474,333.756,225.282,334.743,225.095Z" transform="translate(-131.297 1157.137)" fill="#fff"/>
        <path id="Path_89952" data-name="Path 89952" d="M296.531,240.737q7.651,2.628,15.481,5.018c-1.863,2.016-3.66,3.982-5.417,5.894q-7.9-2.587-15.6-5.447Z" transform="translate(108.355 1212.849)" fill="#fff"/>
        <path id="Path_89953" data-name="Path 89953" d="M362.312,207.818c.265.21.524.429.8.634l-.148-.014c-.28-.214-.55-.424-.814-.634Z" transform="translate(-304.999 1095.552)" fill="#fff"/>
        <path id="Path_89954" data-name="Path 89954" d="M237.841,263.982q7.629-.123,15.471-.383c-.606,1.706-1.217,3.376-1.812,5.045q-7.812.144-15.446.151C236.64,267.207,237.24,265.592,237.841,263.982Z" transform="translate(446.762 1294.275)" fill="#fff"/>
        <path id="Path_89955" data-name="Path 89955" d="M285.9,243.973c5.264,1.186,10.594,2.313,16.011,3.3q-2.558,3.524-4.979,6.842-8.133-1.752-16.051-3.8Q283.314,247.237,285.9,243.973Z" transform="translate(169.973 1224.374)" fill="#fff"/>
        <path id="Path_89956" data-name="Path 89956" d="M357.448,211.027c1.171.917,2.337,1.834,3.508,2.737-.254-.009-.494-.05-.743-.059-1.171-.908-2.337-1.829-3.513-2.746C356.95,210.977,357.2,211,357.448,211.027Z" transform="translate(-275.073 1106.79)" fill="#fff"/>
        <path id="Path_89957" data-name="Path 89957" d="M322.821,230.907q6.163,3.839,12.335,7.54c-1.522.707-3.009,1.391-4.475,2.057q-6.246-3.8-12.518-7.764C319.68,232.139,321.233,231.537,322.821,230.907Z" transform="translate(-53.087 1177.837)" fill="#fff"/>
        <path id="Path_89958" data-name="Path 89958" d="M314.721,234.269q6.926,3.791,13.918,7.39c-1.8,1.15-3.569,2.281-5.289,3.367q-7.086-3.743-14.107-7.691C311.02,236.349,312.847,235.318,314.721,234.269Z" transform="translate(-1.16 1189.812)" fill="#fff"/>
        <path id="Path_89959" data-name="Path 89959" d="M301.71,238.729c5.193,2.057,10.426,4.064,15.721,5.958q-3.009,2.867-5.849,5.579-8.011-3.059-15.873-6.386Z" transform="translate(78.953 1205.697)" fill="#fff"/>
        <path id="Path_89960" data-name="Path 89960" d="M352.874,213.893c1.929,1.469,3.833,2.961,5.732,4.42-.443,0-.891,0-1.339-.037-1.919-1.473-3.828-2.961-5.763-4.452C351.963,213.843,352.416,213.866,352.874,213.893Z" transform="translate(-246.277 1116.997)" fill="#fff"/>
        <path id="Path_89961" data-name="Path 89961" d="M280.805,244.964q9.69,1.635,19.7,2.856-2.971,4.544-5.773,8.836-10.019-1.56-19.722-3.494Q277.822,249.172,280.805,244.964Z" transform="translate(201.238 1227.904)" fill="#fff"/>
        <path id="Path_89962" data-name="Path 89962" d="M266.153,249.8q10.332.568,21.02.712-2.42,4.749-4.74,9.274-10.668-.472-20.985-1.359Q263.755,254.218,266.153,249.8Z" transform="translate(283.618 1245.128)" fill="#fff"/>
        <path id="Path_89963" data-name="Path 89963" d="M241.534,260.841q8.24-.219,16.723-.675c-.769,2-1.5,3.992-2.23,5.953-5.646.2-11.215.31-16.678.351C240.058,264.623,240.786,262.734,241.534,260.841Z" transform="translate(425.037 1282.048)" fill="#fff"/>
        <path id="Path_89964" data-name="Path 89964" d="M331.3,226.431q5.62,3.839,11.2,7.581c-1.293.388-2.586.753-3.849,1.118q-5.666-3.825-11.363-7.755C328.605,227.06,329.939,226.737,331.3,226.431Z" transform="translate(-106.909 1161.896)" fill="#fff"/>
        <path id="Path_89965" data-name="Path 89965" d="M256.132,253.787c5.875.027,11.867-.036,17.95-.228-1.13,2.536-2.24,5.009-3.324,7.449q-9.125.034-17.9-.26Q254.465,257.341,256.132,253.787Z" transform="translate(340.465 1258.516)" fill="#fff"/>
        <path id="Path_89966" data-name="Path 89966" d="M348.593,216.387q4.055,3.086,8.044,6.1c-.687.027-1.4.041-2.082.055q-4.024-3.052-8.1-6.158C347.157,216.378,347.88,216.378,348.593,216.387Z" transform="translate(-218.598 1126.095)" fill="#fff"/>
        <path id="Path_89967" data-name="Path 89967" d="M306.937,236.468q8.163,3.674,16.459,7.093c-2.235,1.857-4.4,3.636-6.516,5.378q-8.385-3.64-16.667-7.536C302.4,239.807,304.636,238.16,306.937,236.468Z" transform="translate(50.059 1197.644)" fill="#fff"/>
        <path id="Path_89968" data-name="Path 89968" d="M274.833,245.851q10.026,1.054,20.4,1.651-2.9,4.906-5.646,9.543-10.355-.972-20.374-2.358Q271.939,250.39,274.833,245.851Z" transform="translate(236.034 1231.063)" fill="#fff"/>
        <path id="Path_89969" data-name="Path 89969" d="M344.311,218.76q4.368,3.271,8.68,6.459c-.845.059-1.68.119-2.51.2-2.9-2.162-5.814-4.334-8.751-6.541C342.58,218.837,343.44,218.8,344.311,218.76Z" transform="translate(-190.898 1134.574)" fill="#fff"/>
        <path id="Path_89970" data-name="Path 89970" d="M244.98,257.7q8.652-.356,17.619-1.026c-.916,2.317-1.787,4.607-2.678,6.856q-8.934.438-17.568.6C243.213,262.029,244.084,259.88,244.98,257.7Z" transform="translate(405.407 1269.625)" fill="#fff"/>
        <path id="Path_89971" data-name="Path 89971" d="M319.849,231.338q7.316,4.3,14.682,8.421-3.047,1.574-5.921,3.07-7.483-4.277-14.936-8.749C315.68,233.19,317.747,232.269,319.849,231.338Z" transform="translate(-29.609 1179.372)" fill="#fff"/>
        <path id="Path_89972" data-name="Path 89972" d="M207.031,277.376c.509-.014,1.008-.032,1.517-.037-.025.114-.061.237-.087.347-.5.014-1.018.018-1.527.037C206.954,277.6,207.021,277.491,207.031,277.376Z" transform="translate(639.772 1343.216)" fill="#fff"/>
        <path id="Path_89973" data-name="Path 89973" d="M212.8,273.927c2.092-.078,4.2-.137,6.318-.224-.132.538-.311,1.063-.453,1.6-2.123.078-4.225.123-6.313.2C212.512,274.976,212.654,274.451,212.8,273.927Z" transform="translate(601.638 1330.262)" fill="#fff"/>
        <path id="Path_89974" data-name="Path 89974" d="M218.106,270.625c3.62-.178,7.285-.337,10.966-.543-.305,1.013-.6,2.025-.906,3.024q-5.529.246-10.95.47C217.515,272.6,217.79,271.615,218.106,270.625Z" transform="translate(566.909 1317.365)" fill="#fff"/>
        <path id="Path_89975" data-name="Path 89975" d="M327.947,227.511q6.445,4.229,12.86,8.334-2.512.883-4.923,1.715-6.537-4.208-13.089-8.581C324.48,228.5,326.191,228.008,327.947,227.511Z" transform="translate(-82.318 1165.742)" fill="#fff"/>
        <path id="Path_89976" data-name="Path 89976" d="M311.835,234.094q8,4,16.123,7.759-3.505,2.47-6.806,4.785c-5.5-2.655-10.961-5.406-16.393-8.211Q308.2,236.32,311.835,234.094Z" transform="translate(22.349 1189.188)" fill="#fff"/>
        <path id="Path_89977" data-name="Path 89977" d="M293.852,239.09c6.455,1.793,13,3.476,19.646,4.977q-3.925,4.564-7.6,8.822-10.011-2.655-19.783-5.679Q289.869,243.3,293.852,239.09Z" transform="translate(131.703 1206.982)" fill="#fff"/>
        <path id="Path_89978" data-name="Path 89978" d="M340.28,220.815c3.233,2.358,6.435,4.7,9.622,7q-1.573.212-3.1.4-4.849-3.5-9.754-7.112C338.111,221.02,339.18,220.9,340.28,220.815Z" transform="translate(-163.968 1141.893)" fill="#fff"/>
        <path id="Path_89979" data-name="Path 89979" d="M223.047,267.451c4.816-.278,9.693-.611,14.631-.972-.458,1.487-.927,2.956-1.385,4.416q-7.392.459-14.616.812C222.13,270.293,222.573,268.878,223.047,267.451Z" transform="translate(535.588 1304.533)" fill="#fff"/>
        <path id="Path_89980" data-name="Path 89980" d="M288.587,240.444q10.141,2.2,20.6,3.946-3.871,5.036-7.473,9.757-10.508-2.128-20.694-4.708Q284.68,245.095,288.587,240.444Z" transform="translate(161.959 1211.805)" fill="#fff"/>
        <path id="Path_89981" data-name="Path 89981" d="M258.925,250.592q9.713-.116,19.783-.639c-1.441,3.084-2.836,6.081-4.2,9.023q-10.042.2-19.722-.023C256.145,256.23,257.515,253.452,258.925,250.592Z" transform="translate(326.03 1245.673)" fill="#fff"/>
        <path id="Path_89982" data-name="Path 89982" d="M268.763,246.251q11.439.458,23.3.324Q288.948,252.4,286,257.9q-11.836-.315-23.245-1.2Q265.665,251.615,268.763,246.251Z" transform="translate(272.074 1232.488)" fill="#fff"/>
        <path id="Path_89983" data-name="Path 89983" d="M298.075,237.729q7.758,2.614,15.715,4.917-3.337,3.435-6.471,6.633-8.049-2.566-15.894-5.456Q294.641,240.881,298.075,237.729Z" transform="translate(104.393 1202.135)" fill="#fff"/>
        <path id="Path_89984" data-name="Path 89984" d="M282.524,241.7q9.309,1.423,18.938,2.4c-2.23,3.248-4.373,6.382-6.465,9.415-6.425-.908-12.753-1.971-18.979-3.143Q279.172,246.166,282.524,241.7Z" transform="translate(195.161 1216.271)" fill="#fff"/>
        <path id="Path_89985" data-name="Path 89985" d="M227.635,264.258q7.72-.555,15.69-1.3c-.58,1.747-1.145,3.467-1.7,5.178-5.289.42-10.513.757-15.66,1.058C226.515,267.565,227.065,265.918,227.635,264.258Z" transform="translate(508.111 1291.974)" fill="#fff"/>
        <path id="Path_89986" data-name="Path 89986" d="M248.322,254.6q10.194-.588,20.806-1.629-1.84,4.537-3.62,8.872-10.561.718-20.74,1.017Q246.5,258.817,248.322,254.6Z" transform="translate(386.578 1256.422)" fill="#fff"/>
        <path id="Path_89987" data-name="Path 89987" d="M303.353,235.784q8.064,3.175,16.316,6.044-3.711,3.3-7.178,6.409c-5.579-2.089-11.093-4.3-16.555-6.582Q299.525,238.815,303.353,235.784Z" transform="translate(75.554 1195.207)" fill="#fff"/>
        <path id="Path_89988" data-name="Path 89988" d="M336.592,222.509q5.727,4.064,11.378,8.024c-1.4.255-2.759.52-4.113.762-3.828-2.687-7.677-5.437-11.556-8.2C333.71,222.9,335.136,222.705,336.592,222.509Z" transform="translate(-137.87 1147.927)" fill="#fff"/>
        <path id="Path_89989" data-name="Path 89989" d="M231.91,261.342q10.523-.93,21.422-2.194c-.886,2.618-1.772,5.2-2.632,7.746q-10.882,1.033-21.382,1.752C230.164,266.241,231.009,263.81,231.91,261.342Z" transform="translate(481.028 1278.422)" fill="#fff"/>
        <path id="Path_89990" data-name="Path 89990" d="M277.313,242.254q11.218.985,22.858,1.373-3.787,6.124-7.331,11.856-11.638-.883-22.863-2.331Q273.512,247.876,277.313,242.254Z" transform="translate(227.206 1218.252)" fill="#fff"/>
        <path id="Path_89991" data-name="Path 89991" d="M316.721,231.517q7.9,4.331,15.889,8.407c-2.464,1.441-4.847,2.828-7.168,4.179q-8.148-4.318-16.219-8.854Q312.865,233.442,316.721,231.517Z" transform="translate(-5.023 1180.01)" fill="#fff"/>
        <path id="Path_89992" data-name="Path 89992" d="M324.592,228.33q6.949,4.366,13.918,8.558c-2.036.826-4.027,1.642-5.977,2.427q-7.1-4.338-14.214-8.877Q321.382,229.4,324.592,228.33Z" transform="translate(-57.241 1168.659)" fill="#fff"/>
        <path id="Path_89993" data-name="Path 89993" d="M364.9,204.544c1.176.935,2.347,1.87,3.518,2.787-.245-.046-.5-.087-.743-.132q-1.764-1.382-3.528-2.8C364.392,204.457,364.647,204.494,364.9,204.544Z" transform="translate(-320.453 1083.422)" fill="#fff"/>
        <path id="Path_89994" data-name="Path 89994" d="M370.416,200.638l.973.776-.193-.046q-.481-.376-.962-.766A.658.658,0,0,0,370.416,200.638Z" transform="translate(-354.401 1069.898)" fill="#fff"/>
        <path id="Path_89995" data-name="Path 89995" d="M359.788,208.013q2.879,2.258,5.717,4.493c-.458-.059-.9-.109-1.354-.173q-2.856-2.238-5.758-4.511C358.856,207.871,359.319,207.944,359.788,208.013Z" transform="translate(-288.241 1095.613)" fill="#fff"/>
        <path id="Path_89996" data-name="Path 89996" d="M262,247.362q12.119-.349,24.757-1.359c-2.067,4.27-4.1,8.43-6.053,12.462q-12.6.506-24.691.356Q258.921,253.258,262,247.362Z" transform="translate(311.715 1231.604)" fill="#fff"/>
        <path id="Path_89997" data-name="Path 89997" d="M354.963,211.121q3.749,2.894,7.428,5.743c-.662-.041-1.313-.1-1.97-.142-2.469-1.916-4.979-3.845-7.494-5.807C353.6,210.98,354.276,211.053,354.963,211.121Z" transform="translate(-257.3 1106.636)" fill="#fff"/>
        <path id="Path_89998" data-name="Path 89998" d="M308.98,233.533q8.9,3.969,17.991,7.641-4.4,3.367-8.5,6.509-9.255-3.969-18.332-8.257Q304.411,236.566,308.98,233.533Z" transform="translate(46.841 1187.19)" fill="#fff"/>
        <path id="Path_89999" data-name="Path 89999" d="M251.505,251.5q11.47-.883,23.413-2.363-2.4,5.638-4.673,10.984-11.9,1.026-23.326,1.505Q249.156,256.69,251.505,251.5Z" transform="translate(369.849 1242.781)" fill="#fff"/>
        <path id="Path_90000" data-name="Path 90000" d="M235.871,258.207q10.767-1.143,21.967-2.705-1.581,4.427-3.105,8.7c-7.443.853-14.743,1.551-21.891,2.139C233.845,263.677,234.827,260.958,235.871,258.207Z" transform="translate(458.588 1265.436)" fill="#fff"/>
        <path id="Path_90001" data-name="Path 90001" d="M333.462,223.807q7.1,4.913,14.168,9.653c-1.955.474-3.874.949-5.748,1.391q-7.209-4.885-14.479-9.944C329.384,224.551,331.39,224.172,333.462,223.807Z" transform="translate(-112.606 1152.55)" fill="#fff"/>
        <path id="Path_90002" data-name="Path 90002" d="M271.016,242.83q11.431.24,23.316-.214l-7.046,12.572c-7.9-.077-15.659-.333-23.26-.839Q267.4,248.779,271.016,242.83Z" transform="translate(263.341 1219.541)" fill="#fff"/>
        <path id="Path_90003" data-name="Path 90003" d="M350.665,213.747q5.155,3.934,10.2,7.782c-1.018-.027-2.036-.05-3.029-.059-3.421-2.609-6.852-5.241-10.34-7.892C348.543,213.624,349.6,213.683,350.665,213.747Z" transform="translate(-228.144 1116.117)" fill="#fff"/>
        <path id="Path_90004" data-name="Path 90004" d="M290.652,237.017q10.569,2.135,21.509,3.709-4.788,5.912-9.214,11.4c-7.336-1.391-14.575-2.938-21.672-4.671Q285.78,242.436,290.652,237.017Z" transform="translate(157.699 1199.599)" fill="#fff"/>
        <path id="Path_90005" data-name="Path 90005" d="M295.266,235.933q9.194,2.436,18.7,4.42-4.452,4.9-8.578,9.42-9.6-2.4-18.913-5.237Z" transform="translate(129.428 1195.738)" fill="#fff"/>
        <path id="Path_90006" data-name="Path 90006" d="M320.792,228.949q6.651,3.941,13.358,7.682-3.322,1.553-6.45,3.024-6.873-3.941-13.715-8.074Q317.284,230.308,320.792,228.949Z" transform="translate(-30.811 1170.864)" fill="#fff"/>
        <path id="Path_90007" data-name="Path 90007" d="M285,238.019c7.1.972,14.341,1.72,21.713,2.285q-4.528,6.268-8.71,12.079-11.1-1.382-21.8-3.312Q280.432,243.762,285,238.019Z" transform="translate(188.976 1203.168)" fill="#fff"/>
        <path id="Path_90008" data-name="Path 90008" d="M239.681,255.312q12.562-1.588,25.648-3.75c-1.42,3.8-2.815,7.527-4.154,11.185q-13.035,1.745-25.541,2.919Q237.6,260.583,239.681,255.312Z" transform="translate(436.883 1251.403)" fill="#fff"/>
        <path id="Path_90009" data-name="Path 90009" d="M346.45,216.068q5.9,4.441,11.7,8.745c-1.334.046-2.642.1-3.92.128q-5.9-4.386-11.877-8.909C343.7,216.041,345.065,216.059,346.45,216.068Z" transform="translate(-199.253 1124.858)" fill="#fff"/>
        <path id="Path_90010" data-name="Path 90010" d="M313.69,231.3c5.656,2.8,11.337,5.542,17.085,8.156q-4.483,2.894-8.665,5.6-8.82-4.249-17.5-8.754C307.54,234.709,310.549,233.025,313.69,231.3Z" transform="translate(20.275 1179.241)" fill="#fff"/>
        <path id="Path_90011" data-name="Path 90011" d="M301.114,234.248c6.633,2.153,13.358,4.183,20.2,6.026q-5.162,4.988-9.943,9.575c-6.944-2.139-13.776-4.452-20.531-6.888Q295.782,238.766,301.114,234.248Z" transform="translate(99.846 1189.737)" fill="#fff"/>
        <path id="Path_90012" data-name="Path 90012" d="M204.755,270.085q5.567-.568,11.251-1.177c-.27,1.04-.58,2.062-.845,3.093q-5.674.589-11.236,1.081C204.22,272.092,204.48,271.093,204.755,270.085Z" transform="translate(647.633 1313.184)" fill="#fff"/>
        <path id="Path_90013" data-name="Path 90013" d="M198.329,273.358c2.759-.26,5.529-.484,8.324-.716-.148.7-.382,1.382-.545,2.08-2.79.233-5.564.433-8.313.684C197.977,274.736,198.166,274.047,198.329,273.358Z" transform="translate(688.198 1326.483)" fill="#fff"/>
        <path id="Path_90014" data-name="Path 90014" d="M329.2,225.155q6.346,4.2,12.656,8.243c-1.985.588-3.91,1.172-5.788,1.738q-6.483-4.215-12.987-8.571C325.066,226.095,327.112,225.638,329.2,225.155Z" transform="translate(-84.818 1157.351)" fill="#fff"/>
        <path id="Path_90015" data-name="Path 90015" d="M254.737,248.491c8.94-.885,18.072-2.062,27.409-3.467-2.153,4.89-4.261,9.616-6.3,14.214q-13.936,1.492-27.287,2.272Q251.574,255.194,254.737,248.491Z" transform="translate(354.276 1228.117)" fill="#fff"/>
        <path id="Path_90016" data-name="Path 90016" d="M210.541,267.2c5.834-.652,11.755-1.4,17.772-2.19-.529,1.8-1.054,3.595-1.538,5.374q-8.988,1.081-17.757,1.975C209.5,270.652,210.047,268.941,210.541,267.2Z" transform="translate(609.392 1299.297)" fill="#fff"/>
        <path id="Path_90017" data-name="Path 90017" d="M279.7,238.52q11.958.8,24.406.867c-3.172,4.913-6.231,9.616-9.184,14.15-8.293-.452-16.438-1.163-24.431-2.089Q274.915,245.235,279.7,238.52Z" transform="translate(220.636 1204.952)" fill="#fff"/>
        <path id="Path_90018" data-name="Path 90018" d="M264.408,244.113q12.058-.6,24.609-1.984-3.612,7.1-6.98,13.735-12.516.76-24.507.807C259.745,252.625,262.036,248.451,264.408,244.113Z" transform="translate(301.726 1217.806)" fill="#fff"/>
        <path id="Path_90019" data-name="Path 90019" d="M191.383,276.667c.647-.046,1.293-.087,1.94-.146-.046.151-.071.3-.107.447-.641.068-1.293.082-1.935.132A3.321,3.321,0,0,0,191.383,276.667Z" transform="translate(734.684 1340.299)" fill="#fff"/>
        <path id="Path_90020" data-name="Path 90020" d="M215.924,264.176q10.08-1.334,20.506-2.942c-.708,2.29-1.374,4.562-2.031,6.81q-10.393,1.444-20.465,2.6C214.6,268.514,215.227,266.348,215.924,264.176Z" transform="translate(576.253 1285.852)" fill="#fff"/>
        <path id="Path_90021" data-name="Path 90021" d="M342.238,218.237q6.04,4.468,11.994,8.768c-1.532.141-3.055.26-4.541.4q-6.078-4.42-12.233-8.986C339.016,218.365,340.609,218.315,342.238,218.237Z" transform="translate(-170.391 1132.711)" fill="#fff"/>
        <path id="Path_90022" data-name="Path 90022" d="M243.081,252.01q12.157-1.806,24.889-4.27-2.39,6.138-4.643,11.97-12.669,1.977-24.772,3.294C240,259.418,241.523,255.759,243.081,252.01Z" transform="translate(419.372 1237.791)" fill="#fff"/>
        <path id="Path_90023" data-name="Path 90023" d="M305.788,232.584q9.225,3.544,18.719,6.7-5.177,4.3-9.927,8.275-9.668-3.551-19.111-7.5Q300.417,236.468,305.788,232.584Z" transform="translate(73.094 1183.81)" fill="#fff"/>
        <path id="Path_90024" data-name="Path 90024" d="M220.9,261.1q10.805-1.642,22.043-3.649c-.86,2.723-1.675,5.415-2.5,8.06q-11.218,1.752-21.987,3.152Q219.651,264.944,220.9,261.1Z" transform="translate(546.744 1272.389)" fill="#fff"/>
        <path id="Path_90025" data-name="Path 90025" d="M273.375,239.5c7.947-.037,16.072-.315,24.349-.885q-4.452,7.616-8.593,14.67-12.409.157-24.319-.411Q268.928,246.447,273.375,239.5Z" transform="translate(255.947 1205.305)" fill="#fff"/>
        <path id="Path_90026" data-name="Path 90026" d="M318.814,228.8q8.529,4.667,17.212,9.073c-3.263,1.711-6.394,3.38-9.433,5q-8.911-4.742-17.752-9.716Q313.66,231.06,318.814,228.8Z" transform="translate(-6.5 1170.315)" fill="#fff"/>
        <path id="Path_90027" data-name="Path 90027" d="M338.859,219.931q7.254,5.2,14.433,10.245c-2.113.306-4.18.584-6.2.853q-7.354-5.193-14.8-10.574C334.43,220.3,336.624,220.109,338.859,219.931Z" transform="translate(-143.177 1138.745)" fill="#fff"/>
        <path id="Path_90028" data-name="Path 90028" d="M225.552,258.548q13.44-2.333,27.45-5.2c-1.217,3.74-2.4,7.417-3.589,11.035q-13.974,2.463-27.353,4.42C223.19,265.445,224.376,262.024,225.552,258.548Z" transform="translate(518.313 1257.779)" fill="#fff"/>
        <path id="Path_90029" data-name="Path 90029" d="M326.323,225.843c4.933,3.1,9.856,6.163,14.809,9.128-2.647.94-5.2,1.87-7.7,2.751-5.111-3.116-10.187-6.336-15.288-9.6C320.789,227.371,323.518,226.632,326.323,225.843Z" transform="translate(-58.982 1159.801)" fill="#fff"/>
        <path id="Path_90030" data-name="Path 90030" d="M257.727,245.355q14.31-1.772,29.262-4.553-4.062,8.71-7.8,16.851-14.891,1.971-29.1,3.024Q253.782,253.267,257.727,245.355Z" transform="translate(341.649 1213.08)" fill="#fff"/>
        <path id="Path_90031" data-name="Path 90031" d="M309.932,230.8q8.041,3.558,16.331,6.788-4.879,3.455-9.377,6.655-8.484-3.585-16.79-7.5C303.242,234.842,306.516,232.871,309.932,230.8Z" transform="translate(47.783 1177.456)" fill="#fff"/>
        <path id="Path_90032" data-name="Path 90032" d="M246.4,248.9q12.974-2.244,26.579-5.328-2.947,7.3-5.732,14.164-13.524,2.436-26.427,4.064Q243.533,255.539,246.4,248.9Z" transform="translate(402.82 1222.942)" fill="#fff"/>
        <path id="Path_90033" data-name="Path 90033" d="M266.945,240.791c8.334-.671,16.876-1.592,25.582-2.856q-4.4,8.307-8.486,15.966c-8.68.753-17.187,1.186-25.5,1.391Q262.572,248.333,266.945,240.791Z" transform="translate(293.075 1202.869)" fill="#fff"/>
        <path id="Path_90034" data-name="Path 90034" d="M367.521,201.349q3.108,2.45,6.16,4.876c-.494-.11-.978-.21-1.466-.315q-3.07-2.443-6.2-4.908C366.519,201.107,367.012,201.221,367.521,201.349Z" transform="translate(-335.246 1071.326)" fill="#fff"/>
        <path id="Path_90035" data-name="Path 90035" d="M362.255,205.095q4.49,3.531,8.9,6.975c-.8-.146-1.609-.278-2.4-.4q-4.437-3.49-8.975-7.048C360.6,204.766,361.421,204.935,362.255,205.095Z" transform="translate(-300.931 1084.23)" fill="#fff"/>
        <path id="Path_90036" data-name="Path 90036" d="M373.449,197.062q2.406,1.909,4.78,3.8c-.341-.091-.672-.178-1.008-.26q-2.375-1.909-4.791-3.818C372.772,196.879,373.113,196.957,373.449,197.062Z" transform="translate(-372.431 1056.317)" fill="#fff"/>
        <path id="Path_90037" data-name="Path 90037" d="M229.732,254.976q12.134-2.367,24.843-5.36-1.9,5.631-3.737,11.021-12.668,2.552-24.736,4.493C227.268,261.8,228.5,258.425,229.732,254.976Z" transform="translate(496.163 1244.472)" fill="#fff"/>
        <path id="Path_90038" data-name="Path 90038" d="M334.334,221.644q6.346,4.4,12.63,8.658c-2.108.415-4.169.821-6.18,1.2q-6.491-4.441-13.043-9.028C329.874,222.2,332.074,221.931,334.334,221.644Z" transform="translate(-113.655 1144.846)" fill="#fff"/>
        <path id="Path_90039" data-name="Path 90039" d="M357.41,208.395q5.682,4.413,11.225,8.708c-1.151-.137-2.3-.283-3.431-.392q-5.613-4.365-11.368-8.84C355.017,208.043,356.214,208.208,357.41,208.395Z" transform="translate(-268.172 1095.787)" fill="#fff"/>
        <path id="Path_90040" data-name="Path 90040" d="M352.97,211.275q6.682,5.139,13.226,10.122c-1.553-.1-3.08-.2-4.6-.3q-6.667-5.091-13.476-10.337C349.706,210.937,351.32,211.111,352.97,211.275Z" transform="translate(-236.649 1106.095)" fill="#fff"/>
        <path id="Path_90041" data-name="Path 90041" d="M323.105,226.277q7.674,4.571,15.466,8.886c-3.172,1.332-6.241,2.6-9.194,3.827q-8.049-4.639-16.072-9.5C316.451,228.457,319.725,227.395,323.105,226.277Z" transform="translate(-31.771 1161.347)" fill="#fff"/>
        <path id="Path_90042" data-name="Path 90042" d="M315.783,228.477q8.835,4.352,17.874,8.393c-3.874,2.285-7.585,4.5-11.159,6.605q-9.362-4.434-18.521-9.224Q309.643,231.474,315.783,228.477Z" transform="translate(20.631 1169.183)" fill="#fff"/>
        <path id="Path_90043" data-name="Path 90043" d="M233.825,252.294c9.337-2.016,18.9-4.375,28.7-7.011-1.69,4.822-3.375,9.511-4.974,14.091q-14.639,3.319-28.565,5.8C230.542,260.984,232.176,256.705,233.825,252.294Z" transform="translate(473.544 1229.04)" fill="#fff"/>
        <path id="Path_90044" data-name="Path 90044" d="M348.082,213.88c4.088,3.106,8.161,6.14,12.167,9.146-1.644-.018-3.253-.037-4.826-.064q-6.163-4.625-12.457-9.392C344.636,213.666,346.336,213.771,348.082,213.88Z" transform="translate(-204.449 1116.089)" fill="#fff"/>
        <path id="Path_90045" data-name="Path 90045" d="M260.3,241.936q14.005-2.169,28.682-5.451-4.635,9.621-8.929,18.484-14.593,2.347-28.519,3.654Q255.739,250.6,260.3,241.936Z" transform="translate(332.303 1197.704)" fill="#fff"/>
        <path id="Path_90046" data-name="Path 90046" d="M249.791,245.985c9.724-1.943,19.7-4.242,29.888-6.966q-3.849,9.162-7.473,17.722Q257,259.9,242.5,262.014C244.843,256.851,247.286,251.513,249.791,245.985Z" transform="translate(387.574 1206.729)" fill="#fff"/>
        <path id="Path_90047" data-name="Path 90047" d="M331.558,222.643q7.552,5.022,15.089,9.876-4.36,1.1-8.476,2.112-7.819-5.091-15.675-10.414Q326.887,223.444,331.558,222.643Z" transform="translate(-86.637 1148.404)" fill="#fff"/>
        <path id="Path_90048" data-name="Path 90048" d="M195.832,266.022q9.8-1.69,19.9-3.608c-.514,2.007-1.033,4.005-1.542,5.98q-10.088,1.759-19.864,3.339C194.8,269.845,195.343,267.943,195.832,266.022Z" transform="translate(696.809 1290.055)" fill="#fff"/>
        <path id="Path_90049" data-name="Path 90049" d="M202.306,263q10.668-2.108,21.774-4.466c-.687,2.431-1.273,4.854-1.95,7.226q-11.073,2.169-21.723,4.065C201.023,267.572,201.68,265.3,202.306,263Z" transform="translate(657.468 1276.225)" fill="#fff"/>
        <path id="Path_90050" data-name="Path 90050" d="M188.831,268.645q6.728-1.033,13.628-2.171c-.331,1.236-.621,2.472-.916,3.7q-6.873,1.088-13.608,2.057C188.251,271.04,188.526,269.845,188.831,268.645Z" transform="translate(742.582 1304.515)" fill="#fff"/>
        <path id="Path_90051" data-name="Path 90051" d="M208.177,260.545q13.119-2.84,26.839-6.163c-.947,3.33-1.858,6.61-2.78,9.844-9.113,2.021-18.037,3.832-26.763,5.52C206.34,266.726,207.281,263.665,208.177,260.545Z" transform="translate(620.736 1261.447)" fill="#fff"/>
        <path id="Path_90052" data-name="Path 90052" d="M181.048,271.623c2.78-.383,5.59-.794,8.425-1.168-.178.689-.311,1.391-.484,2.076-2.836.36-5.641.757-8.43,1.127C180.727,272.982,180.854,272.3,181.048,271.623Z" transform="translate(793.118 1318.694)" fill="#fff"/>
        <path id="Path_90053" data-name="Path 90053" d="M344.624,215.824q7.568,5.618,15.018,11.03c-2.332.091-4.607.192-6.837.269q-7.659-5.6-15.461-11.422C339.716,215.728,342.14,215.788,344.624,215.824Z" transform="translate(-175.221 1123.679)" fill="#fff"/>
        <path id="Path_90054" data-name="Path 90054" d="M237.825,249.854q16.227-4.023,33.284-9.219-3.467,9.347-6.689,18.142-16.968,4.311-33.08,7.508Q234.493,258.314,237.825,249.854Z" transform="translate(452.969 1212.485)" fill="#fff"/>
        <path id="Path_90055" data-name="Path 90055" d="M213.609,257.7q14.028-3.346,28.723-7.39c-1.2,3.95-2.327,7.837-3.436,11.65q-14.662,3.572-28.621,6.514Q211.886,263.175,213.609,257.7Z" transform="translate(588.979 1246.934)" fill="#fff"/>
        <path id="Path_90056" data-name="Path 90056" d="M172.388,274.772c.753-.073,1.517-.164,2.281-.278-.041.173-.076.338-.117.511-.759.119-1.527.192-2.3.269C172.3,275.105,172.343,274.946,172.388,274.772Z" transform="translate(850.191 1333.079)" fill="#fff"/>
        <path id="Path_90057" data-name="Path 90057" d="M319.174,226.428q7.186,3.928,14.529,7.6-5.177,2.463-9.947,4.74-7.674-4.03-15.206-8.316C311.945,229.17,315.493,227.838,319.174,226.428Z" transform="translate(-2.691 1161.885)" fill="#fff"/>
        <path id="Path_90058" data-name="Path 90058" d="M327.333,223.586q6.85,4.345,13.761,8.5c-3.08.935-6.058,1.857-8.929,2.742q-7.231-4.454-14.428-9.119C320.817,225.014,324.019,224.321,327.333,223.586Z" transform="translate(-56.856 1151.762)" fill="#fff"/>
        <path id="Path_90059" data-name="Path 90059" d="M218.7,255.547q16.5-4.372,33.854-9.712c-1.573,5.187-3.161,10.259-4.7,15.222q-17.289,4.673-33.7,8.43C215.658,264.944,217.15,260.3,218.7,255.547Z" transform="translate(558.997 1231.006)" fill="#fff"/>
        <path id="Path_90060" data-name="Path 90060" d="M340.395,217.728q7.293,5.269,14.5,10.369c-2.606.233-5.137.474-7.611.7q-7.476-5.317-15.049-10.852Q336.2,217.851,340.395,217.728Z" transform="translate(-144.458 1130.898)" fill="#fff"/>
        <path id="Path_90061" data-name="Path 90061" d="M253.258,243.176q16.372-3.832,33.569-9.1-5.093,11.571-9.805,22.27-17.09,4.051-33.32,6.833Q248.284,253.563,253.258,243.176Z" transform="translate(374.312 1189.138)" fill="#fff"/>
        <path id="Path_90062" data-name="Path 90062" d="M241.587,247.044q17.334-4.872,35.626-11.181-4.314,11.208-8.339,21.663-18.151,5.173-35.366,8.991Q237.4,257.1,241.587,247.044Z" transform="translate(435.822 1195.489)" fill="#fff"/>
        <path id="Path_90063" data-name="Path 90063" d="M223.37,252.623q17-4.981,34.9-11.162c-1.929,5.953-3.762,11.765-5.605,17.421q-17.846,5.31-34.7,9.552Q220.6,260.729,223.37,252.623Z" transform="translate(533.9 1215.427)" fill="#fff"/>
        <path id="Path_90064" data-name="Path 90064" d="M370.357,198.306q5.086,4.01,10.014,7.928c-.906-.251-1.817-.479-2.714-.707-3.329-2.623-6.7-5.3-10.115-8C368.479,197.777,369.415,198.042,370.357,198.306Z" transform="translate(-349.683 1058.946)" fill="#fff"/>
        <path id="Path_90065" data-name="Path 90065" d="M337.633,219.131q8.339,5.843,16.647,11.477c-3.492.525-6.873,1.008-10.146,1.5q-8.7-5.967-17.457-12.18C330.215,219.669,333.86,219.4,337.633,219.131Z" transform="translate(-115.554 1135.895)" fill="#fff"/>
        <path id="Path_90066" data-name="Path 90066" d="M364.595,202.452q5.552,4.366,10.945,8.594c-1.145-.228-2.276-.484-3.4-.707q-5.483-4.3-11.113-8.736C362.2,201.89,363.383,202.173,364.595,202.452Z" transform="translate(-311.68 1073.467)" fill="#fff"/>
        <path id="Path_90067" data-name="Path 90067" d="M359.375,206.086q6.147,4.79,12.121,9.411c-1.471-.228-2.927-.438-4.348-.684q-6.109-4.721-12.376-9.63C356.285,205.493,357.823,205.781,359.375,206.086Z" transform="translate(-275.804 1086.217)" fill="#fff"/>
        <path id="Path_90068" data-name="Path 90068" d="M324.177,223.94q7.071,4.181,14.285,8.179-5.636,2.046-10.818,3.946-7.6-4.365-15.13-8.973C316.246,226.089,320.125,225.039,324.177,223.94Z" transform="translate(-27.635 1153.023)" fill="#fff"/>
        <path id="Path_90069" data-name="Path 90069" d="M227.527,248.808q15.891-5.207,32.694-11.655-3.154,9.361-6.119,18.178-16.7,5.5-32.459,9.826C223.551,259.87,225.5,254.414,227.527,248.808Z" transform="translate(513.223 1200.083)" fill="#fff"/>
        <path id="Path_90070" data-name="Path 90070" d="M354.463,209.256q6.483,4.995,12.783,9.808c-1.8-.205-3.564-.388-5.294-.575q-6.476-4.961-13.145-10.108C350.65,208.672,352.538,208.959,354.463,209.256Z" transform="translate(-241.181 1097.604)" fill="#fff"/>
        <path id="Path_90071" data-name="Path 90071" d="M244.847,243.473q17.006-5.4,34.959-12.43-4.986,12.392-9.571,23.825-17.785,5.7-34.648,9.862Q240.047,254.521,244.847,243.473Z" transform="translate(422.645 1178.318)" fill="#fff"/>
        <path id="Path_90072" data-name="Path 90072" d="M350.433,211.919q7.468,5.666,14.748,11.121c-2.423-.128-4.791-.283-7.112-.4q-7.537-5.686-15.278-11.582Q346.511,211.478,350.433,211.919Z" transform="translate(-208.495 1107.153)" fill="#fff"/>
        <path id="Path_90073" data-name="Path 90073" d="M333.561,220.421q7.713,5.207,15.487,10.191-5.735,1.156-11.068,2.24-8.209-5.378-16.413-11C325.411,221.374,329.417,220.909,333.561,220.421Z" transform="translate(-84.308 1140.49)" fill="#fff"/>
        <path id="Path_90074" data-name="Path 90074" d="M186.064,261.164q13.127-3.332,26.8-7.134c-.718,2.974-1.451,5.907-2.143,8.822q-13.669,3.517-26.758,6.614C184.653,266.73,185.336,263.961,186.064,261.164Z" transform="translate(752.38 1260.193)" fill="#fff"/>
        <path id="Path_90075" data-name="Path 90075" d="M193.192,258.876q15-4.215,30.759-9.082c-.972,3.809-1.955,7.554-2.881,11.249-10.472,2.979-20.71,5.711-30.662,8.284C191.318,265.892,192.26,262.412,193.192,258.876Z" transform="translate(708.506 1245.106)" fill="#fff"/>
        <path id="Path_90076" data-name="Path 90076" d="M178.122,263.839c7.86-1.847,15.873-3.736,24.029-5.752-.54,2.39-1.125,4.753-1.649,7.107q-12.21,2.833-24,5.405C177.007,268.36,177.6,266.111,178.122,263.839Z" transform="translate(801.114 1274.643)" fill="#fff"/>
        <path id="Path_90077" data-name="Path 90077" d="M199.705,256.915c11.485-3.535,23.27-7.422,35.4-11.564q-1.955,7.335-3.859,14.406-18.128,5.6-35.264,10.391C197.175,265.815,198.479,261.408,199.705,256.915Z" transform="translate(668.957 1229.282)" fill="#fff"/>
        <path id="Path_90078" data-name="Path 90078" d="M232.06,247.366q19.2-6.925,39.505-15.692-4.429,12.72-8.619,24.555-20.16,7.369-39.174,13.06Q227.789,258.7,232.06,247.366Z" transform="translate(491.035 1180.569)" fill="#fff"/>
        <path id="Path_90079" data-name="Path 90079" d="M346.751,214.1q8.117,6.042,16.1,11.9c-3.116-.009-6.135-.036-9.077-.055q-8.346-6.145-16.851-12.522C340.108,213.646,343.381,213.86,346.751,214.1Z" transform="translate(-176.304 1115.562)" fill="#fff"/>
        <path id="Path_90080" data-name="Path 90080" d="M169.346,266.18q9.125-1.9,18.47-3.941c-.377,1.638-.692,3.28-1.095,4.9-6.221,1.314-12.371,2.555-18.439,3.773C168.649,269.346,169.015,267.768,169.346,266.18Z" transform="translate(857.276 1289.431)" fill="#fff"/>
        <path id="Path_90081" data-name="Path 90081" d="M205.676,253.674q16.892-5.72,34.8-12.54-2.237,8.06-4.419,15.765-17.823,6.083-34.633,11.112Q203.512,261,205.676,253.674Z" transform="translate(635.919 1214.262)" fill="#fff"/>
        <path id="Path_90082" data-name="Path 90082" d="M159.567,268.544c3.681-.707,7.4-1.4,11.139-2.112-.173.89-.346,1.77-.55,2.655q-5.62,1.033-11.134,2.053C159.2,270.273,159.358,269.411,159.567,268.544Z" transform="translate(921.527 1304.365)" fill="#fff"/>
        <path id="Path_90083" data-name="Path 90083" d="M211.234,251.921q19.1-7.116,39.424-15.678-3.016,10.216-5.839,19.912-20.2,7.54-39.189,13.7Q208.355,261.112,211.234,251.921Z" transform="translate(604.306 1196.839)" fill="#fff"/>
        <path id="Path_90084" data-name="Path 90084" d="M329.058,221.348q6.743,4.311,13.638,8.448c-4.017,1.045-7.86,2.03-11.556,2.979q-7.384-4.55-14.682-9.324C320.48,222.78,324.67,222.082,329.058,221.348Z" transform="translate(-51.947 1143.792)" fill="#fff"/>
        <path id="Path_90085" data-name="Path 90085" d="M343.383,215.765q8.461,6.179,16.856,12.139-5.781.26-11.215.525-8.873-6.35-17.879-12.96C335.094,215.559,339.162,215.664,343.383,215.765Z" transform="translate(-144.254 1122.849)" fill="#fff"/>
        <path id="Path_90086" data-name="Path 90086" d="M235.583,243.179q17.96-7.239,36.985-16.413-4.91,13.439-9.464,25.828-18.846,7.623-36.608,13.462Q230.864,255.08,235.583,243.179Z" transform="translate(476.164 1163.089)" fill="#fff"/>
        <path id="Path_90087" data-name="Path 90087" d="M148.5,271.132c.952-.151,1.9-.3,2.846-.465a3.337,3.337,0,0,0-.117.6c-.947.137-1.9.31-2.841.47C148.448,271.543,148.453,271.333,148.5,271.132Z" transform="translate(994.999 1319.449)" fill="#fff"/>
        <path id="Path_90088" data-name="Path 90088" d="M216.32,249.11q19.587-7.978,40.421-17.727-3.612,11.762-6.985,22.836-20.694,8.5-40.126,15.282C211.774,262.9,214.035,256.121,216.32,249.11Z" transform="translate(577.848 1179.533)" fill="#fff"/>
        <path id="Path_90089" data-name="Path 90089" d="M339.008,217.273q7.606,5.406,15.273,10.624c-4.195.406-8.232.817-12.121,1.209q-8.224-5.672-16.454-11.559Q332.1,217.417,339.008,217.273Z" transform="translate(-110.612 1129.278)" fill="#fff"/>
        <path id="Path_90090" data-name="Path 90090" d="M367.088,200.191q6.834,5.365,13.445,10.524c-1.67-.429-3.309-.835-4.943-1.223q-6.75-5.3-13.771-10.811C363.545,199.174,365.306,199.68,367.088,200.191Z" transform="translate(-320.71 1063.059)" fill="#fff"/>
        <path id="Path_90091" data-name="Path 90091" d="M361.723,204.178q7.308,5.679,14.366,11.172L369.9,214.1q-7.293-5.665-14.855-11.559C357.228,203.079,359.448,203.635,361.723,204.178Z" transform="translate(-281.777 1076.822)" fill="#fff"/>
        <path id="Path_90092" data-name="Path 90092" d="M220.955,245.738c12.926-5.8,26.289-12.221,40.05-19.4q-4.223,13.137-8.1,25.367c-13.649,6.154-26.89,11.6-39.693,16.49Q216.949,257.368,220.955,245.738Z" transform="translate(555.38 1161.578)" fill="#fff"/>
        <path id="Path_90093" data-name="Path 90093" d="M357.457,207.67q8.385,6.466,16.525,12.7c-2.887-.447-5.692-.839-8.431-1.273q-8.492-6.507-17.243-13.288C351.282,206.4,354.336,207.045,357.457,207.67Z" transform="translate(-245.382 1088.429)" fill="#fff"/>
        <path id="Path_90094" data-name="Path 90094" d="M335.128,218.532q7.01,4.783,14.2,9.424-7.132,1.109-13.669,2.107-7.835-5.166-15.6-10.542C324.865,219.221,329.884,218.874,335.128,218.532Z" transform="translate(-76.94 1133.762)" fill="#fff"/>
        <path id="Path_90095" data-name="Path 90095" d="M352.8,210.6q8.133,6.2,16.087,12.184c-3.355-.342-6.613-.661-9.774-.985q-8.392-6.336-17.014-12.932C345.576,209.418,349.135,210,352.8,210.6Z" transform="translate(-208.703 1099.335)" fill="#fff"/>
        <path id="Path_90096" data-name="Path 90096" d="M183.164,253.66q18.4-6.925,37.907-15.049-1.894,7.807-3.706,15.355-19.473,7.39-37.769,13.7Q181.359,260.788,183.164,253.66Z" transform="translate(766.428 1205.276)" fill="#fff"/>
        <path id="Path_90097" data-name="Path 90097" d="M175.074,256.82q18.93-6.624,38.991-14.1c-1.1,4.776-2.174,9.484-3.248,14.114q-19.992,6.952-38.884,13C172.987,265.56,174,261.213,175.074,256.82Z" transform="translate(812.44 1219.893)" fill="#fff"/>
        <path id="Path_90098" data-name="Path 90098" d="M225.487,243.239q20.481-10.12,42.285-22.667Q262.549,236.3,257.7,250.747q-21.588,10.627-41.806,18.986Q220.519,257.02,225.487,243.239Z" transform="translate(534.949 1141.028)" fill="#fff"/>
        <path id="Path_90099" data-name="Path 90099" d="M190.394,251.9q19.976-8.245,41.271-17.973c-1.629,6.377-3.192,12.622-4.745,18.721q-21.206,8.793-41.073,16.144Q188.07,260.542,190.394,251.9Z" transform="translate(724 1188.576)" fill="#fff"/>
        <path id="Path_90100" data-name="Path 90100" d="M166.3,257.526q15.166-4.831,31.09-10.2c-.733,3.38-1.481,6.733-2.2,10.036q-15.891,5.063-31.029,9.543C164.87,263.812,165.572,260.687,166.3,257.526Z" transform="translate(868.706 1236.298)" fill="#fff"/>
        <path id="Path_90101" data-name="Path 90101" d="M196.939,248.809q19.717-8.854,40.793-19.483c-1.863,7.1-3.742,14-5.508,20.742q-20.969,9.45-40.533,17.261C193.4,261.321,195.126,255.145,196.939,248.809Z" transform="translate(688.193 1172.206)" fill="#fff"/>
        <path id="Path_90102" data-name="Path 90102" d="M348.75,213.005q7.972,5.994,15.873,11.815-6.01-.287-11.627-.575-8.453-6.268-17.07-12.768Q342.119,212.209,348.75,213.005Z" transform="translate(-172.983 1108.634)" fill="#fff"/>
        <path id="Path_90103" data-name="Path 90103" d="M156.15,260.265q14.822-4.284,30.255-8.986c-.585,2.929-1.268,5.821-1.807,8.7q-15.425,4.448-30.209,8.535C154.995,265.784,155.57,263.033,156.15,260.265Z" transform="translate(929.413 1250.392)" fill="#fff"/>
        <path id="Path_90104" data-name="Path 90104" d="M203.094,248.094q22.428-11.044,46.49-24.355-3.8,13.692-7.387,26.558-23.879,11.721-46.118,21.285C198.329,263.986,200.7,256.168,203.094,248.094Z" transform="translate(653.997 1152.307)" fill="#fff"/>
        <path id="Path_90105" data-name="Path 90105" d="M144.9,261.861c7.814-2.057,15.766-4.138,23.815-6.373-.392,2.048-.784,4.078-1.2,6.1q-12.088,3.2-23.8,6.14C144.089,265.779,144.5,263.817,144.9,261.861Z" transform="translate(1001.405 1265.386)" fill="#fff"/>
        <path id="Path_90106" data-name="Path 90106" d="M344.061,214.87q7.033,5.221,14.142,10.277c-4.383,0-8.6.023-12.656.027q-7.743-5.59-15.532-11.368C334.515,214.149,339.194,214.514,344.061,214.87Z" transform="translate(-136.471 1116.933)" fill="#fff"/>
        <path id="Path_90107" data-name="Path 90107" d="M208.714,245.707q23.092-12.371,47.854-27.52-4.666,15.957-8.96,30.791-24.513,13.165-47.375,23.716Q204.318,259.666,208.714,245.707Z" transform="translate(625.865 1132.533)" fill="#fff"/>
        <path id="Path_90108" data-name="Path 90108" d="M132.061,263.519c5.289-1.254,10.63-2.518,16.021-3.836-.249,1.209-.489,2.422-.672,3.636-5.386,1.3-10.732,2.518-16.021,3.75C131.6,265.887,131.883,264.715,132.061,263.519Z" transform="translate(1084.826 1280.328)" fill="#fff"/>
        <path id="Path_90109" data-name="Path 90109" d="M340.32,216.177q6.491,4.66,13.185,9.283c-5.132.274-10.034.556-14.723.8q-7.514-5.221-14.921-10.606Q331.719,215.892,340.32,216.177Z" transform="translate(-100.444 1123.504)" fill="#fff"/>
        <path id="Path_90110" data-name="Path 90110" d="M214.008,243.367q23.833-14.055,49.458-31.275-5.681,18.762-10.94,35.969-25.314,14.759-48.862,26.581Q208.657,259.643,214.008,243.367Z" transform="translate(601.507 1110.825)" fill="#fff"/>
        <path id="Path_90111" data-name="Path 90111" d="M117.389,264.863c1.313-.256,2.622-.538,3.925-.835-.02.269-.112.52-.137.78-1.3.292-2.607.579-3.92.83C117.293,265.383,117.456,265.118,117.389,264.863Z" transform="translate(1183.538 1295.803)" fill="#fff"/>
        <path id="Path_90112" data-name="Path 90112" d="M364.186,203.024c5.447,4.242,10.823,8.384,16.077,12.453-2.958-.712-5.849-1.41-8.649-2.089q-8.3-6.418-16.932-13.151C357.776,201.131,360.938,202.066,364.186,203.024Z" transform="translate(-284.101 1068.601)" fill="#fff"/>
        <path id="Path_90113" data-name="Path 90113" d="M358.722,206.8q7.644,5.885,15.048,11.568c-3.385-.675-6.684-1.3-9.881-1.911q-7.911-6.083-16.107-12.421C351.33,204.9,354.975,205.844,358.722,206.8Z" transform="translate(-242.488 1082.139)" fill="#fff"/>
        <path id="Path_90114" data-name="Path 90114" d="M171.9,249.652q24.581-12.05,51.036-26.143-2.7,11.756-5.244,23-26.353,12.83-50.771,23.689C168.518,263.5,170.2,256.659,171.9,249.652Z" transform="translate(829.097 1151.488)" fill="#fff"/>
        <path id="Path_90115" data-name="Path 90115" d="M162.832,251.2q23.787-10.64,49.234-23.064c-1.461,6.683-2.9,13.229-4.271,19.679-16.947,7.554-33.248,14.675-49.035,21.162C160.108,263.171,161.452,257.24,162.832,251.2Z" transform="translate(881.506 1167.972)" fill="#fff"/>
        <path id="Path_90116" data-name="Path 90116" d="M355.7,210.25q8.423,6.432,16.7,12.718c-4.678-.661-9.194-1.327-13.567-1.957q-9.026-6.849-18.291-13.963Q347.855,208.581,355.7,210.25Z" transform="translate(-204.242 1092.86)" fill="#fff"/>
        <path id="Path_90117" data-name="Path 90117" d="M180.088,251.062q28.575-15.218,59.42-33.268-3.711,15.519-7.249,30.226-30.667,16.244-59.018,29.756Q176.593,264.781,180.088,251.062Z" transform="translate(780.337 1131.133)" fill="#fff"/>
        <path id="Path_90118" data-name="Path 90118" d="M152.7,252.031q21.909-9.094,45.319-19.387c-1.1,5.424-2.22,10.766-3.294,16.039q-23.352,9.586-45.186,18.019C150.606,261.893,151.624,256.994,152.7,252.031Z" transform="translate(942.472 1184.024)" fill="#fff"/>
        <path id="Path_90119" data-name="Path 90119" d="M187.387,244.988q24.726-14.3,51.474-31.489c-2.586,10.168-5.035,20.039-7.443,29.591q-26.567,15.245-51.051,27.79C182.617,262.523,184.995,253.9,187.387,244.988Z" transform="translate(744.708 1115.836)" fill="#fff"/>
        <path id="Path_90120" data-name="Path 90120" d="M141.027,254.517q22.42-8.539,46.189-18c-.937,4.872-1.945,9.684-2.81,14.451q-23.718,8.936-46.093,16.965C139.19,263.513,140.116,259.043,141.027,254.517Z" transform="translate(1010.437 1197.818)" fill="#fff"/>
        <path id="Path_90121" data-name="Path 90121" d="M351.753,212.9q7.728,5.871,15.522,11.664c-5.529-.529-10.833-1-15.934-1.487q-8.728-6.507-17.533-13.206C339.556,210.836,345.522,211.848,351.753,212.9Z" transform="translate(-164.853 1102.922)" fill="#fff"/>
        <path id="Path_90122" data-name="Path 90122" d="M194.412,246.772c19.111-12.1,39.088-25.335,59.8-40.029-3.589,13.448-6.954,26.421-10.253,38.9-20.526,12.837-40.269,24.378-59.176,34.847C187.891,269.657,191.067,258.417,194.412,246.772Z" transform="translate(706.893 1091.773)" fill="#fff"/>
        <path id="Path_90123" data-name="Path 90123" d="M128.068,254.3c12.361-4.324,25.057-8.772,38.049-13.48-.631,3.544-1.2,7.048-1.919,10.515-12.977,4.489-25.683,8.69-38,12.855C126.755,260.916,127.417,257.627,128.068,254.3Z" transform="translate(1093.233 1213.151)" fill="#fff"/>
        <path id="Path_90124" data-name="Path 90124" d="M348.538,214.95q6.949,5.248,14.214,10.51-9.927-.431-18.974-.817-8.438-6.131-16.769-12.408C333.856,213.112,341.019,214.015,348.538,214.95Z" transform="translate(-125.717 1111.338)" fill="#fff"/>
        <path id="Path_90125" data-name="Path 90125" d="M200.579,243.481c18.724-12.827,38.146-27.137,58.448-42.852Q252.8,223.161,247.1,243.814,217.048,264.15,189.43,280.59,194.752,262.813,200.579,243.481Z" transform="translate(678.403 1069.998)" fill="#fff"/>
        <path id="Path_90126" data-name="Path 90126" d="M113.022,254.578q14.914-4.721,30.423-9.73c-.423,2.477-.85,4.931-1.268,7.372q-15.486,4.872-30.408,9.411C112.2,259.3,112.564,256.941,113.022,254.578Z" transform="translate(1189.34 1227.49)" fill="#fff"/>
        <path id="Path_90127" data-name="Path 90127" d="M95.556,254.272c6.185-1.72,12.422-3.558,18.739-5.392-.188,1.332-.423,2.659-.636,3.969-6.328,1.788-12.549,3.585-18.734,5.287C95.139,256.854,95.378,255.567,95.556,254.272Z" transform="translate(1304.245 1241.851)" fill="#fff"/>
        <path id="Path_90128" data-name="Path 90128" d="M364.171,207.909q9.271,7.13,18.363,14.1c-5.783-1.35-11.378-2.641-16.764-3.932q-10.133-7.787-20.613-15.875Q354.328,204.944,364.171,207.909Z" transform="translate(-237.887 1075.618)" fill="#fff"/>
        <path id="Path_90129" data-name="Path 90129" d="M159.255,247.887c22.1-13.648,45.232-28.492,69.419-44.722-2.54,12.025-5.081,23.7-7.529,35.061-24,14.679-47.014,28-68.961,40.261C154.485,268.56,156.8,258.355,159.255,247.887Z" transform="translate(898.37 1079.026)" fill="#fff"/>
        <path id="Path_90130" data-name="Path 90130" d="M148.728,250.713q34.951-19.809,72.993-43.094c-2.24,11.048-4.455,21.832-6.577,32.388q-37.914,21.321-72.641,39.308C144.482,269.991,146.636,260.475,148.728,250.713Z" transform="translate(954.613 1094.894)" fill="#fff"/>
        <path id="Path_90131" data-name="Path 90131" d="M168.538,244.7q31.6-21.041,66.1-46.461c-2.937,13.074-5.839,25.723-8.583,37.98q-34.295,22.662-65.545,41.3Q164.382,261.618,168.538,244.7Z" transform="translate(850.02 1061.475)" fill="#fff"/>
        <path id="Path_90132" data-name="Path 90132" d="M359.816,211.543q7.942,6.117,15.975,12.262-10.042-1.9-19.294-3.6-9.347-7.1-18.785-14.387C344.778,207.634,352.134,209.559,359.816,211.543Z" transform="translate(-193.244 1088.479)" fill="#fff"/>
        <path id="Path_90133" data-name="Path 90133" d="M137.229,246.534q29.667-15.437,61.788-33.41-2.36,12.262-4.628,24.076-32.08,16.579-61.564,30.846Q135.009,257.488,137.229,246.534Z" transform="translate(1026.582 1114.5)" fill="#fff"/>
        <path id="Path_90134" data-name="Path 90134" d="M176.9,243.479q31.9-23.155,66.823-51.264c-3.635,15.131-7.051,29.71-10.4,43.755-23.062,16.522-45.095,31.434-66.11,44.955Q171.893,262.882,176.9,243.479Z" transform="translate(806.816 1040.03)" fill="#fff"/>
        <path id="Path_90135" data-name="Path 90135" d="M74.752,254.109c1.716-.424,3.411-.9,5.147-1.318a4.2,4.2,0,0,0-.137.94c-1.731.411-3.457.839-5.152,1.318C74.65,254.739,74.7,254.42,74.752,254.109Z" transform="translate(1442.069 1255.781)" fill="#fff"/>
        <path id="Path_90136" data-name="Path 90136" d="M123.817,246.913q28.98-13.877,60.215-29.765-1.909,10.442-3.727,20.559c-20.766,9.949-40.8,19.154-60.047,27.812C121.4,259.412,122.626,253.208,123.817,246.913Z" transform="translate(1105.537 1128.833)" fill="#fff"/>
        <path id="Path_90137" data-name="Path 90137" d="M184.374,240.524q31.072-24.647,65.2-54.69c-4.261,16.974-8.237,33.223-12.167,48.75-22.456,17.435-43.888,33.118-64.313,47.268Q178.512,262.071,184.374,240.524Z" transform="translate(770.996 1017.303)" fill="#fff"/>
        <path id="Path_90138" data-name="Path 90138" d="M353.364,214.044c3.757,2.924,7.641,5.935,11.678,8.959-6.842-.935-13.348-1.825-19.564-2.687-4.943-3.713-9.846-7.458-14.7-11.19Q341.528,211.467,353.364,214.044Z" transform="translate(-147.184 1100.265)" fill="#fff"/>
        <path id="Path_90139" data-name="Path 90139" d="M108.431,246.24q27.078-11.954,56.071-25.272c-.876,5.647-1.9,11.213-2.846,16.718q-28.942,12.672-55.969,23.912C106.608,256.549,107.5,251.422,108.431,246.24Z" transform="translate(1199.252 1142.438)" fill="#fff"/>
        <path id="Path_90140" data-name="Path 90140" d="M90.483,244.8q24.039-9.668,49.534-20.29-1.069,6.466-2.047,12.846Q112.5,247.512,88.5,256.781C89.17,252.831,89.771,248.821,90.483,244.8Z" transform="translate(1311.217 1155.061)" fill="#fff"/>
        <path id="Path_90141" data-name="Path 90141" d="M69.174,242.961q20.137-7.356,41.175-15.263c-.346,3.107-.947,6.163-1.354,9.219q-21.046,7.643-41.154,14.8Q68.52,247.357,69.174,242.961Z" transform="translate(1446.078 1166.408)" fill="#fff"/>
        <path id="Path_90142" data-name="Path 90142" d="M145,240.333q37.28-28.328,78.628-62.636c-3.105,15.446-6.15,30.367-9.036,44.818q-41.068,30.8-77.982,55.94C139.291,266.157,142.121,253.466,145,240.333Z" transform="translate(982.713 988.322)" fill="#fff"/>
        <path id="Path_90143" data-name="Path 90143" d="M132.984,242.757q39.281-27.486,82.752-60.424-3.933,21.1-7.814,41.037-43.321,29.9-82.222,54.68C128.066,266.614,130.52,254.85,132.984,242.757Z" transform="translate(1046.14 1004.833)" fill="#fff"/>
        <path id="Path_90144" data-name="Path 90144" d="M155.546,239.768c24.68-20.432,50.751-42.989,78.211-67.973q-5.689,26.61-10.9,51.2c-27.18,22.078-52.965,41.954-77.371,59.908Q150.335,262.157,155.546,239.768Z" transform="translate(927.386 967.301)" fill="#fff"/>
        <path id="Path_90145" data-name="Path 90145" d="M119.147,244.727q41.5-26.809,87.39-58.476c-2.22,12.878-4.719,25.4-6.756,37.693q-45.787,29.067-86.962,53.567C114.84,266.828,116.988,255.908,119.147,244.727Z" transform="translate(1120.909 1018.788)" fill="#fff"/>
        <path id="Path_90146" data-name="Path 90146" d="M165.607,250.547q44.038-39.556,92.878-88.181-8.117,36.573-15.69,69.935Q194.518,274.752,151.21,308.9,158.151,281.019,165.607,250.547Z" transform="translate(873.518 933.718)" fill="#fff"/>
        <path id="Path_90147" data-name="Path 90147" d="M363.836,215.019c3.518,2.764,7.29,5.711,11.261,8.795q-13.509-3.1-25.739-5.875c-5.361-4.119-10.66-8.206-15.878-12.212Q347.881,210.147,363.836,215.019Z" transform="translate(-170.999 1088.155)" fill="#fff"/>
        <path id="Path_90148" data-name="Path 90148" d="M103.059,246.279q44.214-26.1,92.755-56.811c-1.914,11.806-3.777,23.388-5.834,34.71q-48.445,28.567-92.435,52.683C99.338,266.861,101.222,256.679,103.059,246.279Z" transform="translate(1209.383 1030.246)" fill="#fff"/>
        <path id="Path_90149" data-name="Path 90149" d="M43.53,239.833c9.057-3.02,18.261-6.035,27.577-9.187-.081,1.779-.55,3.522-.713,5.282q-13.982,4.605-27.562,9.018A44.749,44.749,0,0,1,43.53,239.833Z" transform="translate(1612.626 1176.908)" fill="#fff"/>
        <path id="Path_90150" data-name="Path 90150" d="M84.812,241.1q40.778-22.3,85.516-47.861c-1.395,9.37-2.775,18.6-4.327,27.653-29.766,16.062-58.2,30.937-85.307,44.891C82.018,257.668,83.413,249.453,84.812,241.1Z" transform="translate(1320.66 1043.663)" fill="#fff"/>
        <path id="Path_90151" data-name="Path 90151" d="M63.076,236.669c25.49-12.8,52.12-26.289,79.85-40.7-.952,7.49-2.153,14.866-3.217,22.174Q98.168,238.68,59.981,256.776C61.152,250.18,62.068,243.461,63.076,236.669Z" transform="translate(1453.51 1053.386)" fill="#fff"/>
        <path id="Path_90152" data-name="Path 90152" d="M128.6,242.335c32.408-30.157,66.848-63.694,103.594-101-4.4,23.319-8.675,45.694-12.681,67.23-36.349,33.054-70.442,62.709-102.484,89.331C120.78,280.1,124.562,261.581,128.6,242.335Z" transform="translate(1073.825 858.831)" fill="#fff"/>
        <path id="Path_90153" data-name="Path 90153" d="M36.628,232.122c23.907-10.9,48.74-22.284,74.413-34.436-.784,5.926-1.614,11.792-2.357,17.617-25.653,11.65-50.45,22.594-74.332,33.054C35.126,242.992,35.727,237.569,36.628,232.122Z" transform="translate(1615.869 1059.516)" fill="#fff"/>
        <path id="Path_90154" data-name="Path 90154" d="M140.841,239.319c30.494-30.955,63.06-65.369,97.546-103.937-5.03,25.664-10,50.133-14.682,73.507-34.068,33.651-66.11,63.681-96.176,90.585C131.738,280.315,136.233,260.3,140.841,239.319Z" transform="translate(1014.178 837.61)" fill="#fff"/>
        <path id="Path_90155" data-name="Path 90155" d="M114.441,246.126c35.188-30.057,72.58-63.384,112.416-100.356-3.818,21.672-7.484,42.62-11.134,62.846-39.622,33.113-76.658,63.038-111.515,89.961Q109.088,273.211,114.441,246.126Z" transform="translate(1144.426 874.609)" fill="#fff"/>
        <path id="Path_90156" data-name="Path 90156" d="M98.283,241.446c34.8-27.379,71.842-57.513,111.2-90.859q-4.689,27.479-8.884,53.449c-39.159,30.321-76.027,57.627-110.543,82.525C92.668,271.941,95.478,256.915,98.283,241.446Z" transform="translate(1233.846 891.765)" fill="#fff"/>
        <path id="Path_90157" data-name="Path 90157" d="M78.639,248.094q60.479-43.765,128.707-96.233c-2.683,18.119-5.457,35.8-8.206,53.034-45.436,32.255-88.026,61.7-128.157,88.478C73.553,278.657,75.976,263.549,78.639,248.094Z" transform="translate(1333.086 896.303)" fill="#fff"/>
        <path id="Path_90158" data-name="Path 90158" d="M56.058,242.36q60.754-40.453,129.206-88.264c-2.306,15.437-4.149,30.627-6.506,45.434-45.558,29.8-88.443,57.048-128.819,82.114C52.016,268.813,54.022,255.721,56.058,242.36Z" transform="translate(1462.294 904.263)" fill="#fff"/>
        <path id="Path_90159" data-name="Path 90159" d="M29.4,230.591c37.8-22.977,77.824-47.8,120.129-74.816-1.711,12.116-3.187,24.058-4.694,35.8-42.254,25.413-82.2,48.75-119.89,70.377Q27.153,246.518,29.4,230.591Z" transform="translate(1625.265 910.243)" fill="#fff"/>
        <path id="Path_90160" data-name="Path 90160" d="M109.737,256.977q31.859-36.019,66.013-76.426C199.759,152.2,224.541,122,250.438,90q-9.584,55.137-18.46,105.151-38.349,41.958-73.69,79.149-33.729,35.348-65.1,66.746Q101.129,300.958,109.737,256.977Z" transform="translate(1176.951 675.982)" fill="#fff"/>
        <path id="Path_90161" data-name="Path 90161" d="M92.79,257.148q33.829-35.047,70.086-74.3,38.013-41.356,79.321-87.616-8.247,49.464-15.6,94.992c-27.333,27.388-53.408,53.33-78.542,77.749-24.019,23.187-47.065,45.169-69.383,65.861C83.352,309.315,87.893,283.756,92.79,257.148Z" transform="translate(1259.107 694.61)" fill="#fff"/>
        <path id="Path_90162" data-name="Path 90162" d="M73.02,253.556q35.2-33.665,73.186-71.08,39.747-39.406,82.838-83.437c-4.383,29.09-8.787,57.135-12.87,84.249q-42.809,39.686-82.248,75.035-37.716,33.692-72.641,63.854C64.972,300.071,69.024,277.231,73.02,253.556Z" transform="translate(1360.748 708.169)" fill="#fff"/>
        <path id="Path_90163" data-name="Path 90163" d="M49.638,249.321q37.173-32.461,77.111-68.562,41.923-37.8,87.2-80.016c-3.6,25.76-7.326,50.726-10.569,75.007q-45.016,38.619-86.769,72.923c-26.472,22-52.09,42.72-76.724,62.431Q44.443,281.093,49.638,249.321Z" transform="translate(1484.802 714.238)" fill="#fff"/>
        <path id="Path_90164" data-name="Path 90164" d="M20.491,254.371q42.908-34.24,88.9-72.28,48.246-39.68,100.371-83.825c-3.065,24.843-6.435,49.042-9.418,72.676q-51.973,40.774-100.01,77.293-45.9,35.074-88.566,66.6Q16.179,285.363,20.491,254.371Z" transform="translate(1632.138 705.419)" fill="#fff"/>
        <path id="Path_90165" data-name="Path 90165" d="M66.963,293.2c30.693-38.313,62.465-79.282,95.779-122.855q52.973-69.321,110.9-148.528-12.111,79.366-22.832,151.233Q193.481,242.559,141.249,303.1c-32.928,38.135-64.3,73.995-94.558,107.5C53.08,373.313,59.927,334.233,66.963,293.2Z" transform="translate(1390.447 433.12)" fill="#fff"/>
        <path id="Path_90166" data-name="Path 90166" d="M43.195,258.462q42.4-48.506,88.449-103.568C164.265,116,198.354,74.39,234.311,30.019c-5.676,40.653-10.889,79.628-16.255,116.961q-53.408,59.29-101.822,111.044Q70.6,307.085,28.584,350.033C33.374,320.774,38.17,290.262,43.195,258.462Z" transform="translate(1521.963 462.343)" fill="#fff"/>
        <path id="Path_90167" data-name="Path 90167" d="M14.478,246.9q44.016-46.159,92.088-98.422C140.6,111.585,176.107,72.049,213.779,30.036q-6.7,52.66-12.9,101.6c-37.464,37.889-72.7,73.621-106.628,106.775Q46.379,285.55,2.733,327.055C6.393,301.268,10.542,274.591,14.478,246.9Z" transform="translate(1674.098 462.404)" fill="#fff"/>
        <path id="Path_90168" data-name="Path 90168" d="M36.14,323.729Q91.083,240.764,151.25,144.821q31.92-50.491,65.341-105.064c23.387-37.6,46.861-76.969,71.552-117.673C277.926-1.764,267.866,69.9,258.575,137.508c-47.589,69-92.277,132.94-134.923,191.954C84.132,384.727,46.337,435.932,10.34,483.551Q22.673,408.174,36.14,323.729Z" transform="translate(1561.008 77.916)" fill="#fff"/>
        <path id="Path_90169" data-name="Path 90169" d="M5.445,316.781Q64.344,235.3,129.7,141.367c23.006-33.017,46.2-67.549,70.839-103.02q37.441-55.623,77.819-115.419C269.65-9.934,261.953,53.9,254.393,114.586,202.344,183.494,153.482,247.28,107.166,306.194Q42.479,388.8-15.748,459.926C-8.875,414.565-2.084,366.873,5.445,316.781Z" transform="translate(1703.6 80.922)" fill="#fff"/>
      </g>
    </g>
  </g>
</svg>
