<svg xmlns="http://www.w3.org/2000/svg" width="1094.014" height="50" viewBox="0 0 1094.014 50">
  <g id="Group_52949" data-name="Group 52949" transform="translate(-253 -431)">
    <g id="google_cloud-ar21" transform="translate(764 431)">
      <path id="Path_81835" data-name="Path 81835" d="M63.908,11.156l1.084.019L67.937,8.23l.142-1.248a13.231,13.231,0,0,0-21.571,6.429,1.594,1.594,0,0,1,1.009-.057l5.887-.968s.3-.5.455-.471a7.353,7.353,0,0,1,10.049-.758Z" transform="translate(-6.441 -3.633)" fill="#fff"/>
      <path id="Path_81836" data-name="Path 81836" d="M72.753,13.606a13.257,13.257,0,0,0-4-6.44l-4.171,4.171A7.344,7.344,0,0,1,67.33,17.06V17.8a3.677,3.677,0,0,1,0,7.353H59.974l-.736.739V30.3l.736.733H67.33a9.556,9.556,0,0,0,5.414-17.43Z" transform="translate(-7.108 -3.818)" fill="#fff"/>
      <path id="Path_81837" data-name="Path 81837" d="M51.915,32.018h7.353V26.132H51.915A3.639,3.639,0,0,1,50.4,25.8l-1.061.325-2.945,2.945-.258.995a9.438,9.438,0,0,0,5.779,1.952Z" transform="translate(-6.421 -4.794)" fill="#fff"/>
      <path id="Path_81838" data-name="Path 81838" d="M51.705,12.175a9.561,9.561,0,0,0-5.775,17.184l4.264-4.264a3.677,3.677,0,1,1,4.861-4.861l4.264-4.264a9.549,9.549,0,0,0-7.619-3.79Z" transform="translate(-6.212 -4.08)" fill="#fff"/>
      <path id="Path_81839" data-name="Path 81839" d="M11.593,51.135A7.157,7.157,0,0,1,6.406,49a7.115,7.115,0,0,1,0-10.249,7.165,7.165,0,0,1,5.187-2.133,6.937,6.937,0,0,1,4.974,2l-1.4,1.4A5.041,5.041,0,0,0,11.592,38.6,4.974,4.974,0,0,0,7.9,40.144a5.363,5.363,0,0,0,0,7.468,4.975,4.975,0,0,0,3.692,1.542A4.933,4.933,0,0,0,15.259,47.7a4.19,4.19,0,0,0,1.08-2.5H11.6V43.221h6.675a6.331,6.331,0,0,1,.095,1.232,6.262,6.262,0,0,1-1.718,4.639,6.685,6.685,0,0,1-5.065,2.037Zm15.512-1.327a4.838,4.838,0,0,1-6.656,0,4.764,4.764,0,0,1,0-6.671,4.838,4.838,0,0,1,6.656,0,4.764,4.764,0,0,1,0,6.671ZM21.918,48.5a2.552,2.552,0,0,0,3.72,0,3.054,3.054,0,0,0,.009-4.065,2.591,2.591,0,0,0-3.737,0,3.054,3.054,0,0,0,.009,4.065Zm15.421,1.308a4.838,4.838,0,0,1-6.656,0,4.764,4.764,0,0,1,0-6.671,4.838,4.838,0,0,1,6.656,0,4.764,4.764,0,0,1,0,6.671ZM32.151,48.5a2.552,2.552,0,0,0,3.72,0,3.054,3.054,0,0,0,.009-4.065,2.591,2.591,0,0,0-3.737,0,3.054,3.054,0,0,0,.009,4.065Zm11.914,6.842a4.115,4.115,0,0,1-2.619-.834,4.815,4.815,0,0,1-1.522-1.931l1.789-.742A2.922,2.922,0,0,0,42.6,53a2.251,2.251,0,0,0,1.471.495,2.389,2.389,0,0,0,1.832-.708,2.878,2.878,0,0,0,.663-2.037V50.09h-.071a2.986,2.986,0,0,1-2.46,1.063A4.274,4.274,0,0,1,40.9,49.791,4.511,4.511,0,0,1,39.553,46.5,4.568,4.568,0,0,1,40.9,43.177a4.263,4.263,0,0,1,3.134-1.371,3.356,3.356,0,0,1,1.442.3,2.942,2.942,0,0,1,1.018.742h.071V42.1h1.948V50.49a4.882,4.882,0,0,1-1.249,3.658,4.411,4.411,0,0,1-3.2,1.213Zm.142-6.038a2.284,2.284,0,0,0,1.781-.8,2.913,2.913,0,0,0,.716-2.011,2.978,2.978,0,0,0-.716-2.037,2.274,2.274,0,0,0-1.781-.813,2.432,2.432,0,0,0-1.84.813,2.868,2.868,0,0,0-.762,2.037,2.812,2.812,0,0,0,.762,2.011,2.441,2.441,0,0,0,1.84.805ZM51.98,37.113v13.74H49.927V37.113Zm5.629,14.021A4.464,4.464,0,0,1,54.3,49.788a4.55,4.55,0,0,1-1.329-3.328A4.6,4.6,0,0,1,54.253,43.1a4.217,4.217,0,0,1,3.125-1.311,3.956,3.956,0,0,1,1.576.31,3.715,3.715,0,0,1,1.2.8,5.534,5.534,0,0,1,.762.947,5.8,5.8,0,0,1,.461.921l.213.531-6.249,2.589a2.375,2.375,0,0,0,2.267,1.417A2.678,2.678,0,0,0,59.912,48L61.5,49.066A5.192,5.192,0,0,1,60,50.5a4.28,4.28,0,0,1-2.392.635Zm-2.6-4.814,4.17-1.734a1.421,1.421,0,0,0-.663-.716,2.142,2.142,0,0,0-1.08-.273,2.424,2.424,0,0,0-1.69.742,2.5,2.5,0,0,0-.753,1.982Zm17.37,4.814a6.685,6.685,0,0,1-4.693-11.349,6.378,6.378,0,0,1,4.693-1.9,5.864,5.864,0,0,1,4.656,2.071L75.9,41.06a4.264,4.264,0,0,0-3.525-1.611,4.834,4.834,0,0,0-4.931,5.063,4.91,4.91,0,0,0,1.425,3.667,4.8,4.8,0,0,0,3.506,1.4,4.967,4.967,0,0,0,3.885-1.84l1.132,1.132a6.169,6.169,0,0,1-2.18,1.655,6.652,6.652,0,0,1-2.847.608Zm8.108-.28h-1.63V38.177h1.63Zm2.656-7.638a4.55,4.55,0,0,1,6.41,0,4.965,4.965,0,0,1,0,6.6,4.55,4.55,0,0,1-6.41,0,4.965,4.965,0,0,1,0-6.6Zm1.213,5.575a2.736,2.736,0,0,0,3.98,0,3.079,3.079,0,0,0,.841-2.274,3.111,3.111,0,0,0-.841-2.274,2.736,2.736,0,0,0-3.98,0,3.078,3.078,0,0,0-.841,2.274A3.111,3.111,0,0,0,84.354,48.79Zm15.465,2.063H98.26v-1.2h-.071a2.911,2.911,0,0,1-1.132,1.042,3.321,3.321,0,0,1-1.611.436,3.049,3.049,0,0,1-2.469-.992,3.978,3.978,0,0,1-.841-2.656V42.167h1.63v5.045q0,2.428,2.142,2.426a1.99,1.99,0,0,0,1.647-.813,2.966,2.966,0,0,0,.637-1.877V42.167h1.63v8.677Zm5.523.281a3.816,3.816,0,0,1-2.9-1.329,5.055,5.055,0,0,1,0-6.588,3.818,3.818,0,0,1,2.9-1.329,3.725,3.725,0,0,1,1.782.424,2.968,2.968,0,0,1,1.178,1.063h.071l-.071-1.2v-4h1.63V50.853h-1.559v-1.2H108.3a3.011,3.011,0,0,1-1.178,1.063,3.752,3.752,0,0,1-1.782.421Zm.265-1.488a2.6,2.6,0,0,0,1.957-.85,3.613,3.613,0,0,0,0-4.549,2.659,2.659,0,0,0-3.905.009,3.587,3.587,0,0,0,0,4.549,2.587,2.587,0,0,0,1.948.859Z" transform="translate(-4.226 -5.361)" fill="#fff"/>
    </g>
    <g id="Artboard" transform="translate(533 431)">
      <g id="endorsments_wlw_ep_google_horizontal_RGB" transform="translate(-1 0)">
        <g id="Group_46124" data-name="Group 46124" transform="translate(26.501 5)">
          <path id="Path_81886" data-name="Path 81886" d="M-37.811,221.1H-40.5V199.9h7.3a6.435,6.435,0,0,1,4.61,1.767,6.485,6.485,0,0,1,2,4.533,6.057,6.057,0,0,1-2,4.533A6.434,6.434,0,0,1-33.2,212.5h-4.61Zm0-11.14h4.533a3.4,3.4,0,0,0,2.766-1.152,4.009,4.009,0,0,0,1.076-2.612,3.615,3.615,0,0,0-1.076-2.535,3.719,3.719,0,0,0-2.766-1.229h-4.533Z" transform="translate(40.884 -182.068)" fill="#fff"/>
          <path id="Path_81887" data-name="Path 81887" d="M-15.447,223.44a5.562,5.562,0,0,1-3.842-1.306A4.411,4.411,0,0,1-20.9,218.6a4.621,4.621,0,0,1,1.844-3.765,7.3,7.3,0,0,1,4.533-1.306,7.458,7.458,0,0,1,4,.922v-.461a3.481,3.481,0,0,0-1.076-2.612,3.833,3.833,0,0,0-2.689-.922,4.074,4.074,0,0,0-2.151.538,2.759,2.759,0,0,0-1.306,1.613l-2.535-1.076a6.641,6.641,0,0,1,2-2.382,6.117,6.117,0,0,1,4-1.152,6.3,6.3,0,0,1,4.61,1.613,5.575,5.575,0,0,1,1.844,4.61v8.836h-2.612v-2.074h-.154a5.934,5.934,0,0,1-4.84,2.459Zm.461-2.535a4.568,4.568,0,0,0,3.073-1.229,3.959,3.959,0,0,0,1.383-3,5.473,5.473,0,0,0-3.457-.922,4.179,4.179,0,0,0-3,.845,2.385,2.385,0,0,0-1,2.074,1.928,1.928,0,0,0,.922,1.69A4.616,4.616,0,0,0-14.986,220.9Z" transform="translate(36.345 -183.943)" fill="#fff"/>
          <path id="Path_81888" data-name="Path 81888" d="M2.259,207.056v2.382h.154a3.729,3.729,0,0,1,1.767-2,5.982,5.982,0,0,1,2.843-.691,1.866,1.866,0,0,1,.922,0v2.612a2.539,2.539,0,0,0-1.076,0,4.339,4.339,0,0,0-3.15,1.152,4.108,4.108,0,0,0-1.229,3.15V221.5H-.2V207.056Zm14.905,14.6a4.061,4.061,0,0,1-3.457-1.229,4.229,4.229,0,0,1-1.229-3.457v-7.529H9.865v-2.459H12.4V202.6h2.689v4.456h3.534v2.459H15.089v7.3c0,1.613.691,2.382,2,2.382a3.185,3.185,0,0,0,1.229-.231l.922,2.382a6.17,6.17,0,0,1-2.074.307Z" transform="translate(31.547 -182.695)" fill="#fff"/>
          <path id="Path" d="M30.535,208.359v2h.154a5.358,5.358,0,0,1,1.921-1.767A5.606,5.606,0,0,1,35.3,207.9a5.506,5.506,0,0,1,4.226,1.69,6.633,6.633,0,0,1,1.46,4.456v8.912H38.218v-8.451c0-2.689-1.229-4-3.611-4a3.688,3.688,0,0,0-2.843,1.306,5.2,5.2,0,0,0-1.076,3.15v8.067H28V208.513Z" transform="translate(25.013 -183.921)" fill="#fff"/>
          <path id="Path_81889" data-name="Path 81889" d="M55.72,223.465a6.556,6.556,0,0,1-5.224-2.228,8.239,8.239,0,0,1,0-10.756A6.146,6.146,0,0,1,55.49,208.1a6.344,6.344,0,0,1,4.994,2.074,7.907,7.907,0,0,1,1.844,5.762v.461H51.187a4.888,4.888,0,0,0,1.46,3.457,4.231,4.231,0,0,0,3.073,1.229,3.74,3.74,0,0,0,3.842-2.459l2.382.922a6.339,6.339,0,0,1-2.3,2.843,7.188,7.188,0,0,1-3.918,1.076Zm3.765-9.45a4,4,0,0,0-1.076-2.382,3.879,3.879,0,0,0-3.073-1.152,3.819,3.819,0,0,0-2.535.922,4.848,4.848,0,0,0-1.537,2.535h8.221Z" transform="translate(20.265 -183.968)" fill="#fff"/>
          <path id="Path_81890" data-name="Path 81890" d="M72.489,222.959H69.8V208.284h2.612v2.382h.154a3.916,3.916,0,0,1,1.69-2,4.643,4.643,0,0,1,2.459-.768,6.587,6.587,0,0,1,2.074.384L77.714,210.9a3.069,3.069,0,0,0-1.46-.154,3.518,3.518,0,0,0-2.612,1.229,4.043,4.043,0,0,0-1.152,3.15v7.837Z" transform="translate(15.328 -183.923)" fill="#fff"/>
          <path id="Path_81891" data-name="Path 81891" d="M-34.162,189.683a6.362,6.362,0,0,1-5.916-3.15,6.519,6.519,0,0,1,0-6.684,6.593,6.593,0,0,1,5.916-3.15,6.257,6.257,0,0,1,4.533,1.767l-1.229,1.229a4.408,4.408,0,0,0-3.15-1.229,4.738,4.738,0,0,0-4.763,4.763,4.738,4.738,0,0,0,4.763,4.764,4.4,4.4,0,0,0,3.3-1.306,3.422,3.422,0,0,0,.922-2.228h-4.379v-1.844h5.993a6.21,6.21,0,0,1,.077,1.229,5.671,5.671,0,0,1-1.613,4.149,6.084,6.084,0,0,1-4.456,1.69Z" transform="translate(41 -176.692)" fill="#fff"/>
          <path id="Path_81892" data-name="Path 81892" d="M-14.482,186.726a4.28,4.28,0,0,1-2.612,4,4.25,4.25,0,0,1-4.687-.922,4.25,4.25,0,0,1-.922-4.687,4.2,4.2,0,0,1,4-2.612,4.241,4.241,0,0,1,3,1.229,4.241,4.241,0,0,1,1.229,3Zm-1.844,0a2.4,2.4,0,0,0-2.535-2.228,2.393,2.393,0,0,0-2.3,2.459,2.445,2.445,0,0,0,2.382,2.382,2.5,2.5,0,0,0,1.767-.768,3.065,3.065,0,0,0,.691-1.844Z" transform="translate(36.84 -178.038)" fill="#fff"/>
          <path id="Path_81893" data-name="Path 81893" d="M-1.782,186.726a4.28,4.28,0,0,1-2.612,4,4.25,4.25,0,0,1-4.687-.922A4.25,4.25,0,0,1-10,185.112a4.28,4.28,0,0,1,4-2.612,4.241,4.241,0,0,1,3,1.229A4.241,4.241,0,0,1-1.782,186.726Zm-1.844,0A2.4,2.4,0,0,0-6.161,184.5a2.393,2.393,0,0,0-2.3,2.459,2.445,2.445,0,0,0,2.382,2.382,2.5,2.5,0,0,0,1.767-.768A2.753,2.753,0,0,0-3.626,186.726Z" transform="translate(33.897 -178.038)" fill="#fff"/>
          <path id="Path_81894" data-name="Path 81894" d="M9.99,182.63v7.3A3.792,3.792,0,0,1,9.068,193,4.111,4.111,0,0,1,6,194.232,4,4,0,0,1,2.23,191.85l1.613-.691A2.353,2.353,0,0,0,6,192.618a1.952,1.952,0,0,0,1.767-.691,1.777,1.777,0,0,0,.538-1.69V189.7h0a3.547,3.547,0,0,1-2.3.845A4.073,4.073,0,0,1,6,182.4a2.955,2.955,0,0,1,2.228.922h0v-.691Zm-1.613,3.842a2.037,2.037,0,0,0-.615-1.69,2.858,2.858,0,0,0-1.69-.768,2.868,2.868,0,0,0-1.767.768,2.074,2.074,0,0,0-.768,1.69,1.888,1.888,0,0,0,.691,1.69A2.434,2.434,0,0,0,6,188.854a2.664,2.664,0,0,0,1.69-.768,1.981,1.981,0,0,0,.538-1.69C8.223,186.472,8.377,186.472,8.377,186.472Z" transform="translate(31.037 -178.015)" fill="#fff"/>
          <path id="Path_81895" data-name="Path 81895" d="M16.1,177.1v12.677h-2V177.1Z" transform="translate(28.234 -176.787)" fill="#fff"/>
          <path id="Path_81896" data-name="Path 81896" d="M24.69,188.162l1.306.922a3.837,3.837,0,0,1-4.456,1.69A4.252,4.252,0,0,1,18.7,186.7a4.18,4.18,0,0,1,1-3,3.65,3.65,0,0,1,2.766-1.306,3.772,3.772,0,0,1,3.381,2.689l.154.461-5.3,2.382a1.984,1.984,0,0,0,1.921,1.306,2.129,2.129,0,0,0,2.074-1.076Zm-4.149-1.69,3.534-1.613a1.613,1.613,0,0,0-1.537-.922,2.572,2.572,0,0,0-1.537.845,2.825,2.825,0,0,0-.461,1.69Z" transform="translate(27.171 -178.015)" fill="#fff"/>
        </g>
        <path id="Subtraction_1" data-name="Subtraction 1" d="M0,50V0H14.9V50H0Zm6.4-8.851a1.733,1.733,0,0,0-1.166.583,1.883,1.883,0,0,0-.5,1.333v2.082h5.331V44.4h-2V43.064a1.883,1.883,0,0,0-.5-1.333A1.358,1.358,0,0,0,6.4,41.149Zm0-5.914a1.648,1.648,0,0,0-1.166.5,1.705,1.705,0,0,0-.5,1.25V38.9h5.331v-.5H7.9v-.833l2.166-1.583v-.916L7.9,36.651a1.426,1.426,0,0,0-.5-1A1.53,1.53,0,0,0,6.4,35.235ZM4.815,29.654v3.082h5.248V29.654H9.4v2.415H7.73V29.9H7.064v2.082H5.4V29.654Zm-.5-7.912v.666L7.98,24.324,4.315,26.239v.75h6.164v-.75H5.815l3.415-1.666v-.417L5.815,22.408h4.664v-.666Zm0-4v.833h6.164v-.833Zm.5-5.831v3.165h5.248V11.913H9.4v2.415H7.73V12.246H7.064v2.082H5.4V11.913ZM6.231,5.167a1.883,1.883,0,0,0-1.333.5,1.7,1.7,0,0,0-.5,1.249v2h6.081l.249-.667H8.147V7.5l2.415-1.583V5L7.98,6.583a1.548,1.548,0,0,0-.583-1A1.822,1.822,0,0,0,6.231,5.167Zm1,39.23H5.481V43.064a.844.844,0,0,1,.25-.75.856.856,0,0,1,.667-.334,1.06,1.06,0,0,1,.583.334,1.023,1.023,0,0,1,.249.75V44.4Zm0-6.247H5.4V36.9a.84.84,0,0,1,.25-.75,1.1,1.1,0,0,1,.666-.249,1.048,1.048,0,0,1,.667.333,1.162,1.162,0,0,1,.249.75V38.15ZM7.147,8.082H4.981V6.833a1.241,1.241,0,0,1,.333-.75,1.346,1.346,0,0,1,.75-.25,1.246,1.246,0,0,1,.75.333.907.907,0,0,1,.333.75V8.081Z" fill="#fff"/>
      </g>
    </g>
    <g id="_x34_kmiles-ERP_x2F_English_xFF08_banner1_xFF09_" transform="translate(253 436)">
      <g id="编组-53" transform="translate(0 0)">
        <g id="spn" transform="translate(0 0)">
          <g id="编组-102">
            <g id="编组">
              <g id="Group_46125" data-name="Group 46125" transform="translate(15.959 28.267)">
                <path id="Fill-1" d="M117.036,277.508c-6.447,4.613-15.788,7.077-23.84,7.077a43.964,43.964,0,0,1-29.14-10.774c-.6-.516-.057-1.261.659-.831a60.246,60.246,0,0,0,29.14,7.507,59.454,59.454,0,0,0,22.235-4.413c1.117-.487,2.034.659.946,1.433" transform="translate(-63.798 -272.852)" fill="#fff" fill-rule="evenodd"/>
              </g>
              <path id="Fill-3" d="M249.6,296.39c-.745-.974-5.014-.458-6.905-.229-.573.057-.659-.43-.143-.8,3.381-2.407,8.94-1.719,9.57-.917.659.831-.172,6.476-3.352,9.169-.487.4-.946.2-.745-.344.745-1.834,2.35-5.9,1.576-6.877" transform="translate(-179.141 -266.619)" fill="#fff" fill-rule="evenodd"/>
              <path id="Fill-5" d="M242.759,222.266v-2.608a.625.625,0,0,1,.63-.659h11.232a.648.648,0,0,1,.659.659v2.235a3.677,3.677,0,0,1-.86,1.633L248.6,232.18a12.121,12.121,0,0,1,6.418,1.433,1.212,1.212,0,0,1,.6,1.032v2.779c0,.372-.4.831-.831.6a12.5,12.5,0,0,0-11.891.029c-.4.229-.8-.229-.8-.6v-2.665a3.161,3.161,0,0,1,.43-1.805l6.762-10.086h-5.874a.623.623,0,0,1-.659-.63" transform="translate(-179.063 -213.327)" fill="#fff" fill-rule="evenodd"/>
              <path id="Fill-7" d="M92.926,239.329H89.6a.672.672,0,0,1-.6-.6v-18.6a.648.648,0,0,1,.659-.659h3.123a.675.675,0,0,1,.6.63v2.436h.057c.8-2.35,2.35-3.438,4.413-3.438,2.092,0,3.41,1.089,4.327,3.438a4.764,4.764,0,0,1,4.613-3.438,4.639,4.639,0,0,1,3.868,2.034c1.06,1.576.831,3.84.831,5.817V238.67a.643.643,0,0,1-.63.659H107.51a.657.657,0,0,1-.6-.659v-9.857a28.341,28.341,0,0,0-.086-3.5,1.774,1.774,0,0,0-1.977-1.6,2.234,2.234,0,0,0-2.006,1.519,12.09,12.09,0,0,0-.315,3.553v9.857a.643.643,0,0,1-.63.659H98.542a.657.657,0,0,1-.6-.659v-9.857c0-2.063.315-5.129-2.063-5.129-2.407,0-2.321,2.98-2.321,5.129v9.857a.618.618,0,0,1-.63.688" transform="translate(-69.831 -213.398)" fill="#fff" fill-rule="evenodd"/>
              <path id="Fill-9" d="M305.051,222.725c-2.55,0-2.722,3.582-2.722,5.788,0,2.235-.029,6.991,2.693,6.991,2.693,0,2.808-3.84,2.808-6.189a17.09,17.09,0,0,0-.516-4.842,2.164,2.164,0,0,0-2.264-1.748M305.022,219c5.158,0,7.937,4.527,7.937,10.287,0,5.559-3.095,9.971-7.937,9.971-5.072,0-7.822-4.527-7.822-10.172,0-5.673,2.779-10.086,7.822-10.086" transform="translate(-218.375 -213.327)" fill="#fff" fill-rule="evenodd"/>
              <path id="Fill-11" d="M367.868,239.258H364.6a.657.657,0,0,1-.6-.659V220a.63.63,0,0,1,.63-.6h3.037a.639.639,0,0,1,.573.516v2.837h.057c.917-2.55,2.206-3.754,4.47-3.754a4.26,4.26,0,0,1,3.84,2.178c.859,1.49.859,3.983.859,5.788v11.691a.625.625,0,0,1-.63.573h-3.3a.616.616,0,0,1-.573-.573V228.57c0-2.034.229-5.014-2.063-5.014a2.106,2.106,0,0,0-1.891,1.49,9.081,9.081,0,0,0-.516,3.524v10a.65.65,0,0,1-.63.688" transform="translate(-266.034 -213.327)" fill="#fff" fill-rule="evenodd"/>
              <path id="Fill-13" d="M193.283,239.043a.739.739,0,0,1-.831.086,9.125,9.125,0,0,1-2.034-2.35c-1.948,1.977-3.324,2.579-5.817,2.579-2.98,0-5.3-1.834-5.3-5.53a6.012,6.012,0,0,1,3.754-5.788c1.92-.831,4.585-1,6.648-1.232v-.458a4.7,4.7,0,0,0-.43-2.579,2.338,2.338,0,0,0-1.977-.917,2.68,2.68,0,0,0-2.837,2.12.763.763,0,0,1-.6.659l-3.41-.372a.609.609,0,0,1-.516-.745c.774-4.183,4.527-5.415,7.908-5.415a7.993,7.993,0,0,1,5.329,1.777c1.719,1.6,1.547,3.754,1.547,6.1v5.53a4.865,4.865,0,0,0,1.347,3.3.673.673,0,0,1,0,.946c-.774.544-2.063,1.662-2.779,2.292Zm-3.553-8.653a7.027,7.027,0,0,1-.659,3.754,2.871,2.871,0,0,1-2.436,1.6c-1.347,0-2.149-1.032-2.149-2.579,0-3.009,2.693-3.582,5.244-3.582Z" transform="translate(-134.257 -213.398)" fill="#fff" fill-rule="evenodd"/>
              <path id="Fill-15" d="M36.083,238.971a.739.739,0,0,1-.831.086,9.127,9.127,0,0,1-2.034-2.35c-1.948,1.977-3.324,2.579-5.817,2.579-2.98,0-5.3-1.834-5.3-5.53a6.012,6.012,0,0,1,3.754-5.788c1.92-.831,4.585-1,6.648-1.232v-.458a4.7,4.7,0,0,0-.43-2.579,2.338,2.338,0,0,0-1.977-.917,2.68,2.68,0,0,0-2.837,2.12.763.763,0,0,1-.6.659l-3.41-.372a.609.609,0,0,1-.516-.745C23.5,220.261,27.258,219,30.61,219a7.994,7.994,0,0,1,5.33,1.776c1.719,1.6,1.547,3.754,1.547,6.1v5.53a4.865,4.865,0,0,0,1.347,3.3.673.673,0,0,1,0,.946c-.745.573-2.034,1.691-2.751,2.321Zm-3.553-8.653a7.027,7.027,0,0,1-.659,3.754,2.871,2.871,0,0,1-2.436,1.6c-1.347,0-2.149-1.032-2.149-2.579,0-3.009,2.693-3.582,5.244-3.582Z" transform="translate(-22.1 -213.327)" fill="#fff" fill-rule="evenodd"/>
              <path id="Fill-17" d="M498.1,210.031a7.34,7.34,0,0,0-1.433,4.842,7.9,7.9,0,0,0,1.375,4.9,5.6,5.6,0,0,0,4.7,2.034,5.465,5.465,0,0,0,4.527-2.006,7.408,7.408,0,0,0,1.433-4.7v-.344a7.38,7.38,0,0,0-1.6-4.871,5.285,5.285,0,0,0-4.212-1.862,5.721,5.721,0,0,0-4.785,2.006m13.524-10.086v22.98a.646.646,0,0,1-.688.6h-1.4a.677.677,0,0,1-.716-.63V220.69a6.992,6.992,0,0,1-6.418,3.3,8.348,8.348,0,0,1-6.619-2.751,9.371,9.371,0,0,1-2.178-6.418,9.1,9.1,0,0,1,2.178-6.275,7.971,7.971,0,0,1,6.476-2.779,7.059,7.059,0,0,1,6.39,3.639v-9.57a.677.677,0,0,1,.716-.63h1.49a.784.784,0,0,1,.774.745" transform="translate(-358.5 -199.2)" fill="#fff" fill-rule="evenodd"/>
              <path id="Fill-33" d="M443.709,230.49a4.852,4.852,0,0,1-1.948,3.754,6.761,6.761,0,0,1-4.5,1.691,4.363,4.363,0,0,1-2.693-.8,2.534,2.534,0,0,1-1-2.063c0-2.636,2.006-3.954,6.017-4.04l4.126-.057Zm1.175-9.456c-1.261-1.375-3.123-2.034-5.673-2.034a12.219,12.219,0,0,0-2.12.172h0a12.374,12.374,0,0,0-4.785,1.834.513.513,0,0,0-.2.659l.516,1.06a.523.523,0,0,0,.716.229,17.194,17.194,0,0,1,4.269-1.547,7.448,7.448,0,0,1,1.433-.115c3.123,0,4.67,1.519,4.67,4.556v.946l-4.3.057c-2.693.029-4.785.4-6.246,1.4a5.4,5.4,0,0,0-2.464,4.814,4.565,4.565,0,0,0,1.662,3.639,6.346,6.346,0,0,0,4.3,1.375,8.924,8.924,0,0,0,4.47-1.117,7.987,7.987,0,0,0,2.722-2.436v2.378a.7.7,0,0,0,.688.688h1.232a.7.7,0,0,0,.688-.688V225.934a7.006,7.006,0,0,0-1.576-4.9Z" transform="translate(-313.623 -213.327)" fill="#fff" fill-rule="evenodd"/>
              <path id="Fill-35" d="M564.4,234.831a.519.519,0,0,1,.8-.43,8.646,8.646,0,0,0,4.5,1.232c2.521,0,4.241-.831,4.241-2.464a2.131,2.131,0,0,0-.831-1.719,17.545,17.545,0,0,0-3.811-1.6,9.363,9.363,0,0,1-3.954-2.407,4.63,4.63,0,0,1-.917-2.865,4.771,4.771,0,0,1,2.063-4.011,8.55,8.55,0,0,1,5.072-1.461,11.513,11.513,0,0,1,4.011.831.527.527,0,0,1,.344.487v1.862a.523.523,0,0,1-.774.458,8.85,8.85,0,0,0-3.9-1.031,5.69,5.69,0,0,0-2.837.659,2.437,2.437,0,0,0-1.117,1.92,2.07,2.07,0,0,0,.716,1.691,19.294,19.294,0,0,0,3.553,1.547,10.674,10.674,0,0,1,4.155,2.35,4.36,4.36,0,0,1,1.089,3.009,4.518,4.518,0,0,1-2.063,3.926,9.251,9.251,0,0,1-5.358,1.433,11.317,11.317,0,0,1-4.67-.917.5.5,0,0,1-.315-.487Z" transform="translate(-409.013 -213.398)" fill="#fff" fill-rule="evenodd"/>
            </g>
          </g>
        </g>
      </g>
    </g>
    <g id="Group_46481" data-name="Group 46481" transform="translate(634 -265)">
      <g id="Group_46120" data-name="Group 46120" transform="translate(348 696)">
        <path id="Subtraction_2" data-name="Subtraction 2" d="M0,50V0H18.189V50H0ZM7.072,35.491h0c.054.027.124.054.2.083a1.506,1.506,0,0,1,.5.268c.088.088.222.2.352.308s.261.217.348.3c.131.175.265.331.394.482s.263.307.394.481l.037.047c.332.415.673.842.926,1.179a8,8,0,0,0,.875.788,2.376,2.376,0,0,0,.963.437,4.425,4.425,0,0,0,1.139.175h.525V33.915h-1.05V38.9h-.007a1.712,1.712,0,0,1-.694-.088,1.109,1.109,0,0,1-.613-.35c-.041-.041-.087-.082-.135-.125a1.86,1.86,0,0,1-.477-.575,7.333,7.333,0,0,1-.876-1.138l-.007-.01a9.194,9.194,0,0,0-.781-.953,5.667,5.667,0,0,0-.787-.7,2.389,2.389,0,0,0-.963-.438,4.309,4.309,0,0,1-.453-.039,5.319,5.319,0,0,0-.6-.048,2.4,2.4,0,0,0-1.139.175c-.057.038-.116.075-.179.114a1.957,1.957,0,0,0-.608.5,2.662,2.662,0,0,0-.526.963,4.95,4.95,0,0,0-.175,1.138,3.3,3.3,0,0,0,.263,1.4,2.777,2.777,0,0,0,.7,1.05H5.847l-.267-.267-.259-.258a5.018,5.018,0,0,1-.348-.609c-.045-.091-.09-.2-.132-.308s-.088-.22-.132-.308a1.73,1.73,0,0,0-.044-.307,1.917,1.917,0,0,1,.044-1.007,1.407,1.407,0,0,1,.35-.613.826.826,0,0,1,.416-.3c.039-.018.075-.034.109-.051l.129-.045a1.744,1.744,0,0,1,.659-.13c.355,0,.612,0,.7-.088ZM8.735,25.073a7.33,7.33,0,0,0-3.819.81,2.516,2.516,0,0,0-1.258,2.254,3.669,3.669,0,0,0,.35,1.4,3.023,3.023,0,0,0,1.05,1.05,7.351,7.351,0,0,0,1.655.611l.008,0A16.021,16.021,0,0,0,9,31.376a7.817,7.817,0,0,0,2.1-.175,4.362,4.362,0,0,0,1.488-.613,2.532,2.532,0,0,0,.963-.962,2.076,2.076,0,0,0,.35-1.313,3.677,3.677,0,0,0-.35-1.4,2.23,2.23,0,0,0-.963-1.051,7.365,7.365,0,0,0-1.663-.613A15.613,15.613,0,0,0,8.735,25.073ZM7.072,17.983h0c.053.026.122.053.2.081a1.5,1.5,0,0,1,.5.269c.087.087.22.2.348.3s.264.22.352.308c.131.175.265.331.394.481s.263.306.394.482.262.34.387.509a6.525,6.525,0,0,0,1.451,1.5,2.367,2.367,0,0,0,.963.438,4.468,4.468,0,0,0,1.139.175h.525V16.407h-1.05V21.4h-.007a1.713,1.713,0,0,1-.694-.088,1.114,1.114,0,0,1-.613-.35c-.041-.041-.087-.082-.136-.126a1.867,1.867,0,0,1-.477-.575,7.332,7.332,0,0,1-.876-1.138l0,0a9.329,9.329,0,0,0-.786-.96,5.692,5.692,0,0,0-.787-.7,4.241,4.241,0,0,0-.963-.35,4.308,4.308,0,0,1-.453-.039,5.319,5.319,0,0,0-.6-.048,2.4,2.4,0,0,0-1.139.175c-.057.038-.117.076-.181.116a1.931,1.931,0,0,0-.606.5,2.619,2.619,0,0,0-.526.963,5.2,5.2,0,0,0-.175,1.139,3.3,3.3,0,0,0,.263,1.4,2.78,2.78,0,0,0,.7,1.05H5.847l-.526-.525a5.012,5.012,0,0,1-.349-.613c-.044-.088-.088-.2-.131-.306s-.088-.22-.132-.307a1.729,1.729,0,0,0-.044-.306A1.917,1.917,0,0,1,4.708,19.3a1.413,1.413,0,0,1,.35-.613.827.827,0,0,1,.416-.3c.039-.018.076-.034.11-.051l.123-.043,0,0a1.741,1.741,0,0,1,.661-.131c.355,0,.612,0,.7-.174ZM3.658,9.753v.438a3.828,3.828,0,0,1,.525.613,3.571,3.571,0,0,1,.22.4,3.56,3.56,0,0,0,.218.393,3.106,3.106,0,0,0,.174.392,3.107,3.107,0,0,1,.176.4l.131.394.131.394H6.372a.944.944,0,0,0-.176-.7,1.56,1.56,0,0,1-.287-.477c-.022-.049-.042-.094-.063-.136a1.819,1.819,0,0,1-.35-.525l-.165-.165-.185-.186h8.58V9.753Zm5.165,20.66c-2.887,0-4.29-.687-4.29-2.1,0-1.355,1.4-2.013,4.29-2.013,1.855,0,3.085.31,3.656.92a1.4,1.4,0,0,1,.371,1.093C12.85,29.726,11.533,30.413,8.823,30.413Z" fill="#fff"/>
      </g>
      <g id="Group_46121" data-name="Group 46121" transform="translate(377.544 700.928)">
        <path id="Path_81845" data-name="Path 81845" d="M405.87,209.326h-1.913v4.329h-1.208v-4.329h-.906v-1.107h.906v-.7a2.065,2.065,0,0,1,2.014-2.014h.4c.1,0,.2.1.3.1v1.107c-.1,0-.1-.1-.2-.1-.1-.1-.2-.1-.4-.1a1.079,1.079,0,0,0-.6.2,1.455,1.455,0,0,0-.2.7v.6h1.913V207.01l1.208-.4v1.611h1.309v1.107h-1.41v2.517a1.174,1.174,0,0,0,.2.7.851.851,0,0,0,.6.2c.1,0,.2,0,.2-.1a.312.312,0,0,1,.2-.1v1.107c-.1.1-.2.1-.4.1a1.276,1.276,0,0,1-.6.1,1.471,1.471,0,0,1-1.208-.4,2.241,2.241,0,0,1-.4-1.309l.2-2.819Zm-8.457,1.712a1.709,1.709,0,0,0,.4,1.309,1.255,1.255,0,0,0,1.108.4,1.375,1.375,0,0,0,1.107-.4,2.328,2.328,0,0,0,0-2.618,1.255,1.255,0,0,0-1.107-.4,1.375,1.375,0,0,0-1.108.4,1.809,1.809,0,0,0-.4,1.309Zm-1.309,0a2.492,2.492,0,0,1,2.819-2.819,2.459,2.459,0,0,1,2.718,2.718,2.492,2.492,0,0,1-2.819,2.819,2.459,2.459,0,0,1-2.718-2.718Zm-2.819-1.409a.523.523,0,0,0,.2.4c.1.1.4.2.7.4a2.342,2.342,0,0,1,1.107.7,1.405,1.405,0,0,1,.3.906,1.435,1.435,0,0,1-.6,1.208,2.555,2.555,0,0,1-1.611.4,1.713,1.713,0,0,1-.7-.1c-.2-.1-.5-.1-.7-.2v-1.208a2.526,2.526,0,0,0,.7.4,1.714,1.714,0,0,0,.7.1,3.561,3.561,0,0,0,.6-.1.5.5,0,0,0,0-.805,5.6,5.6,0,0,0-.805-.4,2.569,2.569,0,0,1-1.007-.7,1.405,1.405,0,0,1-.3-.906,1.435,1.435,0,0,1,.6-1.208,2.427,2.427,0,0,1,1.51-.4,1.277,1.277,0,0,1,.6.1c.2.1.4.1.6.2v1.208l-.6-.3a1.493,1.493,0,0,0-.7-.1c-.2,0-.4.1-.6.1v.3Zm-6.142,1.409a1.708,1.708,0,0,0,.4,1.309,1.254,1.254,0,0,0,1.107.4,1.375,1.375,0,0,0,1.108-.4,2.328,2.328,0,0,0,0-2.618,1.255,1.255,0,0,0-1.108-.4,1.375,1.375,0,0,0-1.107.4c-.3.2-.4.6-.4,1.309Zm-1.409,0a2.492,2.492,0,0,1,2.819-2.819,2.459,2.459,0,0,1,2.718,2.718,2.492,2.492,0,0,1-2.819,2.819,2.743,2.743,0,0,1-2.014-.7,3.243,3.243,0,0,1-.7-2.014Zm-.4-2.819h.2c.1,0,.1.1.2.1v1.309a.37.37,0,0,0-.3-.1.605.605,0,0,0-.4-.1.916.916,0,0,0-.805.4,1.935,1.935,0,0,0-.3,1.208v2.718h-1.208v-5.437h1.208v.906h0a1.807,1.807,0,0,1,.5-.7c.2-.3.5-.3.906-.3Zm-4.933,4.43c.2,0,.4-.1.6-.1a2.107,2.107,0,0,0,.6-.4v1.208a1.455,1.455,0,0,1-.7.2,2.562,2.562,0,0,1-3.524-2.517,2.836,2.836,0,0,1,.7-2.114,2.537,2.537,0,0,1,2.114-.805,1.713,1.713,0,0,1,.7.1c.2.1.4.1.6.2v1.208l-.6-.3a1.277,1.277,0,0,0-.6-.1,1.668,1.668,0,0,0-1.208.5,1.708,1.708,0,0,0-.4,1.309,1.471,1.471,0,0,0,.4,1.208,2.023,2.023,0,0,0,1.309.4Zm-3.826-4.43v5.437h-1.208v-5.437Zm-1.409-1.51a.769.769,0,0,1,.2-.5.851.851,0,0,1,.6-.2,1.431,1.431,0,0,1,.6.2c.2.1.2.3.2.5a.769.769,0,0,1-.2.5.851.851,0,0,1-.6.2,1.432,1.432,0,0,1-.6-.2.651.651,0,0,1-.2-.5Zm-1.107-.6v7.551h-1.309v-5.94h0l-2.316,5.94h-.906l-2.416-5.94h0v5.94H366V206.1h1.913l2.114,5.537h0l2.215-5.537Z" transform="translate(-351.259 -203.745)" fill="#fff"/>
        <path id="Path_81846" data-name="Path 81846" d="M355.149,209.049H349.7V203.6h5.449Z" transform="translate(-349.7 -203.6)" fill="#fff"/>
        <path id="Path_81847" data-name="Path 81847" d="M361.75,209.049H356.3V203.6h5.449Z" transform="translate(-350.204 -203.6)" fill="#fff"/>
        <path id="Path_81848" data-name="Path 81848" d="M355.149,215.642H349.7V210.1h5.449Z" transform="translate(-349.7 -204.096)" fill="#fff"/>
        <path id="Path_81849" data-name="Path 81849" d="M361.75,215.642H356.3V210.1h5.449Z" transform="translate(-350.204 -204.096)" fill="#fff"/>
        <g id="Group_46663" data-name="Group 46663" transform="translate(65.455 2.217)">
          <path id="Path_81850" data-name="Path 81850" d="M432.456,211.412l-1.139-3.189c0-.114-.114-.228-.114-.456h0c0,.228-.114.342-.114.456l-1.025,3.189Zm2.62,2.961h-1.367l-.684-2.05H429.95l-.684,2.05H427.9l2.961-7.973h1.481l2.734,7.973Z" transform="translate(-427.9 -205.944)" fill="#fff"/>
          <path id="Path_81851" data-name="Path 81851" d="M438.928,211.923v-.683a1.237,1.237,0,0,0-.456-1.025,1.443,1.443,0,0,0-1.025-.456,1.582,1.582,0,0,0-1.139.57,2.536,2.536,0,0,0-.456,1.481,1.816,1.816,0,0,0,.456,1.367,1.237,1.237,0,0,0,1.025.456,1.11,1.11,0,0,0,1.025-.456,1.451,1.451,0,0,0,.57-1.253Zm1.253,2.506h-1.253V213.4h0a2.11,2.11,0,0,1-1.936,1.025,2.049,2.049,0,0,1-1.709-.8,2.973,2.973,0,0,1-.683-2.05,3.615,3.615,0,0,1,.683-2.278,2.124,2.124,0,0,1,1.823-.8,1.681,1.681,0,0,1,1.708.911h0V206h1.253l.114,8.429Z" transform="translate(-426.969 -206)" fill="#fff"/>
          <path id="Path_81852" data-name="Path 81852" d="M445.981,208.5l-2.164,5.7H442.45l-2.05-5.7h1.367l1.253,3.987a1.938,1.938,0,0,1,.114.8h0c0-.228.114-.456.114-.683l1.367-3.986,1.367-.114Z" transform="translate(-426.162 -205.652)" fill="#fff"/>
          <path id="Path_81853" data-name="Path 81853" d="M449.573,210.792a1.392,1.392,0,0,0-.342-1.025,1.122,1.122,0,0,0-1.709.114,1.7,1.7,0,0,0-.455,1.025l2.506-.114Zm1.253.911h-3.873a1.713,1.713,0,0,0,.455,1.253,1.822,1.822,0,0,0,1.253.456,3.069,3.069,0,0,0,1.709-.569v1.025a3.653,3.653,0,0,1-2.05.456,2.346,2.346,0,0,1-1.936-.8,3.083,3.083,0,0,1-.684-2.164,3.007,3.007,0,0,1,.8-2.164,2.5,2.5,0,0,1,1.936-.8,2.124,2.124,0,0,1,1.822.8,2.972,2.972,0,0,1,.683,2.05l-.114.456Z" transform="translate(-425.426 -205.666)" fill="#fff"/>
          <path id="Path_81854" data-name="Path 81854" d="M454.489,209.781a.963.963,0,0,0-.683-.228,1.036,1.036,0,0,0-.911.456,2.428,2.428,0,0,0-.342,1.367v2.734H451.3v-5.7h1.253v1.139h0a1.8,1.8,0,0,1,.569-.911,1.23,1.23,0,0,1,.8-.342.854.854,0,0,1,.57.114v1.367Z" transform="translate(-424.647 -205.68)" fill="#fff"/>
          <path id="Path_81855" data-name="Path 81855" d="M458.331,214.29a2.274,2.274,0,0,1-1.025.228c-1.139,0-1.595-.456-1.595-1.595v-3.189H454.8v-1.025h.911v-1.367l1.253-.342v1.709h1.367v1.025h-1.367v2.848a.805.805,0,0,0,.911.911.87.87,0,0,0,.57-.228v1.025Z" transform="translate(-424.16 -205.861)" fill="#fff"/>
          <path id="Path_81856" data-name="Path 81856" d="M460.067,214.387h-1.253v-5.7h1.253v5.7Zm-.57-6.72a.869.869,0,0,1-.569-.228.569.569,0,0,1,0-.911.826.826,0,0,1,1.139,0,.57.57,0,0,1,0,.911c-.228.114-.342.228-.57.228Z" transform="translate(-423.619 -205.958)" fill="#fff"/>
          <path id="Path_81857" data-name="Path 81857" d="M461.1,213.981v-1.253a2.722,2.722,0,0,0,1.595.569c.8,0,1.139-.228,1.139-.683a.418.418,0,0,0-.114-.342l-.228-.228c-.114-.114-.228-.114-.456-.228-.114-.114-.342-.114-.455-.228a1.62,1.62,0,0,0-.683-.228,1.573,1.573,0,0,1-.456-.342.592.592,0,0,1-.228-.456.854.854,0,0,1-.114-.57,1.618,1.618,0,0,1,.228-.683.889.889,0,0,1,.456-.456l.683-.342a1.938,1.938,0,0,1,.8-.114,4.9,4.9,0,0,1,1.367.228v1.139a2.791,2.791,0,0,0-1.367-.456.861.861,0,0,0-.456.114c-.114,0-.228.114-.342.114l-.228.228c-.114.114-.114.114-.114.228s0,.228.114.228.114.114.228.228a.418.418,0,0,0,.342.114c.114.114.228.114.456.114a1.619,1.619,0,0,0,.683.228,1.573,1.573,0,0,1,.456.342.592.592,0,0,1,.228.456c.114.114.114.342.114.684a1.646,1.646,0,0,1-.228.8.936.936,0,0,1-.57.57,1.646,1.646,0,0,1-.8.228,2.219,2.219,0,0,1-.911.114c-.114.228-.683.114-1.139-.114Z" transform="translate(-423.285 -205.666)" fill="#fff"/>
          <path id="Path_81858" data-name="Path 81858" d="M466.967,214.387h-1.253v-5.7h1.253v5.7Zm-.569-6.72a.87.87,0,0,1-.57-.228.569.569,0,0,1,0-.911.826.826,0,0,1,1.139,0,.569.569,0,0,1,0,.911.87.87,0,0,1-.569.228Z" transform="translate(-422.659 -205.958)" fill="#fff"/>
          <path id="Path_81859" data-name="Path 81859" d="M473.412,214.1h-1.253v-3.189c0-1.025-.342-1.595-1.139-1.595a1.237,1.237,0,0,0-1.025.456,1.377,1.377,0,0,0-.342,1.139v3.3H468.4v-5.7h1.253v.911h0a2.052,2.052,0,0,1,1.822-1.025,1.706,1.706,0,0,1,1.367.57,2.745,2.745,0,0,1,.456,1.709V214.1Z" transform="translate(-422.27 -205.666)" fill="#fff"/>
          <path id="Path_81860" data-name="Path 81860" d="M478.114,211.6v-.683a1.237,1.237,0,0,0-.456-1.025,1.443,1.443,0,0,0-1.025-.456,1.582,1.582,0,0,0-1.139.57,2.535,2.535,0,0,0-.456,1.481,1.816,1.816,0,0,0,.456,1.367,1.381,1.381,0,0,0,2.05,0,1.83,1.83,0,0,0,.569-1.253Zm1.253,2.164q0,3.075-3.075,3.075a5.322,5.322,0,0,1-1.936-.342v-1.253a4.186,4.186,0,0,0,1.822.57c1.367,0,2.05-.683,2.05-1.936V213.2h0a2.11,2.11,0,0,1-1.936,1.025,2.049,2.049,0,0,1-1.708-.8,2.973,2.973,0,0,1-.683-2.05,3.4,3.4,0,0,1,.683-2.278,2.124,2.124,0,0,1,1.822-.8,1.779,1.779,0,0,1,1.709.911h0v-.8h1.253v5.353Z" transform="translate(-421.505 -205.68)" fill="#fff"/>
        </g>
        <path id="Path_81861" data-name="Path 81861" d="M418.431,216.979H417.6V203.6h.831Z" transform="translate(-356.43 -203.6)" fill="#fff"/>
        <g id="Group_46664" data-name="Group 46664" transform="translate(0 20.483)">
          <path id="Path_81862" data-name="Path 81862" d="M354.348,231.624v8.049H356.7a4.913,4.913,0,0,0,3.577-1.118,3.951,3.951,0,0,0,1.23-3.018c0-2.571-1.565-3.8-4.584-3.8h-2.571Zm0,9.95v7.378H352V229.5h5.366a6.862,6.862,0,0,1,4.919,1.565,5.626,5.626,0,0,1,1.789,4.36,5.736,5.736,0,0,1-1.9,4.472,7.04,7.04,0,0,1-5.143,1.789l-2.683-.112Z" transform="translate(-352 -229.5)" fill="#fff"/>
          <path id="Path_81863" data-name="Path 81863" d="M372.544,241.466l-3.354.447a5.776,5.776,0,0,0-2.348.783,2.046,2.046,0,0,0-.783,1.9,2.276,2.276,0,0,0,.671,1.677,2.63,2.63,0,0,0,1.9.671,3.4,3.4,0,0,0,2.683-1.23,4.469,4.469,0,0,0,1.118-2.907v-1.342Zm2.236,6.931h-2.236v-2.124h-.112a4.639,4.639,0,0,1-4.36,2.459,4.41,4.41,0,0,1-3.242-1.118,4.06,4.06,0,0,1-1.23-2.907c0-2.571,1.565-4.136,4.584-4.472l4.136-.559c0-2.348-1.006-3.577-2.907-3.577a6.157,6.157,0,0,0-4.472,1.789v-2.348a9.236,9.236,0,0,1,4.7-1.342c3.242,0,4.919,1.789,4.919,5.254l.224,8.943Z" transform="translate(-350.632 -228.946)" fill="#fff"/>
          <path id="Path_81864" data-name="Path 81864" d="M384.567,236.759a3.7,3.7,0,0,0-1.677-.447,2.628,2.628,0,0,0-2.348,1.342,6.025,6.025,0,0,0-1.006,3.689V248.5H377.3V234.524h2.236v2.907h.112a4.967,4.967,0,0,1,1.453-2.348,3.137,3.137,0,0,1,2.124-.783,4.168,4.168,0,0,1,1.342.224v2.236Z" transform="translate(-349.061 -228.934)" fill="#fff"/>
          <path id="Path_82065" data-name="Path 82065" d="M384.567,236.759a3.7,3.7,0,0,0-1.677-.447,2.628,2.628,0,0,0-2.348,1.342,6.025,6.025,0,0,0-1.006,3.689V248.5H377.3V234.524h2.236v2.907h.112a4.967,4.967,0,0,1,1.453-2.348,3.137,3.137,0,0,1,2.124-.783,4.168,4.168,0,0,1,1.342.224v2.236Z" transform="translate(-300.647 -228.934)" fill="#fff"/>
          <path id="Path_81865" data-name="Path 81865" d="M392.461,248.687a5.458,5.458,0,0,1-2.124.447c-2.459,0-3.689-1.341-3.689-4.136v-8.161H384.3v-1.9h2.348v-3.466l2.236-.671v4.136h3.466v1.9h-3.466v7.826a3.361,3.361,0,0,0,.447,2.012,1.741,1.741,0,0,0,1.565.671,2.247,2.247,0,0,0,1.453-.447l.112,1.789Z" transform="translate(-346.551 -229.347)" fill="#fff"/>
          <path id="Path_81866" data-name="Path 81866" d="M405.727,248.41h-2.236v-7.937c0-2.907-1.118-4.472-3.242-4.472a3.81,3.81,0,0,0-2.795,1.23,4.934,4.934,0,0,0-1.118,3.242v7.937H394.1V234.435h2.236v2.348h.112a4.967,4.967,0,0,1,4.584-2.683,4.041,4.041,0,0,1,3.466,1.453,6.855,6.855,0,0,1,1.23,4.248v8.608Z" transform="translate(-345.976 -228.957)" fill="#fff"/>
          <path id="Path_81867" data-name="Path 81867" d="M417.05,240.125a4.85,4.85,0,0,0-.894-3.018,3.368,3.368,0,0,0-2.571-1.006,3.634,3.634,0,0,0-2.683,1.118,4.7,4.7,0,0,0-1.342,2.907Zm2.348,1.9h-9.838a5.72,5.72,0,0,0,1.23,3.577,4.473,4.473,0,0,0,3.242,1.23,6.549,6.549,0,0,0,4.36-1.565v2.124a8.263,8.263,0,0,1-4.919,1.342,6.4,6.4,0,0,1-4.7-1.9,7.718,7.718,0,0,1-1.677-5.366,8.062,8.062,0,0,1,1.789-5.254,6.021,6.021,0,0,1,4.583-2.012,5.191,5.191,0,0,1,4.248,1.789,7.379,7.379,0,0,1,1.453,4.919l.224,1.118Z" transform="translate(-345.144 -228.946)" fill="#fff"/>
        </g>
      </g>
    </g>
    <g id="Group_46741" data-name="Group 46741" transform="translate(-385.138 -7.498)">
      <path id="Path_81869" data-name="Path 81869" d="M263.6,256.5h1.379v10.787H263.7v-8.272l-2.372,5.434H260.05l-2.372-5.434v8.272H256.4V256.5h1.358l2.92,6.63Z" transform="translate(1412.187 193.701)" fill="#fff"/>
      <path id="Path_81870" data-name="Path 81870" d="M314.684,277.412h-1.156l-.081-.669a4.7,4.7,0,0,1-2.555.831c-1.723,0-2.393-1.014-2.393-2.514,0-1.581.791-2.413,2.494-2.413a6.351,6.351,0,0,1,2.332.446v-1.237c0-1.034-.324-1.48-1.521-1.48a7.97,7.97,0,0,0-2.149.3l-.2-1.115a8.815,8.815,0,0,1,2.494-.365c1.865,0,2.737.811,2.737,2.575Zm-1.358-3.386a7.908,7.908,0,0,0-2.149-.345c-1.095,0-1.358.527-1.358,1.419,0,.993.324,1.46,1.257,1.46a3.925,3.925,0,0,0,2.23-.689v-1.845Z" transform="translate(1370.651 183.576)" fill="#fff"/>
      <path id="Path_81871" data-name="Path 81871" d="M354.073,270.757a9.641,9.641,0,0,0-2.514.852v6.062H350.2v-8.049h1.115l.142.933a4.113,4.113,0,0,1,2.433-1.054Z" transform="translate(1337.406 183.337)" fill="#fff"/>
      <path id="Path_81872" data-name="Path 81872" d="M376.3,264.735V253.3h1.358v7.117l2.8-3.71h1.6l-3.082,3.974,3.2,4.055h-1.6l-2.92-3.812v3.812Z" transform="translate(1316.597 196.252)" fill="#fff"/>
      <path id="Path_81873" data-name="Path 81873" d="M410.659,274.085c.081,1.7.507,2.514,2.149,2.514a6.961,6.961,0,0,0,2.372-.446l.2,1.034a7.392,7.392,0,0,1-2.6.487c-2.9,0-3.487-1.987-3.487-4.238,0-2.311.77-4.136,3.224-4.136,2.19,0,3.1,1.541,3.1,3.467v1.318Zm0-1.075h3.65v-.284c0-1.5-.466-2.393-1.8-2.393-1.5-.02-1.825,1.075-1.845,2.676" transform="translate(1290.288 183.496)" fill="#fff"/>
      <path id="Path_81874" data-name="Path 81874" d="M450.628,269.518a6.407,6.407,0,0,1-1.663.243A1.769,1.769,0,0,1,447,267.754v-5.089h-1.4v-1.095H447V259.6l1.359-.2v2.149h2.291l-.122,1.095h-2.169v5.028c0,.75.182.973.933.973a5.754,5.754,0,0,0,1.217-.162Z" transform="translate(1261.349 191.389)" fill="#fff"/>
      <path id="Path_81875" data-name="Path 81875" d="M478.312,254a.884.884,0,0,1,.912.912.873.873,0,0,1-.912.912.884.884,0,0,1-.912-.912.9.9,0,0,1,.912-.912m-.669,3.264H479v8.049h-1.359Z" transform="translate(1235.996 195.694)" fill="#fff"/>
      <path id="Path_81876" data-name="Path 81876" d="M502.124,277.412v-5.86c0-.73-.3-1.095-1.095-1.095a6.136,6.136,0,0,0-2.271.527v6.427H497.4v-8.049h1.095l.122.71a5.058,5.058,0,0,1,2.757-.872,1.949,1.949,0,0,1,2.129,2.21v6Z" transform="translate(1220.051 183.576)" fill="#fff"/>
      <path id="Path_81877" data-name="Path 81877" d="M539.521,269.462h2.555v.933l-1.075.2a2.858,2.858,0,0,1,.3,1.358c0,1.663-1.156,2.656-3,2.656a3.683,3.683,0,0,1-.852-.081.958.958,0,0,0-.365.75c0,.385.2.568.73.568h1.825A2.094,2.094,0,0,1,541.934,278c0,1.723-1.521,2.575-3.69,2.575-2.109,0-3.244-.649-3.244-2.169a1.863,1.863,0,0,1,1.277-1.723,1.247,1.247,0,0,1-.527-1.075,1.525,1.525,0,0,1,.933-1.338,2.434,2.434,0,0,1-1.379-2.311c0-1.723.994-2.656,2.98-2.656a4.566,4.566,0,0,1,1.237.162m-2.555,7.5a1.65,1.65,0,0,0-.689,1.338c0,.933.791,1.277,2.007,1.277,1.419,0,2.291-.365,2.291-1.44a1.063,1.063,0,0,0-1.216-1.115h-1.744a2.586,2.586,0,0,1-.649-.061m1.338-6.691c-1.156,0-1.7.466-1.7,1.683a1.482,1.482,0,0,0,1.7,1.683,1.522,1.522,0,0,0,1.724-1.683c0-1.176-.608-1.683-1.724-1.683" transform="translate(1190.075 183.496)" fill="#fff"/>
      <path id="Path_81878" data-name="Path 81878" d="M257.8,343.192v4.015h-1.4V336.4h3.224c2.494,0,3.406,1.419,3.406,3.386s-.912,3.386-3.406,3.386H257.8Zm0-1.135h1.784c1.622,0,2.068-.933,2.068-2.251,0-1.338-.446-2.251-2.068-2.251H257.8Z" transform="translate(1412.187 130.001)" fill="#fff"/>
      <path id="Path_81879" data-name="Path 81879" d="M298.684,357.412h-1.156l-.081-.669a4.7,4.7,0,0,1-2.555.831c-1.723,0-2.392-1.014-2.392-2.514,0-1.582.791-2.413,2.494-2.413a6.448,6.448,0,0,1,2.332.446v-1.237c0-1.034-.324-1.48-1.521-1.48a7.971,7.971,0,0,0-2.149.3l-.2-1.115a8.814,8.814,0,0,1,2.494-.365c1.865,0,2.737.811,2.737,2.575Zm-1.358-3.386a7.908,7.908,0,0,0-2.149-.345c-1.095,0-1.358.527-1.358,1.419,0,.993.324,1.46,1.257,1.46a3.924,3.924,0,0,0,2.23-.689v-1.845Z" transform="translate(1383.406 119.797)" fill="#fff"/>
      <path id="Path_81880" data-name="Path 81880" d="M338.073,350.757a9.638,9.638,0,0,0-2.514.852v6.062H334.2v-8.049h1.115l.142.933a4.115,4.115,0,0,1,2.433-1.054Z" transform="translate(1350.161 119.558)" fill="#fff"/>
      <path id="Path_81881" data-name="Path 81881" d="M361.008,349.518a6.4,6.4,0,0,1-1.663.243,1.769,1.769,0,0,1-1.967-2.007v-5.089H356v-1.095h1.4V339.6l1.358-.2v2.149h2.291l-.122,1.095h-2.17v5.028c0,.75.182.973.933.973a5.754,5.754,0,0,0,1.217-.162Z" transform="translate(1332.781 127.61)" fill="#fff"/>
      <path id="Path_81882" data-name="Path 81882" d="M393.724,357.412v-5.86c0-.73-.3-1.095-1.095-1.095a6.137,6.137,0,0,0-2.271.527v6.427H389v-8.049h1.095l.122.71a5.057,5.057,0,0,1,2.757-.872,1.949,1.949,0,0,1,2.129,2.21v6h-1.379Z" transform="translate(1306.472 119.797)" fill="#fff"/>
      <path id="Path_81883" data-name="Path 81883" d="M429.359,354.085c.081,1.7.507,2.514,2.149,2.514a6.961,6.961,0,0,0,2.372-.446l.2,1.034a7.392,7.392,0,0,1-2.6.487c-2.9,0-3.487-1.987-3.487-4.238,0-2.311.77-4.136,3.224-4.136,2.19,0,3.1,1.541,3.1,3.467v1.318Zm0-1.075h3.65v-.284c0-1.5-.466-2.393-1.8-2.393-1.521-.02-1.845,1.075-1.845,2.676" transform="translate(1275.38 119.717)" fill="#fff"/>
      <path id="Path_81884" data-name="Path 81884" d="M472.473,350.757a9.638,9.638,0,0,0-2.514.852v6.062H468.6v-8.049h1.115l.142.933a4.114,4.114,0,0,1,2.433-1.054Z" transform="translate(1243.012 119.558)" fill="#fff"/>
      <path id="Path_81885" data-name="Path 81885" d="M99.8,248.1H73.342a1.635,1.635,0,0,0-1.642,1.642V276.2a1.635,1.635,0,0,0,1.642,1.642H87.576V266.328H83.7v-4.481h3.873v-3.3c0-3.832,2.352-5.941,5.779-5.941a29.72,29.72,0,0,1,3.467.182V256.8H94.449c-1.865,0-2.23.892-2.23,2.19v2.859h4.44l-.588,4.481H92.2v11.517h7.583a1.635,1.635,0,0,0,1.642-1.642v-26.46A1.631,1.631,0,0,0,99.8,248.1" transform="translate(1559.438 200.398)" fill="#fff"/>
    </g>
  </g>
</svg>
