<svg id="maximumSales" xmlns="http://www.w3.org/2000/svg" xmlns:xlink="http://www.w3.org/1999/xlink" width="68.904" height="70" viewBox="0 0 68.904 70">
  <defs>
    <linearGradient id="linear-gradient" x1="0.5" y1="-0.17" x2="0.5" y2="1.494" gradientUnits="objectBoundingBox">
      <stop offset="0" stop-color="#6575e4"/>
      <stop offset="1" stop-color="#9257b9"/>
    </linearGradient>
  </defs>
  <path id="Path_7283" data-name="Path 7283" d="M36.843,66.811h-8.75A1.094,1.094,0,0,1,27,65.718V36.187A2.187,2.187,0,0,1,29.187,34H35.75a2.187,2.187,0,0,1,2.187,2.187v29.53A1.094,1.094,0,0,1,36.843,66.811Zm-7.656-2.187H35.75V36.187H29.187Z" transform="translate(2.531 3.189)" fill="url(#linear-gradient)"/>
  <path id="Path_7284" data-name="Path 7284" d="M23.843,65.687h-8.75A1.094,1.094,0,0,1,14,64.593V48.187A2.187,2.187,0,0,1,16.187,46H22.75a2.187,2.187,0,0,1,2.187,2.187V64.593A1.094,1.094,0,0,1,23.843,65.687ZM16.187,63.5H22.75V48.187H16.187Z" transform="translate(1.312 4.313)" fill="url(#linear-gradient)"/>
  <path id="Path_7285" data-name="Path 7285" d="M10.843,64.937H2.094A1.094,1.094,0,0,1,1,63.843V56.187A2.187,2.187,0,0,1,3.187,54H9.75a2.187,2.187,0,0,1,2.187,2.187v7.656A1.094,1.094,0,0,1,10.843,64.937ZM3.187,62.75H9.75V56.187H3.187Z" transform="translate(0.094 5.063)" fill="url(#linear-gradient)"/>
  <path id="Path_7286" data-name="Path 7286" d="M49.843,68.123h-8.75A1.094,1.094,0,0,1,40,67.03V22.187A2.187,2.187,0,0,1,42.187,20H48.75a2.187,2.187,0,0,1,2.187,2.187V67.03A1.094,1.094,0,0,1,49.843,68.123Zm-7.656-2.187H48.75V22.187H42.187Z" transform="translate(3.749 1.877)" fill="url(#linear-gradient)"/>
  <path id="Path_7287" data-name="Path 7287" d="M62.843,69.248h-8.75A1.094,1.094,0,0,1,53,68.154V10.187A2.187,2.187,0,0,1,55.187,8H61.75a2.187,2.187,0,0,1,2.187,2.187v4.375H61.75V10.187H55.187V67.061H61.75V21.125h2.187v47.03A1.094,1.094,0,0,1,62.843,69.248Z" transform="translate(4.967 0.752)" fill="url(#linear-gradient)"/>
  <path id="Path_7288" data-name="Path 7288" d="M61,16h2.187v2.189H61Z" transform="translate(5.717 1.502)" fill="url(#linear-gradient)"/>
  <path id="Path_7289" data-name="Path 7289" d="M29.912,14.356a15.37,15.37,0,0,0-.416-2.043l2.109-.582a17.421,17.421,0,0,1,.475,2.337Z" transform="translate(2.764 1.102)" fill="url(#linear-gradient)"/>
  <path id="Path_7290" data-name="Path 7290" d="M17.5,35A17.5,17.5,0,1,1,33.541,10.5l-2,.875A15.292,15.292,0,0,0,17.5,2.188h-.162A15.312,15.312,0,1,0,32.811,17.5H35A17.555,17.555,0,0,1,17.681,35Z" transform="translate(0 0.002)" fill="url(#linear-gradient)"/>
  <path id="Path_7291" data-name="Path 7291" d="M15,6h2.187V9.281H15Z" transform="translate(1.406 0.565)" fill="url(#linear-gradient)"/>
  <path id="Path_7292" data-name="Path 7292" d="M18.2,25.5H12.187V23.312H18.2a2.734,2.734,0,0,0,0-5.469H14.922a4.922,4.922,0,1,1,0-9.843h6.015v2.187H14.922a2.734,2.734,0,0,0,0,5.469H18.2a4.922,4.922,0,1,1,0,9.843Z" transform="translate(0.937 0.752)" fill="url(#linear-gradient)"/>
  <path id="Path_7293" data-name="Path 7293" d="M15,23h2.187v3.281H15Z" transform="translate(1.406 2.158)" fill="url(#linear-gradient)"/>
  <path id="Path_7294" data-name="Path 7294" d="M1,62H68.81v2.187H1Z" transform="translate(0.094 5.813)" fill="url(#linear-gradient)"/>
  <path id="Path_7295" data-name="Path 7295" d="M5.84,53.239,4.293,51.692,16.324,39.661a1.094,1.094,0,0,1,.773-.32h6.079l21.546-23.7a1.094,1.094,0,0,1,.812-.358h2.778L61.109.349l1.66,1.422L49.645,17.083a1.094,1.094,0,0,1-.83.384h-2.8l-21.548,23.7a1.094,1.094,0,0,1-.809.358H17.55Z" transform="translate(0.403 0.035)" fill="url(#linear-gradient)"/>
  <path id="Path_7296" data-name="Path 7296" d="M0,0H3.093V2.187H0Z" transform="translate(0.314 56.096) rotate(-45)" fill="url(#linear-gradient)"/>
  <path id="Path_7297" data-name="Path 7297" d="M58.562,6.562H56.375V2.187H52V0h5.469a1.094,1.094,0,0,1,1.094,1.094Z" transform="translate(4.873 0.002)" fill="url(#linear-gradient)"/>
</svg>
