<svg xmlns="http://www.w3.org/2000/svg" width="365.014" height="50" viewBox="0 0 365.014 50">
  <g id="micorsoftPartner" transform="translate(-982 -431)">
    <g id="microsoftPartner" transform="translate(634 -265)">
      <g id="Group_46120" data-name="Group 46120" transform="translate(348 696)">
        <path id="Subtraction_2" data-name="Subtraction 2" d="M0,50V0H23.256V50H0ZM9.042,35.491h0c.068.027.158.054.254.083a2.144,2.144,0,0,1,.641.268c.112.088.284.2.45.308s.333.217.445.3c.168.175.339.331.5.482s.337.307.5.481l.048.047c.424.415.86.842,1.184,1.179a9.809,9.809,0,0,0,1.119.788,3.5,3.5,0,0,0,1.231.437,7.122,7.122,0,0,0,1.456.175h.672V33.915H16.206V38.9H16.2a2.76,2.76,0,0,1-.887-.088,1.554,1.554,0,0,1-.783-.35c-.052-.041-.111-.082-.173-.125a2.063,2.063,0,0,1-.61-.575,7.915,7.915,0,0,1-1.12-1.138l-.009-.01a10.114,10.114,0,0,0-1-.953,6.987,6.987,0,0,0-1.007-.7,3.518,3.518,0,0,0-1.231-.438c-.156,0-.362-.019-.579-.039-.258-.024-.525-.048-.764-.048a3.839,3.839,0,0,0-1.456.175c-.072.038-.149.075-.229.114a2.473,2.473,0,0,0-.778.5,2.556,2.556,0,0,0-.672.963,3.96,3.96,0,0,0-.224,1.138,2.692,2.692,0,0,0,.336,1.4,2.839,2.839,0,0,0,.9,1.05H7.476l-.342-.267L6.8,39.255a4.869,4.869,0,0,1-.445-.609c-.058-.091-.114-.2-.169-.308s-.113-.22-.169-.308a1.379,1.379,0,0,0-.056-.307,1.557,1.557,0,0,1,.5-1.619A1.081,1.081,0,0,1,7,35.8c.049-.018.1-.034.14-.051l.166-.045a2.776,2.776,0,0,1,.842-.13,2.087,2.087,0,0,0,.895-.088Zm2.126-10.417a11.572,11.572,0,0,0-4.883.81,2.461,2.461,0,0,0-1.609,2.254,3.049,3.049,0,0,0,.448,1.4,3.569,3.569,0,0,0,1.343,1.05,11.165,11.165,0,0,0,2.116.611l.011,0a26.09,26.09,0,0,0,2.91.175,12.7,12.7,0,0,0,2.686-.175,6.535,6.535,0,0,0,1.9-.613,2.976,2.976,0,0,0,1.231-.962,1.759,1.759,0,0,0,.448-1.313,3.056,3.056,0,0,0-.448-1.4,2.539,2.539,0,0,0-1.231-1.051,11.188,11.188,0,0,0-2.126-.613A25.42,25.42,0,0,0,11.169,25.073ZM9.042,17.983h0c.068.026.157.053.251.081a2.142,2.142,0,0,1,.645.269c.111.087.281.2.445.3s.338.22.45.308c.168.175.339.331.5.481s.336.306.5.482.335.34.5.509a7.9,7.9,0,0,0,.736.717,8.851,8.851,0,0,0,1.119.788,3.478,3.478,0,0,0,1.231.438,7.192,7.192,0,0,0,1.456.175h.672V16.407H16.206V21.4H16.2a2.762,2.762,0,0,1-.887-.088,1.561,1.561,0,0,1-.783-.35c-.052-.041-.111-.082-.173-.126a2.069,2.069,0,0,1-.61-.575,7.914,7.914,0,0,1-1.12-1.138l0,0a10.261,10.261,0,0,0-1-.96,7.022,7.022,0,0,0-1.007-.7,6.463,6.463,0,0,0-1.231-.35c-.156,0-.362-.019-.579-.039-.258-.024-.525-.048-.764-.048a3.851,3.851,0,0,0-1.456.175c-.073.038-.15.076-.232.116a2.438,2.438,0,0,0-.775.5,2.507,2.507,0,0,0-.672.963,4.162,4.162,0,0,0-.224,1.139,2.692,2.692,0,0,0,.336,1.4,2.842,2.842,0,0,0,.9,1.05H7.476L6.8,21.835a4.861,4.861,0,0,1-.447-.613c-.056-.088-.113-.2-.168-.306s-.113-.22-.168-.307a1.379,1.379,0,0,0-.056-.306,1.557,1.557,0,0,1,.5-1.62,1.084,1.084,0,0,1,.532-.3c.049-.018.1-.034.14-.051L7.3,18.29l.006,0a2.77,2.77,0,0,1,.845-.131c.454,0,.783,0,.895-.174ZM4.677,9.753v.438a4.286,4.286,0,0,1,.672.613,3.444,3.444,0,0,1,.281.4,3.431,3.431,0,0,0,.279.393,2.821,2.821,0,0,0,.223.392,2.823,2.823,0,0,1,.225.4l.168.394.168.394H8.147a.8.8,0,0,0-.224-.7,1.542,1.542,0,0,1-.367-.477c-.028-.049-.054-.094-.08-.136a1.856,1.856,0,0,1-.448-.525l-.211-.165-.237-.186h10.97V9.753Zm6.6,20.66c-3.691,0-5.485-.687-5.485-2.1,0-1.355,1.794-2.013,5.485-2.013,2.371,0,3.944.31,4.674.92a1.229,1.229,0,0,1,.474,1.093C16.43,29.726,14.746,30.413,11.281,30.413Z" fill="#fff"/>
      </g>
      <g id="Group_46121" data-name="Group 46121" transform="translate(385.775 700.928)">
        <path id="Path_81845" data-name="Path 81845" d="M416.976,209.326h-2.446v4.329h-1.545v-4.329h-1.159v-1.107h1.159v-.7a1.672,1.672,0,0,1,.772-1.41,2.679,2.679,0,0,1,1.8-.6h.515c.129,0,.257.1.386.1v1.107c-.129,0-.129-.1-.257-.1-.129-.1-.258-.1-.515-.1a1.645,1.645,0,0,0-.772.2,1.233,1.233,0,0,0-.258.7v.6h2.446V207.01l1.545-.4v1.611h1.673v1.107h-1.8v2.517a1,1,0,0,0,.257.7,1.283,1.283,0,0,0,.772.2c.129,0,.258,0,.258-.1a.458.458,0,0,1,.258-.1v1.107c-.129.1-.258.1-.515.1a2.043,2.043,0,0,1-.772.1,2.213,2.213,0,0,1-1.545-.4,1.931,1.931,0,0,1-.515-1.309l.257-2.819Zm-10.813,1.712a1.484,1.484,0,0,0,.515,1.309,1.862,1.862,0,0,0,1.416.4,2.056,2.056,0,0,0,1.416-.4,1.921,1.921,0,0,0,0-2.618,1.862,1.862,0,0,0-1.416-.4,2.056,2.056,0,0,0-1.416.4,1.579,1.579,0,0,0-.515,1.309Zm-1.673,0a2.485,2.485,0,0,1,.9-2.114,4.292,4.292,0,0,1,2.7-.7,4.135,4.135,0,0,1,2.575.7,2.415,2.415,0,0,1,.9,2.014,2.485,2.485,0,0,1-.9,2.114,4.292,4.292,0,0,1-2.7.7,4.135,4.135,0,0,1-2.575-.7,2.415,2.415,0,0,1-.9-2.014Zm-3.6-1.409a.5.5,0,0,0,.257.4c.129.1.515.2.9.4a3.168,3.168,0,0,1,1.416.7,1.222,1.222,0,0,1,.386.906,1.362,1.362,0,0,1-.772,1.208,3.982,3.982,0,0,1-2.06.4,2.757,2.757,0,0,1-.9-.1c-.257-.1-.644-.1-.9-.2v-1.208a3.549,3.549,0,0,0,.9.4,2.758,2.758,0,0,0,.9.1,5.72,5.72,0,0,0,.772-.1.444.444,0,0,0,0-.805,8.077,8.077,0,0,0-1.03-.4,3.4,3.4,0,0,1-1.287-.7,1.222,1.222,0,0,1-.386-.906,1.362,1.362,0,0,1,.772-1.208,3.771,3.771,0,0,1,1.931-.4,2.044,2.044,0,0,1,.772.1c.257.1.515.1.772.2v1.208l-.772-.3a2.4,2.4,0,0,0-.9-.1c-.258,0-.515.1-.772.1v.3Zm-7.852,1.409a1.484,1.484,0,0,0,.515,1.309,1.861,1.861,0,0,0,1.416.4,2.056,2.056,0,0,0,1.416-.4,1.921,1.921,0,0,0,0-2.618,1.862,1.862,0,0,0-1.416-.4,2.056,2.056,0,0,0-1.416.4c-.386.2-.515.6-.515,1.309Zm-1.8,0a2.485,2.485,0,0,1,.9-2.114,4.292,4.292,0,0,1,2.7-.7,4.135,4.135,0,0,1,2.575.7,2.415,2.415,0,0,1,.9,2.014,2.485,2.485,0,0,1-.9,2.114,4.292,4.292,0,0,1-2.7.7,4.136,4.136,0,0,1-2.575-.7,2.844,2.844,0,0,1-.9-2.014Zm-.515-2.819h.257c.129,0,.129.1.258.1v1.309a.562.562,0,0,0-.386-.1.947.947,0,0,0-.515-.1,1.3,1.3,0,0,0-1.03.4,1.631,1.631,0,0,0-.386,1.208v2.718h-1.545v-5.437h1.545v.906h0a1.9,1.9,0,0,1,.644-.7c.257-.3.643-.3,1.158-.3Zm-6.308,4.43c.257,0,.515-.1.772-.1a2.847,2.847,0,0,0,.772-.4v1.208a2.257,2.257,0,0,1-.9.2,4.041,4.041,0,0,1-1.159.1,3.751,3.751,0,0,1-2.446-.7,2.23,2.23,0,0,1-.9-1.913,2.485,2.485,0,0,1,.9-2.114,3.765,3.765,0,0,1,2.7-.805,2.757,2.757,0,0,1,.9.1c.257.1.515.1.772.2v1.208l-.772-.3a2.044,2.044,0,0,0-.772-.1,2.456,2.456,0,0,0-1.545.5,1.484,1.484,0,0,0-.515,1.309,1.3,1.3,0,0,0,.515,1.208,3.109,3.109,0,0,0,1.673.4Zm-4.892-4.43v5.437h-1.545v-5.437Zm-1.8-1.51a.693.693,0,0,1,.257-.5,1.283,1.283,0,0,1,.772-.2,2.2,2.2,0,0,1,.772.2c.258.1.258.3.258.5a.693.693,0,0,1-.258.5,1.283,1.283,0,0,1-.772.2,2.2,2.2,0,0,1-.772-.2.577.577,0,0,1-.257-.5Zm-1.416-.6v7.551h-1.673v-5.94h0l-2.961,5.94h-1.159l-3.089-5.94h0v5.94H366V206.1h2.446l2.7,5.537h0l2.832-5.537Z" transform="translate(-347.152 -203.745)" fill="#fff"/>
        <path id="Path_81846" data-name="Path 81846" d="M356.668,209.049H349.7V203.6h6.968Z" transform="translate(-349.7 -203.6)" fill="#fff"/>
        <path id="Path_81847" data-name="Path 81847" d="M363.268,209.049H356.3V203.6h6.968Z" transform="translate(-348.506 -203.6)" fill="#fff"/>
        <path id="Path_81848" data-name="Path 81848" d="M356.668,215.642H349.7V210.1h6.968Z" transform="translate(-349.7 -204.096)" fill="#fff"/>
        <path id="Path_81849" data-name="Path 81849" d="M363.268,215.642H356.3V210.1h6.968Z" transform="translate(-348.506 -204.096)" fill="#fff"/>
        <g id="Group_46663" data-name="Group 46663" transform="translate(83.69 2.217)">
          <path id="Path_81850" data-name="Path 81850" d="M433.725,211.412l-1.456-3.189c0-.114-.146-.228-.146-.456h0c0,.228-.146.342-.146.456l-1.311,3.189Zm3.35,2.961h-1.747l-.874-2.05h-3.932l-.874,2.05H427.9l3.786-7.973h1.893l3.5,7.973Z" transform="translate(-427.9 -205.944)" fill="#fff"/>
          <path id="Path_81851" data-name="Path 81851" d="M440.134,211.923v-.683a1.139,1.139,0,0,0-.583-1.025,2.1,2.1,0,0,0-1.31-.456,2.265,2.265,0,0,0-1.456.57,2.185,2.185,0,0,0-.582,1.481,1.59,1.59,0,0,0,.582,1.367,1.8,1.8,0,0,0,1.311.456,1.6,1.6,0,0,0,1.311-.456,1.343,1.343,0,0,0,.728-1.253Zm1.6,2.506h-1.6V213.4h0a3.45,3.45,0,0,1-4.66.228,2.6,2.6,0,0,1-.874-2.05,2.893,2.893,0,0,1,3.2-3.075,2.33,2.33,0,0,1,2.184.911h0V206h1.6l.146,8.429Z" transform="translate(-424.843 -206)" fill="#fff"/>
          <path id="Path_81852" data-name="Path 81852" d="M447.536,208.5l-2.767,5.7h-1.747l-2.621-5.7h1.748l1.6,3.987a1.554,1.554,0,0,1,.146.8h0c0-.228.146-.456.146-.683l1.748-3.986,1.747-.114Z" transform="translate(-422.196 -205.652)" fill="#fff"/>
          <path id="Path_81853" data-name="Path 81853" d="M450.652,210.792a1.221,1.221,0,0,0-.437-1.025,1.515,1.515,0,0,0-1.019-.342,1.475,1.475,0,0,0-1.165.456,1.555,1.555,0,0,0-.582,1.025l3.2-.114Zm1.6.911H447.3a1.514,1.514,0,0,0,.582,1.253,2.727,2.727,0,0,0,1.6.456,4.691,4.691,0,0,0,2.185-.569v1.025a5.75,5.75,0,0,1-2.621.456,3.447,3.447,0,0,1-2.476-.8,2.95,2.95,0,0,1,.145-4.328,3.687,3.687,0,0,1,2.476-.8,3.086,3.086,0,0,1,2.33.8,2.6,2.6,0,0,1,.874,2.05l-.146.456Z" transform="translate(-419.778 -205.666)" fill="#fff"/>
          <path id="Path_81854" data-name="Path 81854" d="M455.378,209.781a1.451,1.451,0,0,0-.874-.228,1.474,1.474,0,0,0-1.165.456,2.035,2.035,0,0,0-.437,1.367v2.734h-1.6v-5.7h1.6v1.139h0a1.982,1.982,0,0,1,1.748-1.253,1.345,1.345,0,0,1,.728.114v1.367Z" transform="translate(-417.222 -205.68)" fill="#fff"/>
          <path id="Path_81855" data-name="Path 81855" d="M459.315,214.29a3.587,3.587,0,0,1-1.311.228c-1.456,0-2.039-.456-2.039-1.595v-3.189H454.8v-1.025h1.165v-1.367l1.6-.342v1.709h1.747v1.025h-1.747v2.848a.849.849,0,0,0,.291.683,1.453,1.453,0,0,0,.874.228,1.291,1.291,0,0,0,.728-.228v1.025Z" transform="translate(-415.625 -205.861)" fill="#fff"/>
          <path id="Path_81856" data-name="Path 81856" d="M460.448,214.387h-1.6v-5.7h1.6v5.7Zm-.728-6.72a1.29,1.29,0,0,1-.728-.228.5.5,0,0,1,0-.911,1.278,1.278,0,0,1,1.456,0,.5.5,0,0,1,0,.911,1.8,1.8,0,0,1-.728.228Z" transform="translate(-413.846 -205.958)" fill="#fff"/>
          <path id="Path_81857" data-name="Path 81857" d="M461.1,213.981v-1.253a4.125,4.125,0,0,0,2.039.569c1.019,0,1.456-.228,1.456-.683a.365.365,0,0,0-.146-.342l-.291-.228a2.4,2.4,0,0,0-.583-.228c-.146-.114-.437-.114-.582-.228a2.487,2.487,0,0,0-.874-.228,2.039,2.039,0,0,1-.583-.342.564.564,0,0,1-.291-.456c-.146-.114-.146-.342-.146-.57a1.393,1.393,0,0,1,.291-.683,1.048,1.048,0,0,1,.583-.456l.874-.342a3.119,3.119,0,0,1,1.019-.114,7.859,7.859,0,0,1,1.748.228v1.139a4.271,4.271,0,0,0-1.748-.456,1.357,1.357,0,0,0-.583.114c-.146,0-.291.114-.437.114l-.291.228c-.146.114-.146.114-.146.228s0,.228.146.228.146.114.291.228a.636.636,0,0,0,.437.114c.146.114.291.114.583.114a2.485,2.485,0,0,0,.874.228,2.037,2.037,0,0,1,.583.342.564.564,0,0,1,.291.456c.146.114.146.342.146.684a1.4,1.4,0,0,1-.291.8,1.093,1.093,0,0,1-.728.57,2.554,2.554,0,0,1-1.019.228,3.578,3.578,0,0,1-1.165.114c-.146.228-.874.114-1.456-.114Z" transform="translate(-412.75 -205.666)" fill="#fff"/>
          <path id="Path_81858" data-name="Path 81858" d="M467.348,214.387h-1.6v-5.7h1.6v5.7Zm-.728-6.72a1.291,1.291,0,0,1-.728-.228.5.5,0,0,1,0-.911,1.278,1.278,0,0,1,1.456,0,.5.5,0,0,1,0,.911,1.29,1.29,0,0,1-.728.228Z" transform="translate(-410.697 -205.958)" fill="#fff"/>
          <path id="Path_81859" data-name="Path 81859" d="M474.808,214.1h-1.6v-3.189c0-1.025-.437-1.595-1.456-1.595a1.8,1.8,0,0,0-1.311.456,1.189,1.189,0,0,0-.437,1.139v3.3h-1.6v-5.7H470v.911h0a2.842,2.842,0,0,1,2.33-1.025,2.5,2.5,0,0,1,1.747.57,2.319,2.319,0,0,1,.583,1.709V214.1Z" transform="translate(-409.419 -205.666)" fill="#fff"/>
          <path id="Path_81860" data-name="Path 81860" d="M479.288,211.6v-.683a1.139,1.139,0,0,0-.583-1.025,2.1,2.1,0,0,0-1.311-.456,2.265,2.265,0,0,0-1.456.57,2.184,2.184,0,0,0-.583,1.481,1.59,1.59,0,0,0,.583,1.367,2.113,2.113,0,0,0,2.621,0,1.686,1.686,0,0,0,.728-1.253Zm1.6,2.164q0,3.075-3.932,3.075a8.516,8.516,0,0,1-2.476-.342v-1.253a6.475,6.475,0,0,0,2.33.57c1.748,0,2.621-.683,2.621-1.936V213.2h0a3.45,3.45,0,0,1-4.66.228,2.6,2.6,0,0,1-.874-2.05,2.928,2.928,0,0,1,.874-2.278,3.086,3.086,0,0,1,2.33-.8,2.483,2.483,0,0,1,2.185.911h0v-.8h1.6v5.353Z" transform="translate(-406.91 -205.68)" fill="#fff"/>
        </g>
        <path id="Path_81861" data-name="Path 81861" d="M418.663,216.979H417.6V203.6h1.063Z" transform="translate(-339.39 -203.6)" fill="#fff"/>
        <g id="Group_46664" data-name="Group 46664" transform="translate(0 20.483)">
          <path id="Path_81862" data-name="Path 81862" d="M355,231.624v8.049h3a7.484,7.484,0,0,0,4.574-1.118,3.585,3.585,0,0,0,1.572-3.018c0-2.571-2-3.8-5.86-3.8H355Zm0,9.95v7.378h-3V229.5h6.861c2.716,0,4.717.447,6.289,1.565a5.119,5.119,0,0,1,2.287,4.36,5.248,5.248,0,0,1-2.43,4.472,10.617,10.617,0,0,1-6.575,1.789l-3.43-.112Z" transform="translate(-352 -229.5)" fill="#fff"/>
          <path id="Path_81863" data-name="Path 81863" d="M375.035,241.466l-4.288.447a8.836,8.836,0,0,0-3,.783,1.885,1.885,0,0,0-1,1.9,2.05,2.05,0,0,0,.858,1.677,3.959,3.959,0,0,0,2.43.671,4.922,4.922,0,0,0,3.43-1.23,3.982,3.982,0,0,0,1.429-2.907v-1.342Zm2.859,6.931h-2.859v-2.124h-.143a6.391,6.391,0,0,1-5.574,2.459,6.656,6.656,0,0,1-4.145-1.118,3.691,3.691,0,0,1-1.572-2.907c0-2.571,2-4.136,5.86-4.472l5.289-.559c0-2.348-1.286-3.577-3.716-3.577a9.147,9.147,0,0,0-5.717,1.789v-2.348a14.334,14.334,0,0,1,6-1.342c4.145,0,6.289,1.789,6.289,5.254l.286,8.943Z" transform="translate(-347.019 -228.946)" fill="#fff"/>
          <path id="Path_81864" data-name="Path 81864" d="M386.591,236.759a5.784,5.784,0,0,0-2.144-.447,3.625,3.625,0,0,0-3,1.342,5.11,5.11,0,0,0-1.286,3.689V248.5H377.3V234.524h2.859v2.907h.143a4.984,4.984,0,0,1,1.858-2.348,4.726,4.726,0,0,1,2.716-.783,6.681,6.681,0,0,1,1.715.224v2.236Z" transform="translate(-341.194 -228.934)" fill="#fff"/>
          <path id="Path_82065" data-name="Path 82065" d="M386.591,236.759a5.784,5.784,0,0,0-2.144-.447,3.625,3.625,0,0,0-3,1.342,5.11,5.11,0,0,0-1.286,3.689V248.5H377.3V234.524h2.859v2.907h.143a4.984,4.984,0,0,1,1.858-2.348,4.726,4.726,0,0,1,2.716-.783,6.681,6.681,0,0,1,1.715.224v2.236Z" transform="translate(-279.293 -228.934)" fill="#fff"/>
          <path id="Path_81865" data-name="Path 81865" d="M394.734,248.687a8.657,8.657,0,0,1-2.716.447c-3.145,0-4.717-1.341-4.717-4.136v-8.161h-3v-1.9h3v-3.466l2.859-.671v4.136h4.431v1.9H390.16v7.826a2.8,2.8,0,0,0,.572,2.012,2.52,2.52,0,0,0,2,.671,3.453,3.453,0,0,0,1.858-.447l.143,1.789Z" transform="translate(-336.035 -229.347)" fill="#fff"/>
          <path id="Path_81866" data-name="Path 81866" d="M408.965,248.41h-2.859v-7.937c0-2.907-1.429-4.472-4.145-4.472a5.573,5.573,0,0,0-3.573,1.23,4.327,4.327,0,0,0-1.429,3.242v7.937H394.1V234.435h2.859v2.348h.143a6.8,6.8,0,0,1,5.86-2.683,5.287,5.287,0,0,1,6,5.7v8.608Z" transform="translate(-332.57 -228.957)" fill="#fff"/>
          <path id="Path_81867" data-name="Path 81867" d="M419.821,240.125a4.157,4.157,0,0,0-1.144-3.018,5,5,0,0,0-3.287-1.006,5.368,5.368,0,0,0-3.43,1.118,4.343,4.343,0,0,0-1.715,2.907Zm3,1.9H410.245a5.011,5.011,0,0,0,1.572,3.577,6.675,6.675,0,0,0,4.145,1.23,9.9,9.9,0,0,0,5.574-1.565v2.124a12.822,12.822,0,0,1-6.289,1.342,9.478,9.478,0,0,1-6-1.9,6.69,6.69,0,0,1-2.144-5.366,7.047,7.047,0,0,1,2.287-5.254,8.8,8.8,0,0,1,5.86-2.012,7.6,7.6,0,0,1,5.432,1.789,6.334,6.334,0,0,1,1.858,4.919l.286,1.118Z" transform="translate(-327.884 -228.946)" fill="#fff"/>
        </g>
      </g>
    </g>
    <g id="marketingPartner" transform="translate(-413.727 -7.498)">
      <path id="Path_81869" data-name="Path 81869" d="M265.635,256.5H267.4v11.6h-1.639v-8.9l-3.044,5.846h-1.639l-3.044-5.846v8.9H256.4V256.5h1.743l3.746,7.133Z" transform="translate(1422.786 193.83)" fill="#fff"/>
      <path id="Path_81870" data-name="Path 81870" d="M316.434,278.034h-1.483l-.1-.72a6.825,6.825,0,0,1-3.278.894c-2.211,0-3.07-1.091-3.07-2.7,0-1.7,1.015-2.6,3.2-2.6a9.524,9.524,0,0,1,2.992.48v-1.331c0-1.112-.416-1.592-1.951-1.592a12.074,12.074,0,0,0-2.758.327l-.26-1.2a13.34,13.34,0,0,1,3.2-.393c2.393,0,3.512.873,3.512,2.77Zm-1.743-3.643a11.94,11.94,0,0,0-2.758-.371c-1.4,0-1.743.567-1.743,1.527,0,1.069.416,1.57,1.613,1.57a5.72,5.72,0,0,0,2.862-.742v-1.985Z" transform="translate(1384.24 183.9)" fill="#fff"/>
      <path id="Path_81871" data-name="Path 81871" d="M355.169,270.852a14.056,14.056,0,0,0-3.226.916v6.522H350.2v-8.66h1.431l.182,1a5.8,5.8,0,0,1,3.122-1.134Z" transform="translate(1353.388 183.666)" fill="#fff"/>
      <path id="Path_81872" data-name="Path 81872" d="M376.3,265.6V253.3h1.743v7.656l3.59-3.992h2.055l-3.954,4.275,4.11,4.363h-2.055l-3.746-4.1v4.1Z" transform="translate(1334.077 196.332)" fill="#fff"/>
      <path id="Path_81873" data-name="Path 81873" d="M411.043,274.448c.1,1.832.65,2.7,2.758,2.7a10.465,10.465,0,0,0,3.044-.48l.26,1.112a11.11,11.11,0,0,1-3.33.524c-3.72,0-4.474-2.138-4.474-4.559,0-2.487.989-4.45,4.136-4.45,2.81,0,3.98,1.658,3.98,3.73v1.418Zm0-1.156h4.682v-.305c0-1.614-.6-2.574-2.315-2.574-1.925-.022-2.341,1.156-2.367,2.879" transform="translate(1309.662 183.822)" fill="#fff"/>
      <path id="Path_81874" data-name="Path 81874" d="M452.052,270.285a9.7,9.7,0,0,1-2.133.262c-1.769,0-2.523-.829-2.523-2.16v-5.475H445.6v-1.178h1.795v-2.116l1.743-.218v2.312h2.94l-.156,1.178h-2.784v5.41c0,.807.234,1.047,1.2,1.047a8.73,8.73,0,0,0,1.561-.175Z" transform="translate(1282.805 191.563)" fill="#fff"/>
      <path id="Path_81875" data-name="Path 81875" d="M478.571,254a1.055,1.055,0,0,1,1.171.982,1.04,1.04,0,0,1-1.171.982,1.055,1.055,0,0,1-1.171-.982,1.07,1.07,0,0,1,1.171-.982m-.859,3.512h1.743v8.66h-1.743Z" transform="translate(1259.278 195.785)" fill="#fff"/>
      <path id="Path_81876" data-name="Path 81876" d="M503.461,278.034v-6.3c0-.785-.39-1.178-1.4-1.178a9.145,9.145,0,0,0-2.914.567v6.915H497.4v-8.66h1.4l.156.764a7.373,7.373,0,0,1,3.538-.938c1.769,0,2.732.829,2.732,2.378v6.457Z" transform="translate(1244.48 183.9)" fill="#fff"/>
      <path id="Path_81877" data-name="Path 81877" d="M540.8,269.475h3.278v1l-1.379.218a2.674,2.674,0,0,1,.39,1.461c0,1.789-1.483,2.858-3.85,2.858a5.608,5.608,0,0,1-1.093-.087.986.986,0,0,0-.468.807c0,.414.26.611.937.611h2.341c1.821,0,2.939.96,2.939,2.312,0,1.854-1.951,2.77-4.735,2.77-2.706,0-4.162-.7-4.162-2.334,0-1.047.833-1.527,1.639-1.854a1.283,1.283,0,0,1-.676-1.156c0-.785.65-1.178,1.2-1.44a2.6,2.6,0,0,1-1.769-2.487c0-1.854,1.275-2.858,3.824-2.858a6.923,6.923,0,0,1,1.587.174m-3.278,8.071a1.714,1.714,0,0,0-.884,1.44c0,1,1.015,1.374,2.575,1.374,1.821,0,2.94-.393,2.94-1.549,0-.654-.442-1.2-1.561-1.2h-2.237a3.932,3.932,0,0,1-.833-.065m1.717-7.2c-1.483,0-2.185.5-2.185,1.81s.806,1.81,2.185,1.81,2.211-.567,2.211-1.81c0-1.265-.781-1.81-2.211-1.81" transform="translate(1216.662 183.822)" fill="#fff"/>
      <path id="Path_81878" data-name="Path 81878" d="M258.195,343.707v4.319H256.4V336.4h4.136c3.2,0,4.37,1.527,4.37,3.643s-1.171,3.643-4.37,3.643h-2.341Zm0-1.222h2.289c2.081,0,2.653-1,2.653-2.421,0-1.44-.572-2.421-2.653-2.421h-2.289Z" transform="translate(1422.786 131.359)" fill="#fff"/>
      <path id="Path_81879" data-name="Path 81879" d="M300.434,358.034h-1.483l-.1-.72a6.825,6.825,0,0,1-3.278.894c-2.211,0-3.07-1.091-3.07-2.7,0-1.7,1.014-2.6,3.2-2.6a9.672,9.672,0,0,1,2.992.48v-1.331c0-1.112-.416-1.592-1.951-1.592a12.075,12.075,0,0,0-2.758.327l-.26-1.2a13.337,13.337,0,0,1,3.2-.393c2.393,0,3.512.873,3.512,2.77Zm-1.743-3.643a11.939,11.939,0,0,0-2.758-.371c-1.4,0-1.743.567-1.743,1.527,0,1.069.416,1.571,1.613,1.571a5.719,5.719,0,0,0,2.862-.742v-1.985Z" transform="translate(1396.077 121.351)" fill="#fff"/>
      <path id="Path_81880" data-name="Path 81880" d="M339.169,350.852a14.051,14.051,0,0,0-3.226.916v6.522H334.2v-8.66h1.431l.182,1a5.8,5.8,0,0,1,3.122-1.134Z" transform="translate(1365.225 121.117)" fill="#fff"/>
      <path id="Path_81881" data-name="Path 81881" d="M362.426,350.285a9.691,9.691,0,0,1-2.133.262c-1.769,0-2.523-.829-2.523-2.16v-5.475H356v-1.178h1.795v-2.116l1.743-.218v2.312h2.94l-.156,1.178h-2.784v5.41c0,.807.234,1.047,1.2,1.047a8.732,8.732,0,0,0,1.561-.175Z" transform="translate(1349.096 129.013)" fill="#fff"/>
      <path id="Path_81882" data-name="Path 81882" d="M395.061,358.034v-6.3c0-.785-.39-1.178-1.4-1.178a9.148,9.148,0,0,0-2.914.567v6.915H389v-8.66h1.4l.156.763a7.373,7.373,0,0,1,3.538-.938c1.769,0,2.731.829,2.731,2.378v6.457Z" transform="translate(1324.681 121.351)" fill="#fff"/>
      <path id="Path_81883" data-name="Path 81883" d="M429.743,354.448c.1,1.832.65,2.7,2.758,2.7a10.462,10.462,0,0,0,3.044-.48l.26,1.112a11.111,11.111,0,0,1-3.33.524c-3.72,0-4.474-2.138-4.474-4.559,0-2.487.989-4.45,4.136-4.45,2.809,0,3.98,1.658,3.98,3.73v1.418Zm0-1.156h4.683v-.305c0-1.614-.6-2.574-2.315-2.574-1.951-.022-2.367,1.156-2.367,2.879" transform="translate(1295.827 121.273)" fill="#fff"/>
      <path id="Path_81884" data-name="Path 81884" d="M473.569,350.852a14.051,14.051,0,0,0-3.226.916v6.522H468.6v-8.66h1.431l.182,1a5.8,5.8,0,0,1,3.122-1.134Z" transform="translate(1265.788 121.117)" fill="#fff"/>
      <path id="Path_81885" data-name="Path 81885" d="M107.756,248.1H73.807a1.951,1.951,0,0,0-2.107,1.767v28.466a1.951,1.951,0,0,0,2.107,1.767H92.069V267.71H87.1v-4.821h4.969v-3.555c0-4.123,3.018-6.391,7.414-6.391,2.107,0,3.928.131,4.448.2v4.319h-3.044c-2.393,0-2.862.96-2.862,2.356v3.076h5.7l-.754,4.821H98V280.1h9.729a1.951,1.951,0,0,0,2.107-1.767V249.867a1.942,1.942,0,0,0-2.081-1.767" transform="translate(1559.438 200.398)" fill="#fff"/>
    </g>
  </g>
</svg>
