<svg id="onPageOptimization" xmlns="http://www.w3.org/2000/svg" width="35" height="35" viewBox="0 0 35 35">
  <g id="Group_52873" data-name="Group 52873" transform="translate(0 0)">
    <g id="Group_52863" data-name="Group 52863">
      <path id="Path_90456" data-name="Path 90456" d="M53.824,54.372H19.92a.548.548,0,0,1-.548-.548V19.92a.548.548,0,0,1,.548-.548h33.9a.548.548,0,0,1,.548.548v33.9A.548.548,0,0,1,53.824,54.372Zm-33.357-1.1H53.277V20.467H20.467Z" transform="translate(-19.372 -19.372)"/>
    </g>
    <g id="Group_52864" data-name="Group 52864" transform="translate(0 4.521)">
      <path id="Path_90457" data-name="Path 90457" d="M53.824,86.5H19.92a.548.548,0,1,1,0-1.1h33.9a.548.548,0,0,1,0,1.1Z" transform="translate(-19.372 -85.406)"/>
    </g>
    <g id="Group_52865" data-name="Group 52865" transform="translate(19.071 2.26)">
      <path id="Path_90458" data-name="Path 90458" d="M310.155,53.484H298.5a.548.548,0,0,1,0-1.1h11.655a.548.548,0,0,1,0,1.1Z" transform="translate(-297.953 -52.389)"/>
    </g>
    <g id="Group_52866" data-name="Group 52866" transform="translate(3.179 2.26)">
      <path id="Path_90459" data-name="Path 90459" d="M68.469,53.484H66.35a.548.548,0,0,1,0-1.1h2.119a.548.548,0,1,1,0,1.1Z" transform="translate(-65.802 -52.389)"/>
    </g>
    <g id="Group_52867" data-name="Group 52867" transform="translate(7.417 2.26)">
      <path id="Path_90460" data-name="Path 90460" d="M130.376,53.484h-2.119a.548.548,0,0,1,0-1.1h2.119a.548.548,0,0,1,0,1.1Z" transform="translate(-127.709 -52.389)"/>
    </g>
    <g id="Group_52868" data-name="Group 52868" transform="translate(11.655 2.26)">
      <path id="Path_90461" data-name="Path 90461" d="M192.283,53.484h-2.119a.548.548,0,0,1,0-1.1h2.119a.548.548,0,0,1,0,1.1Z" transform="translate(-189.616 -52.389)"/>
    </g>
    <g id="Group_52869" data-name="Group 52869" transform="translate(8.476 12.714)">
      <path id="Path_90462" data-name="Path 90462" d="M154.328,223.143H150.09a.548.548,0,0,1-.548-.548v-2.038L148.1,222a.548.548,0,0,1-.775,0l-3-3a.548.548,0,0,1,0-.775l1.441-1.441h-2.038a.548.548,0,0,1-.548-.548V212a.548.548,0,0,1,.548-.548h2.038l-1.441-1.441a.548.548,0,0,1,0-.774l3-3a.548.548,0,0,1,.774,0l1.441,1.441v-2.038a.548.548,0,0,1,.548-.548h4.238a.548.548,0,0,1,.548.548v2.038l1.441-1.441a.548.548,0,0,1,.775,0l3,3a.548.548,0,0,1,0,.774l-1.441,1.441h2.038a.548.548,0,0,1,.548.548v4.238a.548.548,0,0,1-.548.548h-2.038l1.441,1.441a.548.548,0,0,1,0,.775l-3,3a.548.548,0,0,1-.775,0l-1.441-1.441v2.038A.548.548,0,0,1,154.328,223.143Zm-3.69-1.1h3.143v-1.934a.548.548,0,0,1,.366-.517,5.78,5.78,0,0,0,.568-.235.548.548,0,0,1,.623.107l1.367,1.367,2.222-2.222-1.367-1.367a.548.548,0,0,1-.107-.623,5.8,5.8,0,0,0,.235-.568.548.548,0,0,1,.516-.365h1.934v-3.143H158.2a.548.548,0,0,1-.516-.365,5.812,5.812,0,0,0-.235-.568.548.548,0,0,1,.107-.623l1.367-1.367L156.7,207.4l-1.367,1.367a.548.548,0,0,1-.623.107,5.8,5.8,0,0,0-.568-.235.548.548,0,0,1-.366-.516V206.19h-3.143v1.934a.548.548,0,0,1-.365.516,5.8,5.8,0,0,0-.568.235.547.547,0,0,1-.623-.107l-1.367-1.367-2.222,2.222,1.367,1.367a.548.548,0,0,1,.107.623,5.82,5.82,0,0,0-.235.568.548.548,0,0,1-.516.365H144.28v3.143h1.934a.547.547,0,0,1,.516.366,5.8,5.8,0,0,0,.235.568.548.548,0,0,1-.107.623l-1.367,1.367,2.222,2.222,1.367-1.367a.548.548,0,0,1,.623-.107,5.806,5.806,0,0,0,.568.235.548.548,0,0,1,.366.517v1.934Z" transform="translate(-143.185 -205.095)"/>
    </g>
    <g id="Group_52870" data-name="Group 52870" transform="translate(14.833 19.071)">
      <path id="Path_90463" data-name="Path 90463" d="M238.713,303.286a2.667,2.667,0,1,1,2.667-2.667A2.67,2.67,0,0,1,238.713,303.286Zm0-4.238a1.571,1.571,0,1,0,1.571,1.571A1.573,1.573,0,0,0,238.713,299.048Z" transform="translate(-236.046 -297.953)"/>
    </g>
    <g id="Group_52871" data-name="Group 52871" transform="translate(4.238 11.655)">
      <path id="Path_90464" data-name="Path 90464" d="M81.827,209.783a.548.548,0,0,1-.548-.548V190.164a.548.548,0,0,1,1.1,0v19.071A.548.548,0,0,1,81.827,209.783Z" transform="translate(-81.279 -189.616)"/>
    </g>
    <g id="Group_52872" data-name="Group 52872" transform="translate(29.667 11.655)">
      <path id="Path_90465" data-name="Path 90465" d="M453.27,209.783a.548.548,0,0,1-.548-.548V190.164a.548.548,0,1,1,1.1,0v19.071A.548.548,0,0,1,453.27,209.783Z" transform="translate(-452.722 -189.616)"/>
    </g>
  </g>
  <g id="Group_52874" data-name="Group 52874" transform="translate(4.097 6.781)">
    <path id="Path_90466" data-name="Path 90466" d="M105.756,122.344H79.763a.548.548,0,0,1-.548-.548v-2.825a.548.548,0,0,1,.548-.548h25.994a.548.548,0,0,1,.548.548V121.8A.548.548,0,0,1,105.756,122.344Zm-25.446-1.1h24.9v-1.73H80.31Z" transform="translate(-79.215 -118.423)"/>
  </g>
</svg>
