<svg id="packagePhone" xmlns="http://www.w3.org/2000/svg" width="17.096" height="14.075" viewBox="0 0 17.096 14.075">
  <path id="Path_34872" data-name="Path 34872" d="M8.677,7.113c2.881.028,4.685-.151,4.929,3.042h3.513c0-4.946-4.314-5.613-8.533-5.613S.052,5.209.052,10.155H3.538C3.807,6.9,5.82,7.085,8.677,7.113Z" transform="translate(-0.035 -4.542)" fill="#9257b9"/>
  <path id="Path_34873" data-name="Path 34873" d="M1.759,23.826c.856,0,1.568.051,1.726-.79a2.148,2.148,0,0,0,.034-.394H0C0,23.894.788,23.826,1.759,23.826Z" transform="translate(0 -16.623)" fill="#9257b9"/>
  <path id="Path_34874" data-name="Path 34874" d="M40.814,22.642h-.033a1.88,1.88,0,0,0,.037.394c.167.776.878.728,1.73.728.976,0,1.768.064,1.768-1.122Z" transform="translate(-27.22 -16.623)" fill="#9257b9"/>
  <path id="Path_34875" data-name="Path 34875" d="M14.357,18.6v-.5c0-.222-.256-.236-.573-.236h-.517c-.316,0-.573.014-.573.236v.761H9.037v-.761c0-.222-.256-.236-.573-.236H7.947c-.316,0-.573.014-.573.236v.932a36.864,36.864,0,0,0-3.659,5v2.978a.5.5,0,0,0,.5.5h13.3a.5.5,0,0,0,.5-.5V24.022a37.523,37.523,0,0,0-3.658-4.984Zm-5.5,5.833a.485.485,0,1,1,.485-.485A.485.485,0,0,1,8.856,24.438Zm0-1.663a.485.485,0,1,1,.485-.485A.485.485,0,0,1,8.856,22.775Zm0-1.662a.485.485,0,1,1,.485-.485A.485.485,0,0,1,8.856,21.113Zm2,3.325a.485.485,0,1,1,.485-.485A.485.485,0,0,1,10.852,24.438Zm0-1.663a.485.485,0,1,1,.485-.485A.485.485,0,0,1,10.852,22.775Zm0-1.662a.485.485,0,1,1,.485-.485A.485.485,0,0,1,10.852,21.113Zm2,3.325a.485.485,0,1,1,.485-.485A.484.484,0,0,1,12.847,24.438Zm0-1.663a.485.485,0,1,1,.485-.485A.484.484,0,0,1,12.847,22.775Zm0-1.662a.485.485,0,1,1,.485-.485A.484.484,0,0,1,12.847,21.113Z" transform="translate(-2.48 -13.439)" fill="#9257b9"/>
</svg>
