<svg id="performance" xmlns="http://www.w3.org/2000/svg" width="35" height="35" viewBox="0 0 35 35">
  <path id="Path_82336" data-name="Path 82336" d="M30.917,0H4.083A4.089,4.089,0,0,0,0,4.083v21a4.089,4.089,0,0,0,4.083,4.083h8.75V31.5H9.917a1.75,1.75,0,0,0,0,3.5H25.083a1.75,1.75,0,0,0,0-3.5H22.167V29.167h8.75A4.089,4.089,0,0,0,35,25.083v-21A4.089,4.089,0,0,0,30.917,0Zm-5.25,33.25a.584.584,0,0,1-.583.583H9.917a.583.583,0,0,1,0-1.167H25.083A.584.584,0,0,1,25.667,33.25ZM21,31.5H14V29.167h7ZM30.917,28H4.083a2.92,2.92,0,0,1-2.917-2.917V24.5H33.833v.583A2.92,2.92,0,0,1,30.917,28Zm2.917-4.667H1.167V4.083A2.92,2.92,0,0,1,4.083,1.167H30.917a2.92,2.92,0,0,1,2.917,2.917Z"/>
  <path id="Path_82337" data-name="Path 82337" d="M21.25,9A12.264,12.264,0,0,0,9,21.25a.561.561,0,0,0,.027.172,1.169,1.169,0,0,0,1.154,1h4.652A1.167,1.167,0,0,0,16,21.252,5.252,5.252,0,0,1,21.251,16a5.276,5.276,0,0,1,4.1,1.981c-1.3.361-2.545.72-3.5,1.023a2.3,2.3,0,0,0-.6-.087,2.333,2.333,0,1,0,1.986,3.543c.9-.443,2.047-1.045,3.236-1.682.015.157.028.314.028.471a1.169,1.169,0,0,0,1.167,1.169h4.652a1.17,1.17,0,0,0,1.153-.985.582.582,0,0,0,.029-.181A12.264,12.264,0,0,0,21.25,9Zm-7.4,4.024A11.024,11.024,0,0,1,20.667,10.2v4.666a6.352,6.352,0,0,0-3.521,1.459l-3.3-3.3Zm.985,8.226H10.181a.561.561,0,0,0-.014-.121,11.03,11.03,0,0,1,2.856-7.281l3.3,3.3A6.361,6.361,0,0,0,14.833,21.25Zm7-6.378V10.2a11.023,11.023,0,0,1,6.818,2.827l-3.308,3.307a6.432,6.432,0,0,0-3.511-1.458Zm6.729,3.442c-1.607.88-3.512,1.912-5.006,2.677a2.305,2.305,0,0,0-.46-1.151c1.3-.388,3.105-.891,5.466-1.526Zm-7.313,4.1a1.167,1.167,0,1,1,1.167-1.167A1.168,1.168,0,0,1,21.25,22.417ZM32.319,21.25l-4.652,0a6.4,6.4,0,0,0-.1-1.062c.857-.464,1.7-.923,2.423-1.324a1.048,1.048,0,0,0-.773-1.93c-.8.214-1.728.463-2.671.72-.118-.173-.241-.34-.374-.5l3.305-3.305a11.024,11.024,0,0,1,2.856,7.276.564.564,0,0,0-.014.126Z" transform="translate(-3.75 -3.75)"/>
  <path id="Path_82338" data-name="Path 82338" d="M29.75,44H28.583a.583.583,0,1,0,0,1.167H29.75a.583.583,0,1,0,0-1.167Z" transform="translate(-11.667 -18.333)"/>
</svg>
