<svg xmlns="http://www.w3.org/2000/svg" width="18.204" height="16" viewBox="0 0 18.204 16">
  <g id="phone" transform="translate(0 -31)">
    <path id="Path_8" data-name="Path 8" d="M189,31h-4.267a3.733,3.733,0,0,0-.533,7.429v1.638a.533.533,0,0,0,.91.377l1.977-1.977H189A3.734,3.734,0,1,0,189,31Zm-4.267,4.267a.533.533,0,1,1,.533-.533A.533.533,0,0,1,184.733,35.267Zm2.133,0a.533.533,0,1,1,.533-.533A.533.533,0,0,1,186.867,35.267Zm2.133,0a.533.533,0,1,1,.533-.533A.533.533,0,0,1,189,35.267Z" transform="translate(-174.564)" fill="#fff"/>
    <path id="Path_9" data-name="Path 9" d="M11.982,113.547a1.6,1.6,0,0,0,1.6-1.6v-2.133a.533.533,0,0,0-.365-.506l-3.192-1.067a.534.534,0,0,0-.465.062l-1.357.9a9.387,9.387,0,0,1-3.829-3.829l.9-1.357a.534.534,0,0,0,.062-.465l-1.067-3.192A.533.533,0,0,0,3.769,100H1.6A1.6,1.6,0,0,0,0,101.593C0,107.737,5.837,113.547,11.982,113.547Z" transform="translate(0 -66.547)" fill="#fff"/>
  </g>
</svg>
