<svg xmlns="http://www.w3.org/2000/svg" xmlns:xlink="http://www.w3.org/1999/xlink" width="47.446" height="47.446" viewBox="0 0 47.446 47.446">
  <defs>
    <clipPath id="clip-path">
      <path id="path567" d="M0-682.665H47.446v47.446H0Z" transform="translate(0 682.665)"/>
    </clipPath>
  </defs>
  <g id="qualifiedLeads" transform="translate(0 682.665)">
    <g id="g563" transform="translate(0 -682.665)">
      <g id="g565" clip-path="url(#clip-path)">
        <g id="g571" transform="translate(-0.01 15.148)">
          <path id="path573" d="M-616.881-413.563h-44.686v-4a.423.423,0,0,1,.422-.423h32.677a.7.7,0,0,0,.7-.7.7.7,0,0,0-.7-.7h-4.127v-17.365h10.478v17.365h-3.389a.7.7,0,0,0-.7.7.7.7,0,0,0,.7.7h8.2a.423.423,0,0,1,.423.423ZM-656.332-431.4h10.479v12.028h-10.479Zm39.028,12.028h-3.423v-17.463a1.293,1.293,0,0,0-1.292-1.292h-10.577v-5.035a1.293,1.293,0,0,0-1.292-1.292h-10.674a1.293,1.293,0,0,0-1.292,1.292v4.925a.7.7,0,0,0,.7.7.7.7,0,0,0,.7-.7v-4.827h10.478v23.693h-10.478v-15.9a.7.7,0,0,0-.7-.7.7.7,0,0,0-.7.7v2.486H-656.43a1.293,1.293,0,0,0-1.292,1.292v12.126h-3.423a1.815,1.815,0,0,0-1.812,1.813v4.69a.7.7,0,0,0,.7.7h46.076a.7.7,0,0,0,.7-.7v-4.69a1.815,1.815,0,0,0-1.813-1.813" transform="translate(662.957 444.454)"/>
        </g>
        <g id="g575" transform="translate(16.881 0.018)">
          <path id="path577" d="M-61.129-66.647a1.24,1.24,0,0,0,.934-.678l1.343-2.721,1.343,2.721a1.24,1.24,0,0,0,.934.678l3,.436-2.173,2.118A1.239,1.239,0,0,0-56.1-63l.513,2.99-2.685-1.412a1.24,1.24,0,0,0-1.154,0l-2.685,1.412L-61.6-63a1.24,1.24,0,0,0-.357-1.1l-2.173-2.118Zm-1.857,3.494-.551,3.212a1.232,1.232,0,0,0,.493,1.213,1.233,1.233,0,0,0,1.306.095l2.885-1.517,2.885,1.517a1.24,1.24,0,0,0,.578.144,1.235,1.235,0,0,0,.728-.238,1.232,1.232,0,0,0,.493-1.213l-.551-3.212,2.334-2.275a1.232,1.232,0,0,0,.314-1.271,1.232,1.232,0,0,0-1-.844l-3.225-.469-1.442-2.923a1.232,1.232,0,0,0-1.112-.691,1.232,1.232,0,0,0-1.112.691l-1.442,2.923-3.225.469a1.232,1.232,0,0,0-1,.844,1.232,1.232,0,0,0,.314,1.271Z" transform="translate(65.695 71.625)"/>
        </g>
        <g id="g579" transform="translate(33.785 5.891)">
          <path id="path581" d="M0-9.3a.7.7,0,0,0,.7.7h1a.7.7,0,0,0,.7-.7.7.7,0,0,0-.7-.7H.7a.7.7,0,0,0-.7.7" transform="translate(0 10)"/>
        </g>
        <g id="g583" transform="translate(32.586 0.624)">
          <path id="path585" d="M-9.313-24.122a.693.693,0,0,0,.287-.062l.906-.411a.7.7,0,0,0,.346-.92.7.7,0,0,0-.92-.346l-.906.411a.7.7,0,0,0-.346.92.7.7,0,0,0,.633.408" transform="translate(10.008 25.924)"/>
        </g>
        <g id="g587" transform="translate(32.586 10.746)">
          <path id="path589" d="M-5.461-17.78l.906.411a.692.692,0,0,0,.287.062.7.7,0,0,0,.633-.408.7.7,0,0,0-.346-.92l-.906-.411a.7.7,0,0,0-.92.346.7.7,0,0,0,.346.92" transform="translate(5.869 19.108)"/>
        </g>
        <g id="g591" transform="translate(11.369 5.891)">
          <path id="path593" d="M-9.3-18.61h1a.7.7,0,0,0,.7-.7.7.7,0,0,0-.7-.7h-1a.7.7,0,0,0-.7.7.7.7,0,0,0,.7.7" transform="translate(10 20)"/>
        </g>
        <g id="g595" transform="translate(12.656 0.624)">
          <path id="path597" d="M-5.461-17.78l.906.411a.692.692,0,0,0,.287.062.7.7,0,0,0,.633-.408.7.7,0,0,0-.346-.92l-.906-.411a.7.7,0,0,0-.92.346.7.7,0,0,0,.346.92" transform="translate(5.869 19.108)"/>
        </g>
        <g id="g599" transform="translate(12.656 10.746)">
          <path id="path601" d="M-17.6-.833l-.906.411a.7.7,0,0,0-.346.92.7.7,0,0,0,.633.408.693.693,0,0,0,.287-.062l.906-.411a.7.7,0,0,0,.346-.92.7.7,0,0,0-.92-.346" transform="translate(18.911 0.895)"/>
        </g>
      </g>
    </g>
  </g>
</svg>
