<svg xmlns="http://www.w3.org/2000/svg" width="49.084" height="69.999" viewBox="0 0 49.084 69.999">
  <g id="qualityLeads" transform="translate(-0.001 0.001)">
    <path id="Path_82043" data-name="Path 82043" d="M137.061,40.55h.008A6.275,6.275,0,1,0,137.061,28h0a6.275,6.275,0,0,0,0,12.55Zm0-10.319h0a4.044,4.044,0,0,1,0,8.088h0s0-.021,0-.02a4.034,4.034,0,0,1,0-8.067Zm0,0" transform="translate(-112.548 -24.097)" fill="#fff"/>
    <path id="Path_82044" data-name="Path 82044" d="M242.093,12.409h.086A6.205,6.205,0,1,0,242.094,0h0a6.205,6.205,0,1,0,0,12.41Zm0-10.179h0a4.01,4.01,0,0,1,4.014,4.012,3.918,3.918,0,0,1-3.952,3.937h-.067a3.974,3.974,0,0,1,0-7.948Zm0,0" transform="translate(-202.994)" fill="#fff"/>
    <path id="Path_82045" data-name="Path 82045" d="M1.068,113.848H14.5v2.939a1.139,1.139,0,0,0,1.153,1.105H33.376a1.066,1.066,0,0,0,1.067-1.105v-2.939H48.017a1.029,1.029,0,0,0,1.067-1.059v-8.177A8.567,8.567,0,0,0,40.488,96H37.86a8.772,8.772,0,0,0-7.913,4.991A8.638,8.638,0,0,0,25.838,99.9H23.207a8.655,8.655,0,0,0-4.1,1.08A8.712,8.712,0,0,0,11.226,96H8.619A8.568,8.568,0,0,0,0,104.585v8.2a1.029,1.029,0,0,0,1.067,1.059ZM37.86,98.23h2.617a6.337,6.337,0,0,1,6.377,6.379v7.007H34.443v-3.007a8.6,8.6,0,0,0-2.5-6.132c-.056-.056-.1-.075-.159-.129A6.56,6.56,0,0,1,37.86,98.23Zm-14.652,3.9h2.627a6.34,6.34,0,0,1,4.524,1.9,6.414,6.414,0,0,1,1.853,4.568v7.053H16.734v-7.076a6.489,6.489,0,0,1,6.474-6.45ZM2.232,104.587A6.336,6.336,0,0,1,8.621,98.23h2.6a6.455,6.455,0,0,1,6.015,4.106,8.555,8.555,0,0,0-2.735,6.237v3.043H2.232Zm0,0" transform="translate(0 -82.614)" fill="#fff"/>
    <path id="Path_82046" data-name="Path 82046" d="M32.636,12.41h0a6.228,6.228,0,0,0,6.247-6.2v0A6.229,6.229,0,0,0,32.636,0h0a6.205,6.205,0,1,0,0,12.41ZM29.8,3.394a3.978,3.978,0,0,1,2.843-1.163h0a3.978,3.978,0,0,1,2.837,1.161,3.907,3.907,0,0,1,1.177,2.8,4.007,4.007,0,0,1-4.016,3.991h0A3.989,3.989,0,0,1,28.622,6.2a3.9,3.9,0,0,1,1.174-2.8Zm0,0" transform="translate(-22.71 -0.001)" fill="#fff"/>
    <path id="Path_82047" data-name="Path 82047" d="M107.872,329.277a1.1,1.1,0,0,0-.789-.314h0l-6.207-.006a1.109,1.109,0,0,0-1.114,1.107l-.02,9.924a4.741,4.741,0,0,1-4.714,4.732h-.006A4.711,4.711,0,0,1,90.336,340l.011-5.565c0-.039.005-.078.005-.118s0-.068,0-.1l.008-4.132a1.115,1.115,0,0,0-1.116-1.119h0l-6.206.019a1.113,1.113,0,0,0-1.109,1.113l-.005,4.233v0L81.9,340a13.061,13.061,0,0,0,13.081,13.087h.041a13.2,13.2,0,0,0,13.16-13.147l.007-5.159a1,1,0,0,0,0-.228l.007-4.493a1.1,1.1,0,0,0-.326-.783Zm-1.906,1.892,0,2.389-3.977.008,0-2.391Zm-17.844.029,0,2-3.975.008,0-2Zm6.9,19.658h-.034A10.833,10.833,0,0,1,84.13,340l.009-4.56,3.975-.006-.009,4.55a6.943,6.943,0,0,0,6.917,6.969h.009a6.978,6.978,0,0,0,6.943-6.963l.008-4.181,3.978-.014-.006,4.145a10.959,10.959,0,0,1-10.935,10.918Zm0,0" transform="translate(-70.481 -283.087)" fill="#fff"/>
    <path id="Path_82048" data-name="Path 82048" d="M102.385,274.135A1.138,1.138,0,0,0,103.5,273l.011-3.884A1.11,1.11,0,0,0,102.4,268h0a1.1,1.1,0,0,0-1.116,1.1l-.012,3.9a1.13,1.13,0,0,0,1.112,1.136Zm0,0" transform="translate(-87.147 -230.63)" fill="#fff"/>
    <path id="Path_82049" data-name="Path 82049" d="M132.618,298.132l2.747-2.747a1.115,1.115,0,0,0-1.577-1.577l-2.747,2.747a1.116,1.116,0,0,0,1.578,1.577Zm0,0" transform="translate(-112.486 -252.558)" fill="#fff"/>
    <path id="Path_82050" data-name="Path 82050" d="M61.667,293.091a1.115,1.115,0,0,0,0-1.577l-2.747-2.747a1.115,1.115,0,0,0-1.577,1.577l2.747,2.747A1.115,1.115,0,0,0,61.667,293.091Zm0,0" transform="translate(-49.072 -248.228)" fill="#fff"/>
    <path id="Path_82051" data-name="Path 82051" d="M235.026,273.991a1.091,1.091,0,0,0,1.116-1.084l.007-3.844A1.075,1.075,0,0,0,235.034,268h0a1.087,1.087,0,0,0-1.116,1.079l-.006,3.847a1.076,1.076,0,0,0,1.114,1.07Zm0,0" transform="translate(-201.293 -230.626)" fill="#fff"/>
    <path id="Path_82052" data-name="Path 82052" d="M266.1,292.745a1.115,1.115,0,0,0-1.577-1.577l-2.753,2.753a1.116,1.116,0,0,0,1.578,1.578Zm0,0" transform="translate(-224.989 -250.294)" fill="#fff"/>
    <path id="Path_82053" data-name="Path 82053" d="M194.074,293.23a1.115,1.115,0,0,0,.789-1.9l-2.747-2.747a1.116,1.116,0,0,0-1.578,1.577l2.747,2.747A1.109,1.109,0,0,0,194.074,293.23Zm0,0" transform="translate(-163.692 -248.062)" fill="#fff"/>
  </g>
</svg>
