<svg xmlns="http://www.w3.org/2000/svg" width="85.413" height="13.989" viewBox="0 0 85.413 13.989">
  <g id="Group_46779" data-name="Group 46779" transform="translate(-899 -5426.508)">
    <path id="Path_82321" data-name="Path 82321" d="M103.409,23.124a.83.83,0,0,1,1.579,0l1.157,3.562a.83.83,0,0,0,.789.573h3.745a.83.83,0,0,1,.488,1.5l-3.03,2.2a.828.828,0,0,0-.3.927l1.157,3.562a.829.829,0,0,1-1.276.927l-3.03-2.2a.831.831,0,0,0-.976,0l-3.03,2.2A.83.83,0,0,1,99.4,35.45l1.157-3.562a.829.829,0,0,0-.3-.927l-3.03-2.2a.83.83,0,0,1,.488-1.5h3.745a.83.83,0,0,0,.789-.573Z" transform="translate(802.113 5403.957)" fill="#f90"/>
    <path id="Path_82322" data-name="Path 82322" d="M103.409,23.124a.83.83,0,0,1,1.579,0l1.157,3.562a.83.83,0,0,0,.789.573h3.745a.83.83,0,0,1,.488,1.5l-3.03,2.2a.828.828,0,0,0-.3.927l1.157,3.562a.829.829,0,0,1-1.276.927l-3.03-2.2a.831.831,0,0,0-.976,0l-3.03,2.2A.83.83,0,0,1,99.4,35.45l1.157-3.562a.829.829,0,0,0-.3-.927l-3.03-2.2a.83.83,0,0,1,.488-1.5h3.745a.83.83,0,0,0,.789-.573Z" transform="translate(819.673 5403.957)" fill="#f90"/>
    <path id="Path_82323" data-name="Path 82323" d="M103.409,23.124a.83.83,0,0,1,1.579,0l1.157,3.562a.83.83,0,0,0,.789.573h3.745a.83.83,0,0,1,.488,1.5l-3.03,2.2a.828.828,0,0,0-.3.927l1.157,3.562a.829.829,0,0,1-1.276.927l-3.03-2.2a.831.831,0,0,0-.976,0l-3.03,2.2A.83.83,0,0,1,99.4,35.45l1.157-3.562a.829.829,0,0,0-.3-.927l-3.03-2.2a.83.83,0,0,1,.488-1.5h3.745a.83.83,0,0,0,.789-.573Z" transform="translate(837.782 5403.957)" fill="#f90"/>
    <path id="Path_82324" data-name="Path 82324" d="M103.409,23.124a.83.83,0,0,1,1.579,0l1.157,3.562a.83.83,0,0,0,.789.573h3.745a.83.83,0,0,1,.488,1.5l-3.03,2.2a.828.828,0,0,0-.3.927l1.157,3.562a.829.829,0,0,1-1.276.927l-3.03-2.2a.831.831,0,0,0-.976,0l-3.03,2.2A.83.83,0,0,1,99.4,35.45l1.157-3.562a.829.829,0,0,0-.3-.927l-3.03-2.2a.83.83,0,0,1,.488-1.5h3.745a.83.83,0,0,0,.789-.573Z" transform="translate(855.343 5403.957)" fill="#f90"/>
    <path id="Path_82325" data-name="Path 82325" d="M103.409,23.124a.83.83,0,0,1,1.579,0l1.157,3.562a.83.83,0,0,0,.789.573h3.745a.83.83,0,0,1,.488,1.5l-3.03,2.2a.828.828,0,0,0-.3.927l1.157,3.562a.829.829,0,0,1-1.276.927l-3.03-2.2a.831.831,0,0,0-.976,0l-3.03,2.2A.83.83,0,0,1,99.4,35.45l1.157-3.562a.829.829,0,0,0-.3-.927l-3.03-2.2a.83.83,0,0,1,.488-1.5h3.745a.83.83,0,0,0,.789-.573Z" transform="translate(872.903 5403.957)" fill="#f90"/>
  </g>
</svg>
