<svg xmlns="http://www.w3.org/2000/svg" width="34.995" height="35" viewBox="0 0 34.995 35">
  <g id="reportingAnalysis" transform="translate(-2.009 -2)">
    <path id="Path_90449" data-name="Path 90449" d="M36.835,8.586,30.418,2.169A.6.6,0,0,0,30,2H15.42a1.755,1.755,0,0,0-1.75,1.75V7.279a12.234,12.234,0,0,0,0,24.442V35.25A1.755,1.755,0,0,0,15.42,37H35.254A1.755,1.755,0,0,0,37,35.25V9a.6.6,0,0,0-.169-.414Zm-6.247-4.6,4.427,4.427H31.17a.583.583,0,0,1-.583-.583ZM3.17,19.5A11.1,11.1,0,0,1,13.67,8.434V19.261L6.029,26.9A11.013,11.013,0,0,1,3.17,19.5Zm3.681,8.225,7.642-7.642H25.32A11.062,11.062,0,0,1,6.851,27.725ZM35.837,35.25a.583.583,0,0,1-.583.583H15.42a.583.583,0,0,1-.583-.583V31.721A12.258,12.258,0,0,0,26.5,19.5a.583.583,0,0,0-.583-.583H14.837V3.75a.583.583,0,0,1,.583-.583h14V7.833a1.755,1.755,0,0,0,1.75,1.75h4.667Z"/>
    <path id="Path_90450" data-name="Path 90450" d="M26.583,7A.583.583,0,0,0,26,7.583V19.25a.583.583,0,0,0,.583.583H38.25a.583.583,0,0,0,.583-.583A12.263,12.263,0,0,0,26.583,7Zm.583,11.667V8.184A11.093,11.093,0,0,1,37.649,18.667Z" transform="translate(-9.996 -2.083)"/>
    <path id="Path_90451" data-name="Path 90451" d="M45.25,40a5.25,5.25,0,1,0,5.25,5.25A5.25,5.25,0,0,0,45.25,40Zm0,9.333a4.083,4.083,0,1,1,4.083-4.083A4.083,4.083,0,0,1,45.25,49.333Z" transform="translate(-15.83 -15.833)"/>
    <path id="Path_90452" data-name="Path 90452" d="M45.455,48.381l-1.338-1.338-.825.825,1.75,1.75a.583.583,0,0,0,.825,0l3.5-3.5-.825-.825Z" transform="translate(-17.202 -18.039)"/>
    <path id="Path_90453" data-name="Path 90453" d="M50,19h4.667v1.167H50Z" transform="translate(-19.996 -7.083)"/>
    <path id="Path_90454" data-name="Path 90454" d="M50,25h4.667v1.167H50Z" transform="translate(-19.996 -9.583)"/>
    <path id="Path_90455" data-name="Path 90455" d="M50,31h4.667v1.167H50Z" transform="translate(-19.996 -12.083)"/>
  </g>
</svg>
