<svg xmlns="http://www.w3.org/2000/svg" width="37.762" height="43.119" viewBox="0 0 37.762 43.119">
  <g id="retentionRate" transform="translate(-5.1 -1)">
    <g id="Group_46670" data-name="Group 46670" transform="translate(17.423 5.426)">
      <g id="Group_46669" data-name="Group 46669">
        <path id="Path_82236" data-name="Path 82236" d="M33.983,20.531a.725.725,0,0,0,.719-.065.621.621,0,0,0,.261-.653l-.653-3.855,2.809-2.679a.663.663,0,0,0,.2-.653.633.633,0,0,0-.523-.457l-3.855-.588-1.7-3.463a.675.675,0,0,0-1.176,0l-1.7,3.463-3.855.588a.633.633,0,0,0-.523.457.591.591,0,0,0,.2.653l2.809,2.679-.653,3.855a.621.621,0,0,0,.261.653.7.7,0,0,0,.719.065L30.781,18.7Zm-6.337-1.764.523-2.875a.659.659,0,0,0-.2-.588l-2.091-2.025,2.875-.392c.2,0,.392-.2.523-.327l1.307-2.613,1.307,2.613a.517.517,0,0,0,.523.327l2.875.392L33.2,15.3a.912.912,0,0,0-.2.588l.523,2.875L30.977,17.4a.49.49,0,0,0-.327-.065.589.589,0,0,0-.327.065Z" transform="translate(-23.963 -7.775)"/>
      </g>
    </g>
    <g id="Group_46672" data-name="Group 46672" transform="translate(5.1 1)">
      <g id="Group_46671" data-name="Group 46671">
        <path id="Path_82237" data-name="Path 82237" d="M42.208,42.812h-7.84V36.8a.617.617,0,0,0-.653-.653H30.71V32.817a.617.617,0,0,0-.653-.653H26.4V24.781a.3.3,0,0,1,.2-.2c3.136-.915,5.945-3.463,7.774-7.121A12.7,12.7,0,0,0,41.1,6.161V5.312a.617.617,0,0,0-.653-.653H36.917c0-1.045-.065-2.417-.131-3.071A.7.7,0,0,0,36.133,1H11.764a.7.7,0,0,0-.653.588c-.065.653-.131,2.025-.131,3.071H7.387a.617.617,0,0,0-.653.653v.915a12.551,12.551,0,0,0,6.729,11.3c1.895,3.659,4.639,6.141,7.774,7.121a.209.209,0,0,1,.2.2v7.382H17.774a.617.617,0,0,0-.653.653v3.332H14.116a.617.617,0,0,0-.653.653v5.945H5.753a.653.653,0,1,0,0,1.307H42.208a.617.617,0,0,0,.653-.653.655.655,0,0,0-.653-.653ZM39.922,6.227a11.388,11.388,0,0,1-4.508,9.146,26.534,26.534,0,0,0,1.633-9.408h2.875Zm-31.882,0V5.965h2.875a26.43,26.43,0,0,0,1.633,9.342A11.263,11.263,0,0,1,8.04,6.227ZM21.694,23.343c-2.875-.849-5.423-3.2-7.121-6.6a24.262,24.262,0,0,1-2.352-10.78c0-.915.065-2.679.131-3.659H35.61c.065,1.045.131,2.809.131,3.659a24.258,24.258,0,0,1-2.287,10.78c-1.7,3.4-4.247,5.749-7.121,6.6a1.516,1.516,0,0,0-1.176,1.437v7.382H22.87V24.781a1.683,1.683,0,0,0-1.176-1.437Zm-3.2,10.192H29.4v2.679H18.493ZM14.9,42.812V37.455H33.127v5.357Z" transform="translate(-5.1 -1)"/>
      </g>
    </g>
  </g>
</svg>
