<svg xmlns="http://www.w3.org/2000/svg" width="51.842" height="51.834" viewBox="0 0 51.842 51.834">
  <g id="satisfiedClient" transform="translate(0.005 -0.002)">
    <g id="_017---Self-Star-Rating" data-name="017---Self-Star-Rating" transform="translate(-0.005 0.002)">
      <path id="Shape" d="M33.08,28.622a.864.864,0,0,0,.568,1.632,15.555,15.555,0,1,0-10.188,0,.864.864,0,0,0,.568-1.633,13.788,13.788,0,0,1-4.118-2.289v-.941a6.5,6.5,0,0,1,4.172-6.079,7.728,7.728,0,0,0,8.935,0,6.5,6.5,0,0,1,4.172,6.079v.944A13.789,13.789,0,0,1,33.08,28.622ZM22.5,12.959a6.048,6.048,0,1,1,6.048,6.048A6.048,6.048,0,0,1,22.5,12.959Zm11.922,5.074a7.775,7.775,0,1,0-11.756,0,8.231,8.231,0,0,0-4.458,6.676,13.823,13.823,0,1,1,20.679,0,8.227,8.227,0,0,0-4.465-6.676Z" transform="translate(-2.628 -0.002)"/>
      <path id="Shape-2" data-name="Shape" d="M21.666,56.045a1.715,1.715,0,0,0,1.814.139L29.1,53.263l5.621,2.922a1.728,1.728,0,0,0,2.5-1.829l-1.068-6.162,4.518-4.355a1.728,1.728,0,0,0-.95-2.954l-6.272-.9-2.8-5.627a1.73,1.73,0,0,0-3.095,0l-2.815,5.629-6.258.9a1.728,1.728,0,0,0-.95,2.955l4.52,4.355-1.069,6.162A1.719,1.719,0,0,0,21.666,56.045Zm-2.937-13.45,6.706-.965a.864.864,0,0,0,.65-.468L29.1,35.128l3,6.032a.864.864,0,0,0,.651.47l6.72.965-4.85,4.673a.864.864,0,0,0-.251.77l1.146,6.615L29.5,51.524a.864.864,0,0,0-.8,0l-6.02,3.128,1.146-6.613a.864.864,0,0,0-.251-.77Z" transform="translate(-3.173 -4.546)"/>
      <path id="Shape-3" data-name="Shape" d="M5.06,42.3l-.844,4.88a1.561,1.561,0,0,0,2.26,1.661l4.459-2.321,4.456,2.326a.864.864,0,1,0,.8-1.533l-4.855-2.531a.864.864,0,0,0-.8,0L5.976,47.163l.864-5.011a.864.864,0,0,0-.251-.77L2.92,37.84,8,37.111a.864.864,0,0,0,.65-.469l2.288-4.574,2.279,4.573a.864.864,0,0,0,.651.47l5.425.778a.864.864,0,0,0,.244-1.711l-4.976-.713L12.332,31a1.555,1.555,0,0,0-1.4-.864h-.005a1.537,1.537,0,0,0-1.382.859L7.306,35.465l-4.962.712a1.555,1.555,0,0,0-.864,2.67Z" transform="translate(-0.995 -4.102)"/>
      <path id="Shape-4" data-name="Shape" d="M57.887,37.236a1.54,1.54,0,0,0-1.261-1.059l-4.968-.713-2.232-4.473a1.54,1.54,0,0,0-1.382-.864h-.005a1.555,1.555,0,0,0-1.4.864l-2.225,4.467-4.977.713a.864.864,0,0,0,.245,1.711l5.426-.778a.864.864,0,0,0,.651-.47l2.274-4.568,2.283,4.574a.864.864,0,0,0,.65.469l5.075.728-3.669,3.542a.864.864,0,0,0-.251.77l.868,5.011-4.559-2.378a.864.864,0,0,0-.8,0l-4.855,2.531a.864.864,0,1,0,.8,1.533l4.459-2.322,4.458,2.326a1.562,1.562,0,0,0,2.258-1.658L53.9,42.3l3.582-3.456A1.555,1.555,0,0,0,57.887,37.236Z" transform="translate(-6.124 -4.101)"/>
      <path id="Shape-5" data-name="Shape" d="M25.364,46.319a.879.879,0,0,0,.124-.01l3.249-.467a.864.864,0,0,0,.65-.468l1.5-3.006a.865.865,0,0,0-1.546-.778l-1.3,2.6-2.8.4a.864.864,0,0,0,.123,1.719Z" transform="translate(-4.193 -5.596)"/>
    </g>
  </g>
</svg>
