<svg xmlns="http://www.w3.org/2000/svg" width="35" height="35" viewBox="0 0 35 35">
  <g id="seoAudit" transform="translate(0.001)">
    <path id="Path_90434" data-name="Path 90434" d="M265,241.685a1.581,1.581,0,0,0,1.141-.481l2.687-2.755a1.593,1.593,0,0,0-2.281-2.225l-1.576,1.616-.276-.269a1.593,1.593,0,1,0-2.222,2.284l1.417,1.378A1.585,1.585,0,0,0,265,241.685Zm-1.822-3.365a.567.567,0,0,1,.8-.011l.644.626a.514.514,0,0,0,.726-.01l1.935-1.983a.566.566,0,1,1,.81.79l-2.687,2.755a.568.568,0,0,1-.8.011l-1.417-1.378A.566.566,0,0,1,263.175,238.32Z" transform="translate(-244.079 -219.629)"/>
    <path id="Path_90435" data-name="Path 90435" d="M218.378,190.292a.514.514,0,0,0-.82.619,6.772,6.772,0,0,0,.615.707,6.683,6.683,0,1,0-1.642-2.69.514.514,0,0,0,.979-.312,5.665,5.665,0,1,1,1.39,2.276A5.753,5.753,0,0,1,218.378,190.292Z" transform="translate(-201.432 -167.886)"/>
    <path id="Path_90436" data-name="Path 90436" d="M34.292,28.388l-3.241-3.241a.514.514,0,0,0-.727,0l-.02.02-1.247-1.247a9.025,9.025,0,0,0,1.436-4.345.514.514,0,0,0-1.026-.065,8.007,8.007,0,0,1-7.99,7.5h-.049a8.009,8.009,0,1,1,7.928-9.429.514.514,0,0,0,1.011-.181,9.046,9.046,0,0,0-4.656-6.381V6.879a.52.52,0,0,0-.15-.363L19.2.15A.521.521,0,0,0,18.833,0H1.54A1.543,1.543,0,0,0,0,1.541V5.859a.514.514,0,0,0,1.028,0V1.541a.514.514,0,0,1,.514-.514H18.32V5.852a1.543,1.543,0,0,0,1.541,1.541h4.825v3.161a9.078,9.078,0,0,0-3.118-.586l-.015,0H10.082a.514.514,0,1,0,0,1.027h7.193a9,9,0,0,0-2.049,1.471H10.082a.514.514,0,1,0,0,1.027H14.3a8.942,8.942,0,0,0-1.686,3.673H10.082a.514.514,0,1,0,0,1.027h2.383q-.035.4-.036.81,0,.335.024.665H10.082a.514.514,0,1,0,0,1.027h2.5A8.941,8.941,0,0,0,14.3,24.515H10.082a.514.514,0,1,0,0,1.027h5.146a9,9,0,0,0,2.046,1.469H10.082a.514.514,0,1,0,0,1.027H21.47a9.084,9.084,0,0,0,3.216-.588v6.008a.514.514,0,0,1-.514.514H1.54a.514.514,0,0,1-.514-.514V7.914A.514.514,0,0,0,0,7.914V33.459A1.543,1.543,0,0,0,1.54,35H24.172a1.543,1.543,0,0,0,1.541-1.541V26.985q.344-.183.675-.4l1.247,1.247a.518.518,0,0,0-.02.746l3.241,3.241a2.429,2.429,0,0,0,3.436-3.435ZM19.861,6.366a.514.514,0,0,1-.514-.514v-4.1l4.612,4.612Zm7.365,19.608q.329-.272.637-.579t.579-.637l1.136,1.135-1.216,1.216ZM33.566,31.1a1.409,1.409,0,0,1-1.982,0l-2.878-2.878,1.982-1.982,2.878,2.878A1.408,1.408,0,0,1,33.566,31.1Z"/>
    <path id="Path_90437" data-name="Path 90437" d="M52.542,142.855H54.79a1.15,1.15,0,0,0,1.149-1.149v-2.247a1.15,1.15,0,0,0-1.149-1.149H52.542a1.15,1.15,0,0,0-1.149,1.149v2.247a1.15,1.15,0,0,0,1.149,1.149Zm-.122-3.4a.122.122,0,0,1,.122-.122H54.79a.122.122,0,0,1,.122.122v2.247a.122.122,0,0,1-.122.122H52.542a.122.122,0,0,1-.122-.122Z" transform="translate(-47.881 -128.855)"/>
    <path id="Path_90438" data-name="Path 90438" d="M51.393,247.074a1.15,1.15,0,0,0,1.149,1.149H54.79a1.15,1.15,0,0,0,1.149-1.149v-2.247a1.15,1.15,0,0,0-1.149-1.149H52.542a1.15,1.15,0,0,0-1.149,1.149Zm1.028-2.247a.122.122,0,0,1,.122-.122H54.79a.122.122,0,0,1,.122.122v2.247a.122.122,0,0,1-.122.122H52.542a.122.122,0,0,1-.122-.122Z" transform="translate(-47.881 -227.02)"/>
    <path id="Path_90439" data-name="Path 90439" d="M51.393,354.581a1.15,1.15,0,0,0,1.149,1.149H54.79a1.15,1.15,0,0,0,1.149-1.149v-2.247a1.15,1.15,0,0,0-1.149-1.149H52.542a1.15,1.15,0,0,0-1.149,1.149Zm1.028-2.247a.122.122,0,0,1,.122-.122H54.79a.122.122,0,0,1,.122.122v2.247a.122.122,0,0,1-.122.122H52.542a.122.122,0,0,1-.122-.122Z" transform="translate(-47.881 -327.178)"/>
  </g>
</svg>
