<svg xmlns="http://www.w3.org/2000/svg" width="46" height="46" viewBox="0 0 46 46">
  <path id="teamMember" d="M46,19.29H44.333L41.848,20.6a3.688,3.688,0,0,0-.884-.364l-3.126-.782V19.1a5.21,5.21,0,0,0,2.227-4.258v-1.3A5.331,5.331,0,0,0,35.03,8.163c-.141,0-.28,0-.419.008l.81-1.9L31.493,2.347,29.177,3.854A12.55,12.55,0,0,0,26.4,2.7L25.827,0H20.173L19.6,2.7a12.535,12.535,0,0,0-2.777,1.152L14.508,2.347,10.582,6.273l.8,1.9c-.03,0-.059-.007-.09-.008a5.2,5.2,0,0,0-5.354,5.191v1.484A5.208,5.208,0,0,0,8.161,19.1v.356l-2.039.51-3.7-2.155H0V33.18l7.3,2.433H8.72l.178-.622,2.237,1.343a2.31,2.31,0,0,0,2.228,2.238A2.31,2.31,0,0,0,15.589,40.8a2.31,2.31,0,0,0,2.226,2.226,2.307,2.307,0,0,0,3.608,1.832l.657.58A2.259,2.259,0,0,0,23.572,46h.137a2.259,2.259,0,0,0,2.255-2.229,2.257,2.257,0,0,0,2.226-2.226,2.257,2.257,0,0,0,2.226-2.228,2.282,2.282,0,0,0,2.229-2.277,2.173,2.173,0,0,0-.011-.222L46,30.136ZM38.58,13.542v1.3a3.724,3.724,0,0,1-1.857,3.21l-.371.214,0,2.348,3.707.926L31.9,25.832v-2a3.692,3.692,0,0,0-1.063-2.586l2.546-.636v-2.35l-.37-.214a3.72,3.72,0,0,1-1.856-3.209V13.355a3.71,3.71,0,0,1,3.825-3.707,3.836,3.836,0,0,1,3.595,3.894ZM24.118,25.249,20.76,24.175a9.162,9.162,0,0,0-4.754-.217l-.425.094v-.22a2.224,2.224,0,0,1,1.686-2.16l4.25-1.062v-2.35l-.37-.214a3.72,3.72,0,0,1-1.856-3.209V13.355a3.71,3.71,0,0,1,3.825-3.707,3.836,3.836,0,0,1,3.595,3.894v1.3a3.724,3.724,0,0,1-1.857,3.21l-.371.214,0,2.348,4.249,1.062a2.224,2.224,0,0,1,1.686,2.16v2.78l-.183.1h-.455l-4.561-1.3a4.677,4.677,0,0,0-1.1-.158ZM15.747,11.1a8.156,8.156,0,0,1,14.476-.06,5.16,5.16,0,0,0-.545,2.31v1.484A5.208,5.208,0,0,0,31.9,19.1v.356l-2.968.743-2.968-.743V19.1a5.21,5.21,0,0,0,2.227-4.258v-1.3a5.331,5.331,0,0,0-5.034-5.378,5.194,5.194,0,0,0-5.353,5.191v1.484A5.208,5.208,0,0,0,20.032,19.1v.356l-2.968.743L14.1,19.452V19.1a5.21,5.21,0,0,0,2.227-4.258v-1.3a5.468,5.468,0,0,0-.576-2.437ZM12.334,6.617l2.37-2.37L16.791,5.6l.4-.245A11.071,11.071,0,0,1,20.4,4.027l.456-.109.516-2.434h3.249l.515,2.433.456.109a11.082,11.082,0,0,1,3.213,1.333l.4.245,2.086-1.358,2.367,2.368-.842,1.97a5.186,5.186,0,0,0-1.566,1.041c-.03.03-.057.062-.086.092A9.635,9.635,0,0,0,14.8,9.762,5.233,5.233,0,0,0,13.167,8.6ZM9.645,20.611v-2.35l-.37-.214a3.72,3.72,0,0,1-1.856-3.209V13.355a3.71,3.71,0,0,1,3.825-3.707,3.836,3.836,0,0,1,3.595,3.894v1.3a3.724,3.724,0,0,1-1.857,3.21l-.371.214,0,2.348,2.546.636A3.692,3.692,0,0,0,14.1,23.833v.55l-2.314.514.06-.21.028-1.371L7.958,21.033ZM1.484,19.29h.541L7.36,22.4,4.668,33.172,1.484,32.11ZM7.539,34.129l-1.46-.487L8.695,23.181l1.692.987v.212L7.6,34.129Zm5.073,2.136a.837.837,0,0,1,.243-.588l1.3-1.3a.832.832,0,0,1,1.177,1.177l-1.3,1.3a.832.832,0,0,1-1.42-.588Zm2.226,2.226a.837.837,0,0,1,.243-.588l1.3-1.3a.832.832,0,0,1,1.177,1.177l-1.3,1.3a.832.832,0,0,1-1.42-.588Zm2.226,2.226a.837.837,0,0,1,.243-.588l1.3-1.3A.832.832,0,0,1,19.789,40l-1.3,1.3a.832.832,0,0,1-1.42-.588Zm3.058,3.058a.832.832,0,0,1-.588-1.42l1.3-1.3a.832.832,0,0,1,1.177,1.177l-1.3,1.3A.837.837,0,0,1,20.122,43.774Zm3.588.742h-.137a.769.769,0,0,1-.511-.194l-.555-.489.557-.557a2.307,2.307,0,0,0,.467-.689l.675.562a.774.774,0,0,1-.5,1.368Zm6.654-6.677h-.128a.8.8,0,0,1-.51-.185L25.7,34.3l-.951,1.14L28.658,38.7a.774.774,0,0,1-.5,1.368H28a.774.774,0,0,1-.495-.18l-4.03-3.358-.951,1.14,3.907,3.256a.773.773,0,0,1-.5,1.367,1.225,1.225,0,0,1-.781-.283L23.5,40.627a2.308,2.308,0,0,0-1.992-1.3,2.31,2.31,0,0,0-2.226-2.226,2.31,2.31,0,0,0-2.226-2.226,2.31,2.31,0,0,0-3.944-1.556l-1.3,1.3a2.287,2.287,0,0,0-.208.254L9.32,33.514l2-6.993,5.009-1.114a7.643,7.643,0,0,1,3.981.18l1.093.35L17.695,27.79a2.473,2.473,0,0,0-1.373,2.223v.147a2.485,2.485,0,0,0,3.764,2.131l2.763-1.657a1.532,1.532,0,0,1,1.779.171L30.9,36.447a.8.8,0,0,1-.534,1.392Zm14.153-8.62-12.5,6.25c-.041-.043-.083-.084-.128-.124L25.621,29.7a2.986,2.986,0,0,0-3.536-.342l-2.764,1.657a1,1,0,0,1-1.515-.859v-.147a1,1,0,0,1,.554-.9L22.5,27.048a3.225,3.225,0,0,1,2.312-.214l4.662,1.332,1.129.028L44.516,20.87Zm0,0" transform="translate(0 0)"/>
</svg>
