<svg xmlns="http://www.w3.org/2000/svg" xmlns:xlink="http://www.w3.org/1999/xlink" width="237.368" height="55" viewBox="0 0 237.368 55">
  <defs>
    <clipPath id="clip-path">
      <rect id="Rectangle_2580" data-name="Rectangle 2580" width="237.368" height="55" fill="#fff"/>
    </clipPath>
  </defs>
  <g id="trustpilotReview" clip-path="url(#clip-path)">
    <path id="Path_82293" data-name="Path 82293" d="M80.721,23.245a1,1,0,0,1,1.91,0l1.4,4.31a1,1,0,0,0,.955.694h4.532a1,1,0,0,1,.59,1.816l-3.666,2.664a1,1,0,0,0-.365,1.122l1.4,4.31a1,1,0,0,1-1.545,1.122l-3.666-2.664a1,1,0,0,0-1.18,0l-3.666,2.664a1,1,0,0,1-1.545-1.122l1.4-4.31a1,1,0,0,0-.365-1.122l-3.666-2.664a1,1,0,0,1,.59-1.816h4.532a1,1,0,0,0,.955-.694Z" transform="translate(32.581 10.089)" fill="#00b67a"/>
    <path id="Path_82294" data-name="Path 82294" d="M95.75,23.245a1,1,0,0,1,1.91,0l1.4,4.31a1,1,0,0,0,.955.694h4.532a1,1,0,0,1,.59,1.816l-3.666,2.664a1,1,0,0,0-.365,1.122l1.4,4.31a1,1,0,0,1-1.545,1.122L97.3,36.619a1,1,0,0,0-1.18,0l-3.666,2.664A1,1,0,0,1,90.9,38.161l1.4-4.31a1,1,0,0,0-.365-1.122l-3.666-2.664a1,1,0,0,1,.59-1.816H93.4a1,1,0,0,0,.955-.694Z" transform="translate(39.305 10.089)" fill="#00b67a"/>
    <path id="Path_82295" data-name="Path 82295" d="M110.779,23.245a1,1,0,0,1,1.911,0l1.4,4.31a1,1,0,0,0,.955.694h4.532a1,1,0,0,1,.591,1.816L116.5,32.728a1,1,0,0,0-.365,1.122l1.4,4.31a1,1,0,0,1-1.544,1.122l-3.666-2.664a1,1,0,0,0-1.181,0l-3.666,2.664a1,1,0,0,1-1.544-1.122l1.4-4.31a1,1,0,0,0-.365-1.122L103.3,30.065a1,1,0,0,1,.591-1.816h4.532a1,1,0,0,0,.955-.694Z" transform="translate(46.028 10.089)" fill="#00b67a"/>
    <path id="Path_82296" data-name="Path 82296" d="M125.81,23.245a1,1,0,0,1,1.909,0l1.4,4.31a1,1,0,0,0,.954.694h4.532a1,1,0,0,1,.591,1.816l-3.666,2.664a1,1,0,0,0-.365,1.122l1.4,4.31a1,1,0,0,1-1.544,1.122l-3.666-2.664a1,1,0,0,0-1.18,0l-3.666,2.664a1,1,0,0,1-1.546-1.122l1.4-4.31A1,1,0,0,0,122,32.728l-3.666-2.664a1,1,0,0,1,.589-1.816h4.532a1,1,0,0,0,.955-.694Z" transform="translate(52.752 10.089)" fill="#00b67a"/>
    <path id="Path_82297" data-name="Path 82297" d="M140.839,23.245a1,1,0,0,1,1.909,0l1.4,4.31a1,1,0,0,0,.955.694h4.532a1,1,0,0,1,.589,1.816l-3.666,2.664a1,1,0,0,0-.365,1.122l1.4,4.31a1,1,0,0,1-1.546,1.122l-3.666-2.664a1,1,0,0,0-1.18,0l-3.666,2.664a1,1,0,0,1-1.544-1.122l1.4-4.31a1,1,0,0,0-.365-1.122l-3.666-2.664a1,1,0,0,1,.591-1.816h4.532a1,1,0,0,0,.954-.694Z" transform="translate(59.476 10.089)" fill="#ddd"/>
    <path id="Path_82298" data-name="Path 82298" d="M140.839,23.245a1,1,0,0,1,1.909,0l1.4,4.31a1,1,0,0,0,.955.694l1.09,5.6,1.4,4.31a1,1,0,0,1-1.546,1.122l-3.666-2.664a1,1,0,0,0-1.18,0l-3.666,2.664a1,1,0,0,1-1.544-1.122l1.4-4.31a1,1,0,0,0-.365-1.122l-3.666-2.664a1,1,0,0,1,.591-1.816h4.532a1,1,0,0,0,.954-.694Z" transform="translate(59.476 10.089)" fill="#00b67a"/>
    <path id="Path_82299" data-name="Path 82299" d="M54.706,18.406V5.757H50.43V4.151H60.75V5.757h-4.3V18.406Z" transform="translate(22.561 1.857)" fill="#555770"/>
    <path id="Path_82300" data-name="Path 82300" d="M62.694,7.161a2.314,2.314,0,0,1,.4.02V8.988c-.221-.02-.482-.04-.642-.04-1.847,0-2.972,1.426-2.972,3.393v4.718H57.855V7.281h1.626V9.008h.02A3.707,3.707,0,0,1,62.694,7.161Z" transform="translate(25.883 3.204)" fill="#555770"/>
    <path id="Path_82301" data-name="Path 82301" d="M69.582,7.244h1.626v9.778H69.582V15.4h-.02a3.886,3.886,0,0,1-3.212,1.747c-2.249,0-3.674-1.285-3.674-4.076V7.244H64.3V12.6c0,2.229.823,3.052,2.389,3.052,1.546,0,2.891-1.345,2.891-3.674Z" transform="translate(28.039 3.241)" fill="#555770"/>
    <path id="Path_82302" data-name="Path 82302" d="M73.9,17.18a5.568,5.568,0,0,1-3.835-1.405L70.9,14.55A4.046,4.046,0,0,0,73.9,15.714c1.165,0,1.847-.6,1.847-1.305,0-.843-.9-1.124-2.329-1.606-1.586-.562-2.931-1.225-2.931-3.012,0-1.506,1.365-2.63,3.233-2.63a5.079,5.079,0,0,1,3.353,1.2l-.843,1.285a3.9,3.9,0,0,0-2.59-1c-.743,0-1.506.442-1.506,1.144,0,.763.8,1.124,1.847,1.526,2.068.8,3.433,1.144,3.413,3.072C77.389,15.915,76.245,17.18,73.9,17.18Z" transform="translate(31.343 3.204)" fill="#555770"/>
    <path id="Path_82303" data-name="Path 82303" d="M79.854,18.229c-1.747,0-2.55-1.064-2.55-3.032V9.736H76.06V8.33H77.3V5l1.626-.181V8.33h3.253V9.736H78.931v5.22c0,1.165.281,1.747,1.2,1.747a3.518,3.518,0,0,0,1.646-.5l.442,1.426A4.5,4.5,0,0,1,79.854,18.229Z" transform="translate(34.027 2.155)" fill="#555770"/>
    <path id="Path_82304" data-name="Path 82304" d="M86.813,7.161a4.8,4.8,0,0,1,4.779,5.08,4.672,4.672,0,0,1-4.779,4.939,4.155,4.155,0,0,1-3.333-1.566h-.04v5.421H81.834V7.281H83.46V8.727h.02A4.207,4.207,0,0,1,86.813,7.161Zm-.161,8.533a3.238,3.238,0,0,0,3.293-3.453,3.312,3.312,0,0,0-3.313-3.574A3.356,3.356,0,0,0,83.4,12.241,3.3,3.3,0,0,0,86.653,15.694Z" transform="translate(36.61 3.204)" fill="#555770"/>
    <path id="Path_82305" data-name="Path 82305" d="M91.327,6.7a1.136,1.136,0,0,1-1.164-1.144,1.148,1.148,0,0,1,1.164-1.144,1.161,1.161,0,0,1,1.165,1.144A1.148,1.148,0,0,1,91.327,6.7ZM90.5,18.288V8.51H92.13v9.778Z" transform="translate(40.336 1.975)" fill="#555770"/>
    <path id="Path_82306" data-name="Path 82306" d="M93.865,18.568V3.79h1.626V18.568Z" transform="translate(41.992 1.696)" fill="#555770"/>
    <path id="Path_82307" data-name="Path 82307" d="M101.88,17.18a4.845,4.845,0,0,1-5.06-5,5.04,5.04,0,0,1,10.079,0A4.824,4.824,0,0,1,101.88,17.18Zm0-1.486a3.353,3.353,0,0,0,3.374-3.514,3.4,3.4,0,1,0-6.787,0A3.372,3.372,0,0,0,101.88,15.694Z" transform="translate(43.314 3.204)" fill="#555770"/>
    <path id="Path_82308" data-name="Path 82308" d="M108.533,18.229c-1.746,0-2.549-1.064-2.549-3.032V9.736h-1.245V8.33h1.245V5l1.625-.181V8.33h3.254V9.736h-3.254v5.22c0,1.165.282,1.747,1.206,1.747a3.517,3.517,0,0,0,1.646-.5l.441,1.426A4.5,4.5,0,0,1,108.533,18.229Z" transform="translate(46.857 2.155)" fill="#555770"/>
    <path id="Path_82309" data-name="Path 82309" d="M124.659,18.406h-2.107l-3.614-5.441h-2.691v5.441H114.5V4.151h5.06c3.293,0,4.718,1.887,4.718,4.417a3.971,3.971,0,0,1-3.394,4.237v.02ZM116.247,5.757v5.6h2.85c2.369,0,3.374-1.2,3.374-2.831,0-1.807-1.184-2.771-3.132-2.771Z" transform="translate(51.224 1.857)" fill="#555770"/>
    <path id="Path_82310" data-name="Path 82310" d="M131.978,12.02c0,.261-.039.6-.039.663H124.41a3.2,3.2,0,0,0,3.272,3.012,3.414,3.414,0,0,0,2.75-1.325l1.145.984a4.825,4.825,0,0,1-3.956,1.827,4.752,4.752,0,0,1-4.859-5,4.709,4.709,0,0,1,4.678-5.02C130.172,7.161,131.978,9.209,131.978,12.02Zm-4.456-3.353a3.044,3.044,0,0,0-3.052,2.67h5.9A2.85,2.85,0,0,0,127.522,8.667Z" transform="translate(54.92 3.204)" fill="#555770"/>
    <path id="Path_82311" data-name="Path 82311" d="M137.571,7.244h1.766l-3.974,9.778H133.8l-4-9.778h1.747l3.012,7.71h.059Z" transform="translate(58.068 3.241)" fill="#555770"/>
    <path id="Path_82312" data-name="Path 82312" d="M138.822,6.7a1.136,1.136,0,0,1-1.164-1.144,1.148,1.148,0,0,1,1.164-1.144,1.162,1.162,0,0,1,1.165,1.144A1.149,1.149,0,0,1,138.822,6.7ZM138,18.288V8.51h1.625v9.778Z" transform="translate(61.584 1.975)" fill="#555770"/>
    <path id="Path_82313" data-name="Path 82313" d="M150.065,12.02c0,.261-.041.6-.041.663H142.5a3.2,3.2,0,0,0,3.272,3.012,3.419,3.419,0,0,0,2.751-1.325l1.143.984a4.823,4.823,0,0,1-3.956,1.827,4.752,4.752,0,0,1-4.859-5,4.709,4.709,0,0,1,4.679-5.02C148.257,7.161,150.065,9.209,150.065,12.02Zm-4.458-3.353a3.044,3.044,0,0,0-3.051,2.67h5.9A2.849,2.849,0,0,0,145.607,8.667Z" transform="translate(63.011 3.204)" fill="#555770"/>
    <path id="Path_82314" data-name="Path 82314" d="M160.536,7.244h1.647l-3.394,9.778h-1.526l-2.209-7.128h-.02l-2.228,7.128h-1.486l-3.393-9.778h1.646l2.489,7.308h.041l2.229-7.308h1.405l2.268,7.308h.041Z" transform="translate(66.178 3.241)" fill="#555770"/>
    <path id="Path_82315" data-name="Path 82315" d="M162.4,17.18a5.569,5.569,0,0,1-3.836-1.405l.844-1.225a4.043,4.043,0,0,0,2.992,1.165c1.164,0,1.847-.6,1.847-1.305,0-.843-.9-1.124-2.329-1.606-1.586-.562-2.932-1.225-2.932-3.012,0-1.506,1.366-2.63,3.233-2.63a5.078,5.078,0,0,1,3.352,1.2l-.842,1.285a3.9,3.9,0,0,0-2.591-1c-.743,0-1.505.442-1.505,1.144,0,.763.8,1.124,1.847,1.526,2.068.8,3.433,1.144,3.413,3.072C165.892,15.915,164.749,17.18,162.4,17.18Z" transform="translate(70.937 3.204)" fill="#555770"/>
    <path id="Path_82316" data-name="Path 82316" d="M57.739,21.019H35.691L28.88,0,22.048,21.019,0,21,17.856,34,11.024,55,28.88,42.018,46.714,55,39.9,34Z" fill="#00b67a"/>
    <path id="Path_82317" data-name="Path 82317" d="M32.513,28.246l-1.532-4.754L19.957,31.508Z" transform="translate(8.928 10.51)" fill="#005128"/>
    <path id="Path_82318" data-name="Path 82318" d="M56.252,37.3V35.024h-5.9V33.273l6.382-9.884h2.216v9.281h1.88v2.355h-1.88V37.3Zm-2.909-4.492h3.1v-5Z" transform="translate(22.527 10.463)" fill="#00b67a"/>
    <path id="Path_82319" data-name="Path 82319" d="M60.32,34.116a1.6,1.6,0,0,1-1.177-.465,1.553,1.553,0,0,1-.475-1.148,1.568,1.568,0,0,1,.475-1.148,1.6,1.6,0,0,1,1.177-.475A1.656,1.656,0,0,1,61.953,32.5a1.639,1.639,0,0,1-1.632,1.613Z" transform="translate(26.246 13.815)" fill="#00b67a"/>
    <path id="Path_82320" data-name="Path 82320" d="M61.9,23.389h8.657v1.8L65.72,37.6,62.98,37.1l4.561-11.23H61.9Z" transform="translate(27.693 10.463)" fill="#00b67a"/>
  </g>
</svg>
