<svg xmlns="http://www.w3.org/2000/svg" width="52.556" height="70" viewBox="0 0 52.556 70">
  <g id="handPointer" transform="translate(-0.284)">
    <path id="Path_82041" data-name="Path 82041" d="M47.185,57.753h-.1a5.4,5.4,0,0,0-3.638,1.383,5.675,5.675,0,0,0-5.269-3.845,5.467,5.467,0,0,0-3.905,1.68,5.593,5.593,0,0,0-4.991-3.192h-.1a5.125,5.125,0,0,0-3.213,1.071V41.29a5.82,5.82,0,0,0-5.654-5.942,5.809,5.809,0,0,0-5.639,5.938l-.026,26.9-1.523-1.849A7.679,7.679,0,0,0,7.7,63.489a7.556,7.556,0,0,0-5.661,2L.71,66.59a1.178,1.178,0,0,0-.293,1.45L13.3,92.8a13.28,13.28,0,0,0,11.694,7.347H39.506v-.013c7.36,0,13.327-6.386,13.334-14.228,0-3.508-.01-6.123-.008-8.243.007-5.67,0-7.763-.013-14.01a5.781,5.781,0,0,0-5.635-5.9Zm3.275,19.9c0,2.12-.006,4.745-.009,8.254-.006,6.545-4.947,11.882-11.014,11.882H24.991a10.934,10.934,0,0,1-9.6-6.079L2.945,67.8l.614-.512c.016-.013.03-.028.045-.041a5.227,5.227,0,0,1,3.925-1.41,5.344,5.344,0,0,1,3.769,2l3.6,4.386a1.177,1.177,0,0,0,2.087-.746l.021-30.188a3.466,3.466,0,0,1,3.3-3.585,3.466,3.466,0,0,1,3.3,3.588v18.2c0,.063,0,.127,0,.191,0,.028,0,.056,0,.083v7.782a1.178,1.178,0,0,0,2.355,0V59.531a3.3,3.3,0,0,1,3.213-3.4h.1a3.438,3.438,0,0,1,3.305,3.55V66.8a1.178,1.178,0,0,0,2.355,0V61.218a3.255,3.255,0,1,1,6.476,0v5.271a1.178,1.178,0,0,0,2.355,0V63.634a3.421,3.421,0,0,1,3.312-3.527h.1a3.417,3.417,0,0,1,3.271,3.547c.014,6.242.011,8.332,0,14Zm0,0" transform="translate(0 -30.144)" fill="#fff"/>
    <path id="Path_82042" data-name="Path 82042" d="M65.787,11.653a1.178,1.178,0,0,0,1.178-1.178,8.16,8.16,0,0,1,16.32,0,1.178,1.178,0,1,0,2.355,0,10.515,10.515,0,0,0-21.03,0A1.178,1.178,0,0,0,65.787,11.653Zm0,0" transform="translate(-54.857)" fill="#fff"/>
  </g>
</svg>
