<svg xmlns="http://www.w3.org/2000/svg" xmlns:xlink="http://www.w3.org/1999/xlink" width="76" height="76" viewBox="0 0 76 76">
  <defs>
    <clipPath id="clip-path">
      <path id="path486" d="M40-682.665H0v40H40Z" transform="translate(0 682.665)" fill="#fff"/>
    </clipPath>
  </defs>
  <g id="_1" data-name="1" transform="translate(3839 -6121)">
    <circle id="Ellipse_95" data-name="Ellipse 95" cx="38" cy="38" r="38" transform="translate(-3839 6121)" fill="#039e50"/>
    <g id="g484" transform="translate(-3821 6139)" clip-path="url(#clip-path)">
      <g id="g490" transform="translate(0.439 0.439)">
        <path id="path492" d="M-455.521-241.066a14.141,14.141,0,0,0-14.125,14.125,14.141,14.141,0,0,0,14.125,14.126,14.047,14.047,0,0,0,7.988-2.475,14.12,14.12,0,0,0,3.663-3.663,14.046,14.046,0,0,0,2.475-7.988A14.141,14.141,0,0,0-455.521-241.066Zm0,26.786a12.675,12.675,0,0,1-12.66-12.661,12.674,12.674,0,0,1,12.66-12.66,12.675,12.675,0,0,1,12.661,12.66,12.588,12.588,0,0,1-2.218,7.159,12.662,12.662,0,0,1-3.284,3.285A12.588,12.588,0,0,1-455.521-214.28Z" transform="translate(469.646 241.066)" fill="#fff"/>
      </g>
      <g id="g494" transform="translate(13.832 5.127)">
        <path id="path496" d="M-3.062-150.9a.732.732,0,0,0,.732-.732,9.449,9.449,0,0,0-9.438-9.438.732.732,0,0,0-.732.732.732.732,0,0,0,.732.732,7.982,7.982,0,0,1,7.973,7.973A.732.732,0,0,0-3.062-150.9Z" transform="translate(12.5 161.073)" fill="#fff"/>
      </g>
      <g id="g498" transform="translate(25.568 25.568)">
        <path id="path500" d="M-59.123-212.319a.73.73,0,0,0,.518-.215l3.315-3.315a.732.732,0,0,0,.215-.518.732.732,0,0,0-.215-.518L-64.5-226.1a.732.732,0,0,0-1.036,0l-3.315,3.315a.732.732,0,0,0,0,1.036l9.213,9.214A.73.73,0,0,0-59.123-212.319Zm2.279-4.047-2.279,2.279-8.178-8.178,2.279-2.279Z" transform="translate(69.069 226.311)" fill="#fff"/>
      </g>
      <g id="g502" transform="translate(23.302 23.302)">
        <path id="path504" d="M-74.791-7.112a.73.73,0,0,0,.518-.214.732.732,0,0,0,0-1.036L-78.2-12.285a.732.732,0,0,0-1.036,0,.732.732,0,0,0,0,1.036l3.923,3.923A.73.73,0,0,0-74.791-7.112Z" transform="translate(79.447 12.5)" fill="#fff"/>
      </g>
    </g>
  </g>
</svg>
