<svg xmlns="http://www.w3.org/2000/svg" width="76" height="76" viewBox="0 0 76 76">
  <g id="_4" data-name="4" transform="translate(2611 -6113)">
    <circle id="Ellipse_96" data-name="Ellipse 96" cx="38" cy="38" r="38" transform="translate(-2611 6113)" fill="#1d618f"/>
    <g id="setting" transform="translate(-2587 6131)">
      <path id="Path_82577" data-name="Path 82577" d="M119.144,472.148h-2.589a.586.586,0,1,0,0,1.172h2.589a.586.586,0,1,0,0-1.172Zm0,0" transform="translate(-106.909 -435.261)" fill="#fff"/>
      <path id="Path_82578" data-name="Path 82578" d="M95.585,33.133H91.7a.586.586,0,0,0,0,1.172h3.883a.586.586,0,0,0,0-1.172Zm0,0" transform="translate(-83.999 -30.544)" fill="#fff"/>
      <path id="Path_82579" data-name="Path 82579" d="M166.9,33.133h-.647a.586.586,0,0,0,0,1.172h.647a.586.586,0,0,0,0-1.172Zm0,0" transform="translate(-152.725 -30.544)" fill="#fff"/>
      <path id="Path_82580" data-name="Path 82580" d="M185.409,215.367a3.174,3.174,0,1,0,3.174,3.174A3.178,3.178,0,0,0,185.409,215.367Zm0,5.177a2,2,0,1,1,2-2A2,2,0,0,1,185.409,220.544Zm0,0" transform="translate(-167.997 -198.541)" fill="#fff"/>
      <path id="Path_82581" data-name="Path 82581" d="M154.864,182.234A5.763,5.763,0,1,0,160.628,188,5.769,5.769,0,0,0,154.864,182.234Zm0,10.354A4.591,4.591,0,1,1,159.456,188,4.6,4.6,0,0,1,154.864,192.588Zm0,0" transform="translate(-137.453 -167.997)" fill="#fff"/>
      <path id="Path_82582" data-name="Path 82582" d="M28.007,17.38,26.613,17.1a9.6,9.6,0,0,0-.646-1.558l.789-1.183A1.237,1.237,0,0,0,26.6,12.8l-2-2a1.237,1.237,0,0,0-1.556-.154l-1.171.781V3.175A3.178,3.178,0,0,0,18.705,0H3.174A3.178,3.178,0,0,0,0,3.175V13.653a.586.586,0,1,0,1.172,0v-8.6H4.753l.485.97a.586.586,0,0,0,.524.324H16.117a.586.586,0,0,0,.524-.324l.485-.97h3.582v5.878q-.2-.072-.4-.135L20.031,9.4a1.236,1.236,0,0,0-1.209-.991H16a1.236,1.236,0,0,0-1.209.991L14.512,10.8a9.6,9.6,0,0,0-1.558.645l-1.183-.789a1.237,1.237,0,0,0-1.556.154l-2,2a1.236,1.236,0,0,0-.154,1.556l.789,1.183A9.56,9.56,0,0,0,8.209,17.1l-1.394.279a1.237,1.237,0,0,0-.991,1.209v2.822a1.237,1.237,0,0,0,.991,1.209l1.394.279a9.584,9.584,0,0,0,.645,1.558L8.066,25.64A1.237,1.237,0,0,0,8.22,27.2l2,2a1.236,1.236,0,0,0,1.556.154l1.183-.789a9.611,9.611,0,0,0,1.558.645l.279,1.394A1.236,1.236,0,0,0,16,31.588h2.822a1.237,1.237,0,0,0,1.209-.991L20.31,29.2q.2-.063.4-.135v5.879H1.172V16A.586.586,0,1,0,0,16v20.83A3.178,3.178,0,0,0,3.174,40H18.705a3.175,3.175,0,0,0,3.174-3.174V28.565l1.171.781a1.236,1.236,0,0,0,1.556-.154l2-2a1.236,1.236,0,0,0,.154-1.556l-.789-1.183a9.6,9.6,0,0,0,.645-1.558l1.394-.279A1.236,1.236,0,0,0,29,21.411V18.589a1.236,1.236,0,0,0-.991-1.209ZM16.764,3.883a.586.586,0,0,0-.524.324l-.485.97H6.125l-.485-.97a.586.586,0,0,0-.524-.324H1.172V3.175a2.005,2.005,0,0,1,2-2H18.705a2,2,0,0,1,2,2v.709Zm3.358,34.359a1.988,1.988,0,0,1-1.416.587H3.174a2,2,0,0,1-2-2v-.708H20.708v.708a1.989,1.989,0,0,1-.587,1.416Zm7.705-16.831a.061.061,0,0,1-.049.06l-1.741.348a.586.586,0,0,0-.45.42,8.423,8.423,0,0,1-.811,1.957.586.586,0,0,0,.021.616l.985,1.478a.061.061,0,0,1-.008.077l-2,2a.06.06,0,0,1-.077.008l-1.478-.985a.586.586,0,0,0-.616-.021,8.424,8.424,0,0,1-1.957.811.586.586,0,0,0-.42.45l-.349,1.741a.061.061,0,0,1-.06.049H16a.061.061,0,0,1-.06-.049l-.348-1.741a.587.587,0,0,0-.42-.45,8.437,8.437,0,0,1-1.957-.811.585.585,0,0,0-.616.021l-1.478.985a.061.061,0,0,1-.077-.008l-2-2a.061.061,0,0,1-.008-.077l.985-1.478a.585.585,0,0,0,.021-.616,8.437,8.437,0,0,1-.811-1.957.587.587,0,0,0-.45-.42l-1.741-.348A.061.061,0,0,1,7,21.411V18.589a.061.061,0,0,1,.049-.06l1.741-.348a.587.587,0,0,0,.45-.42,8.437,8.437,0,0,1,.811-1.957.586.586,0,0,0-.021-.616L9.041,13.71a.061.061,0,0,1,.008-.077l2-2a.061.061,0,0,1,.077-.008l1.478.985a.586.586,0,0,0,.616.021,8.437,8.437,0,0,1,1.957-.811.587.587,0,0,0,.42-.45l.348-1.741A.061.061,0,0,1,16,9.585h2.822a.061.061,0,0,1,.06.049l.349,1.741a.586.586,0,0,0,.42.45,8.418,8.418,0,0,1,1.957.811.586.586,0,0,0,.616-.021L23.7,11.63a.061.061,0,0,1,.077.008l2,2a.061.061,0,0,1,.008.077L24.8,15.188a.586.586,0,0,0-.021.616,8.423,8.423,0,0,1,.811,1.957.587.587,0,0,0,.45.42l1.741.348a.061.061,0,0,1,.049.06Zm0,0" fill="#fff"/>
    </g>
  </g>
</svg>
