<svg xmlns="http://www.w3.org/2000/svg" width="76" height="76" viewBox="0 0 76 76">
  <g id="_5" data-name="5" transform="translate(2199 -6113)">
    <circle id="_5-2" data-name="5" cx="38" cy="38" r="38" transform="translate(-2199 6113)" fill="#039e50"/>
    <g id="integration_1_" data-name="integration (1)" transform="translate(-2180.999 6130.499)">
      <g id="Group_53013" data-name="Group 53013" transform="translate(8.113 8.35)">
        <path id="Path_82583" data-name="Path 82583" d="M117.272,124.933h-3.223a2.578,2.578,0,0,1-2.474-1.811l-.414-1.4a1,1,0,0,0-.973-.691,1.085,1.085,0,0,0-.254.03l-1.472.356a2.641,2.641,0,0,1-.621.074,2.6,2.6,0,0,1-2.222-1.242l-1.61-2.683a2.457,2.457,0,0,1,.384-3.018l1.058-1.049a.894.894,0,0,0,0-1.287l-1.057-1.047a2.457,2.457,0,0,1-.384-3.02l1.609-2.682a2.6,2.6,0,0,1,2.222-1.241,2.641,2.641,0,0,1,.621.074l1.472.355a1.084,1.084,0,0,0,.254.03,1,1,0,0,0,.972-.691l.414-1.4a2.578,2.578,0,0,1,2.474-1.812h3.223a2.579,2.579,0,0,1,2.473,1.811l.415,1.405a1,1,0,0,0,.971.691,1.082,1.082,0,0,0,.254-.03l1.473-.356a2.644,2.644,0,0,1,.621-.074,2.6,2.6,0,0,1,2.223,1.241l1.61,2.683a2.458,2.458,0,0,1-.385,3.018l-1.057,1.048a.893.893,0,0,0,0,1.286l1.057,1.05a2.459,2.459,0,0,1,.384,3.019l-1.61,2.682a2.6,2.6,0,0,1-2.222,1.241h0a2.645,2.645,0,0,1-.621-.074l-1.473-.356a1.081,1.081,0,0,0-.252-.03,1,1,0,0,0-.972.691l-.415,1.4A2.58,2.58,0,0,1,117.272,124.933Zm-7.084-5.473a2.578,2.578,0,0,1,2.474,1.813l.414,1.4a1,1,0,0,0,.973.69h3.223a1,1,0,0,0,.972-.691l.414-1.4a2.577,2.577,0,0,1,2.474-1.813,2.65,2.65,0,0,1,.62.074l1.474.357a1.078,1.078,0,0,0,.253.03,1.024,1.024,0,0,0,.88-.481l1.61-2.683a.886.886,0,0,0-.145-1.1l-1.057-1.049a2.458,2.458,0,0,1,0-3.509l1.057-1.048a.886.886,0,0,0,.146-1.1l-1.611-2.684a1.024,1.024,0,0,0-.88-.481,1.077,1.077,0,0,0-.253.03l-1.474.356a2.649,2.649,0,0,1-.621.074,2.576,2.576,0,0,1-2.473-1.813l-.415-1.4a1,1,0,0,0-.972-.69h-3.223a1,1,0,0,0-.973.691l-.414,1.4a2.578,2.578,0,0,1-2.473,1.813,2.651,2.651,0,0,1-.621-.074l-1.473-.356a1.076,1.076,0,0,0-.253-.03,1.022,1.022,0,0,0-.879.481l-1.611,2.684a.885.885,0,0,0,.145,1.1l1.057,1.047a2.46,2.46,0,0,1,0,3.51l-1.057,1.049a.885.885,0,0,0-.145,1.1l1.611,2.685a1.022,1.022,0,0,0,.88.481,1.074,1.074,0,0,0,.253-.03l1.473-.356A2.655,2.655,0,0,1,110.188,119.46Z" transform="translate(-103.657 -100.771)" fill="#fff"/>
        <path id="Path_82584" data-name="Path 82584" d="M186.029,190.162a6.027,6.027,0,0,1,0-12.054,6,6,0,0,1,4.685,2.284.783.783,0,0,1-1.22.981,4.445,4.445,0,0,0-3.465-1.7,4.461,4.461,0,0,0,0,8.923,4.442,4.442,0,0,0,3.49-1.731.783.783,0,1,1,1.229.97A6,6,0,0,1,186.029,190.162Z" transform="translate(-174.026 -172.054)" fill="#fff"/>
      </g>
      <path id="Path_82585" data-name="Path 82585" d="M221.209,234.7a.783.783,0,0,1-.554-.229l-1.4-1.4a.783.783,0,0,1,1.107-1.107l.845.845,2.243-2.243a.783.783,0,1,1,1.107,1.107l-2.8,2.8A.783.783,0,0,1,221.209,234.7Z" transform="translate(-201.884 -211.849)" fill="#fff"/>
      <path id="Path_82586" data-name="Path 82586" d="M265.835,445.219a.779.779,0,0,1-.43-.129l-2.432-1.6a.783.783,0,0,1-.221-1.087l1.638-2.461a.783.783,0,1,1,1.3.868l-1.2,1.806,1.775,1.17a.783.783,0,0,1-.431,1.436Z" transform="translate(-242.064 -404.718)" fill="#fff"/>
      <path id="Path_82587" data-name="Path 82587" d="M191.285,6.074a.783.783,0,0,1-.637-1.237L191.9,3.085l-1.71-1.152a.783.783,0,0,1,.875-1.3l2.377,1.6a.783.783,0,0,1,.2,1.1l-1.716,2.407A.782.782,0,0,1,191.285,6.074Z" transform="translate(-174.982)" fill="#fff"/>
      <path id="Path_82588" data-name="Path 82588" d="M24.625,38.487a.783.783,0,0,1-.776-.892A18.482,18.482,0,0,1,39.5,21.94a.783.783,0,0,1,.218,1.55A16.91,16.91,0,0,0,25.4,37.813.783.783,0,0,1,24.625,38.487Z" transform="translate(-21.975 -19.754)" fill="#fff"/>
      <path id="Path_82589" data-name="Path 82589" d="M294.465,38.487a.783.783,0,0,1-.774-.674,16.91,16.91,0,0,0-14.322-14.322.783.783,0,1,1,.218-1.55,18.482,18.482,0,0,1,15.654,15.654.783.783,0,0,1-.776.892Z" transform="translate(-256.88 -19.754)" fill="#fff"/>
      <path id="Path_82590" data-name="Path 82590" d="M39.613,293.339a.789.789,0,0,1-.11-.008,18.483,18.483,0,0,1-15.654-15.654.783.783,0,1,1,1.55-.218,16.91,16.91,0,0,0,14.322,14.322.783.783,0,0,1-.108,1.558Z" transform="translate(-21.975 -254.658)" fill="#fff"/>
      <path id="Path_82591" data-name="Path 82591" d="M279.477,293.34a.783.783,0,0,1-.108-1.558A16.91,16.91,0,0,0,293.69,277.46a.783.783,0,1,1,1.55.218,18.482,18.482,0,0,1-15.654,15.654A.789.789,0,0,1,279.477,293.34Z" transform="translate(-256.88 -254.659)" fill="#fff"/>
      <path id="Path_82592" data-name="Path 82592" d="M.781,265.111a.783.783,0,0,1-.643-1.228l1.681-2.431a.783.783,0,0,1,1.078-.206l2.461,1.638a.783.783,0,1,1-.868,1.3l-1.82-1.212-1.244,1.8A.782.782,0,0,1,.781,265.111Z" transform="translate(0 -240.213)" fill="#fff"/>
      <path id="Path_82593" data-name="Path 82593" d="M443.065,192.278a.783.783,0,0,1-.445-.139l-2.486-1.716a.783.783,0,1,1,.889-1.288l1.834,1.266,1.158-1.72a.783.783,0,0,1,1.3.875l-1.6,2.377a.783.783,0,0,1-.649.346Z" transform="translate(-405.37 -173.132)" fill="#fff"/>
      <path id="Line_87" data-name="Line 87" transform="translate(25.361 20.43)" fill="#fff"/>
    </g>
  </g>
</svg>
