<svg xmlns="http://www.w3.org/2000/svg" width="76" height="76" viewBox="0 0 76 76">
  <g id="_6" data-name="6" transform="translate(1806.817 -6113)">
    <circle id="_6-2" data-name="6" cx="38" cy="38" r="38" transform="translate(-1806.817 6113)" fill="#1d618f"/>
    <g id="startup" transform="translate(-1791.536 6129.363)">
      <g id="Group_53014" data-name="Group 53014" transform="translate(4.63 1.637)">
        <path id="Path_82583" data-name="Path 82583" d="M40.2,36.478h-.5V16.221a2.342,2.342,0,0,0-2.34-2.34H29.8a10.211,10.211,0,0,0-.593-3.462,18.749,18.749,0,0,0-6.185-8.627.639.639,0,0,0-.147-.1.619.619,0,0,0-.65.077c-.006.006-.019.013-.026.019a18.868,18.868,0,0,0-6.185,8.621,10.306,10.306,0,0,0-.587,3.475H8.092a2.342,2.342,0,0,0-2.34,2.34V36.485h-.51a.612.612,0,0,0-.612.612v2.315a2.227,2.227,0,0,0,2.225,2.225H38.583a2.227,2.227,0,0,0,2.225-2.225V37.1a.614.614,0,0,0-.612-.618ZM20.653,34.043a.612.612,0,0,0,.332-.542V31.378h3.6v1.906a.622.622,0,0,0,.281.516.6.6,0,0,0,.587.038,1.756,1.756,0,0,1,.7-.153,1.731,1.731,0,0,1,1.728,1.562.6.6,0,0,0,.338.485.632.632,0,0,0,.593-.026,1.741,1.741,0,0,1,2.468.772H13.971a1.735,1.735,0,0,1,2.429-.791.622.622,0,0,0,.58.006.6.6,0,0,0,.325-.472,1.733,1.733,0,0,1,1.728-1.53,1.681,1.681,0,0,1,.982.312.619.619,0,0,0,.638.038ZM38.469,16.221V36.478h-5.9a2.947,2.947,0,0,0-3.654-2.136,2.951,2.951,0,0,0-2.761-1.881,3.115,3.115,0,0,0-.344.019V31.371h.249a1.527,1.527,0,0,0,1.5-1.294l.281-1.926a13.788,13.788,0,0,1,3.475,3.858.917.917,0,0,0,.778.434,1.342,1.342,0,0,0,.159-.013A.925.925,0,0,0,33,31.709a13.223,13.223,0,0,0-.2-6.07c-.006-.026-.013-.045-.019-.07a9.88,9.88,0,0,0-3.838-4.98l.752-5.12c.019-.121.032-.242.045-.363h7.613a1.12,1.12,0,0,1,1.109,1.116Zm-9.724,5.726a8.949,8.949,0,0,1,2.882,4.03,12.432,12.432,0,0,1,.306,4.75,14.551,14.551,0,0,0-3.9-3.928ZM22.617,3.035A17.2,17.2,0,0,1,25.965,6.7,22.611,22.611,0,0,0,19.276,6.7c.006-.006-.006-.006-.006-.006a17.825,17.825,0,0,1,3.348-3.654Zm-5.439,7.785a18.873,18.873,0,0,1,1.237-2.729,21.394,21.394,0,0,1,8.4,0,18,18,0,0,1,1.237,2.735,9.261,9.261,0,0,1,.427,4.463L26.335,29.9a.294.294,0,0,1-.287.249H19.187A.284.284,0,0,1,18.9,29.9l-.421-2.882a.057.057,0,0,0-.006-.032l-.9-6.159-.81-5.528a9.294,9.294,0,0,1,.414-4.476ZM17.2,26.8a14.371,14.371,0,0,0-3.9,3.928,12.433,12.433,0,0,1,.306-4.75,8.916,8.916,0,0,1,2.876-4.03ZM6.976,16.221a1.113,1.113,0,0,1,1.116-1.116h7.416c.013.121.026.242.045.363l.746,5.12a9.867,9.867,0,0,0-3.838,4.98c-.006.019-.013.045-.019.07a13.221,13.221,0,0,0-.2,6.07A.925.925,0,0,0,13,32.43a1.343,1.343,0,0,0,.159.013.917.917,0,0,0,.778-.434A13.957,13.957,0,0,1,17.4,28.151l.281,1.919a1.523,1.523,0,0,0,1.5,1.294h.574v1.18a3.066,3.066,0,0,0-.727-.089,2.956,2.956,0,0,0-2.755,1.868,3.12,3.12,0,0,0-.733-.089,2.953,2.953,0,0,0-2.869,2.244h-5.7Zm32.608,23.19a1,1,0,0,1-1,.995H6.855a1,1,0,0,1-.995-.995v-1.7H39.584Z" transform="translate(-4.63 -1.637)" fill="#fff"/>
        <path id="Path_82584" data-name="Path 82584" d="M33.989,59.36H27.772a.612.612,0,1,0,0,1.224h6.217a.612.612,0,1,0,0-1.224Z" transform="translate(-12.794 -22.554)" fill="#fff"/>
        <path id="Path_82585" data-name="Path 82585" d="M30.51,22.781a3.87,3.87,0,1,0-3.87-3.87A3.872,3.872,0,0,0,30.51,22.781Zm0-6.523A2.646,2.646,0,1,1,27.864,18.9,2.648,2.648,0,0,1,30.51,16.258Z" transform="translate(-12.606 -6.494)" fill="#fff"/>
        <path id="Path_82586" data-name="Path 82586" d="M45.454,6.2l.236-.236v4.253a.612.612,0,0,0,1.224,0V5.97l.236.236a.613.613,0,1,0,.867-.867L46.736,4.057a.608.608,0,0,0-.867,0L44.587,5.338a.611.611,0,1,0,.867.861Z" transform="translate(-19.044 -2.448)" fill="#fff"/>
        <path id="Path_82587" data-name="Path 82587" d="M16.684,9.331,16.92,9.1v4.253a.612.612,0,1,0,1.224,0V9.1l.236.236a.613.613,0,1,0,.867-.867L17.966,7.182a.632.632,0,0,0-.867,0L15.817,8.464a.608.608,0,0,0,0,.867.62.62,0,0,0,.867,0Z" transform="translate(-8.618 -3.584)" fill="#fff"/>
      </g>
    </g>
  </g>
</svg>
