<svg xmlns="http://www.w3.org/2000/svg" width="76" height="76" viewBox="0 0 76 76">
  <g id="_7" data-name="7" transform="translate(1423 -6105.814)">
    <circle id="Ellipse_99" data-name="Ellipse 99" cx="38" cy="38" r="38" transform="translate(-1423 6105.814)" fill="#039e50"/>
    <path id="mechanic" d="M44.695,32.045c-.867-.532-1.752-1.057-2.645-1.577l0,0c-1.565-.911-3.153-1.8-4.712-2.679v-.866c.072-.088.144-.177.215-.269a11,11,0,0,0,1.813-3.6,3.737,3.737,0,0,0,2.4-3.4,2.506,2.506,0,0,0-.787-1.894,2.236,2.236,0,0,0-.8-.464,10.613,10.613,0,0,0,.845-3.888,8.447,8.447,0,0,0-8.643-8.215,8.447,8.447,0,0,0-8.643,8.216,10.605,10.605,0,0,0,.846,3.888,2.235,2.235,0,0,0-.814.482,2.513,2.513,0,0,0-.767,1.876,3.737,3.737,0,0,0,2.4,3.4,11,11,0,0,0,1.812,3.6c.075.1.152.193.229.286v.839c-2.465,1.384-5.006,2.813-7.373,4.266a2.951,2.951,0,0,0-1.439,2.567v5.036a.546.546,0,1,0,1.092,0V34.612a1.857,1.857,0,0,1,.918-1.636q.88-.54,1.791-1.077v7.749a.546.546,0,1,0,1.092,0V31.26c.736-.427,1.48-.852,2.224-1.273v6.155a.546.546,0,0,0,.546.546H38.472a.546.546,0,0,0,.546-.546V29.988q1.114.631,2.224,1.272v8.388a.546.546,0,1,0,1.092,0V31.9q.905.534,1.791,1.076a1.857,1.857,0,0,1,.917,1.636v5.036a.546.546,0,1,0,1.092,0V34.612a2.95,2.95,0,0,0-1.439-2.567ZM28.54,28.092v-.041a6.011,6.011,0,0,0,3.844,1.561,6.021,6.021,0,0,0,3.859-1.573v.069a3.851,3.851,0,1,1-7.7,0ZM25.274,15.977A12.941,12.941,0,0,1,32.384,14a12.946,12.946,0,0,1,7.111,1.977,13.718,13.718,0,0,1-2.346,4.347,9.028,9.028,0,0,0-9.526,0,13.734,13.734,0,0,1-2.348-4.346Zm15.4,3.679a2.664,2.664,0,0,1-.985,1.963,12.031,12.031,0,0,0,.155-1.925c0-.35,0-.847-.04-1.372a1.148,1.148,0,0,1,.443.25,1.431,1.431,0,0,1,.428,1.084ZM32.384,6.287a7.355,7.355,0,0,1,7.551,7.124,7.525,7.525,0,0,1-.153,1.454,14.194,14.194,0,0,0-7.4-1.958,14.188,14.188,0,0,0-7.4,1.959,7.519,7.519,0,0,1-.154-1.455,7.355,7.355,0,0,1,7.551-7.124ZM24.1,19.656a1.437,1.437,0,0,1,.418-1.075,1.146,1.146,0,0,1,.43-.251c-.017.514-.017.971-.017,1.293v.071a12.04,12.04,0,0,0,.155,1.925A2.665,2.665,0,0,1,24.1,19.656Zm1.928.34a14.39,14.39,0,0,0,1.081,1.411.546.546,0,0,0,.729.086,7.918,7.918,0,0,1,9.1,0,.546.546,0,0,0,.728-.086A14.377,14.377,0,0,0,38.744,20a10.324,10.324,0,0,1-2.061,5.993,5.709,5.709,0,0,1-4.3,2.532,5.707,5.707,0,0,1-4.3-2.532A10.326,10.326,0,0,1,26.026,20Zm11.9,15.6H26.844V29.371l.684-.385a4.942,4.942,0,0,0,9.725.008l.673.378ZM52.812,14.921a.546.546,0,0,0-.793.487v2.221a1.461,1.461,0,0,1-2.921,0V15.408a.546.546,0,0,0-.793-.487,4.982,4.982,0,0,0-.746,8.421V37.5a3,3,0,0,0,6,0V23.342a4.983,4.983,0,0,0-.748-8.42Zm-.1,7.684a.546.546,0,0,0-.243.454V37.5a1.909,1.909,0,0,1-3.818,0V23.06a.546.546,0,0,0-.244-.455,3.891,3.891,0,0,1-.4-6.178v1.2a2.552,2.552,0,0,0,5.1,0v-1.2a3.893,3.893,0,0,1-.4,6.178Zm2.8-13.817-1.126-.894q.015-.222.012-.443l1.171-.836a.546.546,0,0,0,.192-.64L55,4a.546.546,0,0,0-.57-.347L53,3.815q-.147-.168-.3-.32l.237-1.42a.546.546,0,0,0-.317-.589L50.684.627a.546.546,0,0,0-.649.159l-.9,1.125c-.148-.01-.3-.013-.442-.012L47.861.728a.546.546,0,0,0-.64-.192l-1.973.757a.546.546,0,0,0-.347.57l.16,1.431q-.166.146-.319.3l-1.422-.235a.546.546,0,0,0-.588.317L41.873,5.61a.546.546,0,0,0,.158.649l1.125.9q-.014.219-.011.442l-1.171.838a.546.546,0,0,0-.192.64l.757,1.973a.547.547,0,0,0,.571.347l1.43-.162q.144.164.3.32l-.236,1.42a.546.546,0,0,0,.316.588l1.931.862a.546.546,0,0,0,.65-.159l.9-1.126c.145.01.292.014.44.012l.837,1.172a.546.546,0,0,0,.64.192l1.975-.757a.546.546,0,0,0,.347-.571l-.162-1.431q.167-.146.321-.3l1.419.237a.546.546,0,0,0,.589-.316l.862-1.933a.546.546,0,0,0-.159-.65Zm-1.528,1.753-1.293-.216a.546.546,0,0,0-.5.18,4.623,4.623,0,0,1-.622.59.546.546,0,0,0-.2.49l.147,1.3-1.187.455-.762-1.067a.546.546,0,0,0-.444-.229h-.034a4.6,4.6,0,0,1-.855-.023.547.547,0,0,0-.494.2l-.817,1.027-1.16-.517.215-1.294a.546.546,0,0,0-.178-.5,4.593,4.593,0,0,1-.588-.621.546.546,0,0,0-.492-.207l-1.3.147-.455-1.185,1.068-.764a.546.546,0,0,0,.227-.482,4.422,4.422,0,0,1,.022-.852.546.546,0,0,0-.2-.494l-1.025-.818.516-1.16,1.3.214a.546.546,0,0,0,.5-.18,4.559,4.559,0,0,1,.619-.587.546.546,0,0,0,.205-.49l-.146-1.3,1.185-.455.762,1.067A.548.548,0,0,0,48.463,3a4.6,4.6,0,0,1,.857.022.545.545,0,0,0,.491-.2L50.627,1.8l1.161.516-.216,1.295a.546.546,0,0,0,.182.5,4.448,4.448,0,0,1,.585.617.545.545,0,0,0,.49.205l1.306-.146.455,1.185-1.067.762a.546.546,0,0,0-.227.482,4.433,4.433,0,0,1-.024.853.546.546,0,0,0,.2.495L54.5,9.38Zm-4.013-5.7a2.943,2.943,0,1,0,1.49,3.885,2.921,2.921,0,0,0-1.49-3.885Zm.493,3.441a1.854,1.854,0,1,1-.938-2.444h0a1.853,1.853,0,0,1,.937,2.444ZM51.1,28.712v4.5a.546.546,0,1,1-1.092,0v-4.5a.546.546,0,1,1,1.092,0Z" transform="translate(-1422.636 6123.5)" fill="#fff"/>
  </g>
</svg>
