<svg xmlns="http://www.w3.org/2000/svg" width="66.783" height="60" viewBox="0 0 66.783 60">
  <g id="speech-bubble" transform="translate(0 0)">
    <path id="Path_4164" data-name="Path 4164" d="M247.3,100a1.3,1.3,0,1,0,1.3,1.3A1.3,1.3,0,0,0,247.3,100Zm0,0" transform="translate(-213.913 -86.957)"/>
    <path id="Path_4165" data-name="Path 4165" d="M81.3,262.609a1.3,1.3,0,1,0-1.3-1.3A1.3,1.3,0,0,0,81.3,262.609Zm0,0" transform="translate(-69.565 -226.087)"/>
    <path id="Path_4166" data-name="Path 4166" d="M43.826,0C32.083,0,22.445,8.1,21.7,18.294,10.517,18.855,0,26.919,0,37.826A18.226,18.226,0,0,0,5.087,50.3a7.933,7.933,0,0,1-2.1,7.474A1.3,1.3,0,0,0,3.913,60a14.388,14.388,0,0,0,9.969-4.029,29.724,29.724,0,0,0,9.075,1.421c11.741,0,21.378-8.094,22.126-18.29A29.33,29.33,0,0,0,52.9,37.709a14.388,14.388,0,0,0,9.969,4.029,1.3,1.3,0,0,0,.922-2.227,7.933,7.933,0,0,1-2.1-7.473,18.226,18.226,0,0,0,5.087-12.474C66.783,8.232,55.456,0,43.826,0ZM22.957,54.782a26.368,26.368,0,0,1-8.936-1.539,1.3,1.3,0,0,0-1.445.331,11.769,11.769,0,0,1-5.854,3.474,10.549,10.549,0,0,0,.8-7.763,1.3,1.3,0,0,0-.319-.551A15.675,15.675,0,0,1,2.609,37.826c0-9.192,9.318-16.957,20.348-16.957,10.415,0,19.565,7.243,19.565,16.957,0,9.35-8.777,16.957-19.565,16.957Zm36.628-24.31a1.308,1.308,0,0,0-.319.551,10.549,10.549,0,0,0,.8,7.763,11.765,11.765,0,0,1-5.854-3.474,1.305,1.305,0,0,0-1.445-.331,25.7,25.7,0,0,1-7.684,1.507A18.67,18.67,0,0,0,38.03,23.478H55.043a1.3,1.3,0,1,0,0-2.609H34.023a24.326,24.326,0,0,0-9.707-2.57c.749-8.761,9.214-15.69,19.511-15.69,11.03,0,20.348,7.765,20.348,16.957a15.675,15.675,0,0,1-4.589,10.908Zm0,0"/>
    <path id="Path_4167" data-name="Path 4167" d="M137.739,260H121.3a1.3,1.3,0,0,0,0,2.609h16.435a1.3,1.3,0,0,0,0-2.609Zm0,0" transform="translate(-104.348 -226.087)"/>
    <path id="Path_4168" data-name="Path 4168" d="M102.956,320H81.3a1.3,1.3,0,1,0,0,2.609h21.652a1.3,1.3,0,1,0,0-2.609Zm0,0" transform="translate(-69.565 -278.261)"/>
    <path id="Path_4169" data-name="Path 4169" d="M303.739,100H287.3a1.3,1.3,0,1,0,0,2.609h16.435a1.3,1.3,0,0,0,0-2.609Zm0,0" transform="translate(-248.696 -86.957)"/>
  </g>
</svg>
