<svg id="Group_46295" data-name="Group 46295" xmlns="http://www.w3.org/2000/svg" width="46.589" height="49.707" viewBox="0 0 46.589 49.707">
  <path id="Path_4170" data-name="Path 4170" d="M45.338,16.963a.863.863,0,0,0-.707.994,19.863,19.863,0,0,1-6.8,18.533,12.833,12.833,0,0,0-8.948-10.345,6.9,6.9,0,1,0-7.637,0A12.833,12.833,0,0,0,12.3,36.49a19.863,19.863,0,0,1-6.8-18.533.863.863,0,1,0-1.7-.286A21.54,21.54,0,0,0,21.494,42.529a.809.809,0,0,0,.142.012.863.863,0,0,0,.14-1.714,19.761,19.761,0,0,1-7.87-3.14,11.193,11.193,0,0,1,22.328,0,19.761,19.761,0,0,1-7.87,3.14.863.863,0,0,0,.14,1.714.809.809,0,0,0,.142-.012A21.54,21.54,0,0,0,46.333,17.671a.859.859,0,0,0-1-.708ZM19.893,20.4a5.177,5.177,0,1,1,5.177,5.177A5.182,5.182,0,0,1,19.893,20.4Z" transform="translate(-1.774 7.166)" fill-rule="evenodd"/>
  <path id="Path_4171" data-name="Path 4171" d="M29.439,8.348a.863.863,0,0,0-.7-.588l-5.513-.8-2.465-5a.9.9,0,0,0-1.547,0l-2.465,5-5.513.8a.864.864,0,0,0-.479,1.473L14.75,13.12l-.942,5.49a.863.863,0,0,0,1.252.91l4.931-2.593,4.931,2.593a.852.852,0,0,0,.4.1.863.863,0,0,0,.85-1.009l-.942-5.49,3.989-3.888a.864.864,0,0,0,.218-.885ZM23.7,12.2a.865.865,0,0,0-.248.765l.723,4.214-3.785-1.99a.862.862,0,0,0-.8,0L15.8,17.18l.723-4.214a.865.865,0,0,0-.248-.765L13.217,9.218,17.448,8.6a.865.865,0,0,0,.65-.472L19.99,4.3l1.892,3.835a.865.865,0,0,0,.65.472l4.231.615L23.7,12.2Z" transform="translate(3.304 -1.523)" fill-rule="evenodd"/>
  <path id="Path_4172" data-name="Path 4172" d="M5.149,19.328a.863.863,0,0,0,1.252.91l3.864-2.032,3.864,2.032a.852.852,0,0,0,.4.1.863.863,0,0,0,.85-1.009l-.738-4.3,3.127-3.047a.864.864,0,0,0-.479-1.473L12.97,9.879,11.038,5.963a.9.9,0,0,0-1.547,0L7.559,9.879l-4.321.627a.864.864,0,0,0-.479,1.473l3.127,3.047Zm.068-7.364,3.039-.441a.865.865,0,0,0,.65-.472L10.265,8.3l1.359,2.755a.865.865,0,0,0,.65.472l3.039.441-2.2,2.142a.865.865,0,0,0-.248.765l.519,3.026-2.718-1.429a.862.862,0,0,0-.8,0L7.145,17.9l.519-3.026a.865.865,0,0,0-.248-.765l-2.2-2.142Z" transform="translate(-2.5 1.379)" fill-rule="evenodd"/>
  <path id="Path_4173" data-name="Path 4173" d="M35.291,10.506,30.97,9.879,29.038,5.963a.9.9,0,0,0-1.547,0L25.559,9.879l-4.321.627a.864.864,0,0,0-.479,1.473l3.127,3.047-.738,4.3a.863.863,0,0,0,1.252.91l3.864-2.032,3.864,2.032a.852.852,0,0,0,.4.1.863.863,0,0,0,.85-1.009l-.738-4.3,3.127-3.047a.864.864,0,0,0-.479-1.473Zm-4.177,3.6a.865.865,0,0,0-.248.765l.519,3.026-2.718-1.429a.862.862,0,0,0-.8,0L25.145,17.9l.519-3.026a.865.865,0,0,0-.248-.765l-2.2-2.142,3.039-.441a.865.865,0,0,0,.65-.472L28.265,8.3l1.359,2.755a.865.865,0,0,0,.65.472l3.039.441Z" transform="translate(10.56 1.379)" fill-rule="evenodd"/>
</svg>
