<svg xmlns="http://www.w3.org/2000/svg" width="43.563" height="60" viewBox="0 0 43.563 60">
  <path id="great-idea" d="M100.691.5A13.253,13.253,0,0,0,87.321,13.6a10.927,10.927,0,0,0,3.028,8.008c.992,1.182,1.776,2.115,1.776,3.794a2.21,2.21,0,0,0,1.5,2.082v2.389a2.527,2.527,0,0,0,2.584,2.458h.226v.242a4.258,4.258,0,0,0,8.5,0v-.242h.229a2.527,2.527,0,0,0,2.584-2.458v-2.39a2.211,2.211,0,0,0,1.5-2.081c0-1.68.783-2.613,1.775-3.794a10.932,10.932,0,0,0,3.025-8.008A13.252,13.252,0,0,0,100.691.5ZM103.3,32.576a2.622,2.622,0,0,1-5.219,0v-.242H103.3Zm2.814-2.7a.9.9,0,0,1-.943.817H96.213a.9.9,0,0,1-.943-.817V27.61h10.843v2.265Zm3.663-9.32a7.028,7.028,0,0,0-2.158,4.849.583.583,0,0,1-.6.565H94.36a.581.581,0,0,1-.595-.565,7.027,7.027,0,0,0-2.16-4.85A9.292,9.292,0,0,1,88.962,13.6a11.731,11.731,0,0,1,23.456,0A9.3,9.3,0,0,1,109.776,20.555ZM110.2,13.6a.821.821,0,0,1-1.641,0A7.742,7.742,0,0,0,100.691,6a.821.821,0,1,1,0-1.641A9.384,9.384,0,0,1,110.2,13.6Zm-33.8,4.83V15.993a.821.821,0,0,1,1.641,0v2.438a.821.821,0,0,1-1.641,0Zm2.859-.133,1.614-2.113a.82.82,0,0,1,1.3,1L80.555,19.3a.82.82,0,1,1-1.3-1Zm16.872,19.12a4.283,4.283,0,0,0-2.84-.521,3.72,3.72,0,0,0-4.821-3.961,3.8,3.8,0,0,0-.108-.628,3.716,3.716,0,0,0-3.834-2.783l3.4-5.778a3.726,3.726,0,0,0-6.42-3.783c-.6,1.016-1.348,2.173-2.141,3.4l-.03.046a7.937,7.937,0,0,0-5.782-2.5,8.031,8.031,0,0,0-.846.044,2.462,2.462,0,0,0-1.549,4.121,12.141,12.141,0,0,1,2.879,5.8c.089.443.153.885.2,1.319-2.039,4.423-3.038,9.034-.795,12.968A8.547,8.547,0,0,0,76.4,48.2c1.169.8,1.814,1.235,1.814,3.406v.482h-.136A2.411,2.411,0,0,0,75.671,54.5v5.179a.821.821,0,0,0,1.641,0V54.5a.768.768,0,0,1,.767-.767h14.46a.768.768,0,0,1,.767.767v5.179a.821.821,0,0,0,1.641,0V54.5a2.411,2.411,0,0,0-2.408-2.408H92.4V50.408l4.75-7.988c1.327-2.253.439-4.135-1.03-5ZM72.361,23.958a.821.821,0,0,1,.517-1.375,6.3,6.3,0,0,1,5.53,2.261c-.991,1.547-2.019,3.2-2.948,4.911a13.642,13.642,0,0,0-3.1-5.8ZM95.74,41.584l-4.863,8.179a.819.819,0,0,0-.115.419v1.91H79.856v-.482c0-3.039-1.287-3.915-2.531-4.762a6.95,6.95,0,0,1-2.463-2.5c-3.341-5.86,1.988-14.085,5.879-20.09.8-1.24,1.562-2.411,2.178-3.457a2.085,2.085,0,0,1,3.592,2.117l-4.97,8.434c-.006.01-.01.019-.015.029l-3.041,5.163a.821.821,0,1,0,1.414.833l3.056-5.189.008-.015a2.089,2.089,0,0,1,2.845-.724,2.091,2.091,0,0,1,.738,2.854l-3.055,5.187a.821.821,0,1,0,1.414.833l2.872-4.875.012-.018a2.083,2.083,0,0,1,3.589,2.117l-.644,1.093a.818.818,0,0,0-.088.214l-2.723,4.623a.821.821,0,1,0,1.414.833L92.347,39.2a2.375,2.375,0,0,1,2.943-.363c.462.272,1.431,1.086.451,2.751Zm-23.489-24.4a.821.821,0,0,1,1.3-1L75.17,18.3a.821.821,0,1,1-1.3,1Z" transform="translate(-70.495 -0.5)"/>
</svg>
